<svg width="175" height="82" viewBox="0 0 175 82" fill="none" xmlns="http://www.w3.org/2000/svg">
<g filter="url(#filter0_f_1134_18697)">
<circle cx="87.2465" cy="21.2291" r="15.207" transform="rotate(-34.7184 87.2465 21.2291)" fill="url(#paint0_linear_1134_18697)"/>
</g>
<path d="M18.6092 75.8887L17.4183 71.9788H11.4299L10.239 75.8887H6.48643L12.2838 59.3954H16.5419L22.3618 75.8887H18.6092ZM16.5869 69.0577L15.3959 65.2377C15.321 64.9831 15.2199 64.6572 15.0926 64.2603C14.9727 63.8558 14.8492 63.4476 14.7218 63.0356C14.602 62.6162 14.5046 62.2529 14.4297 61.9458C14.3548 62.2529 14.2499 62.6349 14.1151 63.0918C13.9878 63.5412 13.8642 63.9681 13.7444 64.3726C13.6245 64.7771 13.5384 65.0654 13.486 65.2377L12.3063 69.0577H16.5869ZM28.1479 76.1134C26.7472 76.1134 25.605 75.5666 24.7211 74.473C23.8448 73.372 23.4066 71.7579 23.4066 69.6307C23.4066 67.481 23.8523 65.8557 24.7436 64.7546C25.6349 63.6461 26.7996 63.0918 28.2378 63.0918C28.837 63.0918 29.365 63.1742 29.8219 63.339C30.2788 63.5038 30.672 63.7247 31.0016 64.0018C31.3387 64.279 31.6233 64.5898 31.8555 64.9344H31.9678C31.9229 64.6947 31.8667 64.3426 31.7993 63.8783C31.7394 63.4064 31.7094 62.9233 31.7094 62.4289V58.4067H35.1474V75.8887H32.5184L31.8555 74.2596H31.7094C31.4922 74.6041 31.2188 74.9187 30.8893 75.2033C30.5672 75.4805 30.1814 75.7014 29.732 75.8662C29.2826 76.031 28.7546 76.1134 28.1479 76.1134ZM29.35 73.3832C30.2863 73.3832 30.9454 73.1061 31.3274 72.5518C31.7169 71.9901 31.9229 71.1474 31.9454 70.0239V69.6531C31.9454 68.4323 31.7581 67.4997 31.3836 66.8556C31.0091 66.2039 30.3125 65.8781 29.2939 65.8781C28.5374 65.8781 27.9456 66.2039 27.5187 66.8556C27.0918 67.5072 26.8783 68.4472 26.8783 69.6756C26.8783 70.904 27.0918 71.829 27.5187 72.4507C27.9531 73.0724 28.5636 73.3832 29.35 73.3832ZM43.8771 63.0693C45.5624 63.0693 46.8545 63.4363 47.7533 64.1704C48.6521 64.9044 49.1015 66.0204 49.1015 67.5185V75.8887H46.7084L46.0455 74.1809H45.9556C45.5961 74.6303 45.2291 74.9973 44.8546 75.282C44.4801 75.5666 44.0494 75.7763 43.5625 75.9111C43.0757 76.046 42.484 76.1134 41.7874 76.1134C41.0459 76.1134 40.3792 75.9711 39.7875 75.6864C39.2033 75.4018 38.7426 74.9674 38.4056 74.3832C38.0685 73.7914 37.9 73.0424 37.9 72.1361C37.9 70.8029 38.3681 69.8217 39.3044 69.1925C40.2407 68.5558 41.6451 68.2038 43.5176 68.1364L45.6972 68.069V67.5185C45.6972 66.8593 45.525 66.3762 45.1804 66.0691C44.8359 65.762 44.3565 65.6085 43.7423 65.6085C43.1356 65.6085 42.5401 65.6946 41.9559 65.8669C41.3717 66.0392 40.7875 66.2564 40.2032 66.5185L39.0685 64.2041C39.7351 63.852 40.4804 63.5749 41.3043 63.3727C42.1357 63.1704 42.9933 63.0693 43.8771 63.0693ZM45.6972 70.0688L44.3715 70.1138C43.2629 70.1437 42.4915 70.3422 42.057 70.7093C41.6301 71.0763 41.4166 71.5594 41.4166 72.1586C41.4166 72.6829 41.5702 73.0574 41.8773 73.2821C42.1844 73.4993 42.5851 73.6079 43.0794 73.6079C43.8135 73.6079 44.4314 73.3907 44.9332 72.9563C45.4426 72.5219 45.6972 71.9039 45.6972 71.1025V70.0688ZM59.6289 63.0918C61.0445 63.0918 62.1867 63.6423 63.0556 64.7434C63.9319 65.8444 64.3701 67.4585 64.3701 69.5857C64.3701 71.0089 64.1641 72.2073 63.7522 73.181C63.3402 74.1472 62.771 74.8775 62.0444 75.3719C61.3179 75.8662 60.4827 76.1134 59.539 76.1134C58.9323 76.1134 58.4117 76.0385 57.9773 75.8887C57.5429 75.7314 57.1721 75.5329 56.865 75.2932C56.5579 75.046 56.292 74.7839 56.0673 74.5067H55.8875C55.9475 74.8063 55.9924 75.1134 56.0224 75.428C56.0523 75.7426 56.0673 76.0497 56.0673 76.3493V81.4164H52.6406V63.3277H55.4269L55.91 64.9568H56.0673C56.292 64.6198 56.5654 64.3089 56.8875 64.0243C57.2095 63.7397 57.5953 63.515 58.0447 63.3502C58.5016 63.1779 59.0296 63.0918 59.6289 63.0918ZM58.5278 65.8332C57.9286 65.8332 57.453 65.9568 57.1009 66.2039C56.7489 66.4511 56.4905 66.8219 56.3257 67.3162C56.1684 67.8106 56.0823 68.436 56.0673 69.1925V69.5633C56.0673 70.3722 56.1422 71.0575 56.292 71.6193C56.4493 72.1811 56.7077 72.608 57.0672 72.9001C57.4343 73.1922 57.9361 73.3383 58.5728 73.3383C59.0971 73.3383 59.5277 73.1922 59.8648 72.9001C60.2019 72.608 60.4528 72.1811 60.6176 71.6193C60.7898 71.0501 60.876 70.3572 60.876 69.5408C60.876 68.3124 60.685 67.3874 60.303 66.7657C59.921 66.144 59.3293 65.8332 58.5278 65.8332ZM72.4931 73.3832C72.8677 73.3832 73.2309 73.3458 73.583 73.2709C73.9425 73.196 74.2983 73.1023 74.6503 72.99V75.5404C74.2833 75.7052 73.8264 75.84 73.2796 75.9448C72.7403 76.0572 72.1486 76.1134 71.5045 76.1134C70.7554 76.1134 70.0813 75.9935 69.4821 75.7538C68.8904 75.5067 68.4223 75.0835 68.0777 74.4843C67.7407 73.8776 67.5721 73.0349 67.5721 71.9564V65.9006H65.9318V64.4513L67.8193 63.3053L68.808 60.6538H70.9989V63.3277H74.5155V65.9006H70.9989V71.9564C70.9989 72.4357 71.1337 72.7953 71.4033 73.0349C71.6805 73.2671 72.0437 73.3832 72.4931 73.3832ZM82.3464 63.0693C84.0317 63.0693 85.3237 63.4363 86.2225 64.1704C87.1214 64.9044 87.5708 66.0204 87.5708 67.5185V75.8887H85.1777L84.5148 74.1809H84.4249C84.0654 74.6303 83.6984 74.9973 83.3239 75.282C82.9494 75.5666 82.5187 75.7763 82.0318 75.9111C81.545 76.046 80.9532 76.1134 80.2567 76.1134C79.5151 76.1134 78.8485 75.9711 78.2568 75.6864C77.6726 75.4018 77.2119 74.9674 76.8749 74.3832C76.5378 73.7914 76.3693 73.0424 76.3693 72.1361C76.3693 70.8029 76.8374 69.8217 77.7737 69.1925C78.71 68.5558 80.1143 68.2038 81.9869 68.1364L84.1665 68.069V67.5185C84.1665 66.8593 83.9942 66.3762 83.6497 66.0691C83.3051 65.762 82.8258 65.6085 82.2116 65.6085C81.6049 65.6085 81.0094 65.6946 80.4252 65.8669C79.841 66.0392 79.2567 66.2564 78.6725 66.5185L77.5377 64.2041C78.2044 63.852 78.9496 63.5749 79.7735 63.3727C80.605 63.1704 81.4626 63.0693 82.3464 63.0693ZM84.1665 70.0688L82.8408 70.1138C81.7322 70.1437 80.9607 70.3422 80.5263 70.7093C80.0994 71.0763 79.8859 71.5594 79.8859 72.1586C79.8859 72.6829 80.0394 73.0574 80.3465 73.2821C80.6536 73.4993 81.0544 73.6079 81.5487 73.6079C82.2827 73.6079 82.9007 73.3907 83.4025 72.9563C83.9118 72.5219 84.1665 71.9039 84.1665 71.1025V70.0688ZM94.5366 58.4067V62.4739C94.5366 62.9457 94.5216 63.4139 94.4916 63.8783C94.4692 64.3426 94.4392 64.7022 94.4018 64.9568H94.5366C94.8661 64.44 95.3156 64.0018 95.8848 63.6423C96.4541 63.2753 97.1918 63.0918 98.0981 63.0918C99.5063 63.0918 100.649 63.6423 101.525 64.7434C102.401 65.8444 102.839 67.4585 102.839 69.5857C102.839 71.0163 102.637 72.2185 102.233 73.1922C101.828 74.1585 101.263 74.8887 100.536 75.3831C99.8096 75.8699 98.967 76.1134 98.0083 76.1134C97.087 76.1134 96.3604 75.9486 95.8286 75.619C95.2968 75.2895 94.8661 74.9187 94.5366 74.5067H94.3006L93.7276 75.8887H91.1098V58.4067H94.5366ZM96.9971 65.8332C96.3979 65.8332 95.9223 65.9568 95.5702 66.2039C95.2182 66.4511 94.9598 66.8219 94.795 67.3162C94.6377 67.8106 94.5516 68.436 94.5366 69.1925V69.5633C94.5366 70.7842 94.7163 71.7204 95.0759 72.3721C95.4354 73.0162 96.0908 73.3383 97.042 73.3383C97.7461 73.3383 98.3041 73.0125 98.7161 72.3608C99.1355 71.7092 99.3452 70.7692 99.3452 69.5408C99.3452 68.3124 99.1355 67.3874 98.7161 66.7657C98.2966 66.144 97.7236 65.8332 96.9971 65.8332ZM109.097 63.3277V75.8887H105.671V63.3277H109.097ZM107.39 58.4067C107.899 58.4067 108.337 58.5266 108.704 58.7662C109.071 58.9984 109.255 59.4366 109.255 60.0808C109.255 60.7174 109.071 61.1593 108.704 61.4065C108.337 61.6462 107.899 61.766 107.39 61.766C106.873 61.766 106.431 61.6462 106.064 61.4065C105.704 61.1593 105.525 60.7174 105.525 60.0808C105.525 59.4366 105.704 58.9984 106.064 58.7662C106.431 58.5266 106.873 58.4067 107.39 58.4067ZM116.131 75.8887H112.704V58.4067H116.131V75.8887ZM123.164 63.3277V75.8887H119.737V63.3277H123.164ZM121.456 58.4067C121.965 58.4067 122.404 58.5266 122.771 58.7662C123.138 58.9984 123.321 59.4366 123.321 60.0808C123.321 60.7174 123.138 61.1593 122.771 61.4065C122.404 61.6462 121.965 61.766 121.456 61.766C120.939 61.766 120.497 61.6462 120.13 61.4065C119.771 61.1593 119.591 60.7174 119.591 60.0808C119.591 59.4366 119.771 58.9984 120.13 58.7662C120.497 58.5266 120.939 58.4067 121.456 58.4067ZM130.748 76.1134C129.347 76.1134 128.205 75.5666 127.321 74.473C126.445 73.372 126.006 71.7579 126.006 69.6307C126.006 67.481 126.452 65.8557 127.343 64.7546C128.235 63.6461 129.399 63.0918 130.837 63.0918C131.437 63.0918 131.965 63.1742 132.422 63.339C132.879 63.5038 133.272 63.7247 133.601 64.0018C133.938 64.279 134.223 64.5898 134.455 64.9344H134.568C134.523 64.6947 134.466 64.3426 134.399 63.8783C134.339 63.4064 134.309 62.9233 134.309 62.4289V58.4067H137.747V75.8887H135.118L134.455 74.2596H134.309C134.092 74.6041 133.819 74.9187 133.489 75.2033C133.167 75.4805 132.781 75.7014 132.332 75.8662C131.882 76.031 131.354 76.1134 130.748 76.1134ZM131.95 73.3832C132.886 73.3832 133.545 73.1061 133.927 72.5518C134.317 71.9901 134.523 71.1474 134.545 70.0239V69.6531C134.545 68.4323 134.358 67.4997 133.983 66.8556C133.609 66.2039 132.912 65.8781 131.894 65.8781C131.137 65.8781 130.545 66.2039 130.118 66.8556C129.691 67.5072 129.478 68.4472 129.478 69.6756C129.478 70.904 129.691 71.829 130.118 72.4507C130.553 73.0724 131.163 73.3832 131.95 73.3832ZM146.477 63.0693C148.162 63.0693 149.454 63.4363 150.353 64.1704C151.252 64.9044 151.701 66.0204 151.701 67.5185V75.8887H149.308L148.645 74.1809H148.555C148.196 74.6303 147.829 74.9973 147.454 75.282C147.08 75.5666 146.649 75.7763 146.162 75.9111C145.675 76.046 145.084 76.1134 144.387 76.1134C143.646 76.1134 142.979 75.9711 142.387 75.6864C141.803 75.4018 141.342 74.9674 141.005 74.3832C140.668 73.7914 140.5 73.0424 140.5 72.1361C140.5 70.8029 140.968 69.8217 141.904 69.1925C142.84 68.5558 144.245 68.2038 146.117 68.1364L148.297 68.069V67.5185C148.297 66.8593 148.125 66.3762 147.78 66.0691C147.436 65.762 146.956 65.6085 146.342 65.6085C145.735 65.6085 145.14 65.6946 144.556 65.8669C143.971 66.0392 143.387 66.2564 142.803 66.5185L141.668 64.2041C142.335 63.852 143.08 63.5749 143.904 63.3727C144.735 63.1704 145.593 63.0693 146.477 63.0693ZM148.297 70.0688L146.971 70.1138C145.863 70.1437 145.091 70.3422 144.657 70.7093C144.23 71.0763 144.016 71.5594 144.016 72.1586C144.016 72.6829 144.17 73.0574 144.477 73.2821C144.784 73.4993 145.185 73.6079 145.679 73.6079C146.413 73.6079 147.031 73.3907 147.533 72.9563C148.042 72.5219 148.297 71.9039 148.297 71.1025V70.0688ZM159.218 76.1134C157.817 76.1134 156.675 75.5666 155.791 74.473C154.914 73.372 154.476 71.7579 154.476 69.6307C154.476 67.481 154.922 65.8557 155.813 64.7546C156.705 63.6461 157.869 63.0918 159.307 63.0918C159.907 63.0918 160.435 63.1742 160.892 63.339C161.348 63.5038 161.742 63.7247 162.071 64.0018C162.408 64.279 162.693 64.5898 162.925 64.9344H163.038C162.993 64.6947 162.936 64.3426 162.869 63.8783C162.809 63.4064 162.779 62.9233 162.779 62.4289V58.4067H166.217V75.8887H163.588L162.925 74.2596H162.779C162.562 74.6041 162.288 74.9187 161.959 75.2033C161.637 75.4805 161.251 75.7014 160.802 75.8662C160.352 76.031 159.824 76.1134 159.218 76.1134ZM160.42 73.3832C161.356 73.3832 162.015 73.1061 162.397 72.5518C162.787 71.9901 162.993 71.1474 163.015 70.0239V69.6531C163.015 68.4323 162.828 67.4997 162.453 66.8556C162.079 66.2039 161.382 65.8781 160.364 65.8781C159.607 65.8781 159.015 66.2039 158.588 66.8556C158.161 67.5072 157.948 68.4472 157.948 69.6756C157.948 70.904 158.161 71.829 158.588 72.4507C159.023 73.0724 159.633 73.3832 160.42 73.3832Z" fill="#FDFDFD"/>
<defs>
<filter id="filter0_f_1134_18697" x="66.518" y="0.500449" width="41.4561" height="41.4581" filterUnits="userSpaceOnUse" color-interpolation-filters="sRGB">
<feFlood flood-opacity="0" result="BackgroundImageFix"/>
<feBlend mode="normal" in="SourceGraphic" in2="BackgroundImageFix" result="shape"/>
<feGaussianBlur stdDeviation="2.76052" result="effect1_foregroundBlur_1134_18697"/>
</filter>
<linearGradient id="paint0_linear_1134_18697" x1="72.0396" y1="11.3783" x2="102.609" y2="11.8723" gradientUnits="userSpaceOnUse">
<stop stop-color="#E06C75"/>
<stop offset="1" stop-color="#6B90DF"/>
</linearGradient>
</defs>
</svg>
