<svg width="173" height="82" viewBox="0 0 173 82" fill="none" xmlns="http://www.w3.org/2000/svg">
<g filter="url(#filter0_f_1134_18660)">
<circle cx="86.2817" cy="21.4049" r="15.207" transform="rotate(-34.7184 86.2817 21.4049)" fill="url(#paint0_linear_1134_18660)"/>
</g>
<path d="M19.6953 62.3014C19.0286 62.3014 18.4369 62.4324 17.9201 62.6946C17.4108 62.9492 16.9801 63.32 16.6281 63.8069C16.2835 64.2937 16.0214 64.8817 15.8416 65.5708C15.6618 66.2599 15.572 67.0351 15.572 67.8965C15.572 69.0574 15.7143 70.0499 15.9989 70.8738C16.291 71.6902 16.7404 72.3156 17.3471 72.7501C17.9538 73.177 18.7365 73.3905 19.6953 73.3905C20.3619 73.3905 21.0285 73.3156 21.6951 73.1658C22.3692 73.016 23.0995 72.8025 23.886 72.5254V75.4465C23.1594 75.7461 22.4441 75.9596 21.7401 76.0869C21.036 76.2217 20.2458 76.2892 19.3694 76.2892C17.6767 76.2892 16.2835 75.9409 15.19 75.2443C14.1039 74.5402 13.2987 73.559 12.7744 72.3007C12.2501 71.0348 11.9879 69.5593 11.9879 67.874C11.9879 66.6306 12.1565 65.4921 12.4935 64.4585C12.8306 63.4249 13.3249 62.5298 13.9766 61.7733C14.6282 61.0168 15.4334 60.4326 16.3921 60.0206C17.3509 59.6087 18.4519 59.4027 19.6953 59.4027C20.5117 59.4027 21.3281 59.5075 22.1445 59.7173C22.9684 59.9195 23.7549 60.2004 24.5039 60.5599L23.3804 63.3912C22.7662 63.099 22.1483 62.8444 21.5266 62.6272C20.9049 62.41 20.2945 62.3014 19.6953 62.3014ZM38.5367 69.7615C38.5367 70.8101 38.3944 71.7389 38.1097 72.5478C37.8326 73.3568 37.4244 74.0421 36.8851 74.6039C36.3533 75.1581 35.7091 75.5776 34.9526 75.8622C34.2036 76.1468 33.3573 76.2892 32.4135 76.2892C31.5297 76.2892 30.717 76.1468 29.9755 75.8622C29.2414 75.5776 28.601 75.1581 28.0542 74.6039C27.515 74.0421 27.0955 73.3568 26.7959 72.5478C26.5038 71.7389 26.3577 70.8101 26.3577 69.7615C26.3577 68.3684 26.6049 67.1887 27.0993 66.2224C27.5936 65.2562 28.2977 64.5222 29.2115 64.0203C30.1253 63.5185 31.2151 63.2676 32.4809 63.2676C33.6569 63.2676 34.698 63.5185 35.6043 64.0203C36.5181 64.5222 37.2334 65.2562 37.7502 66.2224C38.2745 67.1887 38.5367 68.3684 38.5367 69.7615ZM29.8519 69.7615C29.8519 70.5854 29.9418 71.2783 30.1215 71.84C30.3013 72.4018 30.5822 72.825 30.9642 73.1096C31.3462 73.3942 31.8442 73.5365 32.4584 73.5365C33.0651 73.5365 33.5557 73.3942 33.9302 73.1096C34.3122 72.825 34.5894 72.4018 34.7616 71.84C34.9414 71.2783 35.0313 70.5854 35.0313 69.7615C35.0313 68.9301 34.9414 68.241 34.7616 67.6942C34.5894 67.14 34.3122 66.7243 33.9302 66.4471C33.5482 66.17 33.0502 66.0314 32.436 66.0314C31.5297 66.0314 30.8705 66.3423 30.4586 66.964C30.0541 67.5856 29.8519 68.5182 29.8519 69.7615ZM44.7947 76.0645H41.3679V58.5825H44.7947V76.0645ZM53.5469 63.2451C55.2322 63.2451 56.5242 63.6121 57.423 64.3462C58.3218 65.0802 58.7712 66.1962 58.7712 67.6942V76.0645H56.3781L55.7153 74.3567H55.6254C55.2659 74.8061 54.8988 75.1731 54.5243 75.4578C54.1498 75.7424 53.7191 75.9521 53.2323 76.0869C52.7454 76.2217 52.1537 76.2892 51.4571 76.2892C50.7156 76.2892 50.049 76.1468 49.4573 75.8622C48.873 75.5776 48.4124 75.1432 48.0753 74.5589C47.7383 73.9672 47.5698 73.2182 47.5698 72.3119C47.5698 70.9787 48.0379 69.9975 48.9742 69.3683C49.9104 68.7316 51.3148 68.3796 53.1873 68.3122L55.367 68.2448V67.6942C55.367 67.0351 55.1947 66.552 54.8502 66.2449C54.5056 65.9378 54.0262 65.7843 53.4121 65.7843C52.8054 65.7843 52.2099 65.8704 51.6257 66.0427C51.0414 66.2149 50.4572 66.4322 49.873 66.6943L48.7382 64.3799C49.4048 64.0278 50.1501 63.7507 50.974 63.5485C51.8054 63.3462 52.663 63.2451 53.5469 63.2451ZM55.367 70.2446L54.0412 70.2896C52.9327 70.3195 52.1612 70.518 51.7268 70.885C51.2998 71.252 51.0864 71.7352 51.0864 72.3344C51.0864 72.8587 51.2399 73.2332 51.547 73.4579C51.8541 73.6751 52.2548 73.7837 52.7492 73.7837C53.4832 73.7837 54.1011 73.5665 54.603 73.1321C55.1123 72.6976 55.367 72.0797 55.367 71.2783V70.2446ZM65.7371 58.5825V62.6496C65.7371 63.1215 65.7221 63.5897 65.6921 64.054C65.6696 64.5184 65.6397 64.878 65.6022 65.1326H65.7371C66.0666 64.6158 66.516 64.1776 67.0853 63.8181C67.6545 63.4511 68.3923 63.2676 69.2986 63.2676C70.7067 63.2676 71.849 63.8181 72.7253 64.9191C73.6017 66.0202 74.0399 67.6343 74.0399 69.7615C74.0399 71.1921 73.8376 72.3943 73.4332 73.368C73.0287 74.3342 72.4632 75.0645 71.7366 75.5589C71.0101 76.0457 70.1675 76.2892 69.2087 76.2892C68.2874 76.2892 67.5609 76.1244 67.0291 75.7948C66.4973 75.4652 66.0666 75.0945 65.7371 74.6825H65.5011L64.9281 76.0645H62.3103V58.5825H65.7371ZM68.1976 66.009C67.5983 66.009 67.1227 66.1325 66.7707 66.3797C66.4187 66.6269 66.1602 66.9977 65.9955 67.492C65.8382 67.9864 65.752 68.6118 65.7371 69.3683V69.739C65.7371 70.9599 65.9168 71.8962 66.2763 72.5478C66.6359 73.192 67.2913 73.5141 68.2425 73.5141C68.9466 73.5141 69.5046 73.1882 69.9165 72.5366C70.336 71.885 70.5457 70.945 70.5457 69.7166C70.5457 68.4882 70.336 67.5632 69.9165 66.9415C69.4971 66.3198 68.9241 66.009 68.1976 66.009ZM88.2861 69.7615C88.2861 70.8101 88.1438 71.7389 87.8591 72.5478C87.582 73.3568 87.1738 74.0421 86.6345 74.6039C86.1027 75.1581 85.4585 75.5776 84.702 75.8622C83.953 76.1468 83.1067 76.2892 82.1629 76.2892C81.2791 76.2892 80.4664 76.1468 79.7249 75.8622C78.9908 75.5776 78.3504 75.1581 77.8036 74.6039C77.2644 74.0421 76.8449 73.3568 76.5453 72.5478C76.2532 71.7389 76.1071 70.8101 76.1071 69.7615C76.1071 68.3684 76.3543 67.1887 76.8487 66.2224C77.343 65.2562 78.0471 64.5222 78.9609 64.0203C79.8747 63.5185 80.9645 63.2676 82.2303 63.2676C83.4063 63.2676 84.4474 63.5185 85.3537 64.0203C86.2675 64.5222 86.9828 65.2562 87.4996 66.2224C88.0239 67.1887 88.2861 68.3684 88.2861 69.7615ZM79.6013 69.7615C79.6013 70.5854 79.6912 71.2783 79.8709 71.84C80.0507 72.4018 80.3316 72.825 80.7136 73.1096C81.0956 73.3942 81.5936 73.5365 82.2078 73.5365C82.8145 73.5365 83.3051 73.3942 83.6796 73.1096C84.0616 72.825 84.3388 72.4018 84.511 71.84C84.6908 71.2783 84.7807 70.5854 84.7807 69.7615C84.7807 68.9301 84.6908 68.241 84.511 67.6942C84.3388 67.14 84.0616 66.7243 83.6796 66.4471C83.2976 66.17 82.7996 66.0314 82.1854 66.0314C81.2791 66.0314 80.6199 66.3423 80.208 66.964C79.8035 67.5856 79.6013 68.5182 79.6013 69.7615ZM98.1281 63.2676C98.3004 63.2676 98.4988 63.2788 98.7236 63.3013C98.9557 63.3163 99.143 63.3387 99.2853 63.3687L99.0269 66.582C98.9146 66.5445 98.7535 66.5183 98.5438 66.5033C98.3416 66.4808 98.1655 66.4696 98.0157 66.4696C97.5738 66.4696 97.1431 66.5258 96.7237 66.6381C96.3117 66.7505 95.941 66.934 95.6114 67.1887C95.2818 67.4358 95.0197 67.7654 94.8249 68.1774C94.6377 68.5818 94.5441 69.0799 94.5441 69.6716V76.0645H91.1173V63.5035H93.7127L94.2182 65.6157H94.3868C94.6339 65.1888 94.941 64.7993 95.3081 64.4473C95.6826 64.0877 96.1058 63.8031 96.5776 63.5934C97.057 63.3762 97.5738 63.2676 98.1281 63.2676ZM106.712 63.2451C108.397 63.2451 109.689 63.6121 110.588 64.3462C111.487 65.0802 111.936 66.1962 111.936 67.6942V76.0645H109.543L108.88 74.3567H108.79C108.431 74.8061 108.064 75.1731 107.689 75.4578C107.315 75.7424 106.884 75.9521 106.397 76.0869C105.91 76.2217 105.319 76.2892 104.622 76.2892C103.881 76.2892 103.214 76.1468 102.622 75.8622C102.038 75.5776 101.577 75.1432 101.24 74.5589C100.903 73.9672 100.735 73.2182 100.735 72.3119C100.735 70.9787 101.203 69.9975 102.139 69.3683C103.075 68.7316 104.48 68.3796 106.352 68.3122L108.532 68.2448V67.6942C108.532 67.0351 108.36 66.552 108.015 66.2449C107.671 65.9378 107.191 65.7843 106.577 65.7843C105.97 65.7843 105.375 65.8704 104.791 66.0427C104.206 66.2149 103.622 66.4322 103.038 66.6943L101.903 64.3799C102.57 64.0278 103.315 63.7507 104.139 63.5485C104.97 63.3462 105.828 63.2451 106.712 63.2451ZM108.532 70.2446L107.206 70.2896C106.098 70.3195 105.326 70.518 104.892 70.885C104.465 71.252 104.251 71.7352 104.251 72.3344C104.251 72.8587 104.405 73.2332 104.712 73.4579C105.019 73.6751 105.42 73.7837 105.914 73.7837C106.648 73.7837 107.266 73.5665 107.768 73.1321C108.277 72.6976 108.532 72.0797 108.532 71.2783V70.2446ZM120.576 76.2892C119.333 76.2892 118.273 76.0645 117.396 75.615C116.52 75.1581 115.853 74.4541 115.397 73.5028C114.94 72.5516 114.711 71.3344 114.711 69.8514C114.711 68.3159 114.97 67.0651 115.486 66.0988C116.011 65.1251 116.734 64.4098 117.655 63.9529C118.584 63.496 119.658 63.2676 120.879 63.2676C121.748 63.2676 122.497 63.3537 123.126 63.526C123.763 63.6908 124.317 63.8893 124.789 64.1215L123.778 66.773C123.239 66.5557 122.737 66.3797 122.273 66.2449C121.808 66.1026 121.344 66.0314 120.879 66.0314C120.28 66.0314 119.782 66.1737 119.385 66.4584C118.988 66.7355 118.692 67.155 118.497 67.7167C118.303 68.2785 118.205 68.9825 118.205 69.8289C118.205 70.6603 118.31 71.3494 118.52 71.8962C118.73 72.443 119.033 72.8512 119.43 73.1208C119.827 73.383 120.31 73.5141 120.879 73.5141C121.591 73.5141 122.224 73.4204 122.778 73.2332C123.332 73.0384 123.872 72.7688 124.396 72.4243V75.3566C123.872 75.6862 123.321 75.9221 122.744 76.0645C122.175 76.2143 121.452 76.2892 120.576 76.2892ZM130.744 63.5035V76.0645H127.317V63.5035H130.744ZM129.036 58.5825C129.545 58.5825 129.984 58.7023 130.351 58.942C130.718 59.1742 130.901 59.6124 130.901 60.2565C130.901 60.8932 130.718 61.3351 130.351 61.5823C129.984 61.822 129.545 61.9418 129.036 61.9418C128.519 61.9418 128.077 61.822 127.71 61.5823C127.351 61.3351 127.171 60.8932 127.171 60.2565C127.171 59.6124 127.351 59.1742 127.71 58.942C128.077 58.7023 128.519 58.5825 129.036 58.5825ZM145.765 69.7615C145.765 70.8101 145.623 71.7389 145.338 72.5478C145.061 73.3568 144.653 74.0421 144.114 74.6039C143.582 75.1581 142.938 75.5776 142.181 75.8622C141.432 76.1468 140.586 76.2892 139.642 76.2892C138.758 76.2892 137.946 76.1468 137.204 75.8622C136.47 75.5776 135.83 75.1581 135.283 74.6039C134.744 74.0421 134.324 73.3568 134.025 72.5478C133.732 71.7389 133.586 70.8101 133.586 69.7615C133.586 68.3684 133.834 67.1887 134.328 66.2224C134.822 65.2562 135.526 64.5222 136.44 64.0203C137.354 63.5185 138.444 63.2676 139.71 63.2676C140.885 63.2676 141.927 63.5185 142.833 64.0203C143.747 64.5222 144.462 65.2562 144.979 66.2224C145.503 67.1887 145.765 68.3684 145.765 69.7615ZM137.08 69.7615C137.08 70.5854 137.17 71.2783 137.35 71.84C137.53 72.4018 137.811 72.825 138.193 73.1096C138.575 73.3942 139.073 73.5365 139.687 73.5365C140.294 73.5365 140.784 73.3942 141.159 73.1096C141.541 72.825 141.818 72.4018 141.99 71.84C142.17 71.2783 142.26 70.5854 142.26 69.7615C142.26 68.9301 142.17 68.241 141.99 67.6942C141.818 67.14 141.541 66.7243 141.159 66.4471C140.777 66.17 140.279 66.0314 139.665 66.0314C138.758 66.0314 138.099 66.3423 137.687 66.964C137.283 67.5856 137.08 68.5182 137.08 69.7615ZM144.102 58.4364V58.6724C143.885 58.8821 143.601 59.1405 143.249 59.4476C142.897 59.7547 142.518 60.0768 142.114 60.4138C141.709 60.7434 141.312 61.0617 140.923 61.3688C140.533 61.6684 140.193 61.9194 139.901 62.1216H137.62V61.8182C137.867 61.5336 138.152 61.1966 138.474 60.8071C138.803 60.4101 139.129 60.0019 139.451 59.5824C139.773 59.163 140.043 58.781 140.26 58.4364H144.102ZM155.731 63.2676C157.072 63.2676 158.15 63.6346 158.967 64.3686C159.783 65.0952 160.191 66.2636 160.191 67.874V76.0645H156.765V68.7279C156.765 67.8291 156.6 67.1512 156.27 66.6943C155.948 66.2374 155.439 66.009 154.742 66.009C153.694 66.009 152.978 66.3647 152.596 67.0763C152.214 67.7879 152.023 68.814 152.023 70.1547V76.0645H148.597V63.5035H151.214L151.675 65.1101H151.866C152.136 64.6757 152.469 64.3237 152.866 64.054C153.27 63.7844 153.716 63.5859 154.203 63.4586C154.697 63.3312 155.207 63.2676 155.731 63.2676Z" fill="#FDFDFD"/>
<defs>
<filter id="filter0_f_1134_18660" x="65.5532" y="0.67623" width="41.4561" height="41.4581" filterUnits="userSpaceOnUse" color-interpolation-filters="sRGB">
<feFlood flood-opacity="0" result="BackgroundImageFix"/>
<feBlend mode="normal" in="SourceGraphic" in2="BackgroundImageFix" result="shape"/>
<feGaussianBlur stdDeviation="2.76052" result="effect1_foregroundBlur_1134_18660"/>
</filter>
<linearGradient id="paint0_linear_1134_18660" x1="71.0747" y1="11.554" x2="101.645" y2="12.0481" gradientUnits="userSpaceOnUse">
<stop stop-color="#E06C75"/>
<stop offset="1" stop-color="#6B90DF"/>
</linearGradient>
</defs>
</svg>
