<svg width="190" height="102" viewBox="0 0 190 102" fill="none" xmlns="http://www.w3.org/2000/svg">
<g filter="url(#filter0_f_1134_18723)">
<circle cx="94.9255" cy="20.4358" r="14.3391" transform="rotate(-34.7184 94.9255 20.4358)" fill="url(#paint0_linear_1134_18723)"/>
</g>
<path d="M26.6967 59.2607C26.0681 59.2607 25.5102 59.3843 25.0229 59.6315C24.5426 59.8716 24.1365 60.2212 23.8046 60.6803C23.4797 61.1394 23.2325 61.6938 23.063 62.3435C22.8935 62.9933 22.8087 63.7243 22.8087 64.5365C22.8087 65.6312 22.9429 66.567 23.2113 67.3439C23.4868 68.1137 23.9105 68.7034 24.4826 69.1131C25.0547 69.5156 25.7927 69.7169 26.6967 69.7169C27.3253 69.7169 27.9539 69.6463 28.5824 69.505C29.2181 69.3638 29.9067 69.1625 30.6483 68.9012V71.6556C29.9632 71.9381 29.2887 72.1394 28.6248 72.2595C27.9609 72.3866 27.2158 72.4502 26.3895 72.4502C24.7933 72.4502 23.4797 72.1217 22.4485 71.4649C21.4245 70.801 20.6652 69.8758 20.1708 68.6893C19.6765 67.4957 19.4293 66.1044 19.4293 64.5153C19.4293 63.3429 19.5882 62.2694 19.906 61.2947C20.2238 60.3201 20.69 59.4761 21.3044 58.7628C21.9189 58.0495 22.6781 57.4986 23.5821 57.1101C24.4861 56.7217 25.5243 56.5275 26.6967 56.5275C27.4665 56.5275 28.2364 56.6263 29.0062 56.8241C29.7831 57.0148 30.5247 57.2796 31.2309 57.6186L30.1715 60.2883C29.5924 60.0129 29.0097 59.7727 28.4235 59.5679C27.8373 59.3631 27.2617 59.2607 26.6967 59.2607ZM44.4628 66.2951C44.4628 67.2838 44.3286 68.1596 44.0602 68.9224C43.7989 69.6851 43.414 70.3314 42.9055 70.8611C42.404 71.3837 41.7966 71.7792 41.0833 72.0476C40.377 72.316 39.579 72.4502 38.6891 72.4502C37.8557 72.4502 37.0894 72.316 36.3902 72.0476C35.698 71.7792 35.0942 71.3837 34.5786 70.8611C34.0701 70.3314 33.6746 69.6851 33.3921 68.9224C33.1167 68.1596 32.9789 67.2838 32.9789 66.2951C32.9789 64.9814 33.212 63.8691 33.6781 62.958C34.1443 62.0469 34.8082 61.3548 35.6698 60.8816C36.5314 60.4084 37.559 60.1718 38.7526 60.1718C39.8615 60.1718 40.8432 60.4084 41.6977 60.8816C42.5594 61.3548 43.2339 62.0469 43.7212 62.958C44.2156 63.8691 44.4628 64.9814 44.4628 66.2951ZM36.2736 66.2951C36.2736 67.072 36.3584 67.7253 36.5279 68.255C36.6974 68.7847 36.9623 69.1837 37.3224 69.4521C37.6826 69.7205 38.1523 69.8546 38.7314 69.8546C39.3035 69.8546 39.7661 69.7205 40.1192 69.4521C40.4794 69.1837 40.7408 68.7847 40.9032 68.255C41.0727 67.7253 41.1575 67.072 41.1575 66.2951C41.1575 65.5111 41.0727 64.8614 40.9032 64.3458C40.7408 63.8232 40.4794 63.4312 40.1192 63.1699C39.7591 62.9085 39.2894 62.7779 38.7103 62.7779C37.8557 62.7779 37.2342 63.071 36.8457 63.6572C36.4643 64.2434 36.2736 65.1227 36.2736 66.2951ZM61.0423 60.1718C62.3842 60.1718 63.3977 60.5178 64.0828 61.21C64.7749 61.8951 65.121 62.9968 65.121 64.5153V72.2383H61.8792V65.3204C61.8792 64.4729 61.7344 63.8338 61.4449 63.4029C61.1553 62.9721 60.7068 62.7567 60.0994 62.7567C59.2448 62.7567 58.6375 63.0639 58.2773 63.6784C57.9171 64.2858 57.737 65.158 57.737 66.2951V72.2383H54.5058V65.3204C54.5058 64.7554 54.4423 64.2822 54.3151 63.9008C54.188 63.5195 53.9938 63.2334 53.7325 63.0427C53.4711 62.852 53.1357 62.7567 52.726 62.7567C52.1257 62.7567 51.6525 62.9085 51.3065 63.2122C50.9674 63.5089 50.7238 63.9503 50.5755 64.5365C50.4342 65.1156 50.3636 65.8254 50.3636 66.6659V72.2383H47.1324V60.3943H49.6008L50.0352 61.9092H50.2153C50.4554 61.4996 50.7556 61.1676 51.1158 60.9134C51.483 60.6591 51.8856 60.4719 52.3235 60.3519C52.7614 60.2318 53.2063 60.1718 53.6583 60.1718C54.527 60.1718 55.2615 60.313 55.8618 60.5955C56.4692 60.878 56.9354 61.3159 57.2603 61.9092H57.5463C57.8994 61.3018 58.3973 60.8604 59.04 60.5849C59.6898 60.3095 60.3572 60.1718 61.0423 60.1718ZM79.3168 60.3943V72.2383H76.8379L76.4035 70.7233H76.234C75.9798 71.1259 75.6619 71.4543 75.2806 71.7086C74.8992 71.9628 74.4789 72.15 74.0199 72.2701C73.5608 72.3901 73.0841 72.4502 72.5897 72.4502C71.7422 72.4502 71.0041 72.3018 70.3756 72.0052C69.747 71.7015 69.2561 71.2319 68.903 70.5962C68.5569 69.9606 68.3839 69.1343 68.3839 68.1172V60.3943H71.615V67.3121C71.615 68.1596 71.7669 68.7988 72.0706 69.2296C72.3743 69.6604 72.8581 69.8758 73.522 69.8758C74.1788 69.8758 74.6944 69.7275 75.0687 69.4309C75.443 69.1272 75.7043 68.6858 75.8526 68.1066C76.008 67.5204 76.0857 66.8071 76.0857 65.9667V60.3943H79.3168ZM89.4341 60.1718C90.6983 60.1718 91.7153 60.5178 92.4851 61.21C93.2549 61.8951 93.6399 62.9968 93.6399 64.5153V72.2383H90.4087V65.3204C90.4087 64.4729 90.2533 63.8338 89.9426 63.4029C89.6389 62.9721 89.1586 62.7567 88.5018 62.7567C87.513 62.7567 86.8385 63.0922 86.4783 63.7631C86.1182 64.4341 85.9381 65.4017 85.9381 66.6659V72.2383H82.7069V60.3943H85.1753L85.6096 61.9092H85.7897C86.044 61.4996 86.3583 61.1676 86.7326 60.9134C87.114 60.6591 87.5342 60.4719 87.9933 60.3519C88.4594 60.2318 88.9397 60.1718 89.4341 60.1718ZM100.198 60.3943V72.2383H96.9664V60.3943H100.198ZM98.5872 55.7541C99.0675 55.7541 99.4807 55.8671 99.8267 56.0931C100.173 56.3121 100.346 56.7252 100.346 57.3326C100.346 57.9329 100.173 58.3496 99.8267 58.5827C99.4807 58.8087 99.0675 58.9217 98.5872 58.9217C98.0999 58.9217 97.6832 58.8087 97.3371 58.5827C96.9981 58.3496 96.8286 57.9329 96.8286 57.3326C96.8286 56.7252 96.9981 56.3121 97.3371 56.0931C97.6832 55.8671 98.0999 55.7541 98.5872 55.7541ZM108.408 72.4502C107.235 72.4502 106.236 72.2383 105.41 71.8145C104.583 71.3837 103.955 70.7198 103.524 69.8229C103.093 68.9259 102.878 67.7782 102.878 66.3798C102.878 64.932 103.121 63.7525 103.609 62.8415C104.103 61.9233 104.785 61.2488 105.653 60.818C106.529 60.3872 107.543 60.1718 108.694 60.1718C109.513 60.1718 110.219 60.253 110.813 60.4154C111.413 60.5708 111.936 60.758 112.381 60.9769L111.427 63.4771C110.919 63.2723 110.445 63.1063 110.007 62.9792C109.57 62.845 109.132 62.7779 108.694 62.7779C108.129 62.7779 107.659 62.9121 107.285 63.1805C106.911 63.4418 106.632 63.8373 106.448 64.367C106.264 64.8967 106.172 65.5606 106.172 66.3586C106.172 67.1426 106.271 67.7924 106.469 68.3079C106.667 68.8235 106.953 69.2084 107.327 69.4627C107.702 69.7099 108.157 69.8335 108.694 69.8335C109.365 69.8335 109.962 69.7452 110.484 69.5686C111.007 69.385 111.515 69.1307 112.01 68.8058V71.5709C111.515 71.8816 110.996 72.1041 110.452 72.2383C109.916 72.3795 109.234 72.4502 108.408 72.4502ZM119.616 60.1506C121.205 60.1506 122.424 60.4967 123.271 61.1888C124.119 61.8809 124.542 62.9333 124.542 64.3458V72.2383H122.286L121.661 70.628H121.576C121.237 71.0518 120.891 71.3978 120.538 71.6662C120.185 71.9346 119.779 72.1323 119.32 72.2595C118.861 72.3866 118.303 72.4502 117.646 72.4502C116.947 72.4502 116.318 72.316 115.76 72.0476C115.209 71.7792 114.775 71.3696 114.457 70.8187C114.139 70.2607 113.98 69.5545 113.98 68.6999C113.98 67.4428 114.422 66.5176 115.304 65.9243C116.187 65.324 117.512 64.992 119.277 64.9285L121.332 64.8649V64.3458C121.332 63.7243 121.17 63.2687 120.845 62.9792C120.52 62.6896 120.068 62.5448 119.489 62.5448C118.917 62.5448 118.356 62.626 117.805 62.7885C117.254 62.9509 116.703 63.1557 116.152 63.4029L115.082 61.2206C115.711 60.8886 116.413 60.6273 117.19 60.4366C117.974 60.2459 118.783 60.1506 119.616 60.1506ZM121.332 66.7506L120.082 66.793C119.037 66.8212 118.31 67.0084 117.9 67.3545C117.497 67.7005 117.296 68.1561 117.296 68.7211C117.296 69.2155 117.441 69.5686 117.73 69.7805C118.02 69.9853 118.398 70.0877 118.864 70.0877C119.556 70.0877 120.139 69.8829 120.612 69.4733C121.092 69.0636 121.332 68.481 121.332 67.7253V66.7506ZM132.689 72.4502C131.517 72.4502 130.517 72.2383 129.691 71.8145C128.865 71.3837 128.236 70.7198 127.805 69.8229C127.375 68.9259 127.159 67.7782 127.159 66.3798C127.159 64.932 127.403 63.7525 127.89 62.8415C128.384 61.9233 129.066 61.2488 129.935 60.818C130.81 60.3872 131.824 60.1718 132.975 60.1718C133.794 60.1718 134.501 60.253 135.094 60.4154C135.694 60.5708 136.217 60.758 136.662 60.9769L135.708 63.4771C135.2 63.2723 134.727 63.1063 134.289 62.9792C133.851 62.845 133.413 62.7779 132.975 62.7779C132.41 62.7779 131.94 62.9121 131.566 63.1805C131.192 63.4418 130.913 63.8373 130.729 64.367C130.546 64.8967 130.454 65.5606 130.454 66.3586C130.454 67.1426 130.553 67.7924 130.75 68.3079C130.948 68.8235 131.234 69.2084 131.609 69.4627C131.983 69.7099 132.438 69.8335 132.975 69.8335C133.646 69.8335 134.243 69.7452 134.766 69.5686C135.288 69.385 135.797 69.1307 136.291 68.8058V71.5709C135.797 71.8816 135.278 72.1041 134.734 72.2383C134.197 72.3795 133.515 72.4502 132.689 72.4502ZM142.277 60.3943V72.2383H139.045V60.3943H142.277ZM140.666 55.7541C141.147 55.7541 141.56 55.8671 141.906 56.0931C142.252 56.3121 142.425 56.7252 142.425 57.3326C142.425 57.9329 142.252 58.3496 141.906 58.5827C141.56 58.8087 141.147 58.9217 140.666 58.9217C140.179 58.9217 139.762 58.8087 139.416 58.5827C139.077 58.3496 138.908 57.9329 138.908 57.3326C138.908 56.7252 139.077 56.3121 139.416 56.0931C139.762 55.8671 140.179 55.7541 140.666 55.7541ZM156.441 66.2951C156.441 67.2838 156.307 68.1596 156.038 68.9224C155.777 69.6851 155.392 70.3314 154.883 70.8611C154.382 71.3837 153.775 71.7792 153.061 72.0476C152.355 72.316 151.557 72.4502 150.667 72.4502C149.834 72.4502 149.067 72.316 148.368 72.0476C147.676 71.7792 147.072 71.3837 146.557 70.8611C146.048 70.3314 145.653 69.6851 145.37 68.9224C145.095 68.1596 144.957 67.2838 144.957 66.2951C144.957 64.9814 145.19 63.8691 145.656 62.958C146.122 62.0469 146.786 61.3548 147.648 60.8816C148.509 60.4084 149.537 60.1718 150.731 60.1718C151.839 60.1718 152.821 60.4084 153.676 60.8816C154.537 61.3548 155.212 62.0469 155.699 62.958C156.194 63.8691 156.441 64.9814 156.441 66.2951ZM148.252 66.2951C148.252 67.072 148.336 67.7253 148.506 68.255C148.675 68.7847 148.94 69.1837 149.3 69.4521C149.661 69.7205 150.13 69.8546 150.709 69.8546C151.281 69.8546 151.744 69.7205 152.097 69.4521C152.457 69.1837 152.719 68.7847 152.881 68.255C153.051 67.7253 153.135 67.072 153.135 66.2951C153.135 65.5111 153.051 64.8614 152.881 64.3458C152.719 63.8232 152.457 63.4312 152.097 63.1699C151.737 62.9085 151.267 62.7779 150.688 62.7779C149.834 62.7779 149.212 63.071 148.824 63.6572C148.442 64.2434 148.252 65.1227 148.252 66.2951ZM154.873 55.6164V55.8389C154.668 56.0366 154.4 56.2803 154.068 56.5698C153.736 56.8594 153.379 57.1631 152.998 57.4809C152.616 57.7917 152.242 58.0918 151.875 58.3814C151.508 58.6639 151.186 58.9005 150.911 59.0912H148.76V58.8052C148.993 58.5368 149.262 58.219 149.565 57.8517C149.876 57.4774 150.183 57.0925 150.487 56.697C150.791 56.3015 151.045 55.9413 151.25 55.6164H154.873ZM165.838 60.1718C167.102 60.1718 168.119 60.5178 168.889 61.21C169.658 61.8951 170.043 62.9968 170.043 64.5153V72.2383H166.812V65.3204C166.812 64.4729 166.657 63.8338 166.346 63.4029C166.042 62.9721 165.562 62.7567 164.905 62.7567C163.917 62.7567 163.242 63.0922 162.882 63.7631C162.522 64.4341 162.342 65.4017 162.342 66.6659V72.2383H159.11V60.3943H161.579L162.013 61.9092H162.193C162.448 61.4996 162.762 61.1676 163.136 60.9134C163.518 60.6591 163.938 60.4719 164.397 60.3519C164.863 60.2318 165.343 60.1718 165.838 60.1718ZM62.7479 97.2383H53.8278V81.7499H62.7479V84.4408H57.1119V87.8415H62.3559V90.5323H57.1119V94.5262H62.7479V97.2383ZM72.2825 87.8203H69.4857V97.2383H66.2545V87.8203H64.4747V86.263L66.2545 85.3943V84.5255C66.2545 83.5156 66.424 82.7316 66.763 82.1737C67.1091 81.6087 67.5929 81.2132 68.2144 80.9872C68.843 80.7541 69.5845 80.6376 70.4391 80.6376C71.0677 80.6376 71.6398 80.6905 72.1553 80.7965C72.6709 80.8954 73.0911 81.0084 73.416 81.1355L72.5897 83.5085C72.3425 83.4308 72.0741 83.3602 71.7845 83.2967C71.495 83.2331 71.163 83.2013 70.7887 83.2013C70.3367 83.2013 70.0048 83.339 69.7929 83.6145C69.5881 83.8828 69.4857 84.2289 69.4857 84.6527V85.3943H72.2825V87.8203ZM79.0308 85.1718C80.1255 85.1718 81.0684 85.3837 81.8594 85.8074C82.6504 86.2241 83.2613 86.8315 83.6921 87.6296C84.123 88.4277 84.3384 89.4023 84.3384 90.5535V92.1214H76.7001C76.7355 93.0325 77.0074 93.7493 77.5159 94.272C78.0314 94.7875 78.7448 95.0453 79.6558 95.0453C80.4115 95.0453 81.1037 94.9676 81.7323 94.8123C82.3608 94.6569 83.0071 94.4238 83.671 94.1131V96.6132C83.0848 96.9028 82.4703 97.1147 81.8276 97.2489C81.192 97.3831 80.4186 97.4502 79.5075 97.4502C78.321 97.4502 77.2687 97.2312 76.3505 96.7933C75.4395 96.3555 74.7226 95.688 74.2 94.7911C73.6844 93.8941 73.4266 92.7641 73.4266 91.401C73.4266 90.0167 73.6597 88.8655 74.1258 87.9474C74.599 87.0222 75.2558 86.3301 76.0963 85.871C76.9367 85.4048 77.9149 85.1718 79.0308 85.1718ZM79.052 87.4707C78.4234 87.4707 77.9008 87.6719 77.4841 88.0745C77.0745 88.4771 76.8379 89.1092 76.7743 89.9708H81.3085C81.3014 89.4906 81.2132 89.0633 81.0437 88.689C80.8812 88.3146 80.634 88.018 80.3021 87.7991C79.9772 87.5801 79.5605 87.4707 79.052 87.4707ZM91.7753 97.4502C90.6029 97.4502 89.6036 97.2383 88.7772 96.8145C87.9509 96.3837 87.3223 95.7198 86.8915 94.8229C86.4607 93.9259 86.2453 92.7782 86.2453 91.3798C86.2453 89.932 86.4889 88.7525 86.9763 87.8415C87.4706 86.9233 88.1522 86.2488 89.0209 85.818C89.8967 85.3872 90.9101 85.1718 92.0614 85.1718C92.8806 85.1718 93.5869 85.253 94.1801 85.4154C94.7805 85.5708 95.3031 85.758 95.748 85.9769L94.7946 88.4771C94.2861 88.2723 93.8129 88.1063 93.375 87.9792C92.9371 87.845 92.4992 87.7779 92.0614 87.7779C91.4963 87.7779 91.0267 87.9121 90.6524 88.1805C90.278 88.4418 89.9991 88.8373 89.8154 89.367C89.6318 89.8967 89.54 90.5606 89.54 91.3586C89.54 92.1426 89.6389 92.7924 89.8366 93.3079C90.0344 93.8235 90.3204 94.2084 90.6947 94.4627C91.0691 94.7099 91.5246 94.8335 92.0614 94.8335C92.7323 94.8335 93.3291 94.7452 93.8517 94.5686C94.3744 94.385 94.8829 94.1307 95.3773 93.8058V96.5709C94.8829 96.8816 94.3638 97.1041 93.82 97.2383C93.2832 97.3795 92.6016 97.4502 91.7753 97.4502ZM103.121 94.8758C103.475 94.8758 103.817 94.8405 104.149 94.7699C104.488 94.6993 104.824 94.611 105.155 94.505V96.9099C104.809 97.0652 104.379 97.1924 103.863 97.2913C103.354 97.3972 102.797 97.4502 102.189 97.4502C101.483 97.4502 100.847 97.3372 100.282 97.1112C99.7243 96.8781 99.2829 96.479 98.958 95.914C98.6402 95.342 98.4813 94.5474 98.4813 93.5304V87.8203H96.9346V86.4536L98.7144 85.3731L99.6466 82.8729H101.712V85.3943H105.028V87.8203H101.712V93.5304C101.712 93.9824 101.84 94.3214 102.094 94.5474C102.355 94.7664 102.698 94.8758 103.121 94.8758ZM110.791 85.3943V97.2383H107.56V85.3943H110.791ZM109.181 80.7541C109.661 80.7541 110.075 80.8671 110.421 81.0931C110.767 81.3121 110.94 81.7252 110.94 82.3326C110.94 82.9329 110.767 83.3496 110.421 83.5827C110.075 83.8087 109.661 83.9217 109.181 83.9217C108.694 83.9217 108.277 83.8087 107.931 83.5827C107.592 83.3496 107.423 82.9329 107.423 82.3326C107.423 81.7252 107.592 81.3121 107.931 81.0931C108.277 80.8671 108.694 80.7541 109.181 80.7541ZM117.01 97.2383L112.497 85.3943H115.877L118.165 92.1426C118.292 92.5381 118.391 92.9548 118.461 93.3927C118.539 93.8306 118.592 94.2225 118.62 94.5686H118.705C118.726 94.1943 118.776 93.7952 118.853 93.3715C118.938 92.9477 119.048 92.5381 119.182 92.1426L121.46 85.3943H124.839L120.326 97.2383H117.01ZM131.397 85.1506C132.986 85.1506 134.204 85.4967 135.052 86.1888C135.899 86.8809 136.323 87.9333 136.323 89.3458V97.2383H134.066L133.441 95.628H133.357C133.018 96.0518 132.671 96.3978 132.318 96.6662C131.965 96.9346 131.559 97.1323 131.1 97.2595C130.641 97.3866 130.083 97.4502 129.426 97.4502C128.727 97.4502 128.098 97.316 127.54 97.0476C126.99 96.7792 126.555 96.3696 126.237 95.8187C125.92 95.2607 125.761 94.5545 125.761 93.6999C125.761 92.4428 126.202 91.5176 127.085 90.9243C127.968 90.324 129.292 89.992 131.058 89.9285L133.113 89.8649V89.3458C133.113 88.7243 132.95 88.2687 132.626 87.9792C132.301 87.6896 131.849 87.5448 131.27 87.5448C130.697 87.5448 130.136 87.626 129.585 87.7885C129.034 87.9509 128.483 88.1557 127.932 88.4029L126.862 86.2206C127.491 85.8886 128.194 85.6273 128.971 85.4366C129.755 85.2459 130.563 85.1506 131.397 85.1506ZM133.113 91.7506L131.863 91.793C130.818 91.8212 130.09 92.0084 129.68 92.3545C129.278 92.7005 129.077 93.1561 129.077 93.7211C129.077 94.2155 129.221 94.5686 129.511 94.7805C129.801 94.9853 130.178 95.0877 130.644 95.0877C131.337 95.0877 131.919 94.8829 132.392 94.4733C132.873 94.0636 133.113 93.481 133.113 92.7253V91.7506Z" fill="#FDFDFD"/>
<defs>
<filter id="filter0_f_1134_18723" x="75.38" y="0.889776" width="39.0915" height="39.0915" filterUnits="userSpaceOnUse" color-interpolation-filters="sRGB">
<feFlood flood-opacity="0" result="BackgroundImageFix"/>
<feBlend mode="normal" in="SourceGraphic" in2="BackgroundImageFix" result="shape"/>
<feGaussianBlur stdDeviation="2.60296" result="effect1_foregroundBlur_1134_18723"/>
</filter>
<linearGradient id="paint0_linear_1134_18723" x1="80.5865" y1="11.1472" x2="109.412" y2="11.613" gradientUnits="userSpaceOnUse">
<stop stop-color="#E06C75"/>
<stop offset="1" stop-color="#6B90DF"/>
</linearGradient>
</defs>
</svg>
