<svg width="436" height="437" viewBox="0 0 436 437" fill="none" xmlns="http://www.w3.org/2000/svg">
<g clip-path="url(#clip0_1761_5109)">
<path d="M217.489 41.0915C315.063 41.0915 394.162 120.191 394.162 217.764C394.162 315.338 315.063 394.438 217.489 394.438C119.916 394.438 40.8164 315.338 40.8164 217.764C40.8164 120.191 119.916 41.0915 217.489 41.0915Z" fill="#FDFDFD" fill-opacity="0.05"/>
<path d="M218.076 0.820892C338.214 0.820892 435.605 98.2119 435.605 218.35C435.605 338.488 338.214 435.879 218.076 435.879C97.9379 435.879 0.546875 338.488 0.546875 218.35C0.546875 98.2119 97.9379 0.820892 218.076 0.820892Z" fill="#FDFDFD" fill-opacity="0.05"/>
<path d="M216.3 87.1109C287.803 87.1109 345.768 145.076 345.768 216.579C345.768 288.082 287.803 346.047 216.3 346.047C144.797 346.047 86.832 288.082 86.832 216.579C86.832 145.076 144.797 87.1109 216.3 87.1109Z" fill="#FDFDFD" fill-opacity="0.05"/>
<path d="M169.851 207.822V224.629H166.388L159.635 213.363V224.629H156.172V207.822H159.635L166.4 219.1V207.822H169.851ZM186.505 221.928V224.629H177.559V221.928H186.505ZM178.691 207.822V224.629H175.228V207.822H178.691ZM185.339 214.667V217.299H177.559V214.667H185.339ZM186.494 207.822V210.535H177.559V207.822H186.494ZM197.434 218.638H193.152V215.937H197.434C198.096 215.937 198.635 215.829 199.05 215.614C199.466 215.39 199.77 215.083 199.962 214.69C200.154 214.298 200.251 213.855 200.251 213.363C200.251 212.862 200.154 212.397 199.962 211.966C199.77 211.535 199.466 211.189 199.05 210.927C198.635 210.665 198.096 210.535 197.434 210.535H194.352V224.629H190.889V207.822H197.434C198.75 207.822 199.877 208.061 200.816 208.538C201.763 209.007 202.486 209.657 202.986 210.488C203.486 211.32 203.737 212.27 203.737 213.34C203.737 214.425 203.486 215.363 202.986 216.156C202.486 216.949 201.763 217.56 200.816 217.991C199.877 218.422 198.75 218.638 197.434 218.638ZM217.24 220.231C217.24 219.931 217.193 219.661 217.101 219.423C217.016 219.177 216.855 218.953 216.616 218.753C216.378 218.545 216.043 218.342 215.612 218.141C215.181 217.941 214.623 217.734 213.938 217.518C213.176 217.272 212.453 216.995 211.768 216.687C211.091 216.379 210.491 216.021 209.967 215.614C209.452 215.198 209.044 214.717 208.744 214.171C208.451 213.624 208.305 212.989 208.305 212.266C208.305 211.566 208.459 210.931 208.767 210.362C209.075 209.784 209.506 209.292 210.06 208.884C210.614 208.468 211.268 208.149 212.022 207.926C212.784 207.703 213.619 207.591 214.527 207.591C215.766 207.591 216.847 207.814 217.771 208.261C218.694 208.707 219.41 209.319 219.918 210.096C220.433 210.873 220.691 211.762 220.691 212.762H217.251C217.251 212.27 217.147 211.839 216.939 211.47C216.739 211.093 216.432 210.796 216.016 210.581C215.608 210.365 215.093 210.258 214.469 210.258C213.869 210.258 213.369 210.35 212.969 210.535C212.568 210.712 212.268 210.954 212.068 211.262C211.868 211.562 211.768 211.901 211.768 212.278C211.768 212.562 211.837 212.82 211.976 213.051C212.122 213.282 212.338 213.497 212.622 213.697C212.907 213.898 213.257 214.086 213.673 214.263C214.088 214.44 214.569 214.613 215.116 214.782C216.031 215.06 216.836 215.371 217.528 215.717C218.228 216.064 218.813 216.452 219.283 216.883C219.752 217.314 220.106 217.803 220.345 218.349C220.583 218.896 220.702 219.515 220.702 220.208C220.702 220.939 220.56 221.593 220.275 222.17C219.991 222.747 219.579 223.236 219.04 223.636C218.502 224.036 217.859 224.34 217.113 224.548C216.366 224.756 215.531 224.86 214.608 224.86C213.777 224.86 212.957 224.752 212.149 224.536C211.341 224.313 210.606 223.978 209.944 223.532C209.29 223.086 208.767 222.516 208.375 221.824C207.982 221.131 207.786 220.312 207.786 219.365H211.26C211.26 219.888 211.341 220.331 211.503 220.692C211.664 221.054 211.891 221.347 212.184 221.57C212.484 221.793 212.838 221.955 213.246 222.055C213.661 222.155 214.115 222.205 214.608 222.205C215.208 222.205 215.7 222.12 216.085 221.951C216.478 221.781 216.766 221.547 216.951 221.247C217.143 220.946 217.24 220.608 217.24 220.231ZM236.731 214.782H238.509C239.078 214.782 239.548 214.686 239.917 214.494C240.286 214.294 240.559 214.017 240.736 213.663C240.921 213.301 241.014 212.882 241.014 212.405C241.014 211.974 240.929 211.593 240.76 211.262C240.598 210.923 240.348 210.662 240.009 210.477C239.671 210.285 239.244 210.188 238.728 210.188C238.32 210.188 237.943 210.269 237.597 210.431C237.25 210.592 236.973 210.819 236.766 211.112C236.558 211.404 236.454 211.758 236.454 212.174H233.118C233.118 211.25 233.364 210.446 233.857 209.761C234.357 209.076 235.027 208.542 235.865 208.157C236.704 207.772 237.628 207.58 238.636 207.58C239.775 207.58 240.771 207.764 241.625 208.134C242.479 208.495 243.145 209.03 243.622 209.738C244.099 210.446 244.338 211.323 244.338 212.37C244.338 212.901 244.215 213.417 243.969 213.917C243.722 214.409 243.368 214.856 242.907 215.256C242.453 215.648 241.898 215.964 241.244 216.202C240.59 216.433 239.855 216.549 239.04 216.549H236.731V214.782ZM236.731 217.31V215.59H239.04C239.955 215.59 240.76 215.694 241.452 215.902C242.145 216.11 242.726 216.41 243.195 216.803C243.665 217.187 244.019 217.645 244.257 218.176C244.496 218.699 244.615 219.28 244.615 219.919C244.615 220.704 244.465 221.404 244.165 222.02C243.865 222.628 243.441 223.143 242.895 223.567C242.356 223.99 241.725 224.313 241.002 224.536C240.279 224.752 239.49 224.86 238.636 224.86C237.928 224.86 237.231 224.763 236.546 224.571C235.869 224.371 235.254 224.075 234.699 223.682C234.153 223.282 233.714 222.782 233.384 222.182C233.06 221.574 232.899 220.854 232.899 220.023H236.235C236.235 220.454 236.342 220.839 236.558 221.177C236.773 221.516 237.07 221.781 237.447 221.974C237.831 222.166 238.259 222.262 238.728 222.262C239.259 222.262 239.713 222.166 240.09 221.974C240.475 221.774 240.767 221.497 240.967 221.143C241.175 220.781 241.279 220.362 241.279 219.884C241.279 219.269 241.167 218.776 240.944 218.407C240.721 218.03 240.402 217.753 239.986 217.576C239.571 217.399 239.078 217.31 238.509 217.31H236.731ZM257.841 207.649H258.326V210.304H258.129C257.252 210.304 256.471 210.435 255.786 210.696C255.101 210.958 254.52 211.331 254.043 211.816C253.574 212.293 253.212 212.87 252.958 213.547C252.712 214.225 252.589 214.983 252.589 215.821V218.615C252.589 219.215 252.647 219.746 252.762 220.208C252.885 220.662 253.058 221.043 253.281 221.35C253.512 221.651 253.782 221.878 254.089 222.031C254.397 222.178 254.744 222.251 255.128 222.251C255.49 222.251 255.817 222.174 256.109 222.02C256.41 221.866 256.664 221.651 256.871 221.374C257.087 221.089 257.248 220.758 257.356 220.381C257.472 219.996 257.529 219.577 257.529 219.123C257.529 218.669 257.472 218.249 257.356 217.864C257.248 217.48 257.087 217.149 256.871 216.872C256.656 216.587 256.394 216.368 256.086 216.214C255.779 216.06 255.432 215.983 255.047 215.983C254.524 215.983 254.062 216.106 253.662 216.352C253.27 216.591 252.962 216.899 252.739 217.276C252.516 217.653 252.396 218.049 252.381 218.465L251.377 217.818C251.4 217.226 251.523 216.664 251.746 216.133C251.977 215.602 252.293 215.133 252.693 214.725C253.101 214.309 253.589 213.986 254.159 213.755C254.728 213.517 255.371 213.397 256.086 213.397C256.871 213.397 257.56 213.547 258.153 213.847C258.753 214.148 259.253 214.559 259.653 215.083C260.053 215.606 260.353 216.21 260.554 216.895C260.754 217.58 260.854 218.311 260.854 219.088C260.854 219.904 260.719 220.662 260.45 221.362C260.188 222.062 259.807 222.674 259.307 223.197C258.814 223.721 258.222 224.128 257.529 224.421C256.837 224.713 256.059 224.86 255.198 224.86C254.305 224.86 253.493 224.698 252.762 224.375C252.039 224.044 251.415 223.582 250.892 222.99C250.369 222.397 249.965 221.693 249.68 220.877C249.403 220.061 249.264 219.169 249.264 218.199V216.906C249.264 215.552 249.461 214.313 249.853 213.19C250.253 212.058 250.827 211.081 251.573 210.258C252.32 209.427 253.22 208.784 254.274 208.33C255.328 207.876 256.517 207.649 257.841 207.649ZM276.515 214.748V217.657C276.515 218.919 276.38 220.008 276.111 220.923C275.842 221.831 275.453 222.578 274.945 223.163C274.445 223.74 273.849 224.167 273.156 224.444C272.464 224.721 271.694 224.86 270.848 224.86C270.17 224.86 269.539 224.775 268.954 224.606C268.37 224.429 267.843 224.155 267.373 223.786C266.911 223.417 266.511 222.951 266.173 222.389C265.842 221.82 265.588 221.143 265.411 220.358C265.234 219.573 265.145 218.672 265.145 217.657V214.748C265.145 213.486 265.28 212.405 265.549 211.504C265.826 210.596 266.215 209.854 266.715 209.276C267.223 208.699 267.823 208.276 268.516 208.007C269.208 207.73 269.978 207.591 270.824 207.591C271.502 207.591 272.129 207.68 272.706 207.857C273.291 208.026 273.818 208.291 274.287 208.653C274.757 209.015 275.157 209.48 275.488 210.05C275.819 210.612 276.073 211.285 276.25 212.07C276.427 212.847 276.515 213.74 276.515 214.748ZM273.179 218.095V214.298C273.179 213.69 273.145 213.159 273.075 212.705C273.014 212.251 272.918 211.866 272.787 211.55C272.656 211.227 272.494 210.966 272.302 210.766C272.11 210.565 271.89 210.419 271.644 210.327C271.398 210.235 271.125 210.188 270.824 210.188C270.447 210.188 270.113 210.261 269.82 210.408C269.535 210.554 269.293 210.789 269.093 211.112C268.893 211.427 268.739 211.851 268.631 212.382C268.531 212.905 268.481 213.544 268.481 214.298V218.095C268.481 218.703 268.512 219.238 268.574 219.7C268.643 220.162 268.743 220.558 268.874 220.889C269.012 221.212 269.174 221.477 269.359 221.685C269.551 221.885 269.77 222.031 270.016 222.124C270.27 222.216 270.547 222.262 270.848 222.262C271.217 222.262 271.544 222.189 271.829 222.043C272.121 221.889 272.367 221.651 272.567 221.327C272.775 220.996 272.929 220.566 273.029 220.035C273.129 219.504 273.179 218.857 273.179 218.095Z" fill="url(#paint0_linear_1761_5109)"/>
</g>
<defs>
<linearGradient id="paint0_linear_1761_5109" x1="159.1" y1="204.379" x2="281.399" y2="216.243" gradientUnits="userSpaceOnUse">
<stop stop-color="#E06C75"/>
<stop offset="1" stop-color="#6B90DF"/>
</linearGradient>
<clipPath id="clip0_1761_5109">
<rect width="436" height="436" fill="white" transform="translate(0 0.03125)"/>
</clipPath>
</defs>
</svg>
