<svg width="173" height="108" viewBox="0 0 173 108" fill="none" xmlns="http://www.w3.org/2000/svg">
<g filter="url(#filter0_f_1134_18665)">
<circle cx="86.2895" cy="22.0494" r="15.207" transform="rotate(-34.7184 86.2895 22.0494)" fill="url(#paint0_linear_1134_18665)"/>
</g>
<path d="M41.2781 60.291C43.3978 60.291 44.9445 60.7479 45.9182 61.6616C46.8919 62.568 47.3788 63.8188 47.3788 65.4142C47.3788 66.1333 47.2702 66.8223 47.0529 67.4815C46.8357 68.1331 46.4799 68.7136 45.9856 69.2229C45.4987 69.7323 44.8471 70.1367 44.0307 70.4363C43.2143 70.7284 42.2068 70.8745 41.0084 70.8745H39.5141V76.7168H36.0312V60.291H41.2781ZM41.0983 63.1447H39.5141V68.0208H40.6601C41.3118 68.0208 41.8773 67.9346 42.3566 67.7624C42.836 67.5901 43.2068 67.3204 43.4689 66.9534C43.7311 66.5864 43.8621 66.1145 43.8621 65.5378C43.8621 64.7289 43.6374 64.1296 43.188 63.7402C42.7386 63.3432 42.042 63.1447 41.0983 63.1447ZM55.3894 63.9199C56.5504 63.9199 57.5503 64.1446 58.3892 64.594C59.2281 65.0359 59.876 65.6801 60.3329 66.5265C60.7898 67.3729 61.0183 68.4065 61.0183 69.6274V71.2902H52.9177C52.9552 72.2564 53.2435 73.0167 53.7828 73.5709C54.3296 74.1177 55.0861 74.3911 56.0523 74.3911C56.8538 74.3911 57.5878 74.3087 58.2544 74.1439C58.921 73.9792 59.6064 73.732 60.3105 73.4024V76.0539C59.6888 76.361 59.0371 76.5857 58.3555 76.728C57.6814 76.8703 56.8613 76.9415 55.895 76.9415C54.6367 76.9415 53.5207 76.7093 52.5469 76.2449C51.5807 75.7805 50.8205 75.0727 50.2662 74.1215C49.7194 73.1702 49.446 71.9718 49.446 70.5262C49.446 69.0581 49.6932 67.8373 50.1876 66.8635C50.6894 65.8823 51.386 65.1483 52.2773 64.6614C53.1686 64.1671 54.206 63.9199 55.3894 63.9199ZM55.4119 66.358C54.7453 66.358 54.191 66.5714 53.7491 66.9984C53.3147 67.4253 53.0638 68.0957 52.9964 69.0095H57.805C57.7975 68.5001 57.7039 68.047 57.5241 67.65C57.3519 67.253 57.0897 66.9384 56.7377 66.7062C56.3931 66.4741 55.9512 66.358 55.4119 66.358ZM70.8154 63.9199C70.9876 63.9199 71.1861 63.9312 71.4108 63.9536C71.643 63.9686 71.8303 63.9911 71.9726 64.021L71.7142 67.2343C71.6018 67.1969 71.4408 67.1706 71.2311 67.1557C71.0288 67.1332 70.8528 67.1219 70.703 67.1219C70.2611 67.1219 69.8304 67.1781 69.411 67.2905C68.999 67.4028 68.6282 67.5863 68.2987 67.841C67.9691 68.0882 67.707 68.4177 67.5122 68.8297C67.325 69.2342 67.2313 69.7323 67.2313 70.324V76.7168H63.8046V64.1559H66.3999L66.9055 66.2681H67.074C67.3212 65.8411 67.6283 65.4517 67.9953 65.0996C68.3698 64.7401 68.793 64.4555 69.2649 64.2457C69.7443 64.0285 70.2611 63.9199 70.8154 63.9199ZM83.0168 72.9867C83.0168 73.8406 82.8145 74.5634 82.4101 75.1551C82.0131 75.7393 81.4176 76.185 80.6237 76.4921C79.8297 76.7917 78.841 76.9415 77.6576 76.9415C76.7812 76.9415 76.0285 76.8853 75.3993 76.773C74.7776 76.6606 74.1485 76.4734 73.5118 76.2112V73.3799C74.1934 73.687 74.9237 73.9417 75.7027 74.1439C76.4891 74.3387 77.1782 74.4361 77.7699 74.4361C78.4366 74.4361 78.9122 74.3387 79.1968 74.1439C79.4889 73.9417 79.635 73.6796 79.635 73.3575C79.635 73.1478 79.5751 72.9605 79.4552 72.7957C79.3429 72.6234 79.0957 72.4324 78.7137 72.2227C78.3317 72.0055 77.7325 71.7246 76.9161 71.3801C76.1296 71.0505 75.4817 70.7172 74.9724 70.3802C74.4705 70.0431 74.096 69.6461 73.8489 69.1892C73.6092 68.7248 73.4893 68.1369 73.4893 67.4253C73.4893 66.2643 73.9387 65.3917 74.8376 64.8075C75.7439 64.2158 76.9535 63.9199 78.4665 63.9199C79.2455 63.9199 79.987 63.9986 80.6911 64.1559C81.4026 64.3132 82.1329 64.5641 82.8819 64.9086L81.8483 67.3804C81.2266 67.1107 80.6387 66.8898 80.0844 66.7175C79.5376 66.5452 78.9796 66.4591 78.4103 66.4591C77.9085 66.4591 77.5303 66.5265 77.2756 66.6613C77.0209 66.7961 76.8936 67.0021 76.8936 67.2792C76.8936 67.4815 76.9573 67.6612 77.0846 67.8185C77.2194 67.9758 77.4741 68.1518 77.8486 68.3466C78.2306 68.5338 78.7886 68.7773 79.5226 69.0769C80.2342 69.369 80.8521 69.6761 81.3764 69.9982C81.9007 70.3127 82.3052 70.706 82.5898 71.1779C82.8745 71.6422 83.0168 72.2452 83.0168 72.9867ZM97.1057 70.4139C97.1057 71.4625 96.9634 72.3913 96.6788 73.2002C96.4016 74.0091 95.9934 74.6945 95.4541 75.2562C94.9223 75.8105 94.2782 76.2299 93.5217 76.5146C92.7727 76.7992 91.9263 76.9415 90.9825 76.9415C90.0987 76.9415 89.286 76.7992 88.5445 76.5146C87.8104 76.2299 87.17 75.8105 86.6233 75.2562C86.084 74.6945 85.6645 74.0091 85.3649 73.2002C85.0728 72.3913 84.9267 71.4625 84.9267 70.4139C84.9267 69.0207 85.1739 67.841 85.6683 66.8748C86.1626 65.9085 86.8667 65.1745 87.7805 64.6727C88.6943 64.1708 89.7841 63.9199 91.0499 63.9199C92.2259 63.9199 93.267 64.1708 94.1733 64.6727C95.0871 65.1745 95.8024 65.9085 96.3192 66.8748C96.8435 67.841 97.1057 69.0207 97.1057 70.4139ZM88.4209 70.4139C88.4209 71.2378 88.5108 71.9306 88.6905 72.4924C88.8703 73.0541 89.1512 73.4773 89.5332 73.7619C89.9152 74.0466 90.4133 74.1889 91.0275 74.1889C91.6342 74.1889 92.1248 74.0466 92.4993 73.7619C92.8813 73.4773 93.1584 73.0541 93.3307 72.4924C93.5104 71.9306 93.6003 71.2378 93.6003 70.4139C93.6003 69.5825 93.5104 68.8934 93.3307 68.3466C93.1584 67.7923 92.8813 67.3766 92.4993 67.0995C92.1173 66.8223 91.6192 66.6838 91.005 66.6838C90.0987 66.6838 89.4395 66.9946 89.0276 67.6163C88.6231 68.238 88.4209 69.1705 88.4209 70.4139ZM107.071 63.9199C108.412 63.9199 109.491 64.2869 110.307 65.021C111.123 65.7475 111.532 66.916 111.532 68.5263V76.7168H108.105V69.3802C108.105 68.4814 107.94 67.8036 107.611 67.3467C107.289 66.8898 106.779 66.6613 106.083 66.6613C105.034 66.6613 104.319 67.0171 103.937 67.7286C103.555 68.4402 103.364 69.4664 103.364 70.8071V76.7168H99.937V64.1559H102.555L103.015 65.7625H103.206C103.476 65.3281 103.809 64.976 104.206 64.7064C104.611 64.4367 105.056 64.2383 105.543 64.1109C106.038 63.9836 106.547 63.9199 107.071 63.9199ZM120.205 63.8975C121.891 63.8975 123.183 64.2645 124.081 64.9985C124.98 65.7325 125.43 66.8486 125.43 68.3466V76.7168H123.036L122.374 75.009H122.284C121.924 75.4585 121.557 75.8255 121.183 76.1101C120.808 76.3947 120.378 76.6044 119.891 76.7393C119.404 76.8741 118.812 76.9415 118.115 76.9415C117.374 76.9415 116.707 76.7992 116.116 76.5146C115.531 76.2299 115.071 75.7955 114.734 75.2113C114.397 74.6196 114.228 73.8706 114.228 72.9642C114.228 71.631 114.696 70.6498 115.633 70.0206C116.569 69.384 117.973 69.0319 119.846 68.9645L122.025 68.8971V68.3466C122.025 67.6875 121.853 67.2043 121.509 66.8972C121.164 66.5902 120.685 66.4366 120.07 66.4366C119.464 66.4366 118.868 66.5227 118.284 66.695C117.7 66.8673 117.116 67.0845 116.531 67.3467L115.397 65.0322C116.063 64.6802 116.808 64.403 117.632 64.2008C118.464 63.9986 119.321 63.8975 120.205 63.8975ZM122.025 70.897L120.7 70.9419C119.591 70.9719 118.82 71.1704 118.385 71.5374C117.958 71.9044 117.745 72.3875 117.745 72.9867C117.745 73.511 117.898 73.8855 118.205 74.1102C118.512 74.3274 118.913 74.4361 119.408 74.4361C120.142 74.4361 120.76 74.2188 121.261 73.7844C121.771 73.35 122.025 72.7321 122.025 71.9306V70.897ZM137.732 72.9867C137.732 73.8406 137.53 74.5634 137.125 75.1551C136.728 75.7393 136.133 76.185 135.339 76.4921C134.545 76.7917 133.556 76.9415 132.373 76.9415C131.497 76.9415 130.744 76.8853 130.115 76.773C129.493 76.6606 128.864 76.4734 128.227 76.2112V73.3799C128.909 73.687 129.639 73.9417 130.418 74.1439C131.204 74.3387 131.894 74.4361 132.485 74.4361C133.152 74.4361 133.628 74.3387 133.912 74.1439C134.204 73.9417 134.35 73.6796 134.35 73.3575C134.35 73.1478 134.29 72.9605 134.171 72.7957C134.058 72.6234 133.811 72.4324 133.429 72.2227C133.047 72.0055 132.448 71.7246 131.631 71.3801C130.845 71.0505 130.197 70.7172 129.688 70.3802C129.186 70.0431 128.811 69.6461 128.564 69.1892C128.325 68.7248 128.205 68.1369 128.205 67.4253C128.205 66.2643 128.654 65.3917 129.553 64.8075C130.459 64.2158 131.669 63.9199 133.182 63.9199C133.961 63.9199 134.702 63.9986 135.406 64.1559C136.118 64.3132 136.848 64.5641 137.597 64.9086L136.564 67.3804C135.942 67.1107 135.354 66.8898 134.8 66.7175C134.253 66.5452 133.695 66.4591 133.126 66.4591C132.624 66.4591 132.246 66.5265 131.991 66.6613C131.736 66.7961 131.609 67.0021 131.609 67.2792C131.609 67.4815 131.673 67.6612 131.8 67.8185C131.935 67.9758 132.189 68.1518 132.564 68.3466C132.946 68.5338 133.504 68.7773 134.238 69.0769C134.95 69.369 135.567 69.6761 136.092 69.9982C136.616 70.3127 137.021 70.706 137.305 71.1779C137.59 71.6422 137.732 72.2452 137.732 72.9867ZM35.3571 103.717L31.4023 90.83H31.3012C31.3162 91.1371 31.3387 91.6015 31.3686 92.2232C31.4061 92.8374 31.4398 93.4928 31.4697 94.1894C31.4997 94.8859 31.5147 95.5151 31.5147 96.0769V103.717H28.4025V87.291H33.1438L37.0312 99.8519H37.0986L41.2219 87.291H45.9631V103.717H42.7162V95.942C42.7162 95.4252 42.7237 94.8298 42.7386 94.1557C42.7611 93.4815 42.7873 92.8411 42.8173 92.2344C42.8472 91.6202 42.8697 91.1596 42.8847 90.8525H42.7836L38.5479 103.717H35.3571ZM61.2542 97.4139C61.2542 98.4625 61.1119 99.3913 60.8273 100.2C60.5501 101.009 60.1419 101.694 59.6026 102.256C59.0708 102.81 58.4267 103.23 57.6702 103.515C56.9212 103.799 56.0748 103.942 55.131 103.942C54.2472 103.942 53.4345 103.799 52.693 103.515C51.959 103.23 51.3186 102.81 50.7718 102.256C50.2325 101.694 49.8131 101.009 49.5135 100.2C49.2213 99.3913 49.0753 98.4625 49.0753 97.4139C49.0753 96.0207 49.3225 94.841 49.8168 93.8748C50.3111 92.9085 51.0152 92.1745 51.929 91.6727C52.8428 91.1708 53.9326 90.9199 55.1985 90.9199C56.3744 90.9199 57.4155 91.1708 58.3218 91.6727C59.2356 92.1745 59.9509 92.9085 60.4678 93.8748C60.9921 94.841 61.2542 96.0207 61.2542 97.4139ZM52.5694 97.4139C52.5694 98.2378 52.6593 98.9306 52.8391 99.4924C53.0188 100.054 53.2997 100.477 53.6817 100.762C54.0637 101.047 54.5618 101.189 55.176 101.189C55.7827 101.189 56.2733 101.047 56.6478 100.762C57.0298 100.477 57.3069 100.054 57.4792 99.4924C57.659 98.9306 57.7488 98.2378 57.7488 97.4139C57.7488 96.5825 57.659 95.8934 57.4792 95.3466C57.3069 94.7923 57.0298 94.3766 56.6478 94.0995C56.2658 93.8223 55.7677 93.6838 55.1535 93.6838C54.2472 93.6838 53.5881 93.9946 53.1761 94.6163C52.7717 95.238 52.5694 96.1705 52.5694 97.4139ZM69.3773 101.211C69.7518 101.211 70.115 101.174 70.4671 101.099C70.8266 101.024 71.1824 100.93 71.5344 100.818V103.369C71.1674 103.533 70.7105 103.668 70.1637 103.773C69.6244 103.885 69.0327 103.942 68.3886 103.942C67.6395 103.942 66.9654 103.822 66.3662 103.582C65.7745 103.335 65.3064 102.912 64.9618 102.312C64.6248 101.706 64.4562 100.863 64.4562 99.7845V93.7287H62.8159V92.2794L64.7034 91.1334L65.6921 88.4819H67.883V91.1559H71.3996V93.7287H67.883V99.7845C67.883 100.264 68.0178 100.623 68.2874 100.863C68.5646 101.095 68.9278 101.211 69.3773 101.211ZM77.5115 91.1559V103.717H74.0848V91.1559H77.5115ZM75.8038 86.2348C76.3131 86.2348 76.7513 86.3547 77.1183 86.5944C77.4853 86.8266 77.6688 87.2647 77.6688 87.9089C77.6688 88.5456 77.4853 88.9875 77.1183 89.2346C76.7513 89.4743 76.3131 89.5942 75.8038 89.5942C75.287 89.5942 74.845 89.4743 74.478 89.2346C74.1185 88.9875 73.9387 88.5456 73.9387 87.9089C73.9387 87.2647 74.1185 86.8266 74.478 86.5944C74.845 86.3547 75.287 86.2348 75.8038 86.2348ZM84.1066 103.717L79.3204 91.1559H82.9044L85.3312 98.3127C85.466 98.7321 85.5709 99.174 85.6458 99.6384C85.7282 100.103 85.7844 100.519 85.8143 100.886H85.9042C85.9267 100.489 85.9791 100.065 86.0615 99.616C86.1514 99.1665 86.2675 98.7321 86.4098 98.3127L88.8254 91.1559H92.4094L87.6232 103.717H84.1066ZM99.364 90.8975C101.049 90.8975 102.341 91.2645 103.24 91.9985C104.139 92.7325 104.588 93.8486 104.588 95.3466V103.717H102.195L101.532 102.009H101.442C101.083 102.458 100.716 102.825 100.341 103.11C99.9669 103.395 99.5362 103.604 99.0494 103.739C98.5625 103.874 97.9708 103.942 97.2742 103.942C96.5327 103.942 95.8661 103.799 95.2744 103.515C94.6901 103.23 94.2295 102.796 93.8924 102.211C93.5554 101.62 93.3868 100.871 93.3868 99.9642C93.3868 98.631 93.855 97.6498 94.7912 97.0206C95.7275 96.384 97.1319 96.0319 99.0044 95.9645L101.184 95.8971V95.3466C101.184 94.6875 101.012 94.2043 100.667 93.8972C100.323 93.5902 99.8433 93.4366 99.2291 93.4366C98.6224 93.4366 98.027 93.5227 97.4428 93.695C96.8585 93.8673 96.2743 94.0845 95.6901 94.3467L94.5553 92.0322C95.2219 91.6802 95.9672 91.403 96.7911 91.2008C97.6225 90.9986 98.4801 90.8975 99.364 90.8975ZM101.184 97.897L99.8583 97.9419C98.7498 97.9719 97.9783 98.1704 97.5439 98.5374C97.1169 98.9044 96.9035 99.3875 96.9035 99.9867C96.9035 100.511 97.057 100.886 97.3641 101.11C97.6712 101.327 98.0719 101.436 98.5663 101.436C99.3003 101.436 99.9182 101.219 100.42 100.784C100.929 100.35 101.184 99.7321 101.184 98.9306V97.897ZM112.105 103.942C110.704 103.942 109.562 103.395 108.678 102.301C107.802 101.2 107.363 99.586 107.363 97.4588C107.363 95.3091 107.809 93.6838 108.7 92.5827C109.592 91.4742 110.756 90.9199 112.195 90.9199C112.794 90.9199 113.322 91.0023 113.779 91.1671C114.236 91.3319 114.629 91.5528 114.958 91.83C115.295 92.1071 115.58 92.4179 115.812 92.7625H115.925C115.88 92.5228 115.824 92.1708 115.756 91.7064C115.696 91.2345 115.666 90.7514 115.666 90.257V86.2348H119.104V103.717H116.475L115.812 102.088H115.666C115.449 102.432 115.176 102.747 114.846 103.031C114.524 103.309 114.138 103.53 113.689 103.694C113.239 103.859 112.711 103.942 112.105 103.942ZM113.307 101.211C114.243 101.211 114.902 100.934 115.284 100.38C115.674 99.8182 115.88 98.9755 115.902 97.852V97.4813C115.902 96.2604 115.715 95.3279 115.34 94.6837C114.966 94.0321 114.269 93.7062 113.251 93.7062C112.494 93.7062 111.902 94.0321 111.475 94.6837C111.049 95.3353 110.835 96.2754 110.835 97.5037C110.835 98.7321 111.049 99.6572 111.475 100.279C111.91 100.901 112.52 101.211 113.307 101.211ZM127.834 90.8975C129.519 90.8975 130.811 91.2645 131.71 91.9985C132.609 92.7325 133.058 93.8486 133.058 95.3466V103.717H130.665L130.002 102.009H129.912C129.553 102.458 129.186 102.825 128.811 103.11C128.437 103.395 128.006 103.604 127.519 103.739C127.032 103.874 126.441 103.942 125.744 103.942C125.003 103.942 124.336 103.799 123.744 103.515C123.16 103.23 122.699 102.796 122.362 102.211C122.025 101.62 121.857 100.871 121.857 99.9642C121.857 98.631 122.325 97.6498 123.261 97.0206C124.197 96.384 125.602 96.0319 127.474 95.9645L129.654 95.8971V95.3466C129.654 94.6875 129.482 94.2043 129.137 93.8972C128.793 93.5902 128.313 93.4366 127.699 93.4366C127.092 93.4366 126.497 93.5227 125.913 93.695C125.328 93.8673 124.744 94.0845 124.16 94.3467L123.025 92.0322C123.692 91.6802 124.437 91.403 125.261 91.2008C126.092 90.9986 126.95 90.8975 127.834 90.8975ZM129.654 97.897L128.328 97.9419C127.22 97.9719 126.448 98.1704 126.014 98.5374C125.587 98.9044 125.373 99.3875 125.373 99.9867C125.373 100.511 125.527 100.886 125.834 101.11C126.141 101.327 126.542 101.436 127.036 101.436C127.77 101.436 128.388 101.219 128.89 100.784C129.399 100.35 129.654 99.7321 129.654 98.9306V97.897ZM145.361 99.9867C145.361 100.841 145.159 101.563 144.754 102.155C144.357 102.739 143.762 103.185 142.968 103.492C142.174 103.792 141.185 103.942 140.002 103.942C139.125 103.942 138.373 103.885 137.743 103.773C137.122 103.661 136.493 103.473 135.856 103.211V100.38C136.537 100.687 137.268 100.942 138.047 101.144C138.833 101.339 139.522 101.436 140.114 101.436C140.781 101.436 141.256 101.339 141.541 101.144C141.833 100.942 141.979 100.68 141.979 100.357C141.979 100.148 141.919 99.9605 141.799 99.7957C141.687 99.6234 141.44 99.4324 141.058 99.2227C140.676 99.0055 140.077 98.7246 139.26 98.3801C138.474 98.0505 137.826 97.7172 137.316 97.3802C136.815 97.0431 136.44 96.6461 136.193 96.1892C135.953 95.7248 135.833 95.1369 135.833 94.4253C135.833 93.2643 136.283 92.3917 137.182 91.8075C138.088 91.2158 139.298 90.9199 140.811 90.9199C141.59 90.9199 142.331 90.9986 143.035 91.1559C143.747 91.3132 144.477 91.5641 145.226 91.9086L144.192 94.3804C143.571 94.1107 142.983 93.8898 142.428 93.7175C141.882 93.5452 141.324 93.4591 140.754 93.4591C140.253 93.4591 139.874 93.5265 139.62 93.6613C139.365 93.7961 139.238 94.0021 139.238 94.2792C139.238 94.4815 139.301 94.6612 139.429 94.8185C139.563 94.9758 139.818 95.1518 140.193 95.3466C140.575 95.5338 141.133 95.7773 141.867 96.0769C142.578 96.369 143.196 96.6761 143.72 96.9982C144.245 97.3127 144.649 97.706 144.934 98.1779C145.219 98.6422 145.361 99.2452 145.361 99.9867Z" fill="#FDFDFD"/>
<defs>
<filter id="filter0_f_1134_18665" x="65.561" y="1.32076" width="41.4561" height="41.4581" filterUnits="userSpaceOnUse" color-interpolation-filters="sRGB">
<feFlood flood-opacity="0" result="BackgroundImageFix"/>
<feBlend mode="normal" in="SourceGraphic" in2="BackgroundImageFix" result="shape"/>
<feGaussianBlur stdDeviation="2.76052" result="effect1_foregroundBlur_1134_18665"/>
</filter>
<linearGradient id="paint0_linear_1134_18665" x1="71.0825" y1="12.1986" x2="101.652" y2="12.6926" gradientUnits="userSpaceOnUse">
<stop stop-color="#E06C75"/>
<stop offset="1" stop-color="#6B90DF"/>
</linearGradient>
</defs>
</svg>
