<svg width="36" height="35" viewBox="0 0 36 35" fill="none" xmlns="http://www.w3.org/2000/svg">
<g id="instagram-logo-fill 1">
<path id="Vector" d="M22.375 17.5C22.375 18.3653 22.1184 19.2112 21.6377 19.9306C21.1569 20.6501 20.4737 21.2108 19.6742 21.542C18.8748 21.8731 17.9951 21.9597 17.1465 21.7909C16.2978 21.6221 15.5183 21.2054 14.9064 20.5936C14.2946 19.9817 13.8779 19.2022 13.7091 18.3535C13.5403 17.5049 13.6269 16.6252 13.958 15.8258C14.2892 15.0263 14.8499 14.3431 15.5694 13.8623C16.2888 13.3816 17.1347 13.125 18 13.125C19.1599 13.1263 20.2719 13.5877 21.0921 14.4079C21.9123 15.2281 22.3737 16.3401 22.375 17.5ZM31.6719 11.4844V23.5156C31.6696 25.5455 30.8622 27.4915 29.4269 28.9269C27.9915 30.3622 26.0455 31.1696 24.0156 31.1719H11.9844C9.95452 31.1696 8.00846 30.3622 6.57313 28.9269C5.1378 27.4915 4.33042 25.5455 4.32812 23.5156V11.4844C4.33042 9.45452 5.1378 7.50846 6.57313 6.07313C8.00846 4.6378 9.95452 3.83042 11.9844 3.82812H24.0156C26.0455 3.83042 27.9915 4.6378 29.4269 6.07313C30.8622 7.50846 31.6696 9.45452 31.6719 11.4844ZM24.5625 17.5C24.5625 16.2021 24.1776 14.9333 23.4565 13.8541C22.7354 12.7749 21.7105 11.9337 20.5114 11.437C19.3122 10.9403 17.9927 10.8104 16.7197 11.0636C15.4467 11.3168 14.2774 11.9418 13.3596 12.8596C12.4418 13.7774 11.8168 14.9467 11.5636 16.2197C11.3104 17.4927 11.4403 18.8122 11.937 20.0114C12.4337 21.2105 13.2749 22.2354 14.3541 22.9565C15.4333 23.6776 16.7021 24.0625 18 24.0625C19.7399 24.0605 21.4079 23.3685 22.6382 22.1382C23.8685 20.9079 24.5605 19.2399 24.5625 17.5ZM26.75 10.3906C26.75 10.0661 26.6538 9.74894 26.4735 9.47914C26.2932 9.20934 26.037 8.99906 25.7372 8.87489C25.4374 8.75071 25.1076 8.71822 24.7893 8.78152C24.4711 8.84483 24.1787 9.00108 23.9493 9.23053C23.7198 9.45997 23.5636 9.7523 23.5003 10.0706C23.437 10.3888 23.4695 10.7187 23.5936 11.0185C23.7178 11.3183 23.9281 11.5745 24.1979 11.7548C24.4677 11.935 24.7849 12.0312 25.1094 12.0312C25.5445 12.0312 25.9618 11.8584 26.2695 11.5507C26.5771 11.243 26.75 10.8257 26.75 10.3906Z" fill="#FDFDFD"/>
</g>
</svg>
