<svg width="35" height="36" viewBox="0 0 35 36" fill="none" xmlns="http://www.w3.org/2000/svg">
<g id="mdi:twitter">
<path id="Vector" d="M32.7544 9.39714C31.6315 9.90755 30.4211 10.243 29.1669 10.4034C30.4503 9.63047 31.4419 8.40547 31.9086 6.93255C30.6982 7.66172 29.3565 8.17214 27.9419 8.4638C26.7898 7.20964 25.1711 6.48047 23.3336 6.48047C19.9065 6.48047 17.1065 9.28047 17.1065 12.7367C17.1065 13.2326 17.1648 13.7138 17.2669 14.1659C12.0753 13.9034 7.45234 11.4096 4.37526 7.63255C3.83568 8.5513 3.52943 9.63047 3.52943 10.768C3.52943 12.9409 4.62318 14.8659 6.31484 15.9596C5.27943 15.9596 4.31693 15.668 3.47109 15.2305V15.2742C3.47109 18.3076 5.62943 20.8451 8.48776 21.4138C7.57007 21.6649 6.60665 21.6999 5.67318 21.5159C6.06927 22.7591 6.845 23.8469 7.89133 24.6264C8.93765 25.4059 10.202 25.8379 11.5065 25.8617C9.29514 27.6124 6.55401 28.5586 3.73359 28.545C3.23776 28.545 2.74193 28.5159 2.24609 28.4576C5.01693 30.2367 8.31276 31.2721 11.8419 31.2721C23.3336 31.2721 29.6482 21.7346 29.6482 13.4659C29.6482 13.1888 29.6482 12.9263 29.6336 12.6492C30.8586 11.7742 31.9086 10.6659 32.7544 9.39714Z" fill="white"/>
</g>
</svg>
