<svg width="35" height="36" viewBox="0 0 35 36" fill="none" xmlns="http://www.w3.org/2000/svg">
<g id="mdi:linkedin">
<path id="Vector" d="M27.7083 5.02344C28.4819 5.02344 29.2237 5.33073 29.7707 5.87771C30.3177 6.42469 30.625 7.16656 30.625 7.9401V28.3568C30.625 29.1303 30.3177 29.8722 29.7707 30.4192C29.2237 30.9661 28.4819 31.2734 27.7083 31.2734H7.29167C6.51812 31.2734 5.77625 30.9661 5.22927 30.4192C4.68229 29.8722 4.375 29.1303 4.375 28.3568V7.9401C4.375 7.16656 4.68229 6.42469 5.22927 5.87771C5.77625 5.33073 6.51812 5.02344 7.29167 5.02344H27.7083ZM26.9792 27.6276V19.8984C26.9792 18.6376 26.4783 17.4283 25.5867 16.5367C24.6951 15.6452 23.4859 15.1443 22.225 15.1443C20.9854 15.1443 19.5417 15.9026 18.8417 17.0401V15.4214H14.7729V27.6276H18.8417V20.438C18.8417 19.3151 19.7458 18.3964 20.8688 18.3964C21.4102 18.3964 21.9295 18.6115 22.3124 18.9943C22.6953 19.3772 22.9104 19.8965 22.9104 20.438V27.6276H26.9792ZM10.0333 13.1318C10.6831 13.1318 11.3063 12.8736 11.7657 12.4142C12.2252 11.9547 12.4833 11.3316 12.4833 10.6818C12.4833 9.32552 11.3896 8.21719 10.0333 8.21719C9.37969 8.21719 8.75281 8.47685 8.29061 8.93905C7.82841 9.40125 7.56875 10.0281 7.56875 10.6818C7.56875 12.038 8.67708 13.1318 10.0333 13.1318ZM12.0604 27.6276V15.4214H8.02083V27.6276H12.0604Z" fill="white"/>
</g>
</svg>
