<svg width="172" height="43" viewBox="0 0 172 43" fill="none" xmlns="http://www.w3.org/2000/svg">
<path fill-rule="evenodd" clip-rule="evenodd" d="M133.172 33.9124L150.306 0.59375H156.443L139.293 33.9124H133.172ZM0 16.136L0.0139997 16.1292L0.0381808 16.1175L0.0460141 16.1137C7.96848 12.2672 15.8909 8.4207 23.8118 4.57422C23.5544 5.91437 23.2975 7.25492 23.0406 8.59548C22.7834 9.93729 22.5262 11.2791 22.2686 12.6205C19.7683 13.7009 17.2676 14.7817 14.7669 15.8625L14.7305 15.8782L14.6994 15.8917C12.1777 16.9815 9.65595 18.0714 7.13463 19.1609C9.86255 20.4612 12.5905 21.7609 15.3189 23.0608L15.3378 23.0698L15.3408 23.0713L19.6405 25.1199C19.4275 26.1296 19.2141 27.1394 19.0008 28.1492C18.7875 29.1587 18.5741 30.1682 18.3612 31.1777C12.2403 28.1966 6.12095 25.2138 0 22.2294V16.136ZM157.076 7.37695C156.62 8.27162 156.163 9.16587 155.706 10.0601L155.705 10.0623C155.248 10.9558 154.791 11.8494 154.335 12.7433C155.753 13.4152 157.17 14.0868 158.588 14.7584L158.589 14.7588L158.59 14.7592L158.591 14.7596L158.591 14.7601L158.592 14.7605L158.593 14.7609L158.594 14.7613L158.595 14.7617L158.604 14.7661C160.69 15.7542 162.775 16.7422 164.86 17.7308C162.118 18.8373 159.377 19.9434 156.635 21.0495C153.888 22.1578 151.141 23.266 148.394 24.3747C147.708 25.7445 147.023 27.1146 146.338 28.4847C145.639 29.8828 144.939 31.2808 144.24 32.6785L144.263 32.6692L144.333 32.6412L144.426 32.6039C153.617 28.9157 162.808 25.2275 172 21.541V14.395L171.994 14.3922C167.021 12.0549 162.049 9.71752 157.078 7.37857L157.076 7.37695ZM27.6627 13.6221L27.4734 14.5397H27.4718L23.8105 31.8711H32.2762L35.021 18.805C35.7577 15.3024 37.1681 13.8192 39.2166 13.8192C41.0868 13.8192 41.5532 15.0854 41.0383 17.3881L37.9956 31.8711H46.416L49.491 17.3185C50.9484 10.4397 48.5745 7.4375 43.668 7.4375C39.9841 7.4375 37.8823 9.17663 36.7374 10.4866C36.8589 9.89236 37.0548 8.61149 37.1163 7.95729H28.7721C28.5137 9.49867 28.1851 11.0908 27.6627 13.6221ZM62.12 21.6692C62.0293 22.0805 61.9677 22.4448 61.9516 22.8691C61.8706 24.9628 62.5377 26.7052 64.6995 26.7052C66.5617 26.7052 67.5009 25.6332 68.1033 24.2358H76.6175C75.212 28.4071 71.4827 32.3889 64.089 32.3889C56.6953 32.3889 53.5215 27.8776 53.5215 22.325C53.5215 16.2154 56.9933 7.43555 67.2612 7.43555C74.8266 7.43555 77.879 11.5631 77.879 17.0801C77.879 18.8467 77.5891 20.3754 77.2248 21.6692H62.1216H62.12ZM69.7533 17.004C69.8602 16.5295 69.8764 16.1587 69.8764 15.851C69.8764 14.2674 69.2449 12.9185 67.2062 12.9185C65.0428 12.9185 63.749 14.4147 63.0834 17.004H69.7533ZM92.8376 10.6175C94.0197 9.20058 96.0665 7.43717 99.7471 7.43717L99.7455 7.43555C104.168 7.43555 107.172 10.5883 107.172 16.6591C107.172 24.3394 102.675 32.3889 94.1282 32.3889C91.5195 32.3889 89.6265 31.3931 88.7731 30.1478L86.179 42.0691H77.7344C79.8022 33.1873 81.7632 24.1192 83.5979 14.8633C84.0561 12.5525 84.5031 10.2515 84.937 7.95696H93.1971C93.1971 8.49254 92.9994 9.661 92.85 10.5441L92.8376 10.6175ZM90.5495 20.4223C89.8516 23.7986 90.0831 26.4202 93.0384 26.4202C96.7109 26.4202 98.4986 20.3948 98.4986 17.2145C98.4986 14.4908 97.3943 13.5176 95.6552 13.5176C93.0837 13.5176 91.466 16.0745 90.5495 20.4223ZM117.584 24.3524C117.589 24.4049 117.594 24.4567 117.601 24.5076C117.604 24.5326 117.607 24.5573 117.611 24.5819C117.59 24.5061 117.572 24.429 117.557 24.3507H117.583L117.584 24.3524ZM117.556 24.3488C117.556 24.3494 117.556 24.3501 117.557 24.3507H109.652V24.3488H117.556ZM117.611 24.5841C117.611 24.5834 117.611 24.5827 117.611 24.5819C117.829 26.0872 118.928 26.8574 120.778 26.8574C122.609 26.8574 123.479 26.1271 123.479 24.856V24.8551V24.854C123.479 24.8099 123.477 24.7666 123.474 24.7241C123.491 24.6006 123.5 24.4757 123.5 24.3504C123.5 23.3929 122.746 23.1871 120.91 22.686C120.581 22.5964 120.218 22.4974 119.819 22.383C121.966 22.9981 123.045 23.5025 123.37 24.2794C123.428 24.4182 123.462 24.5657 123.474 24.7241C123.474 24.7243 123.474 24.7245 123.474 24.7247C123.462 24.5661 123.428 24.4184 123.369 24.2794C123.043 23.5036 121.964 22.9996 119.819 22.3849C114.947 21.0305 112.828 19.4761 112.147 17.35C112.492 18.4238 113.203 19.3518 114.451 20.1818C112.536 18.9082 111.885 17.404 111.885 15.4961C111.885 14.6635 112.009 13.8579 112.258 13.0988C112.278 13.0387 112.298 12.9789 112.32 12.9194C113.456 9.75059 116.82 7.43555 122.488 7.43555C126.922 7.43555 129.924 8.7395 131.521 10.7221C130.429 9.36562 128.681 8.32645 126.265 7.80503C130.818 8.78771 133.003 11.6094 132.882 14.9293V14.9313H125.111C125.098 13.6164 124.347 12.6659 122.329 12.6659C122.267 12.6659 122.205 12.6669 122.144 12.6689C122.205 12.6656 122.267 12.6639 122.329 12.6639C121.166 12.6639 119.981 13.0121 119.981 14.2751V14.276V14.2771C119.981 14.6542 120.141 14.9499 120.503 15.2191C120.909 15.6436 121.836 15.9187 123.62 16.4365C123.81 16.4931 124.009 16.5515 124.217 16.6121C127.797 17.664 129.871 18.9731 130.924 20.6112C130.134 19.382 128.771 18.3379 126.628 17.4488C130.492 19.0515 131.821 21.1575 131.821 23.944C131.821 28.8088 128.137 31.364 123.471 32.1331C126.458 31.6409 129.042 30.417 130.516 28.324C128.53 31.146 124.526 32.3889 120.239 32.3889C114.781 32.3889 111.252 30.5471 110.08 27.2541C111.253 30.546 114.782 32.387 120.239 32.387C114.93 32.387 111.357 30.4048 110.05 27.1688C110.05 27.1687 110.05 27.1685 110.05 27.1683C109.658 26.1994 109.47 25.1181 109.5 23.944H117.5C117.511 24.0819 117.53 24.217 117.556 24.3488H117.583L117.584 24.3504C117.589 24.4036 117.594 24.456 117.601 24.5076C117.604 24.5333 117.607 24.5588 117.611 24.5841ZM117.611 24.5841C117.831 26.0867 118.93 26.8555 120.778 26.8555C119.096 26.8555 117.971 25.9133 117.611 24.5841ZM120.778 26.8555C122.428 26.8555 123.315 25.8532 123.474 24.7247C123.477 24.7674 123.479 24.8108 123.479 24.8551C123.478 26.1256 122.609 26.8555 120.778 26.8555ZM124.217 16.6102C124.049 16.561 123.886 16.514 123.731 16.4688C123.693 16.4579 123.656 16.4472 123.62 16.4365C122.038 15.9668 121.044 15.6226 120.503 15.2191C120.501 15.2168 120.498 15.2146 120.496 15.2123C121.101 15.6666 122.277 16.0449 124.217 16.6102ZM120.496 15.2123C120.314 15.0185 120.239 14.7934 120.239 14.5C120.239 13.3049 121.069 12.7276 122.144 12.6689C121.044 12.7055 119.982 13.0809 119.981 14.276C119.981 14.6505 120.14 14.9446 120.496 15.2123ZM90.7541 37.3868L92.2654 38.3298V38.3306C93.6259 39.1684 94.0448 40.3494 93.3418 41.3516C93.3418 41.3516 92.8631 42.0545 91.5465 42.0545C89.7368 42.0545 88.974 41.5008 88.974 41.5008V39.3919H89.1239C89.1838 40.5887 89.4981 41.8902 91.5472 41.8902C93.3865 41.8902 92.9986 40.1698 91.8609 39.4214L90.3504 38.5094C88.9293 37.5216 88.6301 36.7746 89.1239 35.7869C89.1239 35.7869 89.5126 34.8748 91.0382 34.8748C92.7592 34.8748 93.4766 35.3528 93.4766 35.3528V37.2527H93.3274C93.2676 36.2058 92.8782 35.0385 91.0382 35.0385C89.408 35.0385 89.4527 36.5641 90.7541 37.3868ZM98.1597 34.8748C95.8857 34.8748 94.7638 36.4906 94.7638 38.4647C94.7638 40.4388 95.8857 42.0545 98.1597 42.0545C100.434 42.0545 101.555 40.4244 101.555 38.4647C101.555 36.505 100.448 34.8748 98.1597 34.8748ZM98.1597 41.8909C96.9773 41.8909 95.96 41.172 95.96 38.4654C95.96 35.7587 96.9773 35.0399 98.1597 35.0399C99.3422 35.0399 100.343 35.7587 100.343 38.4654C100.343 41.172 99.3408 41.8909 98.1597 41.8909ZM103.89 31.3243V40.7528V40.7536C103.89 41.577 103.964 41.6217 104.503 41.7565V41.9209H102.259V41.7565C102.827 41.5914 102.857 41.5171 102.857 40.7536V32.227C102.857 32.0813 102.848 31.9595 102.821 31.8585C102.751 31.5983 102.563 31.4771 102.109 31.4339V31.2969C102.407 31.3459 102.73 31.3711 103.079 31.3711C103.364 31.3711 103.634 31.3546 103.89 31.3243ZM111.023 40.7389V35.1562H111.021V34.875L109.181 35.1439V35.3083C109.231 35.3083 109.279 35.3083 109.324 35.309C109.498 35.3134 109.627 35.3213 109.722 35.3458C109.727 35.3468 109.732 35.3482 109.737 35.3497L109.743 35.3516C109.746 35.353 109.75 35.3537 109.753 35.3552C109.762 35.3581 109.77 35.361 109.778 35.3638L109.778 35.3639L109.785 35.3668L109.788 35.3682C109.794 35.3711 109.8 35.3732 109.806 35.3761C109.812 35.3797 109.819 35.3826 109.825 35.3862C109.825 35.3862 109.826 35.3862 109.827 35.3869C109.992 35.4857 109.992 35.7124 109.992 36.2475L109.992 36.2954V40.2443C109.767 40.8882 109.228 41.4866 108.332 41.4866C107.435 41.4866 106.641 41.0374 106.641 39.7663V34.875L104.801 35.1439V35.3083C105.639 35.3083 105.639 35.3682 105.639 36.3704V39.8117C105.639 41.7116 106.865 42.0555 107.897 42.0555C108.93 42.0555 109.782 41.3676 109.992 40.6048V41.8464C109.992 41.8464 109.992 42.1153 110.336 42.0411L111.787 41.8017V41.6517C111.159 41.5775 111.024 41.4571 111.024 40.7397L111.023 40.7389ZM114.884 41.4872C115.318 41.4872 115.677 41.1584 115.797 40.7986V40.7979L115.916 40.8578C115.752 41.4865 115.183 42.0546 114.39 42.0546C113.358 42.0546 112.7 41.5766 112.7 39.7662V35.1734H111.951L111.922 35.009H112.7V33.541H113.732V35.009H115.497L115.467 35.1734H113.732V39.7215C113.732 41.0827 114.197 41.4872 114.884 41.4872ZM117.165 34.6466C117.589 34.6466 117.957 34.2976 117.957 33.8737C117.957 33.4497 117.589 33.082 117.165 33.082C116.742 33.082 116.393 33.4317 116.393 33.8737C116.393 34.3157 116.724 34.6466 117.165 34.6466ZM117.951 34.875V40.7533V40.7541C117.951 41.5775 118.026 41.6222 118.565 41.757V41.9214H116.336V41.757C116.904 41.5919 116.934 41.5176 116.934 40.7541V36.1771C116.934 35.6688 116.814 35.4583 116.186 35.3689V35.2189L117.951 34.875ZM122.767 34.875C120.493 34.875 119.371 36.4908 119.371 38.4649C119.371 40.439 120.493 42.0548 122.767 42.0548C125.041 42.0548 126.162 40.4246 126.162 38.4649C126.162 36.5052 125.055 34.875 122.767 34.875ZM122.767 41.8911C121.585 41.8911 120.567 41.1723 120.567 38.4656C120.567 35.759 121.585 35.0401 122.767 35.0401C123.949 35.0401 124.95 35.759 124.95 38.4656C124.95 41.1723 123.948 41.8911 122.767 41.8911ZM132.671 37.3134V40.7533V40.7541C132.671 41.5775 132.746 41.6366 133.284 41.7714V41.9214H131.055V41.7714C131.624 41.607 131.653 41.5176 131.653 40.7541V37.374C131.653 36.2074 131.055 35.4446 129.948 35.4446C129.096 35.4446 128.482 36.2521 128.303 36.7604V40.7541C128.303 41.5775 128.377 41.6222 128.916 41.757V41.9214H126.672V41.757C127.241 41.5919 127.27 41.5176 127.27 40.7541V36.1916C127.27 35.6688 127.151 35.4583 126.523 35.3689V35.2189L128.303 34.875V36.4151C128.603 35.578 129.574 34.875 130.517 34.875C131.744 34.875 132.671 35.5181 132.671 37.3134ZM137.247 38.3298L135.737 37.3868C134.435 36.5641 134.391 35.0385 136.021 35.0385C137.861 35.0385 138.25 36.2058 138.309 37.2527H138.459V35.3528C138.459 35.3528 137.742 34.8748 136.021 34.8748C134.495 34.8748 134.106 35.7869 134.106 35.7869C133.613 36.7746 133.912 37.5216 135.333 38.5094L136.844 39.4214C137.98 40.1698 138.369 41.8902 136.53 41.8902C134.48 41.8902 134.167 40.5887 134.106 39.3919H133.957V41.5008C133.957 41.5008 134.72 42.0545 136.529 42.0545C137.845 42.0545 138.325 41.3516 138.325 41.3516C139.028 40.3494 138.609 39.1684 137.247 38.3306V38.3298Z" fill="#E9EAEC"/>
</svg>
