<svg width="150" height="150" viewBox="0 0 150 150" fill="none" xmlns="http://www.w3.org/2000/svg">
<circle cx="75" cy="75" r="25" fill="#2C2D31"/>
<circle cx="75" cy="75" r="25" fill="#2C2D31"/>
<circle cx="75" cy="75" r="25" fill="#2C2D31"/>
<path d="M81.1204 74.0595C81.1204 78.4029 76.6321 81.499 75.3861 82.275C75.2912 82.3351 75.1811 82.367 75.0688 82.367C74.9564 82.367 74.8463 82.3351 74.7514 82.275C73.5058 81.499 69.0171 78.4029 69.0171 74.0595C69.0171 70.7173 71.7266 68.0078 75.0688 68.0078C78.411 68.0078 81.1204 70.7173 81.1204 74.0595Z" fill="#FDFDFD" fill-opacity="0.2"/>
<path d="M77.7584 74.0607C77.7584 74.7741 77.475 75.4582 76.9706 75.9626C76.4662 76.467 75.7821 76.7504 75.0688 76.7504C74.3554 76.7504 73.6713 76.467 73.1669 75.9626C72.6625 75.4582 72.3792 74.7741 72.3792 74.0607C72.3792 73.3474 72.6625 72.6633 73.1669 72.1589C73.6713 71.6545 74.3554 71.3711 75.0688 71.3711C75.7821 71.3711 76.4662 71.6545 76.9706 72.1589C77.475 72.6633 77.7584 73.3474 77.7584 74.0607Z" fill="white" fill-opacity="0.4"/>
<path d="M81.1204 74.0595C81.1204 78.4029 76.6321 81.499 75.3861 82.275C75.2912 82.3351 75.1811 82.367 75.0688 82.367C74.9564 82.367 74.8463 82.3351 74.7514 82.275C73.5058 81.499 69.0171 78.4029 69.0171 74.0595C69.0171 70.7173 71.7266 68.0078 75.0688 68.0078C78.411 68.0078 81.1204 70.7173 81.1204 74.0595Z" stroke="#E9EAEC" stroke-width="1.00861" stroke-linecap="round" stroke-linejoin="round"/>
<path d="M77.7584 74.0607C77.7584 74.7741 77.475 75.4582 76.9706 75.9626C76.4662 76.467 75.7821 76.7504 75.0688 76.7504C74.3554 76.7504 73.6713 76.467 73.1669 75.9626C72.6625 75.4582 72.3792 74.7741 72.3792 74.0607C72.3792 73.3474 72.6625 72.6633 73.1669 72.1589C73.6713 71.6545 74.3554 71.3711 75.0688 71.3711C75.7821 71.3711 76.4662 71.6545 76.9706 72.1589C77.475 72.6633 77.7584 73.3474 77.7584 74.0607Z" stroke="#E9EAEC" stroke-width="1.00861" stroke-linecap="round" stroke-linejoin="round"/>
</svg>
