<svg width="67" height="66" viewBox="0 0 67 66" fill="none" xmlns="http://www.w3.org/2000/svg">
<g id="database-8 1">
<g id="database--raid-storage-code-disk-programming-database-array-hard-disc">
<path id="Vector" d="M8.0625 15.125C8.0625 9.05025 19.4516 4.125 33.5 4.125C47.5484 4.125 58.9375 9.05025 58.9375 15.125C58.9375 15.125 59.625 22 59.625 33C59.625 44 58.9375 50.875 58.9375 50.875C58.9375 56.9497 47.5484 61.875 33.5 61.875C19.4516 61.875 8.0625 56.9497 8.0625 50.875C8.0625 50.875 7.375 44 7.375 33C7.375 22 8.0625 15.125 8.0625 15.125Z" fill="#FDFDFD" fill-opacity="0.05"/>
<path id="Vector_2" d="M33.5 26.125C47.5484 26.125 58.9375 21.1998 58.9375 15.125C58.9375 9.05025 47.5484 4.125 33.5 4.125C19.4516 4.125 8.0625 9.05025 8.0625 15.125C8.0625 21.1998 19.4516 26.125 33.5 26.125Z" fill="#FDFDFD" fill-opacity="0.05"/>
<path id="Vector_3" d="M33.5 26.125C47.5484 26.125 58.9375 21.1998 58.9375 15.125C58.9375 9.05025 47.5484 4.125 33.5 4.125C19.4516 4.125 8.0625 9.05025 8.0625 15.125C8.0625 21.1998 19.4516 26.125 33.5 26.125Z" fill="#FDFDFD" fill-opacity="0.05"/>
<path id="Ellipse 23" d="M58.9375 15.125C58.9375 21.1998 47.5484 26.125 33.5 26.125C19.4516 26.125 8.0625 21.1998 8.0625 15.125" stroke="#E9EAEC" stroke-width="4.0625" stroke-linecap="round" stroke-linejoin="round"/>
<path id="Ellipse 24" d="M59.625 33.2812C59.625 39.2006 47.9279 43.9994 33.5 43.9994C19.0721 43.9994 7.375 39.2006 7.375 33.2812" stroke="#E9EAEC" stroke-width="4.0625" stroke-linecap="round" stroke-linejoin="round"/>
<path id="Ellipse 431" d="M16.3125 33C16.4948 33 16.6697 32.9276 16.7986 32.7986C16.9276 32.6697 17 32.4948 17 32.3125C17 32.1302 16.9276 31.9553 16.7986 31.8264C16.6697 31.6974 16.4948 31.625 16.3125 31.625" stroke="#E9EAEC" stroke-width="4.0625" stroke-linecap="round" stroke-linejoin="round"/>
<path id="Ellipse 433" d="M16.3125 33C16.1302 33 15.9553 32.9276 15.8264 32.7986C15.6974 32.6697 15.625 32.4948 15.625 32.3125C15.625 32.1302 15.6974 31.9553 15.8264 31.8264C15.9553 31.6974 16.1302 31.625 16.3125 31.625" stroke="#E9EAEC" stroke-width="4.0625" stroke-linecap="round" stroke-linejoin="round"/>
<path id="Vector_4" d="M8.0625 15.125C8.0625 9.05025 19.4516 4.125 33.5 4.125C47.5484 4.125 58.9375 9.05025 58.9375 15.125C58.9375 15.125 59.625 22 59.625 33C59.625 44 58.9375 50.875 58.9375 50.875C58.9375 56.9498 47.5484 61.875 33.5 61.875C19.4516 61.875 8.0625 56.9498 8.0625 50.875C8.0625 50.875 7.375 44 7.375 33C7.375 22 8.0625 15.125 8.0625 15.125Z" stroke="#E9EAEC" stroke-width="4.0625" stroke-linecap="round" stroke-linejoin="round"/>
<path id="Ellipse 431_2" d="M16.3125 50.875C16.4948 50.875 16.6697 50.8026 16.7986 50.6736C16.9276 50.5447 17 50.3698 17 50.1875C17 50.0052 16.9276 49.8303 16.7986 49.7014C16.6697 49.5724 16.4948 49.5 16.3125 49.5" stroke="#E9EAEC" stroke-width="4.0625" stroke-linecap="round" stroke-linejoin="round"/>
<path id="Ellipse 433_2" d="M16.3125 50.875C16.1302 50.875 15.9553 50.8026 15.8264 50.6736C15.6974 50.5447 15.625 50.3698 15.625 50.1875C15.625 50.0052 15.6974 49.8303 15.8264 49.7014C15.9553 49.5724 16.1302 49.5 16.3125 49.5" stroke="#E9EAEC" stroke-width="4.0625" stroke-linecap="round" stroke-linejoin="round"/>
<path id="Ellipse 431_3" d="M25.25 35.4062C25.4323 35.4062 25.6072 35.3338 25.7361 35.2049C25.8651 35.076 25.9375 34.9011 25.9375 34.7188C25.9375 34.5364 25.8651 34.3615 25.7361 34.2326C25.6072 34.1037 25.4323 34.0312 25.25 34.0312" stroke="#E9EAEC" stroke-width="4.0625" stroke-linecap="round" stroke-linejoin="round"/>
<path id="Ellipse 433_3" d="M25.25 35.4062C25.0677 35.4062 24.8928 35.3338 24.7639 35.2049C24.6349 35.076 24.5625 34.9011 24.5625 34.7188C24.5625 34.5364 24.6349 34.3615 24.7639 34.2326C24.8928 34.1037 25.0677 34.0312 25.25 34.0312" stroke="#E9EAEC" stroke-width="4.0625" stroke-linecap="round" stroke-linejoin="round"/>
<path id="Ellipse 431_4" d="M25.25 53.2812C25.4323 53.2812 25.6072 53.2088 25.7361 53.0799C25.8651 52.951 25.9375 52.7761 25.9375 52.5938C25.9375 52.4114 25.8651 52.2365 25.7361 52.1076C25.6072 51.9787 25.4323 51.9062 25.25 51.9062" stroke="#E9EAEC" stroke-width="4.0625" stroke-linecap="round" stroke-linejoin="round"/>
<path id="Ellipse 433_4" d="M25.25 53.2812C25.0677 53.2812 24.8928 53.2088 24.7639 53.0799C24.6349 52.951 24.5625 52.7761 24.5625 52.5938C24.5625 52.4114 24.6349 52.2365 24.7639 52.1076C24.8928 51.9787 25.0677 51.9062 25.25 51.9062" stroke="#E9EAEC" stroke-width="4.0625" stroke-linecap="round" stroke-linejoin="round"/>
</g>
</g>
</svg>
