<svg width="67" height="66" viewBox="0 0 67 66" fill="none" xmlns="http://www.w3.org/2000/svg">
<g id="bug-virus-browser-2 1">
<g id="bug-virus-browser--bug-browser-file-virus-threat-danger-internet">
<path id="Union" d="M56.273 11.1512C55.9938 7.6395 53.2865 4.97475 49.772 4.71762C45.7308 4.422 39.4952 4.125 30.7502 4.125C22.0052 4.125 15.7682 4.422 11.7271 4.71762C8.21258 4.97475 5.50521 7.6395 5.22746 11.1526C5.03609 13.6194 4.89581 16.0899 4.80671 18.5625C4.68151 21.9986 4.621 25.4367 4.62521 28.875C4.62521 36.949 4.92358 42.7639 5.22746 46.5987C5.50521 50.1119 8.21258 52.7752 11.7271 53.0337C15.2278 53.2895 20.3731 53.5466 27.3691 53.6112C27.5891 53.2304 27.8572 52.8742 28.1707 52.5511C27.4775 52.0401 26.9142 51.3732 26.5264 50.6044C26.1385 49.8355 25.9368 48.9862 25.9377 48.125C25.9377 46.31 26.8163 44.7012 28.1707 43.6989C27.2911 42.786 26.7537 41.5973 26.6493 40.334C26.545 39.0706 26.88 37.8099 27.5978 36.765C28.3157 35.7201 29.3722 34.9551 30.589 34.5993C31.8057 34.2435 33.108 34.3187 34.2757 34.8122C35.3464 33.4711 36.6359 32.3206 38.09 31.4091L37.7888 30.2087C37.4896 29.0131 37.6007 27.7515 38.1043 26.6266C38.6079 25.5016 39.4747 24.5783 40.5658 24.005C41.6569 23.4316 42.9089 23.2414 44.1211 23.4647C45.3332 23.6881 46.4352 24.3121 47.2502 25.2367C47.9172 24.4808 48.7791 23.9227 49.7418 23.6235C50.7045 23.3243 51.731 23.2954 52.709 23.54C54.2215 23.9181 55.7931 24.8889 56.8642 26.1429C56.8202 21.1434 56.669 16.137 56.273 11.1512Z" fill="#FDFDFD" fill-opacity="0.05"/>
<path id="Intersect" d="M56.6956 18.5625H4.80859C4.92134 15.5568 5.07397 13.0996 5.22934 11.1512C5.50709 7.6395 8.21447 4.97475 11.729 4.71763C15.7715 4.422 22.0071 4.125 30.7521 4.125C39.4971 4.125 45.7327 4.422 49.7738 4.71763C53.2883 4.97475 55.9957 7.6395 56.2748 11.1526C56.4288 13.0996 56.5815 15.5568 56.6956 18.5625Z" fill="#FDFDFD" fill-opacity="0.05"/>
<path id="Rectangle 1096" d="M47.25 61.875C40.9594 61.875 36.4467 57.6593 36.2885 51.37C36.2622 50.2885 36.2493 49.2068 36.25 48.125C36.25 46.9466 36.2638 45.8672 36.2885 44.88C36.4467 38.5907 40.9594 34.375 47.25 34.375C53.5407 34.375 58.0534 38.5907 58.2115 44.88C58.2363 45.8672 58.25 46.9466 58.25 48.125C58.25 49.3034 58.2363 50.3828 58.2115 51.37C58.0534 57.6593 53.5407 61.875 47.25 61.875Z" fill="#FDFDFD" fill-opacity="0.05"/>
<path id="Vector 1464" d="M5.3125 18.5625H56.1875" stroke="#E9EAEC" stroke-width="4.06869" stroke-linecap="round" stroke-linejoin="round"/>
<path id="Vector 1465" d="M15.625 28.875H32.125" stroke="#E9EAEC" stroke-width="4.06869" stroke-linecap="round" stroke-linejoin="round"/>
<path id="Vector 1505" d="M12.875 11.6875H15.625" stroke="#E9EAEC" stroke-width="4.06869" stroke-linecap="round" stroke-linejoin="round"/>
<path id="Vector 1506" d="M22.5 11.6875H25.25" stroke="#E9EAEC" stroke-width="4.06869" stroke-linecap="round" stroke-linejoin="round"/>
<path id="Rectangle 1095" d="M26.625 53.6016C20.0044 53.5274 15.0984 53.2785 11.7241 53.0324C8.20963 52.7739 5.505 50.1105 5.22725 46.5974C4.92337 42.7652 4.625 36.949 4.625 28.875C4.625 20.8024 4.92337 14.9875 5.22725 11.1512C5.505 7.6395 8.21237 4.97475 11.7269 4.71762C15.7694 4.422 22.005 4.125 30.75 4.125C39.495 4.125 45.7306 4.422 49.7731 4.71762C53.2876 4.97475 55.995 7.6395 56.2728 11.1526C56.5766 14.9848 56.875 20.801 56.875 28.875C56.875 29.579 56.8722 30.2665 56.8681 30.9375" stroke="#E9EAEC" stroke-width="4.06869" stroke-linecap="round" stroke-linejoin="round"/>
<path id="Vector 1466" d="M15.625 39.875H23.875" stroke="#E9EAEC" stroke-width="4.06869" stroke-linecap="round" stroke-linejoin="round"/>
<path id="Rectangle 56" d="M47.25 61.875C40.9594 61.875 36.4467 57.6593 36.2885 51.37C36.2622 50.2885 36.2493 49.2068 36.25 48.125C36.25 46.9466 36.2638 45.8672 36.2885 44.88C36.4467 38.5907 40.9594 34.375 47.25 34.375C53.5407 34.375 58.0534 38.5907 58.2115 44.88C58.2363 45.8672 58.25 46.9466 58.25 48.125C58.25 49.3034 58.2363 50.3828 58.2115 51.37C58.0534 57.6593 53.5407 61.875 47.25 61.875Z" stroke="#E9EAEC" stroke-width="4.06869" stroke-linejoin="round"/>
<path id="Vector 1494" d="M58.25 42.625L62.375 39.875" stroke="#E9EAEC" stroke-width="4.06869" stroke-linecap="round" stroke-linejoin="round"/>
<path id="Vector 1495" d="M58.25 53.625L62.375 56.375" stroke="#E9EAEC" stroke-width="4.06869" stroke-linecap="round" stroke-linejoin="round"/>
<path id="Vector 1496" d="M63.0625 48.125H58.25" stroke="#E9EAEC" stroke-width="4.06869" stroke-linecap="round" stroke-linejoin="round"/>
<path id="Vector 1494_2" d="M36.25 42.625L32.125 39.875" stroke="#E9EAEC" stroke-width="4.06869" stroke-linecap="round" stroke-linejoin="round"/>
<path id="Vector 1495_2" d="M36.25 53.625L32.125 56.375" stroke="#E9EAEC" stroke-width="4.06869" stroke-linecap="round" stroke-linejoin="round"/>
<path id="Vector 1496_2" d="M31.4375 48.125H36.25" stroke="#E9EAEC" stroke-width="4.06869" stroke-linecap="round" stroke-linejoin="round"/>
<path id="Vector 1497" d="M44.5 34.375L43.125 28.875" stroke="#E9EAEC" stroke-width="4.06869" stroke-linecap="round" stroke-linejoin="round"/>
<path id="Vector 1498" d="M50 34.375L51.375 28.875" stroke="#E9EAEC" stroke-width="4.06869" stroke-linecap="round" stroke-linejoin="round"/>
<path id="Vector 1507" d="M58.25 42.625C58.25 42.625 54.8125 45.375 47.25 45.375C39.6875 45.375 36.25 42.625 36.25 42.625" stroke="#E9EAEC" stroke-width="4.06869" stroke-linecap="round" stroke-linejoin="round"/>
</g>
</g>
</svg>
