<svg width="67" height="66" viewBox="0 0 67 66" fill="none" xmlns="http://www.w3.org/2000/svg">
<g id="browser-code-1-4 2">
<g id="browser-code-1--code-browser-line-shell-command-terminal">
<path id="Rectangle 1097" d="M5.36613 54.6466C5.65213 58.1598 8.34025 60.8479 11.8534 61.1339C16.2919 61.4941 23.3745 61.875 33.5 61.875C43.6255 61.875 50.7081 61.4941 55.1466 61.1339C58.6598 60.8479 61.3479 58.1598 61.6339 54.6466C61.9941 50.2081 62.375 43.1255 62.375 33C62.375 22.8745 61.9941 15.7919 61.6339 11.3534C61.3479 7.84025 58.6598 5.15213 55.1466 4.86613C50.7081 4.50588 43.6255 4.125 33.5 4.125C23.3745 4.125 16.2919 4.50588 11.8534 4.86613C8.34025 5.15213 5.65213 7.84025 5.36613 11.3534C5.00588 15.7919 4.625 22.8745 4.625 33C4.625 43.1255 5.00588 50.2081 5.36613 54.6466Z" fill="#FDFDFD" fill-opacity="0.05"/>
<path id="Intersect" d="M62.0804 18.5625H4.92578C5.05641 15.6516 5.21453 13.2591 5.36853 11.3534C5.65453 7.84025 8.34266 5.15213 11.8572 4.86613C16.2957 4.50588 23.3783 4.125 33.5024 4.125C43.6279 4.125 50.7105 4.50588 55.149 4.86613C58.6635 5.15213 61.3503 7.84025 61.6377 11.3534C61.7917 13.2591 61.9498 15.6516 62.0804 18.5625Z" fill="#FDFDFD" fill-opacity="0.05"/>
<path id="Vector 1462" d="M13 29H26.75" stroke="#E9EAEC" stroke-width="4.125" stroke-linecap="round" stroke-linejoin="round"/>
<path id="Vector 1506" d="M34 29H57" stroke="#E9EAEC" stroke-width="4.125" stroke-linecap="round" stroke-linejoin="round"/>
<path id="Vector 1503" d="M13 36H26.75" stroke="#E9EAEC" stroke-width="4.125" stroke-linecap="round" stroke-linejoin="round"/>
<path id="Vector 1504" d="M13 43H26.75" stroke="#E9EAEC" stroke-width="4.125" stroke-linecap="round" stroke-linejoin="round"/>
<path id="Vector 1505" d="M13 50H26.75" stroke="#E9EAEC" stroke-width="4.125" stroke-linecap="round" stroke-linejoin="round"/>
<path id="Rectangle 1096" d="M5.36613 54.6466C5.65213 58.1598 8.34025 60.8479 11.8534 61.1339C16.2919 61.4941 23.3745 61.875 33.5 61.875C43.6255 61.875 50.7081 61.4941 55.1466 61.1339C58.6598 60.8479 61.3479 58.1598 61.6339 54.6466C61.9941 50.2081 62.375 43.1255 62.375 33C62.375 22.8745 61.9941 15.7919 61.6339 11.3534C61.3479 7.84025 58.6598 5.15213 55.1466 4.86613C50.7081 4.50588 43.6255 4.125 33.5 4.125C23.3745 4.125 16.2919 4.50588 11.8534 4.86613C8.34025 5.15213 5.65213 7.84025 5.36613 11.3534C5.00588 15.7919 4.625 22.8745 4.625 33C4.625 43.1255 5.00588 50.2081 5.36613 54.6466Z" stroke="#E9EAEC" stroke-width="4.125" stroke-linejoin="round"/>
<path id="Vector 146" d="M5.3125 18.5625H61.6875" stroke="#E9EAEC" stroke-width="4.125" stroke-linecap="round" stroke-linejoin="round"/>
<path id="Vector 1501" d="M14.25 11.6875H17" stroke="#E9EAEC" stroke-width="4.125" stroke-linecap="round" stroke-linejoin="round"/>
<path id="Vector 1502" d="M25.25 11.6875H28" stroke="#E9EAEC" stroke-width="4.125" stroke-linecap="round" stroke-linejoin="round"/>
</g>
<rect id="Rectangle 1098" x="33" y="34" width="25" height="18" rx="5" fill="#E9EAEC"/>
</g>
</svg>
