<svg width="67" height="66" viewBox="0 0 67 66" fill="none" xmlns="http://www.w3.org/2000/svg">
<g id="ios-ipados 1">
<g id="ios-ipados">
<path id="Subtract" d="M33.4737 61.765C35.5279 61.8337 37.8228 61.875 40.3721 61.875C47.1604 61.875 52.1531 61.5807 55.5589 61.2645C59.0349 60.9414 61.5883 58.1845 61.8042 54.7003C62.0792 50.2659 62.3721 43.1668 62.3721 33C62.3721 22.8333 62.0806 15.7341 61.8042 11.2998C61.5883 7.8155 59.0349 5.05862 55.5589 4.7355C52.1531 4.41925 47.1604 4.125 40.3721 4.125C33.5851 4.125 28.5924 4.41925 25.1866 4.7355C21.7106 5.05862 19.1572 7.8155 18.9413 11.2998C18.8205 13.2648 18.7229 15.2312 18.6484 17.1985C20.5239 17.226 22.1547 17.3003 23.5558 17.3965C30.4336 17.8709 35.0577 23.4603 35.3217 29.7234C35.4496 32.7676 35.5596 37.0205 35.5596 42.625C35.5596 48.2295 35.4496 52.4824 35.3217 55.5266C35.2311 57.7269 34.5961 59.8704 33.4737 61.765Z" fill="#FDFDFD" fill-opacity="0.05"/>
<path id="Rectangle 1099" d="M4.85875 55.2671C5.00313 58.6977 7.441 61.4449 10.8675 61.6814C12.5175 61.7942 14.5511 61.8753 17 61.8753C19.4489 61.8753 21.4825 61.7942 23.1325 61.6814C26.559 61.4449 28.9969 58.6977 29.1413 55.2671C29.265 52.3136 29.375 48.1487 29.375 42.6253C29.375 37.1019 29.265 32.9371 29.1413 29.9836C28.9969 26.5529 26.559 23.8057 23.1325 23.5692C21.0911 23.4345 19.0458 23.3699 17 23.3753C14.5511 23.3753 12.5175 23.4564 10.8675 23.5692C7.441 23.8057 5.00313 26.5529 4.85875 29.9836C4.735 32.9371 4.625 37.1019 4.625 42.6253C4.625 48.1487 4.735 52.3136 4.85875 55.2671Z" fill="#FDFDFD" fill-opacity="0.05"/>
<path id="Rectangle 1097" d="M18.707 15.8125C18.7827 14.08 18.8638 12.5785 18.9422 11.2998C19.1594 7.8155 21.7128 5.05863 25.1888 4.7355C28.5933 4.41925 33.5873 4.125 40.3743 4.125C47.1627 4.125 52.1553 4.41925 55.5612 4.7355C59.0372 5.05863 61.5905 7.8155 61.8064 11.2998C62.0814 15.7341 62.3743 22.8332 62.3743 33C62.3743 43.1668 62.0828 50.2659 61.8064 54.7003C61.5905 58.1845 59.0358 60.9414 55.5612 61.2645C52.1553 61.5807 47.1627 61.875 40.3743 61.875C38.3888 61.875 36.5573 61.8503 34.8743 61.8063" stroke="#E9EAEC" stroke-width="4.125" stroke-linecap="round" stroke-linejoin="round"/>
<path id="Vector 1491" d="M39 55H41.75" stroke="#E9EAEC" stroke-width="4.125" stroke-linecap="round" stroke-linejoin="round"/>
<path id="Rectangle 1095" d="M4.85875 55.2671C5.00313 58.6977 7.441 61.4449 10.8675 61.6814C12.5175 61.7942 14.5511 61.8753 17 61.8753C19.4489 61.8753 21.4825 61.7942 23.1325 61.6814C26.559 61.4449 28.9969 58.6977 29.1412 55.2671C29.265 52.3136 29.375 48.1487 29.375 42.6253C29.375 37.1019 29.265 32.9371 29.1412 29.9836C28.9969 26.5529 26.559 23.8057 23.1325 23.5692C21.0911 23.4345 19.0458 23.3699 17 23.3753C14.5511 23.3753 12.5175 23.4564 10.8675 23.5692C7.441 23.8057 5.00313 26.5529 4.85875 29.9836C4.735 32.9371 4.625 37.1019 4.625 42.6253C4.625 48.1487 4.735 52.3136 4.85875 55.2671Z" stroke="#E9EAEC" stroke-width="4.125" stroke-linecap="round" stroke-linejoin="round"/>
<path id="Vector 1363" d="M15.625 55H18.375" stroke="#E9EAEC" stroke-width="4.125" stroke-linecap="round" stroke-linejoin="round"/>
</g>
</g>
</svg>
