<svg width="67" height="66" viewBox="0 0 67 66" fill="none" xmlns="http://www.w3.org/2000/svg">
<g id="synchronize-8 1">
<g id="synchronize--arrows-loading-load-sync-synchronize-arrow-reload">
<path id="Union" d="M36.4698 61.7208C34.7029 61.9051 33.1231 60.7116 33.1368 58.9351C33.1464 57.7938 33.3114 56.3844 33.8243 54.8169C34.2781 53.4323 35.6283 52.6266 37.0611 52.3626C39.8664 51.8503 42.5265 50.7333 44.8566 49.0892C47.1867 47.4451 49.1308 45.3133 50.5539 42.8421C54.8192 35.4556 53.7522 26.4548 48.5478 20.2934C47.5432 21.0695 46.5194 21.8205 45.4774 22.5457C43.5882 23.8519 41.3332 22.6309 41.3662 20.3333C41.4171 16.7391 41.8337 12.8327 42.2874 9.55743C42.4218 8.58561 42.9126 7.69843 43.6645 7.06825C44.4164 6.43807 45.3757 6.10987 46.3561 6.14743C49.6863 6.26843 53.6422 6.54068 57.2117 7.12368C59.4543 7.48943 60.2573 9.87368 58.6609 11.4907C57.6687 12.4904 56.6485 13.462 55.6016 14.4043C63.2053 23.4381 64.7563 36.6188 58.5111 47.4373C53.6986 55.7698 45.3619 60.7982 36.4698 61.7236V61.7208Z" fill="#FDFDFD" fill-opacity="0.05"/>
<path id="Union_2" d="M30.5306 4.28043C32.2975 4.09618 33.8773 5.29105 33.8622 7.06755C33.8467 8.46749 33.6147 9.8566 33.1747 11.1857C32.721 12.5689 31.3721 13.376 29.9393 13.64C27.1341 14.1522 24.4741 15.269 22.144 16.9128C19.8139 18.5567 17.8697 20.6882 16.4465 23.1592C12.1812 30.5457 13.2482 39.5478 18.4512 45.7092C19.6337 44.7989 20.654 44.0592 21.523 43.4569C23.4122 42.1493 25.6672 43.3703 25.6342 45.6679C25.5833 49.2622 25.1667 53.1685 24.7116 56.4438C24.5779 57.4156 24.0877 58.3031 23.3364 58.9338C22.585 59.5644 21.626 59.8933 20.6457 59.8566C17.3141 59.7355 13.3596 59.4633 9.78871 58.8803C7.54746 58.5132 6.74308 56.1289 8.33946 54.5119C9.33172 53.5127 10.3519 52.5415 11.3988 51.5997C3.79508 42.5645 2.24408 29.3838 8.49071 18.5667C13.3018 10.2342 21.6398 5.2058 30.5306 4.28043Z" fill="#FDFDFD" fill-opacity="0.05"/>
<path id="Union_3" d="M30.5306 4.28043C32.2975 4.09618 33.8773 5.29105 33.8622 7.06755C33.8467 8.46749 33.6147 9.8566 33.1747 11.1857C32.721 12.5689 31.3721 13.3761 29.9393 13.6401C27.1341 14.1522 24.4741 15.269 22.144 16.9128C19.8139 18.5567 17.8697 20.6882 16.4465 23.1592C12.1812 30.5457 13.2482 39.5478 18.4512 45.7092C19.6337 44.7989 20.654 44.0592 21.523 43.4569C23.4122 42.1493 25.6672 43.3703 25.6342 45.6679C25.5833 49.2622 25.1667 53.1685 24.7116 56.4438C24.5779 57.4156 24.0877 58.3031 23.3364 58.9338C22.585 59.5644 21.626 59.8933 20.6457 59.8566C17.3141 59.7356 13.3596 59.4633 9.78871 58.8803C7.54746 58.5132 6.74308 56.1289 8.33946 54.5119C9.33172 53.5127 10.3519 52.5415 11.3988 51.5997C3.79508 42.5646 2.24408 29.3838 8.49071 18.5667C13.3018 10.2342 21.6398 5.2058 30.5306 4.28043Z" stroke="#E9EAEC" stroke-width="4.125" stroke-linecap="round" stroke-linejoin="round"/>
<path id="Union_4" d="M36.4685 61.7182C34.7016 61.9025 33.1217 60.709 33.1368 58.9325C33.1465 57.7912 33.3115 56.3818 33.8243 54.8143C34.2781 53.4297 35.627 52.624 37.0597 52.36C39.8652 51.848 42.5255 50.7313 44.8558 49.0875C47.1861 47.4436 49.1306 45.312 50.554 42.8408C54.8178 35.453 53.7508 26.4508 48.5465 20.2908C47.5421 21.0673 46.5183 21.8183 45.4761 22.5431C43.5868 23.8493 41.3318 22.6283 41.3648 20.3307C41.4157 16.7365 41.8323 12.8301 42.2861 9.55484C42.4201 8.58302 42.9106 7.6957 43.6622 7.06527C44.4139 6.43484 45.373 6.1063 46.3533 6.14347C49.685 6.26447 53.6395 6.53672 57.2103 7.11972C59.4516 7.48547 60.256 9.86972 58.6596 11.4867C57.6673 12.4864 56.6471 13.458 55.6002 14.4003C63.204 23.4341 64.755 36.6148 58.5083 47.4333C53.6972 55.7658 45.3592 60.7928 36.4685 61.7182Z" stroke="#E9EAEC" stroke-width="4.125" stroke-linecap="round" stroke-linejoin="round"/>
</g>
</g>
</svg>
