<svg width="67" height="66" viewBox="0 0 67 66" fill="none" xmlns="http://www.w3.org/2000/svg">
<g id="hierarchy-15 1">
<g id="hierarchy-15--node-organization-links-structure-link-nodes-network-hierarchy">
<path id="Rectangle 65" d="M58.5915 61.8229C60.5688 61.7473 62.0758 60.4672 62.2449 58.4954C62.3379 57.3327 62.3814 56.1666 62.3755 55.0002C62.3755 53.5564 62.3205 52.4097 62.2435 51.5049C62.0758 49.5332 60.5688 48.2531 58.5915 48.1774C57.5616 48.1404 56.5311 48.123 55.5005 48.1252C54.2438 48.1252 53.2277 48.1458 52.4095 48.1774C50.4323 48.2531 48.9253 49.5332 48.7562 51.5049C48.6632 52.6676 48.6196 53.8338 48.6255 55.0002C48.6255 56.4439 48.6805 57.5907 48.7575 58.4954C48.9253 60.4672 50.4323 61.7473 52.4095 61.8229C53.4394 61.8601 54.47 61.8775 55.5005 61.8752C56.7573 61.8752 57.7734 61.8546 58.5915 61.8229Z" fill="white"/>
<path id="Rectangle 64" d="M58.5915 39.8229C60.5688 39.7473 62.0758 38.4672 62.2449 36.4954C62.3379 35.3327 62.3814 34.1666 62.3755 33.0002C62.3755 31.5564 62.3205 30.4097 62.2435 29.5049C62.0758 27.5332 60.5688 26.2531 58.5915 26.1774C57.5616 26.1404 56.5311 26.123 55.5005 26.1252C54.2438 26.1252 53.2277 26.1458 52.4095 26.1774C50.4323 26.2531 48.9253 27.5332 48.7562 29.5049C48.6632 30.6676 48.6196 31.8338 48.6255 33.0002C48.6255 34.4439 48.6805 35.5907 48.7575 36.4954C48.9253 38.4672 50.4323 39.7473 52.4095 39.8229C53.4394 39.8601 54.47 39.8775 55.5005 39.8752C56.7573 39.8752 57.7734 39.8546 58.5915 39.8229Z" fill="white"/>
<path id="Rectangle 63" d="M58.5915 17.8229C60.5688 17.7473 62.0758 16.4672 62.2449 14.4954C62.3379 13.3327 62.3814 12.1666 62.3755 11.0002C62.3755 9.55643 62.3205 8.40968 62.2435 7.50493C62.0758 5.53318 60.5688 4.25305 58.5915 4.17743C57.5616 4.14043 56.5311 4.12301 55.5005 4.12518C54.2438 4.12518 53.2277 4.1458 52.4095 4.17743C50.4323 4.25305 48.9253 5.53318 48.7562 7.50493C48.6632 8.66764 48.6196 9.83377 48.6255 11.0002C48.6255 12.4439 48.6805 13.5907 48.7575 14.4954C48.9253 16.4672 50.4323 17.7473 52.4095 17.8229C53.4394 17.8601 54.47 17.8775 55.5005 17.8752C56.7573 17.8752 57.7734 17.8546 58.5915 17.8229Z" fill="white"/>
<path id="Rectangle 62" d="M27.0444 46.5176C29.4135 46.3609 31.2519 44.8181 31.586 42.4683C31.8748 40.4401 32.125 37.4083 32.125 33C32.125 28.5918 31.8734 25.5599 31.586 23.5318C31.2533 21.1819 29.4135 19.6405 27.0444 19.4824C25.1441 19.3559 22.3639 19.25 18.375 19.25C14.3875 19.25 11.6059 19.3559 9.70563 19.4824C7.3365 19.6391 5.49812 21.1819 5.164 23.5318C4.87525 25.5613 4.625 28.5918 4.625 33C4.625 37.4083 4.87662 40.4401 5.164 42.4683C5.49812 44.8181 7.3365 46.3595 9.70563 46.5176C11.6059 46.6441 14.3861 46.75 18.375 46.75C22.3625 46.75 25.1441 46.6441 27.0444 46.5176Z" fill="#FDFDFD" fill-opacity="0.05"/>
<path id="Vector 978" d="M32.125 33H48.625" stroke="#FDFDFD" stroke-opacity="0.05" stroke-width="4.25" stroke-linecap="round" stroke-linejoin="round"/>
<path id="Rectangle 56" d="M27.0444 46.5176C29.4135 46.3609 31.2519 44.8181 31.586 42.4682C31.8747 40.4401 32.125 37.4083 32.125 33C32.125 28.5917 31.8734 25.5599 31.586 23.5318C31.2532 21.1819 29.4135 19.6405 27.0444 19.4824C25.1441 19.3559 22.3639 19.25 18.375 19.25C14.3875 19.25 11.6059 19.3559 9.70563 19.4824C7.3365 19.6391 5.49812 21.1819 5.164 23.5318C4.87525 25.5613 4.625 28.5917 4.625 33C4.625 37.4083 4.87662 40.4401 5.164 42.4682C5.49812 44.8181 7.3365 46.3595 9.70563 46.5176C11.6059 46.6441 14.3861 46.75 18.375 46.75C22.3625 46.75 25.1441 46.6441 27.0444 46.5176Z" stroke="#FDFDFD" stroke-opacity="0.05" stroke-width="4.25" stroke-linecap="round" stroke-linejoin="round"/>
<path id="Rectangle 58" d="M58.5915 17.8229C60.5688 17.7473 62.0758 16.4672 62.2449 14.4954C62.3379 13.3327 62.3814 12.1666 62.3755 11.0002C62.3755 9.55643 62.3205 8.40968 62.2435 7.50493C62.0758 5.53318 60.5688 4.25305 58.5915 4.17743C57.5616 4.14043 56.5311 4.12301 55.5005 4.12518C54.2438 4.12518 53.2277 4.1458 52.4095 4.17743C50.4323 4.25305 48.9253 5.53318 48.7562 7.50493C48.6632 8.66764 48.6196 9.83377 48.6255 11.0002C48.6255 12.4439 48.6805 13.5907 48.7575 14.4954C48.9253 16.4672 50.4323 17.7473 52.4095 17.8229C53.4394 17.8601 54.47 17.8775 55.5005 17.8752C56.7573 17.8752 57.7734 17.8546 58.5915 17.8229Z" stroke="#FDFDFD" stroke-opacity="0.05" stroke-width="4.25" stroke-linecap="round" stroke-linejoin="round"/>
<path id="Rectangle 60" d="M58.5915 39.8229C60.5688 39.7473 62.0758 38.4672 62.2449 36.4954C62.3379 35.3327 62.3814 34.1666 62.3755 33.0002C62.3755 31.5564 62.3205 30.4097 62.2435 29.5049C62.0758 27.5332 60.5688 26.2531 58.5915 26.1774C57.5616 26.1404 56.5311 26.123 55.5005 26.1252C54.2438 26.1252 53.2277 26.1458 52.4095 26.1774C50.4323 26.2531 48.9253 27.5332 48.7562 29.5049C48.6632 30.6676 48.6196 31.8338 48.6255 33.0002C48.6255 34.4439 48.6805 35.5907 48.7575 36.4954C48.9253 38.4672 50.4323 39.7473 52.4095 39.8229C53.4394 39.8601 54.47 39.8775 55.5005 39.8752C56.7573 39.8752 57.7734 39.8546 58.5915 39.8229Z" stroke="#FDFDFD" stroke-opacity="0.05" stroke-width="4.25" stroke-linecap="round" stroke-linejoin="round"/>
<path id="Rectangle 61" d="M58.5915 61.8229C60.5688 61.7473 62.0758 60.4672 62.2449 58.4954C62.3379 57.3327 62.3814 56.1666 62.3755 55.0002C62.3755 53.5564 62.3205 52.4097 62.2435 51.5049C62.0758 49.5332 60.5688 48.2531 58.5915 48.1774C57.5616 48.1404 56.5311 48.123 55.5005 48.1252C54.2438 48.1252 53.2277 48.1458 52.4095 48.1774C50.4323 48.2531 48.9253 49.5332 48.7562 51.5049C48.6632 52.6676 48.6196 53.8338 48.6255 55.0002C48.6255 56.4439 48.6805 57.5907 48.7575 58.4954C48.9253 60.4672 50.4323 61.7473 52.4095 61.8229C53.4394 61.8601 54.47 61.8775 55.5005 61.8752C56.7573 61.8752 57.7734 61.8546 58.5915 61.8229Z" stroke="#FDFDFD" stroke-opacity="0.05" stroke-width="4.25" stroke-linecap="round" stroke-linejoin="round"/>
<path id="Subtract" d="M48.6277 54.3751L45.3773 54.0795C44.0103 53.9553 42.7391 53.3244 41.8136 52.3108C40.888 51.2972 40.3749 49.9741 40.375 48.6015V17.3972C40.3749 16.0246 40.888 14.7016 41.8136 13.688C42.7391 12.6744 44.0103 12.0435 45.3773 11.9192L48.6277 11.625" stroke="#FDFDFD" stroke-opacity="0.05" stroke-width="4.25" stroke-linecap="round" stroke-linejoin="round"/>
</g>
</g>
</svg>
