<svg width="67" height="66" viewBox="0 0 67 66" fill="none" xmlns="http://www.w3.org/2000/svg">
<g id="dial-pad-finger-2 1">
<g id="dial-pad-finger-2--hand-lock-login-padlock-password-textbox-touch-type">
<path id="Union" d="M46.4083 25.1831C46.6874 28.9671 47.0779 34.7284 47.0779 37.2474C47.0779 37.2474 52.6769 37.2474 58.6967 39.281C61.5897 40.2573 63.5738 42.8478 63.7154 45.8975C63.9556 51.2359 62.9417 56.5563 60.7551 61.4323C60.4414 62.1345 59.9533 62.7449 59.3372 63.2053C58.7211 63.6657 57.9974 63.9608 57.2351 64.0626C55.2771 64.3294 52.1682 64.625 48.0198 64.625C43.8961 64.6161 39.7769 64.3512 35.686 63.8316C34.8249 63.7237 34.0096 63.3828 33.3279 62.8458C27.4374 58.1708 22.4737 51.1596 20.5762 48.3038C20.0303 47.4829 19.8103 46.4805 20.0798 45.5331C20.4974 44.0242 21.2319 42.6217 22.2344 41.4191C23.6507 39.7347 26.0665 39.8214 27.9379 40.9819C31.5404 43.2163 33.8848 45.0697 33.8848 45.0697C33.8848 36.8582 34.2877 29.3618 34.5654 25.1501C34.7098 22.9886 36.1439 21.1008 38.2875 20.7914C39.0096 20.6844 39.7384 20.6288 40.4683 20.625C41.2108 20.625 41.9492 20.691 42.6394 20.79C44.8009 21.0994 46.2488 23.0051 46.4083 25.1831Z" fill="#FDFDFD" fill-opacity="0.05"/>
<path id="Rectangle 123" d="M4.625 8.93785C4.625 6.1521 6.65175 4.3316 9.43475 4.21335C11.0391 4.15073 12.6445 4.12139 14.25 4.12535C16.2286 4.12535 17.8112 4.1611 19.0652 4.21335C21.8482 4.3316 23.875 6.1521 23.875 8.93785C23.875 11.7222 21.8482 13.5441 19.0652 13.6624C17.8112 13.7146 16.23 13.7504 14.25 13.7504C12.2714 13.7504 10.6888 13.7146 9.43475 13.6624C6.65175 13.5441 4.625 11.7236 4.625 8.93785Z" fill="#FDFDFD" fill-opacity="0.05"/>
<path id="Rectangle 123_2" d="M4.625 25.4378C4.625 22.6521 6.65175 20.8316 9.43475 20.7133C11.0391 20.6508 12.6445 20.6214 14.25 20.6253C16.2286 20.6253 17.8112 20.6611 19.0652 20.7133C21.8482 20.8316 23.875 22.6521 23.875 25.4378C23.875 28.2236 21.8482 30.0441 19.0652 30.1623C17.4609 30.2249 15.8555 30.2543 14.25 30.2503C12.2714 30.2503 10.6888 30.2146 9.43475 30.1623C6.65175 30.0441 4.625 28.2236 4.625 25.4378Z" fill="#FDFDFD" fill-opacity="0.05"/>
<path id="Rectangle 123_3" d="M30.75 8.93785C30.75 6.1521 32.7767 4.3316 35.5597 4.21335C37.1641 4.15073 38.7695 4.12139 40.375 4.12535C42.3536 4.12535 43.9362 4.1611 45.1902 4.21335C47.9732 4.3316 50 6.1521 50 8.93785C50 11.7222 47.9732 13.5441 45.1902 13.6624C43.9362 13.7146 42.355 13.7504 40.375 13.7504C38.3964 13.7504 36.8137 13.7146 35.5597 13.6624C32.7767 13.5441 30.75 11.7236 30.75 8.93785Z" fill="#FDFDFD" fill-opacity="0.05"/>
<path id="Rectangle 124" d="M4.625 8.93785C4.625 6.1521 6.65175 4.3316 9.43475 4.21335C11.0391 4.15073 12.6445 4.12139 14.25 4.12535C16.2286 4.12535 17.8112 4.1611 19.0652 4.21335C21.8482 4.3316 23.875 6.1521 23.875 8.93785C23.875 11.7222 21.8482 13.5441 19.0652 13.6624C17.8112 13.7146 16.23 13.7504 14.25 13.7504C12.2714 13.7504 10.6888 13.7146 9.43475 13.6624C6.65175 13.5441 4.625 11.7236 4.625 8.93785Z" stroke="#E9EAEC" stroke-width="4.125" stroke-linecap="round" stroke-linejoin="round"/>
<path id="Rectangle 125" d="M4.625 25.4378C4.625 22.6521 6.65175 20.8316 9.43475 20.7133C11.0391 20.6508 12.6445 20.6214 14.25 20.6253C16.2286 20.6253 17.8112 20.6611 19.0652 20.7133C21.8482 20.8316 23.875 22.6521 23.875 25.4378C23.875 28.2236 21.8482 30.0441 19.0652 30.1623C17.4609 30.2249 15.8555 30.2543 14.25 30.2503C12.2714 30.2503 10.6888 30.2146 9.43475 30.1623C6.65175 30.0441 4.625 28.2236 4.625 25.4378Z" stroke="#E9EAEC" stroke-width="4.125" stroke-linecap="round" stroke-linejoin="round"/>
<path id="Rectangle 126" d="M30.75 8.93785C30.75 6.1521 32.7767 4.3316 35.5597 4.21335C37.1641 4.15073 38.7695 4.12139 40.375 4.12535C42.3536 4.12535 43.9362 4.1611 45.1902 4.21335C47.9732 4.3316 50 6.1521 50 8.93785C50 11.7222 47.9732 13.5441 45.1902 13.6624C43.9362 13.7146 42.355 13.7504 40.375 13.7504C38.3964 13.7504 36.8137 13.7146 35.5597 13.6624C32.7767 13.5441 30.75 11.7236 30.75 8.93785Z" stroke="#E9EAEC" stroke-width="4.125" stroke-linecap="round" stroke-linejoin="round"/>
<path id="Union_2" d="M59.6637 63.25C62.5829 57.8822 63.9842 51.8204 63.7172 45.716C63.5797 42.6608 61.5818 40.073 58.6806 39.1022C52.6677 37.0947 47.077 37.0948 47.077 37.0948C47.077 34.6074 46.6892 28.9314 46.4115 25.1817C46.2492 22.9996 44.7958 21.0925 42.6288 20.7873C41.9413 20.691 41.2057 20.625 40.4673 20.625C39.7248 20.625 38.9851 20.691 38.2976 20.79C36.1485 21.0952 34.7075 22.9831 34.5631 25.1488C34.1255 31.7049 33.8995 38.2735 33.8852 44.8442C33.8852 44.8442 31.5312 43.0004 27.9177 40.7811C26.0573 39.6399 23.6621 39.5505 22.2458 41.2129C21.2444 42.3981 20.5083 43.784 20.0871 45.2774C19.8107 46.233 20.0348 47.2436 20.589 48.0686C22.6088 51.0785 28.0483 58.6699 34.3788 63.25" stroke="#E9EAEC" stroke-width="4.125" stroke-linecap="round" stroke-linejoin="round"/>
</g>
</g>
</svg>
