<svg width="181" height="50" viewBox="0 0 181 50" fill="none" xmlns="http://www.w3.org/2000/svg">
<path d="M22.984 3.41059L20.5508 5.95606L29.743 15.2289L38.9351 24.5017L34.6995 29.0472C30.1034 33.9563 29.5627 36.0472 32.0861 39.0472C33.6181 41.0473 33.6181 41.0473 41.7288 32.7745L49.8396 24.5926L38.1241 12.7743C31.7256 6.22879 26.2283 0.95602 25.9579 0.95602C25.6876 0.95602 24.3358 2.04694 22.984 3.41059Z" fill="#E9EAEC"/>
<path d="M56.3257 7.14343C53.3518 10.4162 54.8838 15.5981 59.0293 16.8708C60.5613 17.2344 61.7329 16.7799 63.355 15.1435C64.7068 13.7799 65.4278 12.3253 65.1574 11.8707C64.4364 10.6889 61.102 10.6889 61.102 11.8707C61.102 12.3253 61.7329 12.7798 62.5439 12.7798C64.9772 12.7798 63.355 15.0526 60.7415 15.3253C57.6775 15.689 55.6949 14.1435 55.6949 11.3253C55.6949 8.23435 58.2182 6.14342 61.2823 6.77979C62.9044 7.05252 63.7155 6.96161 63.355 6.41615C62.4538 4.87069 57.8577 5.41615 56.3257 7.14343Z" fill="#E9EAEC"/>
<path d="M102.562 10.9634V16.418L105.536 16.3271C108.33 16.1452 108.33 16.1452 105.897 15.7816C103.914 15.418 103.374 14.9634 103.644 13.4179C103.824 12.2361 104.815 11.2361 106.167 10.8725L108.42 10.2361L105.987 10.1452C104.095 10.0543 103.464 9.59973 103.464 8.32699C103.464 7.05425 104.185 6.41789 105.987 6.14516C108.24 5.78152 108.24 5.78152 105.536 5.5997L102.562 5.50879V10.9634Z" fill="#E9EAEC"/>
<path d="M178.531 10.957C178.531 14.2297 178.711 15.5025 178.892 13.8661C179.072 12.3206 179.072 9.59333 178.892 7.95695C178.711 6.41148 178.531 7.68422 178.531 10.957Z" fill="#E9EAEC"/>
<path d="M67.6827 8.87103C66.9617 9.14376 66.5112 10.7801 66.6013 13.0529L66.6914 16.8711L67.4123 13.3256C67.7728 11.4165 68.5839 9.5074 69.3049 9.05285C70.6566 8.23466 69.5752 8.05284 67.6827 8.87103Z" fill="#E9EAEC"/>
<path d="M81.661 8.85877C80.3092 9.22241 80.0389 10.2224 80.129 14.4043C80.2191 17.5861 80.3993 18.7679 80.7598 17.5861C81.2104 16.1316 81.7511 15.7679 82.6523 16.4043C84.7251 17.677 87.2484 15.7679 87.2484 12.9497C87.2484 9.04059 85.5361 7.76785 81.661 8.85877ZM85.8966 12.3133C85.8966 14.5861 85.5361 15.0406 83.6436 15.0406C81.1203 15.0406 80.129 12.5861 81.9314 10.4042C83.7338 8.2224 85.8966 9.22241 85.8966 12.3133Z" fill="#E9EAEC"/>
<path d="M90.4841 9.68503C88.5015 11.685 88.6818 14.2305 91.0249 15.8669C94.8099 18.5033 98.8652 13.5032 95.7111 9.95776C93.8186 7.86683 92.3767 7.77592 90.4841 9.68503ZM95.3506 10.8669C96.7024 13.5942 95.5308 15.6851 92.7371 15.3214C90.1237 15.0487 89.1324 12.5032 90.8446 10.5032C92.3767 8.59411 94.179 8.77593 95.3506 10.8669Z" fill="#E9EAEC"/>
<path d="M111.401 8.87103C110.139 9.23467 109.778 10.1438 109.869 13.0529L109.959 16.8711L110.68 13.8711C112.031 7.87102 115.095 7.6892 115.366 13.5074C115.456 16.7802 115.456 16.7802 115.816 13.962C116.177 10.871 118.16 8.5983 119.692 9.59831C120.142 9.87104 120.683 11.6892 120.773 13.5074L120.863 16.8711L121.224 13.7802C121.494 12.1438 121.224 10.3256 120.683 9.78013C119.692 8.78012 114.194 8.23466 111.401 8.87103Z" fill="#E9EAEC"/>
<path d="M123.385 14.137C123.475 17.137 123.745 18.6825 123.925 17.5916C124.286 15.8643 124.646 15.6825 125.998 16.4097C127.35 17.137 128.161 16.9552 129.603 15.5006C130.594 14.5006 131.405 13.137 131.405 12.5006C131.405 10.4097 128.431 8.40968 125.818 8.50059C123.385 8.68241 123.294 8.77332 123.385 14.137ZM129.603 10.8642C130.955 13.5915 129.783 15.6825 126.989 15.3188C124.376 15.0461 123.385 12.5006 125.097 10.5006C126.629 8.5915 128.431 8.77332 129.603 10.8642Z" fill="#E9EAEC"/>
<path d="M133.92 8.87617C132.658 9.1489 132.298 10.1489 132.388 13.058C132.478 16.8762 132.478 16.8762 133.199 13.9671C133.56 12.3307 134.371 10.3307 135.002 9.60345C135.632 8.87617 135.993 8.33071 135.813 8.33071C135.632 8.42162 134.731 8.60344 133.92 8.87617Z" fill="#E9EAEC"/>
<path d="M137.527 10.4115C136.356 13.0479 136.987 15.0479 139.33 16.3207C140.591 16.957 141.493 16.957 142.574 16.1388C143.836 15.1388 143.656 15.0479 141.222 15.0479C139.6 15.0479 138.158 14.5025 137.978 13.8661C137.708 13.1388 138.609 12.7752 140.772 12.7752C144.106 12.7752 145.007 11.4115 142.935 9.3206C141.132 7.5024 138.609 8.04786 137.527 10.4115ZM142.935 10.6842C143.115 11.5024 142.304 11.8661 140.411 11.8661C137.888 11.8661 137.618 11.6843 138.609 10.5024C139.961 8.86605 142.304 9.04787 142.935 10.6842Z" fill="#E9EAEC"/>
<path d="M146.085 9.78043C145.725 10.7804 146.175 11.7804 147.437 12.5986C149.96 14.3259 149.96 15.5077 147.437 15.5987C145.725 15.6896 145.634 15.7805 147.076 16.1441C150.05 16.9623 150.861 14.8714 148.518 12.3259C146.626 10.3259 146.716 9.59861 148.789 9.96224C149.149 9.96224 149.419 9.59861 149.419 9.14406C149.419 7.59859 146.716 8.14405 146.085 9.78043Z" fill="#E9EAEC"/>
<path d="M152.673 9.95408C150.781 12.045 150.871 13.3177 153.034 15.4996C154.476 16.9541 155.287 17.136 156.548 16.4996C157.45 15.9541 158.441 15.8632 158.801 16.136C159.072 16.4087 159.342 14.8632 159.342 12.6814C159.342 8.95407 159.162 8.68134 156.729 8.49953C155.197 8.40862 153.575 8.95407 152.673 9.95408ZM157.81 11.045C159.162 13.2268 157.9 15.4996 155.377 15.4996C152.854 15.4996 151.772 13.3177 153.124 10.8632C154.205 8.77225 156.458 8.86316 157.81 11.045Z" fill="#E9EAEC"/>
<path d="M161.322 12.7706C161.412 16.407 161.502 16.4979 161.772 13.6797C161.953 11.9524 162.764 10.0433 163.575 9.40691C164.746 8.49781 164.746 8.31599 163.034 8.49781C161.412 8.58872 161.142 9.13418 161.322 12.7706Z" fill="#E9EAEC"/>
<path d="M165.91 12.3209C165.91 14.7755 166.09 15.7755 166.271 14.3209C166.451 12.9573 166.451 10.9573 166.271 9.77543C166.09 8.68451 165.91 9.77543 165.91 12.3209Z" fill="#E9EAEC"/>
<path d="M169.437 9.327C168.806 9.96337 168.355 11.1452 168.355 11.9634C168.355 15.2361 169.437 16.418 172.501 16.418C175.475 16.418 175.565 16.3271 175.565 12.8725C175.565 10.5088 175.114 9.14518 174.123 8.78154C171.96 7.96335 170.608 8.14517 169.437 9.327ZM174.213 12.327C174.213 14.5998 173.853 15.0543 171.96 15.0543C169.437 15.0543 168.446 12.5998 170.248 10.4179C172.05 8.23608 174.213 9.23609 174.213 12.327Z" fill="#E9EAEC"/>
<path d="M8.9277 17.0491L0.636719 25.0492L12.8028 37.322L24.9689 49.5039L27.312 47.3221C28.5737 46.1402 29.565 44.7766 29.565 44.2311C29.565 43.6857 25.6899 39.322 21.0037 34.5947C16.3175 29.8674 12.4424 25.5946 12.4424 25.1401C12.4424 24.5946 14.1546 22.5037 16.1372 20.4128C20.1025 16.3218 21.0037 12.7763 18.4803 10.3218C17.3088 9.13993 16.2274 9.86721 8.9277 17.0491Z" fill="#E9EAEC"/>
<path d="M71.1043 11.5883C71.0142 15.3156 73.177 17.6792 75.6102 16.4065C76.8719 15.6792 77.3225 14.5883 77.1423 12.0428L77.0522 8.67917L76.6917 12.1337C76.3312 15.1338 76.0608 15.5883 74.3486 15.3156C72.9067 15.1338 72.1857 14.2247 71.8252 11.861L71.2845 8.67917L71.1043 11.5883Z" fill="#E9EAEC"/>
<path d="M20.559 20.5042L16.5938 24.5951L20.8294 28.8679L25.065 33.1406L28.6697 29.5951C30.6524 27.686 32.2745 25.4133 32.2745 24.5951C32.2745 23.3224 26.1464 16.4132 24.9748 16.4132C24.7045 16.4132 22.7219 18.2314 20.559 20.5042Z" fill="#E9EAEC"/>
<path d="M165.369 24.7708C164.468 25.2253 163.837 26.6799 163.837 28.2253C163.837 30.2254 163.387 30.9526 162.305 30.9526C160.773 31.0435 160.773 31.0435 162.305 32.2254C163.477 33.2254 163.837 34.8618 163.837 40.4073C163.837 44.4073 164.198 47.3164 164.738 47.3164C165.279 47.3164 165.64 44.3164 165.64 40.0436C165.64 33.4072 165.82 32.7708 167.442 32.7708C168.433 32.7708 169.244 32.3163 169.244 31.8617C169.244 31.3163 168.433 30.9526 167.442 30.9526C166.09 30.9526 165.64 30.3163 165.64 28.6799C165.64 27.0435 166.09 26.4071 167.442 26.4071C168.433 26.4071 169.244 26.0435 169.244 25.589C169.244 24.3162 166.991 23.7708 165.369 24.7708Z" fill="#E9EAEC"/>
<path d="M55.6992 35.8618V47.3164H59.5744C69.0369 47.3164 73.7231 43.7709 73.7231 36.68C73.7231 31.8617 71.5602 27.7708 68.406 26.498C67.1444 25.9526 63.7198 25.3162 60.9261 24.9526L55.6992 24.4071V35.8618ZM69.2171 29.589C71.1997 31.4072 72.3713 36.2254 71.4701 39.0436C70.2986 42.8618 67.4147 44.5891 62.2779 44.5891H57.5016V35.8618V27.1344L62.4582 27.4981C65.4321 27.7708 68.0456 28.589 69.2171 29.589Z" fill="#E9EAEC"/>
<path d="M100.754 27.772C100.754 29.9538 100.304 30.9538 99.4026 30.9538C98.6816 30.9538 98.0508 31.3175 98.0508 31.8629C98.0508 32.3175 98.6816 32.772 99.4026 32.772C100.484 32.772 100.754 34.1357 100.754 39.4994C100.754 43.2267 101.205 46.5903 101.656 46.8631C102.196 47.2267 102.557 44.7721 102.557 40.1357C102.557 33.4084 102.737 32.772 104.359 32.772C105.35 32.772 106.162 32.4084 106.162 31.9539C106.162 31.4993 105.35 30.9538 104.359 30.6811C103.007 30.3175 102.557 29.4084 102.557 27.4084C102.557 25.8629 102.196 24.5902 101.656 24.5902C101.205 24.5902 100.754 26.0447 100.754 27.772Z" fill="#E9EAEC"/>
<path d="M174.659 27.4084C174.659 29.4084 174.209 30.3175 172.857 30.6811C171.866 30.9538 171.055 31.4993 171.055 31.9539C171.055 32.4084 171.866 32.772 172.857 32.772C174.479 32.772 174.659 33.4084 174.659 40.1357C174.659 44.7721 175.02 47.2267 175.561 46.8631C176.101 46.5903 176.462 43.3176 176.462 39.6812C176.462 33.4993 176.642 32.9539 178.535 32.3175L180.517 31.5902L178.535 31.2266C176.822 30.8629 176.462 30.2266 176.462 27.6811C176.462 25.9538 176.101 24.5902 175.561 24.5902C175.11 24.5902 174.659 25.8629 174.659 27.4084Z" fill="#E9EAEC"/>
<path d="M81.9249 31.3171C80.7533 31.9535 79.2213 33.499 78.5905 34.6808C74.3549 42.4081 83.0964 50.6809 90.3961 45.8627C92.4689 44.499 92.6491 44.499 92.6491 45.8627C92.6491 46.7718 93.0997 47.1354 93.5503 46.8627C94.7218 46.1354 94.7218 30.9535 93.6404 30.9535C93.1898 30.9535 92.6491 31.408 92.4689 31.9535C92.2886 32.4989 91.2072 32.408 89.4949 31.4989C86.2506 29.7716 84.7186 29.7716 81.9249 31.3171ZM89.585 33.499C90.9368 34.408 92.6491 37.7717 92.6491 39.5899C92.6491 41.8627 88.5036 45.4991 85.8901 45.4991C83.1866 45.4991 79.1312 41.7717 79.1312 39.3172C79.1312 36.1353 82.5557 32.7717 85.7099 32.7717C87.3321 32.7717 89.0443 33.1353 89.585 33.499Z" fill="#E9EAEC"/>
<path d="M113.817 31.1408C108.319 34.1408 107.238 40.4136 111.473 44.6864C114.447 47.6864 117.511 48.05 121.477 45.9591C123.91 44.6864 124.18 44.6864 124.18 45.9591C124.18 46.7773 124.631 47.1409 125.081 46.8682C126.253 46.1409 126.253 30.959 125.172 30.959C124.721 30.959 124.18 31.4135 124 31.959C123.82 32.5045 122.738 32.4135 121.026 31.5044C117.872 29.7772 116.25 29.7772 113.817 31.1408ZM122.648 35.6863C124.991 38.7772 124 42.5045 120.485 44.5045C113.907 48.2319 107.688 39.5954 113.005 34.1408C115.349 31.8681 120.485 32.6863 122.648 35.6863Z" fill="#E9EAEC"/>
<path d="M131.576 31.5075C128.693 33.5075 129.414 36.4167 133.469 39.053C135.271 40.2349 136.803 41.9622 136.803 42.8713C136.803 44.9622 133.829 45.8713 131.396 44.5985C129.954 43.8713 129.594 43.8713 129.594 44.9622C129.594 47.5077 134.911 48.144 137.164 45.8713C139.687 43.3258 138.876 40.5076 135.001 37.8712C131.126 35.2348 130.675 34.5075 132.658 32.8712C133.649 32.053 134.46 32.053 135.812 32.6893C136.984 33.3257 137.795 33.4166 138.155 32.7803C138.425 32.2348 137.614 31.4166 136.353 30.9621C133.469 29.8711 134.01 29.7802 131.576 31.5075Z" fill="#E9EAEC"/>
<path d="M147.175 30.8617C138.884 34.4981 140.957 47.3164 149.879 47.3164C155.016 47.3164 158.35 44.0437 158.44 38.9527C158.44 33.0436 152.312 28.6799 147.175 30.8617ZM154.835 34.589C157.179 36.9527 157.088 40.7709 154.655 43.4073C149.248 49.2255 140.867 41.4073 145.463 34.7708C147.265 32.1345 152.312 32.0435 154.835 34.589Z" fill="#E9EAEC"/>
</svg>
