<svg width="89" height="75" viewBox="0 0 89 75" fill="none" xmlns="http://www.w3.org/2000/svg">
<path d="M31.3322 0.844044C10.2149 4.22415 -0.226908 13.8928 7.87715 22.6968C10.2928 25.2909 13.5656 27.3347 19.254 29.8501C21.358 30.7148 33.0465 32.68 40.683 33.3874C45.5922 33.8591 57.7483 32.2869 60.2419 30.7934C64.2939 28.4352 66.0082 25.2909 64.6056 23.0113C64.0601 22.1466 62.9692 22.3038 58.9172 23.7187C48.7092 27.2561 31.9556 25.5267 26.9685 20.4958C24.2411 17.8232 24.0853 15.858 26.5009 13.5784C30.475 9.80527 35.9297 8.46894 48.0858 8.54755C57.8262 8.54755 64.6056 9.72666 71.0733 12.3207C79.4111 15.7794 83.2293 19.5526 84.1644 25.2123C84.3203 26.3128 84.5541 24.3476 84.632 20.8103C84.7099 15.3864 84.4761 14.0501 82.9956 11.8491C80.5799 8.31173 73.411 4.45997 65.3069 2.41619C57.6704 0.451008 39.4362 -0.413673 31.3322 0.844044Z" fill="#E9EAEC"/>
<path d="M0.554688 63.3372C0.554688 73.399 0.632611 73.9492 2.11316 73.9492C3.59371 73.9492 3.67163 73.399 3.67163 63.3372C3.67163 53.2755 3.59371 52.7253 2.11316 52.7253C0.632611 52.7253 0.554688 53.2755 0.554688 63.3372Z" fill="#E9EAEC"/>
<path d="M7.73323 61.2932C7.967 71.0405 8.74624 72.6127 13.9671 74.0276C17.7854 75.0495 21.6816 73.8704 23.9414 71.0405C25.2661 69.3112 25.4998 67.8176 25.4998 60.9002C25.4998 54.14 25.2661 52.725 24.331 52.725C23.3959 52.725 23.1621 54.0613 23.1621 60.1141C23.1621 66.7171 22.9283 67.8176 21.3699 69.6256C19.1101 72.3768 14.4347 72.534 11.9411 70.0972C10.5385 68.6037 10.3047 67.2674 10.0709 60.5857C9.83717 54.2186 9.52548 52.725 8.59039 52.725C7.65531 52.725 7.49946 54.0613 7.73323 61.2932Z" fill="#E9EAEC"/>
<path d="M34.9994 54.3005C25.2589 60.2746 29.1551 74.1095 40.6099 74.1881C45.2853 74.2667 48.0906 72.9304 48.0906 70.7294C48.0906 69.2359 48.0126 69.2359 46.3762 70.3364C45.3632 71.0438 43.0255 71.5941 40.9995 71.5941C34.2201 71.5941 29.9343 65.5413 32.8175 59.8816C35.0773 55.4796 40.1423 53.9861 45.3632 56.1871C47.9347 57.2876 48.0906 57.2876 48.0906 55.8726C48.0906 52.7283 39.2852 51.7065 34.9994 54.3005Z" fill="#E9EAEC"/>
<path d="M51.9844 63.3372V73.9492H57.2832C61.8807 73.9492 62.8937 73.7134 64.3742 72.0626C66.7899 69.4686 66.7899 65.5382 64.2963 63.3372C62.7378 62.0009 62.5041 61.3721 63.1275 59.9571C64.9197 56.0268 61.1794 52.7253 55.0234 52.7253H51.9844V63.3372ZM60.0884 56.3412C62.582 58.8566 60.9456 61.3721 56.8936 61.3721C54.4779 61.3721 54.3221 61.2148 54.3221 58.778C54.3221 57.2845 54.5559 55.8696 54.8676 55.6337C55.8026 54.6118 58.8417 55.0835 60.0884 56.3412ZM62.7378 64.6736C63.2833 65.2238 63.6729 66.5601 63.6729 67.6606C63.6729 70.6477 62.2703 71.591 58.0624 71.591H54.3221V67.6606V63.7303H58.0624C60.0884 63.7303 62.1924 64.1233 62.7378 64.6736Z" fill="#E9EAEC"/>
<path d="M76.9204 53.3495C68.8942 56.9654 67.4916 66.8699 74.193 72.2152C78.5568 75.6739 87.9076 74.8092 88.4531 70.8789C88.7648 69.1495 88.6868 69.0709 86.9725 70.3286C85.8816 71.0361 83.6218 71.5864 81.362 71.5864C78.0892 71.5864 77.1541 71.1933 74.8943 68.9137C71.9332 65.9266 71.5436 63.4112 73.4138 59.7953C75.5957 55.4719 80.7386 54.0569 85.8816 56.1793C88.4531 57.2798 88.6089 57.2798 88.6089 55.8649C88.6089 53.4281 80.5828 51.6987 76.9204 53.3495Z" fill="#E9EAEC"/>
</svg>
