<svg width="831" height="237" viewBox="0 0 831 237" fill="none" xmlns="http://www.w3.org/2000/svg">
<g clip-path="url(#clip0_1594_4719)">
<path d="M66.4 25.8992C67.4 26.9992 68 28.4992 68 30.1992V78.3992C68 84.9992 66.5 90.8992 63.6 96.1992C60.7 101.499 56.6 105.599 51.5 108.599C46.4 111.599 40.6 113.099 34.1 113.099C27.6 113.099 21.7 111.599 16.5 108.599C11.3 105.599 7.3 101.499 4.3 96.1992C1.5 90.8992 0 84.9992 0 78.3992V30.1992C0 28.3992 0.6 26.9992 1.8 25.8992C3 24.7992 4.5 24.1992 6.3 24.1992C7.9 24.1992 9.3 24.7992 10.5 25.9992C11.7 27.1992 12.3 28.5992 12.3 30.2992V78.4992C12.3 82.7992 13.3 86.7992 15.3 90.1992C17.3 93.6992 20 96.3992 23.3 98.2992C26.6 100.199 30.2 101.199 34.1 101.199C38.1 101.199 41.8 100.199 45.3 98.2992C48.7 96.3992 51.5 93.6992 53.5 90.1992C55.5 86.6992 56.6 82.7992 56.6 78.4992V30.1992C56.6 28.3992 57.1 26.9992 58.1 25.8992C59.1 24.7992 60.5 24.1992 62.2 24.1992C64 24.1992 65.4 24.7992 66.4 25.8992Z" fill="#E9EAEC"/>
<path d="M156.998 25.9008C157.998 26.9008 158.498 28.3008 158.498 29.9008V106.001C158.498 107.801 157.898 109.201 156.798 110.401C155.698 111.601 154.198 112.201 152.498 112.201C151.598 112.201 150.698 112.101 149.798 111.801C148.898 111.501 148.198 111.101 147.698 110.501L98.3984 46.2008V106.601C98.3984 108.201 97.8984 109.501 96.7984 110.601C95.7984 111.601 94.3984 112.201 92.7984 112.201C91.1984 112.201 89.8984 111.701 88.8984 110.601C87.8984 109.601 87.3984 108.201 87.3984 106.601V30.4008C87.3984 28.6008 87.9984 27.2008 89.0984 26.1008C90.1984 25.0008 91.5984 24.4008 93.2984 24.4008C94.2984 24.4008 95.2984 24.6008 96.1984 25.0008C97.0984 25.4008 97.7984 25.9008 98.2984 26.6008L147.498 90.9008V29.9008C147.498 28.3008 147.998 27.0008 149.098 25.9008C150.098 24.9008 151.498 24.3008 152.998 24.3008C154.698 24.3008 155.998 24.9008 156.998 25.9008Z" fill="#E9EAEC"/>
<path d="M240.901 103.098C241.701 104.098 242.001 105.298 242.001 106.698C242.001 108.498 241.401 109.898 240.201 110.998C239.001 112.098 237.601 112.598 236.101 112.598C234.001 112.598 232.401 111.798 231.201 110.098L206.901 77.4984L183.101 109.998C181.801 111.798 180.201 112.598 178.201 112.598C176.701 112.598 175.401 112.098 174.401 110.998C173.401 109.998 172.801 108.798 172.801 107.398C172.801 105.998 173.301 104.598 174.301 103.298L200.001 68.2984L174.201 33.5984C173.401 32.4984 172.901 31.2984 172.901 29.9984C172.901 28.2984 173.501 26.8984 174.701 25.6984C175.901 24.4984 177.301 23.8984 178.901 23.8984C179.801 23.8984 180.701 24.0984 181.601 24.4984C182.501 24.8984 183.201 25.4984 183.801 26.3984L207.901 58.7984L231.701 26.7984C233.101 24.9984 234.701 23.9984 236.501 23.9984C238.001 23.9984 239.301 24.5984 240.501 25.6984C241.601 26.7984 242.201 28.0984 242.201 29.4984C242.201 30.7984 241.801 31.9984 240.901 33.0984L214.801 67.9984L240.901 103.098Z" fill="#E9EAEC"/>
<path d="M346.4 30.3992C351.9 34.3992 355.9 39.6992 358.6 46.3992C361.2 52.9992 362.6 60.2992 362.6 68.2992C362.6 76.5992 361.3 83.9992 358.6 90.5992C356 97.1992 351.9 102.499 346.5 106.299C341.1 110.199 334.3 112.099 326.2 112.099H293.6C292.9 112.099 292.3 111.799 291.8 111.299C291.3 110.799 291 110.199 291 109.499V26.7992C291 26.0992 291.2 25.4992 291.8 24.9992C292.3 24.4992 292.9 24.1992 293.6 24.1992H326.2C334.2 24.2992 340.9 26.2992 346.4 30.3992ZM349.2 96.3992C354.5 89.2992 357.2 79.8992 357.2 68.1992C357.2 61.0992 356.1 54.5992 353.8 48.6992C351.5 42.7992 347.9 38.0992 343.1 34.5992C338.3 31.0992 332.2 29.2992 324.9 29.2992H296.3V106.999H324.9C335.8 107.099 343.9 103.499 349.2 96.3992Z" fill="#E9EAEC"/>
<path d="M377.302 37.9C376.502 37.1 376.102 36.2 376.102 35V34C376.102 32.8 376.502 31.9 377.402 31.1C378.202 30.3 379.302 30 380.702 30C381.902 30 382.902 30.4 383.602 31.1C384.402 31.9 384.802 32.8 384.802 34V35C384.802 36.2 384.402 37.1 383.602 37.9C382.802 38.7 381.802 39 380.502 39C379.102 39 378.002 38.6 377.302 37.9ZM382.202 111.4C381.702 111.9 381.102 112.2 380.402 112.2C379.602 112.2 379.002 111.9 378.602 111.4C378.102 110.9 377.902 110.3 377.902 109.6V50C377.902 49.3 378.102 48.7 378.702 48.2C379.202 47.7 379.802 47.4 380.502 47.4C381.302 47.4 381.902 47.7 382.302 48.2C382.802 48.7 383.002 49.3 383.002 50V109.6C383.002 110.3 382.702 110.9 382.202 111.4Z" fill="#E9EAEC"/>
<path d="M458.1 50.2984C458.6 50.7984 458.8 51.3984 458.8 52.0984V105.998C458.8 112.398 457.5 117.898 454.9 122.598C452.3 127.298 448.7 130.898 444 133.398C439.3 135.898 434 137.198 427.9 137.198C424.6 137.198 421.2 136.798 417.7 135.898C414.3 134.998 411.4 133.898 409.2 132.498C407 131.098 405.9 129.698 405.9 128.298C405.9 127.598 406.1 127.098 406.5 126.698C406.9 126.298 407.4 126.098 408.1 126.098C408.6 126.098 409.4 126.498 410.4 127.398C411.6 128.598 412.9 129.398 414.3 129.998C418.4 131.698 423 132.498 428.2 132.498C436.1 132.498 442.3 130.098 446.9 125.198C451.5 120.398 453.8 113.998 453.8 105.998V97.2984C451.5 102.698 448 106.698 443.3 109.298C438.6 111.998 433.6 113.298 428.4 113.298C422.7 113.298 417.6 111.898 412.9 108.998C408.3 106.098 404.6 102.198 402 97.0984C399.4 92.0984 398 86.4984 398 80.2984C398 74.0984 399.3 68.4984 402 63.4984C404.6 58.4984 408.3 54.5984 412.9 51.6984C417.5 48.8984 422.7 47.3984 428.4 47.3984C434 47.3984 439.1 48.8984 443.8 51.8984C448.4 54.8984 451.8 58.3984 453.8 62.5984V52.0984C453.8 51.3984 454 50.7984 454.5 50.2984C455 49.7984 455.6 49.4984 456.3 49.4984C457.1 49.4984 457.7 49.7984 458.1 50.2984ZM441.8 104.998C445.7 102.598 448.7 99.2984 451 94.9984C453.2 90.6984 454.3 85.7984 454.3 80.2984C454.3 74.7984 453.2 69.8984 451 65.5984C448.8 61.2984 445.7 57.9984 441.8 55.6984C437.9 53.3984 433.5 52.1984 428.7 52.1984C423.9 52.1984 419.5 53.3984 415.6 55.7984C411.7 58.1984 408.7 61.5984 406.4 65.7984C404.2 70.0984 403.1 74.8984 403.1 80.1984C403.1 85.5984 404.2 90.3984 406.4 94.5984C408.6 98.8984 411.7 102.198 415.6 104.698C419.5 107.198 423.9 108.398 428.7 108.398C433.6 108.598 437.9 107.398 441.8 104.998Z" fill="#E9EAEC"/>
<path d="M477.7 37.9C476.9 37.1 476.5 36.2 476.5 35V34C476.5 32.8 476.9 31.9 477.8 31.1C478.6 30.3 479.7 30 481.1 30C482.3 30 483.3 30.4 484 31.1C484.8 31.9 485.2 32.8 485.2 34V35C485.2 36.2 484.8 37.1 484 37.9C483.2 38.7 482.2 39 480.9 39C479.6 39 478.5 38.6 477.7 37.9ZM482.6 111.4C482.1 111.9 481.5 112.2 480.8 112.2C480 112.2 479.4 111.9 479 111.4C478.5 110.9 478.3 110.3 478.3 109.6V50C478.3 49.3 478.6 48.7 479.1 48.2C479.6 47.7 480.2 47.4 480.9 47.4C481.7 47.4 482.3 47.7 482.7 48.2C483.2 48.7 483.4 49.3 483.4 50V109.6C483.4 110.3 483.1 110.9 482.6 111.4Z" fill="#E9EAEC"/>
<path d="M527.899 49.8C528.399 50.3 528.699 50.8 528.699 51.4C528.699 52.1 528.499 52.6 527.999 53.1C527.499 53.6 526.999 53.8 526.299 53.8H512.499V98.4C512.499 102.1 513.099 104.5 514.399 105.7C515.699 106.9 517.299 107.5 519.399 107.5C519.699 107.5 520.199 107.4 520.799 107.2C521.399 107 521.899 106.9 522.399 106.9C522.999 106.9 523.499 107.1 523.899 107.6C524.299 108.1 524.499 108.6 524.499 109.2C524.499 110 523.999 110.6 522.999 111.1C521.999 111.6 520.799 111.9 519.499 111.9C517.399 111.9 515.699 111.8 514.199 111.5C512.799 111.2 511.299 110.1 509.699 108.1C508.199 106.1 507.399 102.9 507.399 98.5V53.8H497.099C496.499 53.8 495.999 53.5 495.499 53C494.999 52.5 494.699 52 494.699 51.4C494.699 50.7 494.899 50.2 495.399 49.7C495.899 49.2 496.399 49 497.099 49H507.399V33.1C507.399 32.4 507.599 31.8 508.199 31.3C508.699 30.8 509.299 30.5 509.999 30.5C510.799 30.5 511.399 30.8 511.799 31.3C512.299 31.8 512.499 32.4 512.499 33.1V49H526.299C526.899 49 527.399 49.3 527.899 49.8Z" fill="#E9EAEC"/>
<path d="M594.401 50.3C594.901 50.8 595.101 51.4 595.101 52.1V109.7C595.101 110.4 594.901 111 594.301 111.5C593.801 112 593.201 112.3 592.501 112.3C591.701 112.3 591.101 112 590.701 111.5C590.201 111 590.001 110.4 590.001 109.7V98.3C587.901 102.6 584.701 106.1 580.301 109C576.001 111.9 571.101 113.3 565.901 113.3C560.401 113.3 555.401 111.9 551.001 109C546.601 106.1 543.101 102.1 540.601 97.1C538.101 92 536.801 86.4 536.801 80.1C536.801 73.9 538.101 68.3 540.601 63.4C543.101 58.4 546.601 54.5 551.101 51.7C555.501 48.9 560.501 47.5 565.901 47.5C571.301 47.5 576.201 48.9 580.601 51.8C584.901 54.6 588.101 58.4 590.001 63.2V52.1C590.001 51.4 590.201 50.8 590.701 50.3C591.201 49.8 591.801 49.5 592.501 49.5C593.401 49.5 594.001 49.8 594.401 50.3ZM578.801 104.9C582.501 102.4 585.401 99 587.501 94.7C589.601 90.4 590.601 85.5 590.601 80.2C590.601 75.1 589.601 70.4 587.501 66.2C585.401 61.9 582.501 58.6 578.801 56.1C575.101 53.6 570.901 52.4 566.301 52.4C561.701 52.4 557.501 53.6 553.801 56C550.101 58.4 547.201 61.7 545.101 65.9C543.001 70.1 542.001 74.9 542.001 80.3C542.001 85.7 543.001 90.5 545.101 94.8C547.201 99.1 550.101 102.6 553.801 105C557.501 107.5 561.701 108.7 566.301 108.7C570.901 108.6 575.001 107.4 578.801 104.9Z" fill="#E9EAEC"/>
<path d="M619.601 111.399C619.101 111.899 618.501 112.199 617.801 112.199C617.001 112.199 616.401 111.899 616.001 111.399C615.501 110.899 615.301 110.299 615.301 109.599V21.7992C615.301 21.0992 615.501 20.4992 616.101 19.9992C616.601 19.4992 617.201 19.1992 617.901 19.1992C618.701 19.1992 619.301 19.4992 619.701 19.9992C620.201 20.4992 620.401 21.0992 620.401 21.7992V109.599C620.301 110.299 620.101 110.899 619.601 111.399Z" fill="#E9EAEC"/>
<path d="M675.598 131.3C672.998 131.3 670.898 129.2 670.898 126.6V4.7C670.898 2.1 672.998 0 675.598 0C678.198 0 680.298 2.1 680.298 4.7V126.7C680.198 129.2 678.098 131.3 675.598 131.3Z" fill="#E9EAEC"/>
<path d="M725.7 131.3C723.1 131.3 721 129.2 721 126.6V4.7C721 2.1 723.1 0 725.7 0C728.3 0 730.4 2.1 730.4 4.7V126.7C730.4 129.2 728.3 131.3 725.7 131.3Z" fill="#E9EAEC"/>
<path d="M775.899 131.3C773.299 131.3 771.199 129.2 771.199 126.6V4.7C771.199 2.1 773.299 0 775.899 0C778.499 0 780.599 2.1 780.599 4.7V126.7C780.599 129.2 778.499 131.3 775.899 131.3Z" fill="#E9EAEC"/>
<path d="M826.001 131.3C823.401 131.3 821.301 129.2 821.301 126.6V4.7C821.301 2.1 823.401 0 826.001 0C828.601 0 830.701 2.1 830.701 4.7V126.7C830.701 129.2 828.601 131.3 826.001 131.3Z" fill="#E9EAEC"/>
<path d="M515.099 201.901C517.199 201.901 519.199 202.401 520.899 203.501C522.599 204.601 523.999 206.101 524.899 208.001C525.899 209.901 526.399 212.101 526.399 214.601C526.399 217.101 525.899 219.301 524.899 221.201C523.899 223.101 522.599 224.601 520.899 225.701C519.199 226.801 517.399 227.301 515.299 227.301C514.099 227.301 512.899 227.101 511.799 226.701C510.699 226.301 509.799 225.801 508.999 225.201C508.199 224.601 507.599 224.001 507.099 223.301C506.699 222.701 506.399 222.101 506.399 221.701L507.799 221.101V224.501C507.799 225.301 507.499 226.001 506.999 226.501C506.499 227.001 505.799 227.301 504.999 227.301C504.199 227.301 503.499 227.001 502.999 226.501C502.499 226.001 502.199 225.301 502.199 224.501V195.601C502.199 194.801 502.499 194.101 502.999 193.601C503.499 193.101 504.199 192.801 504.999 192.801C505.799 192.801 506.499 193.101 506.999 193.601C507.499 194.101 507.799 194.801 507.799 195.601V207.301L506.999 206.901C506.999 206.501 507.199 206.001 507.599 205.501C507.999 204.901 508.599 204.401 509.299 203.801C509.999 203.201 510.899 202.801 511.899 202.401C512.999 202.101 513.999 201.901 515.099 201.901ZM514.399 207.001C513.099 207.001 511.899 207.301 510.899 208.001C509.899 208.701 509.099 209.601 508.499 210.701C507.899 211.801 507.599 213.201 507.599 214.601C507.599 216.001 507.899 217.401 508.499 218.501C509.099 219.601 509.899 220.601 510.899 221.301C511.899 222.001 513.099 222.301 514.399 222.301C515.699 222.301 516.899 222.001 517.899 221.301C518.899 220.601 519.699 219.701 520.199 218.501C520.799 217.301 521.099 216.001 521.099 214.601C521.099 213.101 520.799 211.801 520.199 210.701C519.599 209.501 518.899 208.601 517.899 208.001C516.899 207.301 515.699 207.001 514.399 207.001Z" fill="#E9EAEC"/>
<path d="M549.201 202.402C550.001 202.402 550.701 202.702 551.201 203.202C551.701 203.702 552.001 204.402 552.001 205.202V224.702C552.001 227.502 551.501 229.802 550.401 231.402C549.301 233.102 547.901 234.302 546.101 235.002C544.301 235.702 542.301 236.102 540.101 236.102C539.101 236.102 538.101 236.002 537.001 235.902C535.901 235.702 535.001 235.502 534.301 235.202C533.401 234.802 532.701 234.302 532.401 233.702C532.001 233.102 532.001 232.502 532.201 231.802C532.501 230.902 532.901 230.302 533.501 230.002C534.101 229.702 534.801 229.602 535.401 229.902C535.901 230.102 536.501 230.302 537.301 230.602C538.101 230.902 539.001 231.102 540.101 231.102C541.501 231.102 542.701 230.902 543.601 230.502C544.501 230.102 545.201 229.502 545.701 228.602C546.201 227.702 546.401 226.502 546.401 224.902V221.802L547.401 222.902C546.901 223.902 546.201 224.702 545.401 225.402C544.601 226.102 543.701 226.602 542.601 226.902C541.501 227.202 540.301 227.402 538.901 227.402C537.301 227.402 535.901 227.002 534.601 226.302C533.401 225.502 532.401 224.502 531.801 223.202C531.101 221.902 530.801 220.302 530.801 218.602V205.202C530.801 204.402 531.101 203.702 531.601 203.202C532.101 202.702 532.801 202.402 533.601 202.402C534.401 202.402 535.101 202.702 535.601 203.202C536.101 203.702 536.401 204.402 536.401 205.202V217.002C536.401 219.002 536.801 220.402 537.701 221.202C538.601 222.002 539.801 222.402 541.401 222.402C542.501 222.402 543.401 222.202 544.101 221.802C544.801 221.402 545.401 220.802 545.801 220.002C546.201 219.202 546.401 218.202 546.401 217.002V205.202C546.401 204.402 546.701 203.702 547.201 203.202C547.801 202.602 548.401 202.402 549.201 202.402Z" fill="#E9EAEC"/>
<path d="M584.598 194.799C586.198 194.799 587.698 195.299 589.098 196.199C590.498 197.099 591.598 198.399 592.498 199.899C593.398 201.499 593.798 203.199 593.798 205.099C593.798 206.999 593.398 208.699 592.498 210.299C591.598 211.899 590.498 213.099 589.098 213.999C587.698 214.899 586.198 215.399 584.598 215.399H576.098L576.598 214.599V224.099C576.598 224.899 576.398 225.599 575.898 226.099C575.398 226.599 574.798 226.899 573.998 226.899C573.198 226.899 572.598 226.599 572.098 226.099C571.598 225.599 571.398 224.899 571.398 224.099V197.499C571.398 196.699 571.698 195.999 572.198 195.499C572.698 194.999 573.398 194.699 574.198 194.699H584.598V194.799ZM584.598 210.199C585.198 210.199 585.698 209.999 586.298 209.499C586.898 208.999 587.298 208.399 587.698 207.599C588.098 206.799 588.298 205.999 588.298 205.099C588.298 204.199 588.098 203.399 587.698 202.599C587.298 201.799 586.898 201.199 586.298 200.699C585.698 200.199 585.198 199.999 584.598 199.999H575.998L576.598 199.199V210.999L576.098 210.299H584.598V210.199Z" fill="#E9EAEC"/>
<path d="M601.398 227.001C600.598 227.001 599.898 226.701 599.398 226.201C598.898 225.701 598.598 225.001 598.598 224.201V205.201C598.598 204.401 598.898 203.701 599.398 203.201C599.898 202.701 600.598 202.401 601.398 202.401C602.198 202.401 602.898 202.701 603.398 203.201C603.898 203.701 604.198 204.401 604.198 205.201V209.501L603.898 206.401C604.198 205.701 604.698 205.001 605.198 204.401C605.698 203.801 606.298 203.401 606.998 203.001C607.698 202.601 608.398 202.301 609.198 202.101C609.998 201.901 610.698 201.801 611.498 201.801C612.398 201.801 613.198 202.101 613.798 202.601C614.398 203.101 614.698 203.701 614.698 204.401C614.698 205.401 614.398 206.101 613.898 206.601C613.398 207.101 612.798 207.301 612.198 207.301C611.598 207.301 611.098 207.201 610.598 207.001C610.098 206.801 609.598 206.701 608.998 206.701C608.398 206.701 607.898 206.801 607.298 207.101C606.698 207.401 606.198 207.801 605.698 208.301C605.198 208.801 604.798 209.501 604.598 210.301C604.298 211.101 604.198 212.101 604.198 213.201V224.101C604.198 224.901 603.898 225.601 603.398 226.101C602.898 226.601 602.198 227.001 601.398 227.001Z" fill="#E9EAEC"/>
<path d="M641.199 214.7C641.199 217.2 640.599 219.4 639.499 221.3C638.399 223.2 636.899 224.7 634.999 225.8C633.099 226.9 630.999 227.4 628.699 227.4C626.399 227.4 624.299 226.9 622.399 225.8C620.499 224.7 618.999 223.2 617.899 221.3C616.799 219.4 616.199 217.2 616.199 214.7C616.199 212.2 616.799 210 617.899 208.1C618.999 206.2 620.499 204.7 622.399 203.6C624.299 202.5 626.399 202 628.699 202C630.999 202 633.099 202.5 634.999 203.6C636.899 204.7 638.399 206.2 639.499 208.1C640.599 210 641.199 212.2 641.199 214.7ZM635.699 214.7C635.699 213.1 635.399 211.8 634.799 210.6C634.199 209.4 633.299 208.6 632.299 207.9C631.199 207.3 630.099 206.9 628.799 206.9C627.499 206.9 626.299 207.2 625.299 207.9C624.199 208.5 623.399 209.4 622.799 210.6C622.199 211.7 621.899 213.1 621.899 214.7C621.899 216.2 622.199 217.6 622.799 218.7C623.399 219.8 624.299 220.7 625.299 221.4C626.399 222 627.499 222.4 628.799 222.4C630.099 222.4 631.299 222.1 632.299 221.4C633.399 220.8 634.199 219.9 634.799 218.7C635.399 217.6 635.699 216.2 635.699 214.7Z" fill="#E9EAEC"/>
<path d="M658.698 201.902C661.198 201.902 662.998 202.502 664.098 203.702C665.298 204.902 665.998 206.402 666.398 208.302L665.598 207.902L665.998 207.202C666.398 206.502 666.898 205.702 667.698 204.902C668.498 204.102 669.398 203.402 670.498 202.802C671.598 202.202 672.798 201.902 674.198 201.902C676.398 201.902 678.098 202.402 679.198 203.302C680.298 204.302 681.098 205.502 681.598 207.102C681.998 208.702 682.198 210.402 682.198 212.402V224.202C682.198 225.002 681.898 225.702 681.398 226.202C680.898 226.702 680.198 227.002 679.398 227.002C678.598 227.002 677.898 226.702 677.398 226.202C676.898 225.702 676.598 225.002 676.598 224.202V212.402C676.598 211.402 676.498 210.502 676.198 209.702C675.998 208.902 675.498 208.202 674.898 207.702C674.298 207.202 673.298 207.002 672.098 207.002C670.898 207.002 669.898 207.202 669.098 207.702C668.298 208.202 667.698 208.802 667.198 209.702C666.798 210.502 666.598 211.402 666.598 212.402V224.202C666.598 225.002 666.298 225.702 665.798 226.202C665.298 226.702 664.598 227.002 663.798 227.002C662.998 227.002 662.298 226.702 661.798 226.202C661.298 225.702 660.998 225.002 660.998 224.202V212.402C660.998 211.402 660.898 210.502 660.598 209.702C660.398 208.902 659.898 208.202 659.298 207.702C658.698 207.202 657.698 207.002 656.498 207.002C655.298 207.002 654.298 207.202 653.498 207.702C652.698 208.202 652.098 208.802 651.598 209.702C651.198 210.502 650.998 211.402 650.998 212.402V224.202C650.998 225.002 650.698 225.702 650.198 226.202C649.698 226.702 648.998 227.002 648.198 227.002C647.398 227.002 646.698 226.702 646.198 226.202C645.698 225.702 645.398 225.002 645.398 224.202V205.202C645.398 204.402 645.698 203.702 646.198 203.202C646.698 202.702 647.398 202.402 648.198 202.402C648.998 202.402 649.698 202.702 650.198 203.202C650.698 203.702 650.998 204.402 650.998 205.202V207.202L650.298 207.102C650.598 206.602 650.998 206.002 651.398 205.402C651.898 204.802 652.498 204.202 653.198 203.702C653.898 203.202 654.698 202.802 655.498 202.402C656.798 202.102 657.698 201.902 658.698 201.902Z" fill="#E9EAEC"/>
<path d="M690.601 199.402C689.601 199.402 688.801 199.202 688.401 198.902C688.001 198.602 687.801 198.002 687.801 197.102V196.202C687.801 195.302 688.001 194.702 688.501 194.402C689.001 194.102 689.701 193.902 690.701 193.902C691.801 193.902 692.501 194.102 693.001 194.402C693.401 194.702 693.601 195.302 693.601 196.202V197.102C693.601 198.002 693.401 198.602 692.901 198.902C692.401 199.202 691.601 199.402 690.601 199.402ZM693.401 224.202C693.401 225.002 693.101 225.702 692.601 226.202C692.101 226.702 691.401 227.002 690.601 227.002C689.801 227.002 689.101 226.702 688.601 226.202C688.101 225.702 687.801 225.002 687.801 224.202V205.202C687.801 204.402 688.101 203.702 688.601 203.202C689.101 202.702 689.801 202.402 690.601 202.402C691.401 202.402 692.101 202.702 692.601 203.202C693.101 203.702 693.401 204.402 693.401 205.202V224.202Z" fill="#E9EAEC"/>
<path d="M712.198 201.902C714.498 201.902 716.198 202.402 717.398 203.302C718.598 204.302 719.398 205.502 719.798 207.102C720.198 208.702 720.498 210.402 720.498 212.402V224.202C720.498 225.002 720.198 225.702 719.698 226.202C719.198 226.702 718.498 227.002 717.698 227.002C716.898 227.002 716.198 226.702 715.698 226.202C715.198 225.702 714.898 225.002 714.898 224.202V212.402C714.898 211.402 714.798 210.502 714.498 209.702C714.198 208.902 713.798 208.202 713.098 207.702C712.398 207.202 711.498 207.002 710.198 207.002C708.998 207.002 707.898 207.202 707.098 207.702C706.298 208.202 705.598 208.802 705.198 209.702C704.798 210.502 704.498 211.402 704.498 212.402V224.202C704.498 225.002 704.198 225.702 703.698 226.202C703.198 226.702 702.498 227.002 701.698 227.002C700.898 227.002 700.198 226.702 699.698 226.202C699.198 225.702 698.898 225.002 698.898 224.202V205.202C698.898 204.402 699.198 203.702 699.698 203.202C700.198 202.702 700.898 202.402 701.698 202.402C702.498 202.402 703.198 202.702 703.698 203.202C704.198 203.702 704.498 204.402 704.498 205.202V207.202L703.798 207.102C704.098 206.602 704.498 206.002 704.998 205.402C705.498 204.802 706.098 204.202 706.798 203.702C707.498 203.202 708.298 202.802 709.198 202.402C710.198 202.102 711.198 201.902 712.198 201.902Z" fill="#E9EAEC"/>
<path d="M737.798 227.402C735.198 227.402 732.898 226.902 730.998 225.802C729.098 224.702 727.598 223.202 726.598 221.402C725.598 219.502 725.098 217.402 725.098 215.102C725.098 212.302 725.698 210.002 726.798 208.002C727.898 206.102 729.398 204.602 731.198 203.502C732.998 202.502 734.898 201.902 736.998 201.902C738.598 201.902 739.998 202.202 741.398 202.902C742.798 203.502 743.998 204.402 745.098 205.502C746.198 206.602 746.998 207.902 747.698 209.402C748.298 210.902 748.598 212.402 748.598 214.102C748.598 214.802 748.298 215.402 747.698 215.902C747.098 216.402 746.498 216.602 745.798 216.602H728.198L726.798 212.002H743.698L742.698 212.902V211.702C742.598 210.802 742.298 210.002 741.798 209.302C741.198 208.602 740.498 208.002 739.698 207.602C738.898 207.202 737.998 207.002 736.998 207.002C736.098 207.002 735.198 207.102 734.398 207.402C733.598 207.602 732.898 208.102 732.298 208.602C731.698 209.202 731.298 210.002 730.898 210.902C730.598 211.902 730.398 213.102 730.398 214.602C730.398 216.302 730.698 217.702 731.398 218.802C732.098 220.002 732.998 220.802 734.098 221.402C735.198 222.002 736.298 222.302 737.598 222.302C738.698 222.302 739.598 222.202 740.298 222.002C740.998 221.802 741.498 221.602 741.898 221.302C742.298 221.002 742.698 220.802 742.998 220.602C743.598 220.302 744.098 220.202 744.598 220.202C745.298 220.202 745.798 220.402 746.298 220.902C746.698 221.402 746.998 221.902 746.998 222.502C746.998 223.302 746.598 224.102 745.698 224.802C744.898 225.502 743.798 226.102 742.298 226.602C740.898 227.202 739.398 227.402 737.798 227.402Z" fill="#E9EAEC"/>
<path d="M766.3 201.902C768.6 201.902 770.3 202.402 771.5 203.302C772.7 204.302 773.5 205.502 773.9 207.102C774.3 208.702 774.6 210.402 774.6 212.402V224.202C774.6 225.002 774.3 225.702 773.8 226.202C773.3 226.702 772.6 227.002 771.8 227.002C771 227.002 770.3 226.702 769.8 226.202C769.3 225.702 769 225.002 769 224.202V212.402C769 211.402 768.9 210.502 768.6 209.702C768.3 208.902 767.9 208.202 767.2 207.702C766.5 207.202 765.6 207.002 764.3 207.002C763.1 207.002 762 207.202 761.2 207.702C760.4 208.202 759.7 208.802 759.3 209.702C758.9 210.502 758.6 211.402 758.6 212.402V224.202C758.6 225.002 758.3 225.702 757.8 226.202C757.3 226.702 756.6 227.002 755.8 227.002C755 227.002 754.3 226.702 753.8 226.202C753.3 225.702 753 225.002 753 224.202V205.202C753 204.402 753.3 203.702 753.8 203.202C754.3 202.702 755 202.402 755.8 202.402C756.6 202.402 757.3 202.702 757.8 203.202C758.3 203.702 758.6 204.402 758.6 205.202V207.202L758 207.002C758.3 206.502 758.7 205.902 759.2 205.302C759.7 204.702 760.3 204.102 761 203.602C761.7 203.102 762.5 202.702 763.4 202.302C764.3 202.102 765.3 201.902 766.3 201.902Z" fill="#E9EAEC"/>
<path d="M780.898 202.802H791.798C792.498 202.802 793.098 203.002 793.598 203.502C794.098 204.002 794.298 204.602 794.298 205.302C794.298 206.002 794.098 206.602 793.598 207.102C793.098 207.602 792.498 207.802 791.798 207.802H780.898C780.198 207.802 779.598 207.602 779.098 207.102C778.598 206.602 778.398 206.002 778.398 205.302C778.398 204.602 778.598 204.002 779.098 203.502C779.598 203.002 780.098 202.802 780.898 202.802ZM785.798 197.102C786.598 197.102 787.198 197.402 787.798 197.902C788.298 198.402 788.598 199.102 788.598 199.902V220.402C788.598 220.802 788.698 221.202 788.898 221.502C789.098 221.802 789.298 222.002 789.598 222.102C789.898 222.202 790.198 222.302 790.498 222.302C790.898 222.302 791.198 222.202 791.498 222.102C791.798 222.002 792.198 221.902 792.598 221.902C792.998 221.902 793.398 222.102 793.798 222.502C794.198 222.902 794.298 223.502 794.298 224.202C794.298 225.102 793.798 225.802 792.898 226.302C791.998 226.902 790.998 227.102 789.898 227.102C789.298 227.102 788.498 227.002 787.798 226.902C786.998 226.802 786.298 226.502 785.598 226.102C784.898 225.702 784.298 225.102 783.898 224.202C783.498 223.302 783.198 222.202 783.198 220.702V200.002C783.198 199.202 783.498 198.502 783.998 198.002C784.298 197.302 784.998 197.102 785.798 197.102Z" fill="#E9EAEC"/>
<path d="M810.501 227.402C807.901 227.402 805.601 226.902 803.701 225.802C801.801 224.702 800.301 223.202 799.301 221.402C798.301 219.502 797.801 217.402 797.801 215.102C797.801 212.302 798.401 210.002 799.501 208.002C800.601 206.102 802.101 204.602 803.901 203.502C805.701 202.502 807.601 201.902 809.701 201.902C811.301 201.902 812.701 202.202 814.101 202.902C815.501 203.502 816.701 204.402 817.801 205.502C818.901 206.602 819.701 207.902 820.401 209.402C821.001 210.902 821.301 212.402 821.301 214.102C821.301 214.802 821.001 215.402 820.401 215.902C819.801 216.402 819.201 216.602 818.501 216.602H800.901L799.501 212.002H816.401L815.401 212.902V211.702C815.301 210.802 815.001 210.002 814.501 209.302C813.901 208.602 813.201 208.002 812.401 207.602C811.601 207.202 810.701 207.002 809.701 207.002C808.801 207.002 807.901 207.102 807.101 207.402C806.301 207.602 805.601 208.102 805.001 208.602C804.401 209.202 804.001 210.002 803.601 210.902C803.301 211.902 803.101 213.102 803.101 214.602C803.101 216.302 803.401 217.702 804.101 218.802C804.801 220.002 805.701 220.802 806.801 221.402C807.901 222.002 809.001 222.302 810.301 222.302C811.401 222.302 812.301 222.202 813.001 222.002C813.701 221.802 814.201 221.602 814.601 221.302C815.001 221.002 815.401 220.802 815.701 220.602C816.301 220.302 816.801 220.202 817.301 220.202C818.001 220.202 818.501 220.402 819.001 220.902C819.401 221.402 819.701 221.902 819.701 222.502C819.701 223.302 819.301 224.102 818.401 224.802C817.601 225.502 816.501 226.102 815.001 226.602C813.501 227.202 812.101 227.402 810.501 227.402Z" fill="#E9EAEC"/>
</g>
<defs>
<clipPath id="clip0_1594_4719">
<rect width="830.7" height="236.2" fill="white"/>
</clipPath>
</defs>
</svg>
