<svg width="196" height="56" viewBox="0 0 196 56" fill="none" xmlns="http://www.w3.org/2000/svg">
<g clip-path="url(#clip0_1706_4156)">
<path d="M16.0869 6.62562C16.3216 6.88384 16.4624 7.23595 16.4624 7.63501V18.9496C16.4624 20.4989 16.1103 21.8838 15.4296 23.128C14.7488 24.3721 13.7864 25.3345 12.5892 26.0388C11.392 26.743 10.0305 27.0951 8.50469 27.0951C6.97887 27.0951 5.5939 26.743 4.37324 26.0388C3.15258 25.3345 2.21362 24.3721 1.50939 23.128C0.852113 21.8838 0.5 20.4989 0.5 18.9496V7.63501C0.5 7.21248 0.640845 6.88384 0.922535 6.62562C1.20423 6.36741 1.55634 6.22656 1.97887 6.22656C2.35446 6.22656 2.6831 6.36741 2.96479 6.6491C3.24648 6.93079 3.38732 7.25943 3.38732 7.65849V18.973C3.38732 19.9824 3.62207 20.9214 4.09155 21.7195C4.56103 22.5411 5.19484 23.1749 5.96948 23.6209C6.74413 24.0669 7.5892 24.3017 8.50469 24.3017C9.44366 24.3017 10.3122 24.0669 11.1338 23.6209C11.9319 23.1749 12.5892 22.5411 13.0587 21.7195C13.5282 20.8979 13.7864 19.9824 13.7864 18.973V7.63501C13.7864 7.21248 13.9038 6.88384 14.1385 6.62562C14.3732 6.36741 14.7019 6.22656 15.1009 6.22656C15.5235 6.22656 15.8521 6.36741 16.0869 6.62562Z" fill="#E9EAEC"/>
<path d="M37.3537 6.62559C37.5884 6.86033 37.7058 7.18897 37.7058 7.56455V25.4284C37.7058 25.8509 37.5649 26.1796 37.3067 26.4613C37.0485 26.743 36.6964 26.8838 36.2973 26.8838C36.086 26.8838 35.8748 26.8603 35.6635 26.7899C35.4522 26.7195 35.2879 26.6256 35.1706 26.4847L23.5978 11.3908V25.5692C23.5978 25.9448 23.4804 26.25 23.2222 26.5082C22.9875 26.743 22.6588 26.8838 22.2832 26.8838C21.9076 26.8838 21.6025 26.7664 21.3677 26.5082C21.133 26.2735 21.0156 25.9448 21.0156 25.5692V7.68192C21.0156 7.25939 21.1565 6.93075 21.4147 6.67254C21.6729 6.41432 22.0015 6.27347 22.4006 6.27347C22.6353 6.27347 22.8701 6.32042 23.0814 6.41432C23.2926 6.50822 23.4569 6.62559 23.5743 6.78991L35.1236 21.8838V7.56455C35.1236 7.18897 35.241 6.8838 35.4992 6.62559C35.7339 6.39085 36.0626 6.25 36.4147 6.25C36.8137 6.25 37.1189 6.39085 37.3537 6.62559Z" fill="#E9EAEC"/>
<path d="M57.0484 24.7478C57.2362 24.9825 57.3066 25.2642 57.3066 25.5929C57.3066 26.0154 57.1658 26.344 56.8841 26.6023C56.6024 26.8605 56.2738 26.9778 55.9217 26.9778C55.4287 26.9778 55.0531 26.7901 54.7714 26.391L49.0672 18.7384L43.4803 26.3675C43.1752 26.7901 42.7996 26.9778 42.3301 26.9778C41.978 26.9778 41.6728 26.8605 41.4381 26.6023C41.2033 26.3675 41.0625 26.0858 41.0625 25.7572C41.0625 25.4285 41.1799 25.0999 41.4146 24.7947L47.4475 16.5788L41.3911 8.43324C41.2033 8.17503 41.086 7.89334 41.086 7.58817C41.086 7.18911 41.2268 6.86048 41.5085 6.57879C41.7902 6.2971 42.1188 6.15625 42.4944 6.15625C42.7057 6.15625 42.917 6.2032 43.1282 6.2971C43.3395 6.39099 43.5038 6.53184 43.6447 6.7431L49.3019 14.3487L54.8888 6.837C55.2174 6.41447 55.593 6.17972 56.0156 6.17972C56.3677 6.17972 56.6728 6.32057 56.9545 6.57879C57.2127 6.837 57.3536 7.14217 57.3536 7.4708C57.3536 7.77597 57.2597 8.05766 57.0484 8.31587L50.9217 16.5084L57.0484 24.7478Z" fill="#E9EAEC"/>
<path d="M81.8133 7.68196C83.1044 8.62093 84.0433 9.86506 84.6771 11.4378C85.2875 12.9871 85.6161 14.7007 85.6161 16.5787C85.6161 18.527 85.3109 20.2641 84.6771 21.8134C84.0668 23.3627 83.1044 24.6068 81.8368 25.4989C80.5692 26.4144 78.9729 26.8604 77.0715 26.8604H69.4189C69.2546 26.8604 69.1138 26.7899 68.9964 26.6726C68.879 26.5552 68.8086 26.4144 68.8086 26.25V6.83689C68.8086 6.67257 68.8555 6.53173 68.9964 6.41436C69.1138 6.29698 69.2546 6.22656 69.4189 6.22656H77.0715C78.9494 6.25004 80.5222 6.71952 81.8133 7.68196ZM82.4706 23.1749C83.7147 21.5083 84.3485 19.3017 84.3485 16.5552C84.3485 14.8885 84.0903 13.3627 83.5504 11.9777C83.0105 10.5928 82.1654 9.48947 81.0386 8.66788C79.9119 7.84628 78.48 7.42375 76.7663 7.42375H70.0527V25.6632H76.7663C79.325 25.6867 81.2264 24.8416 82.4706 23.1749Z" fill="#E9EAEC"/>
<path d="M89.0707 9.4443C88.883 9.25651 88.7891 9.04524 88.7891 8.76355V8.52881C88.7891 8.24712 88.883 8.03585 89.0942 7.84806C89.282 7.66027 89.5402 7.58984 89.8689 7.58984C90.1506 7.58984 90.3853 7.68374 90.5496 7.84806C90.7374 8.03585 90.8313 8.24712 90.8313 8.52881V8.76355C90.8313 9.04524 90.7374 9.25651 90.5496 9.4443C90.3618 9.6321 90.1271 9.70252 89.8219 9.70252C89.4933 9.70252 89.2351 9.60862 89.0707 9.4443ZM90.221 26.6978C90.1036 26.8152 89.9628 26.8856 89.7984 26.8856C89.6107 26.8856 89.4698 26.8152 89.3759 26.6978C89.2585 26.5805 89.2116 26.4396 89.2116 26.2753V12.2847C89.2116 12.1204 89.2585 11.9795 89.3994 11.8621C89.5168 11.7448 89.6576 11.6744 89.8219 11.6744C90.0097 11.6744 90.1506 11.7448 90.2445 11.8621C90.3618 11.9795 90.4088 12.1204 90.4088 12.2847V26.2753C90.4088 26.4396 90.3384 26.5805 90.221 26.6978Z" fill="#E9EAEC"/>
<path d="M108.038 12.3565C108.155 12.4739 108.202 12.6147 108.202 12.7791V25.4316C108.202 26.934 107.897 28.2251 107.286 29.3284C106.676 30.4316 105.831 31.2767 104.728 31.8636C103.625 32.4504 102.38 32.7556 100.948 32.7556C100.174 32.7556 99.3757 32.6617 98.5541 32.4504C97.756 32.2392 97.0752 31.9809 96.5588 31.6523C96.0424 31.3237 95.7841 30.995 95.7841 30.6664C95.7841 30.5021 95.8311 30.3847 95.925 30.2908C96.0189 30.1969 96.1363 30.15 96.3006 30.15C96.418 30.15 96.6057 30.2439 96.8405 30.4551C97.1222 30.7368 97.4273 30.9246 97.756 31.0655C98.7184 31.4645 99.7982 31.6523 101.019 31.6523C102.873 31.6523 104.329 31.0889 105.409 29.9387C106.488 28.8119 107.028 27.3096 107.028 25.4316V23.3894C106.488 24.657 105.667 25.596 104.563 26.2063C103.46 26.8401 102.286 27.1453 101.066 27.1453C99.7278 27.1453 98.5306 26.8166 97.4273 26.1359C96.3475 25.4551 95.479 24.5396 94.8687 23.3424C94.2583 22.1687 93.9297 20.8542 93.9297 19.3988C93.9297 17.9434 94.2349 16.6288 94.8687 15.4551C95.479 14.2814 96.3475 13.3659 97.4273 12.6852C98.5072 12.0279 99.7278 11.6758 101.066 11.6758C102.38 11.6758 103.578 12.0279 104.681 12.7321C105.761 13.4363 106.559 14.2579 107.028 15.2439V12.7791C107.028 12.6147 107.075 12.4739 107.193 12.3565C107.31 12.2392 107.451 12.1687 107.615 12.1687C107.803 12.1687 107.944 12.2392 108.038 12.3565ZM104.211 25.1969C105.127 24.6335 105.831 23.8589 106.371 22.8495C106.887 21.8401 107.146 20.6899 107.146 19.3988C107.146 18.1077 106.887 16.9575 106.371 15.9481C105.855 14.9387 105.127 14.164 104.211 13.6241C103.296 13.0842 102.263 12.8025 101.136 12.8025C100.01 12.8025 98.9766 13.0842 98.0611 13.6476C97.1457 14.211 96.4414 15.0091 95.9015 15.995C95.3851 17.0044 95.1269 18.1312 95.1269 19.3753C95.1269 20.6429 95.3851 21.7697 95.9015 22.7556C96.4179 23.765 97.1457 24.5396 98.0611 25.1265C98.9766 25.7133 100.01 25.995 101.136 25.995C102.286 26.042 103.296 25.7603 104.211 25.1969Z" fill="#E9EAEC"/>
<path d="M112.637 9.4443C112.449 9.25651 112.355 9.04524 112.355 8.76355V8.52881C112.355 8.24712 112.449 8.03585 112.661 7.84806C112.848 7.66027 113.107 7.58984 113.435 7.58984C113.717 7.58984 113.952 7.68374 114.116 7.84806C114.304 8.03585 114.398 8.24712 114.398 8.52881V8.76355C114.398 9.04524 114.304 9.25651 114.116 9.4443C113.928 9.6321 113.693 9.70252 113.388 9.70252C113.083 9.70252 112.825 9.60862 112.637 9.4443ZM113.787 26.6978C113.67 26.8152 113.529 26.8856 113.365 26.8856C113.177 26.8856 113.036 26.8152 112.942 26.6978C112.825 26.5805 112.778 26.4396 112.778 26.2753V12.2847C112.778 12.1204 112.848 11.9795 112.966 11.8621C113.083 11.7448 113.224 11.6744 113.388 11.6744C113.576 11.6744 113.717 11.7448 113.811 11.8621C113.928 11.9795 113.975 12.1204 113.975 12.2847V26.2753C113.975 26.4396 113.905 26.5805 113.787 26.6978Z" fill="#E9EAEC"/>
<path d="M124.418 12.2375C124.536 12.3549 124.606 12.4723 124.606 12.6131C124.606 12.7775 124.559 12.8948 124.442 13.0122C124.325 13.1296 124.207 13.1765 124.043 13.1765H120.803V23.646C120.803 24.5145 120.944 25.0779 121.249 25.3596C121.555 25.6413 121.93 25.7821 122.423 25.7821C122.494 25.7821 122.611 25.7587 122.752 25.7117C122.893 25.6648 123.01 25.6413 123.127 25.6413C123.268 25.6413 123.386 25.6883 123.479 25.8056C123.573 25.923 123.62 26.0404 123.62 26.1812C123.62 26.369 123.503 26.5098 123.268 26.6272C123.033 26.7446 122.752 26.815 122.447 26.815C121.954 26.815 121.555 26.7915 121.202 26.7211C120.874 26.6507 120.522 26.3925 120.146 25.923C119.794 25.4535 119.606 24.7023 119.606 23.6695V13.1765H117.188C117.048 13.1765 116.93 13.1061 116.813 12.9887C116.695 12.8714 116.625 12.754 116.625 12.6131C116.625 12.4488 116.672 12.3314 116.789 12.2141C116.907 12.0967 117.024 12.0498 117.188 12.0498H119.606V8.31736C119.606 8.15304 119.653 8.0122 119.794 7.89482C119.911 7.77745 120.052 7.70703 120.217 7.70703C120.404 7.70703 120.545 7.77745 120.639 7.89482C120.756 8.0122 120.803 8.15304 120.803 8.31736V12.0498H124.043C124.184 12.0498 124.301 12.1202 124.418 12.2375Z" fill="#E9EAEC"/>
<path d="M140.029 12.3565C140.146 12.4739 140.193 12.6147 140.193 12.779V26.3002C140.193 26.4645 140.146 26.6053 140.005 26.7227C139.888 26.8401 139.747 26.9105 139.583 26.9105C139.395 26.9105 139.254 26.8401 139.16 26.7227C139.043 26.6053 138.996 26.4645 138.996 26.3002V23.6241C138.503 24.6335 137.752 25.4551 136.719 26.1358C135.71 26.8166 134.559 27.1452 133.339 27.1452C132.048 27.1452 130.874 26.8166 129.841 26.1358C128.808 25.4551 127.987 24.5161 127.4 23.3424C126.813 22.1452 126.508 20.8307 126.508 19.3518C126.508 17.8964 126.813 16.5818 127.4 15.4316C127.987 14.2579 128.808 13.3424 129.865 12.6851C130.897 12.0279 132.071 11.6992 133.339 11.6992C134.606 11.6992 135.757 12.0279 136.789 12.7086C137.799 13.3659 138.55 14.2579 138.996 15.3847V12.779C138.996 12.6147 139.043 12.4739 139.16 12.3565C139.278 12.2391 139.419 12.1687 139.583 12.1687C139.794 12.1687 139.935 12.2391 140.029 12.3565ZM136.367 25.1734C137.236 24.5865 137.916 23.7884 138.409 22.779C138.902 21.7696 139.137 20.6194 139.137 19.3753C139.137 18.1781 138.902 17.0748 138.409 16.0889C137.916 15.0795 137.236 14.3049 136.367 13.718C135.498 13.1311 134.513 12.8495 133.433 12.8495C132.353 12.8495 131.367 13.1311 130.498 13.6945C129.63 14.2579 128.949 15.0326 128.456 16.0185C127.963 17.0044 127.728 18.1311 127.728 19.3987C127.728 20.6664 127.963 21.7931 128.456 22.8025C128.949 23.8119 129.63 24.6335 130.498 25.1969C131.367 25.7837 132.353 26.0654 133.433 26.0654C134.513 26.0419 135.475 25.7603 136.367 25.1734Z" fill="#E9EAEC"/>
<path d="M145.947 26.6979C145.83 26.8153 145.689 26.8857 145.524 26.8857C145.337 26.8857 145.196 26.8153 145.102 26.6979C144.984 26.5805 144.938 26.4397 144.938 26.2753V5.66502C144.938 5.5007 144.984 5.35985 145.125 5.24248C145.243 5.12511 145.384 5.05469 145.548 5.05469C145.736 5.05469 145.876 5.12511 145.97 5.24248C146.088 5.35985 146.135 5.5007 146.135 5.66502V26.2753C146.111 26.4397 146.064 26.5805 145.947 26.6979Z" fill="#E9EAEC"/>
<path d="M159.092 31.3685C158.481 31.3685 157.988 30.8755 157.988 30.2652V1.65016C157.988 1.03983 158.481 0.546875 159.092 0.546875C159.702 0.546875 160.195 1.03983 160.195 1.65016V30.2887C160.171 30.8755 159.678 31.3685 159.092 31.3685Z" fill="#E9EAEC"/>
<path d="M170.849 31.3685C170.239 31.3685 169.746 30.8755 169.746 30.2652V1.65016C169.746 1.03983 170.239 0.546875 170.849 0.546875C171.46 0.546875 171.953 1.03983 171.953 1.65016V30.2887C171.953 30.8755 171.46 31.3685 170.849 31.3685Z" fill="#E9EAEC"/>
<path d="M182.635 31.3685C182.024 31.3685 181.531 30.8755 181.531 30.2652V1.65016C181.531 1.03983 182.024 0.546875 182.635 0.546875C183.245 0.546875 183.738 1.03983 183.738 1.65016V30.2887C183.738 30.8755 183.245 31.3685 182.635 31.3685Z" fill="#E9EAEC"/>
<path d="M194.396 31.3685C193.786 31.3685 193.293 30.8755 193.293 30.2652V1.65016C193.293 1.03983 193.786 0.546875 194.396 0.546875C195.007 0.546875 195.5 1.03983 195.5 1.65016V30.2887C195.5 30.8755 195.007 31.3685 194.396 31.3685Z" fill="#E9EAEC"/>
<path d="M121.415 47.9408C121.908 47.9408 122.377 48.0582 122.776 48.3164C123.175 48.5746 123.504 48.9268 123.715 49.3728C123.95 49.8188 124.067 50.3352 124.067 50.9221C124.067 51.5089 123.95 52.0253 123.715 52.4714C123.481 52.9174 123.175 53.2695 122.776 53.5277C122.377 53.7859 121.955 53.9033 121.462 53.9033C121.18 53.9033 120.898 53.8563 120.64 53.7624C120.382 53.6685 120.171 53.5512 119.983 53.4103C119.795 53.2695 119.654 53.1286 119.537 52.9643C119.443 52.8235 119.373 52.6826 119.373 52.5887L119.701 52.4479V53.246C119.701 53.4338 119.631 53.5981 119.513 53.7155C119.396 53.8329 119.232 53.9033 119.044 53.9033C118.856 53.9033 118.692 53.8329 118.575 53.7155C118.457 53.5981 118.387 53.4338 118.387 53.246V46.462C118.387 46.2742 118.457 46.1099 118.575 45.9925C118.692 45.8751 118.856 45.8047 119.044 45.8047C119.232 45.8047 119.396 45.8751 119.513 45.9925C119.631 46.1099 119.701 46.2742 119.701 46.462V49.2084L119.513 49.1145C119.513 49.0206 119.56 48.9033 119.654 48.7859C119.748 48.6451 119.889 48.5277 120.053 48.3868C120.218 48.246 120.429 48.1521 120.664 48.0582C120.922 47.9878 121.157 47.9408 121.415 47.9408ZM121.251 49.138C120.945 49.138 120.664 49.2084 120.429 49.3728C120.194 49.5371 120.006 49.7483 119.866 50.0066C119.725 50.2648 119.654 50.5934 119.654 50.9221C119.654 51.2507 119.725 51.5793 119.866 51.8376C120.006 52.0958 120.194 52.3305 120.429 52.4948C120.664 52.6591 120.945 52.7296 121.251 52.7296C121.556 52.7296 121.837 52.6591 122.072 52.4948C122.307 52.3305 122.495 52.1192 122.612 51.8376C122.753 51.5559 122.823 51.2507 122.823 50.9221C122.823 50.5699 122.753 50.2648 122.612 50.0066C122.471 49.7249 122.307 49.5136 122.072 49.3728C121.837 49.2084 121.556 49.138 121.251 49.138Z" fill="#E9EAEC"/>
<path d="M129.421 48.0586C129.609 48.0586 129.773 48.129 129.89 48.2464C130.008 48.3638 130.078 48.5281 130.078 48.7159V53.2933C130.078 53.9506 129.961 54.4905 129.703 54.8661C129.444 55.2652 129.116 55.5469 128.693 55.7112C128.271 55.8755 127.801 55.9694 127.285 55.9694C127.05 55.9694 126.815 55.9459 126.557 55.9224C126.299 55.8755 126.087 55.8285 125.923 55.7581C125.712 55.6642 125.548 55.5469 125.477 55.406C125.383 55.2652 125.383 55.1243 125.43 54.96C125.501 54.7487 125.595 54.6079 125.735 54.5375C125.876 54.467 126.041 54.4436 126.181 54.514C126.299 54.5609 126.44 54.6079 126.627 54.6783C126.815 54.7487 127.026 54.7957 127.285 54.7957C127.613 54.7957 127.895 54.7487 128.106 54.6548C128.318 54.5609 128.482 54.4201 128.599 54.2088C128.717 53.9976 128.764 53.7159 128.764 53.3403V52.6126L128.998 52.8708C128.881 53.1055 128.717 53.2933 128.529 53.4577C128.341 53.622 128.13 53.7393 127.872 53.8098C127.613 53.8802 127.332 53.9271 127.003 53.9271C126.627 53.9271 126.299 53.8332 125.994 53.6689C125.712 53.4811 125.477 53.2464 125.336 52.9412C125.172 52.6361 125.102 52.2605 125.102 51.8614V48.7159C125.102 48.5281 125.172 48.3638 125.289 48.2464C125.407 48.129 125.571 48.0586 125.759 48.0586C125.947 48.0586 126.111 48.129 126.228 48.2464C126.346 48.3638 126.416 48.5281 126.416 48.7159V51.4858C126.416 51.9553 126.51 52.2839 126.721 52.4717C126.933 52.6595 127.214 52.7534 127.59 52.7534C127.848 52.7534 128.059 52.7065 128.224 52.6126C128.388 52.5187 128.529 52.3778 128.623 52.1901C128.717 52.0023 128.764 51.7675 128.764 51.4858V48.7159C128.764 48.5281 128.834 48.3638 128.951 48.2464C129.092 48.1055 129.233 48.0586 129.421 48.0586Z" fill="#E9EAEC"/>
<path d="M137.727 46.2735C138.103 46.2735 138.455 46.3908 138.784 46.6021C139.112 46.8134 139.371 47.1185 139.582 47.4707C139.793 47.8462 139.887 48.2453 139.887 48.6913C139.887 49.1373 139.793 49.5364 139.582 49.912C139.371 50.2876 139.112 50.5692 138.784 50.7805C138.455 50.9918 138.103 51.1092 137.727 51.1092H135.732L135.85 50.9214V53.1514C135.85 53.3392 135.803 53.5035 135.685 53.6209C135.568 53.7383 135.427 53.8087 135.239 53.8087C135.051 53.8087 134.911 53.7383 134.793 53.6209C134.676 53.5035 134.629 53.3392 134.629 53.1514V46.9073C134.629 46.7195 134.699 46.5552 134.817 46.4378C134.934 46.3204 135.098 46.25 135.286 46.25H137.727V46.2735ZM137.727 49.8885C137.868 49.8885 137.986 49.8416 138.127 49.7242C138.267 49.6068 138.361 49.466 138.455 49.2782C138.549 49.0904 138.596 48.9026 138.596 48.6913C138.596 48.48 138.549 48.2923 138.455 48.1045C138.361 47.9167 138.267 47.7758 138.127 47.6585C137.986 47.5411 137.868 47.4941 137.727 47.4941H135.709L135.85 47.3063V50.0763L135.732 49.912H137.727V49.8885Z" fill="#E9EAEC"/>
<path d="M141.673 53.8335C141.485 53.8335 141.321 53.763 141.203 53.6457C141.086 53.5283 141.016 53.364 141.016 53.1762V48.7161C141.016 48.5283 141.086 48.364 141.203 48.2466C141.321 48.1292 141.485 48.0588 141.673 48.0588C141.861 48.0588 142.025 48.1292 142.142 48.2466C142.26 48.364 142.33 48.5283 142.33 48.7161V49.7255L142.26 48.9978C142.33 48.8335 142.448 48.6691 142.565 48.5283C142.682 48.3875 142.823 48.2936 142.987 48.1997C143.152 48.1058 143.316 48.0353 143.504 47.9884C143.692 47.9414 143.856 47.918 144.044 47.918C144.255 47.918 144.443 47.9884 144.584 48.1058C144.725 48.2231 144.795 48.364 144.795 48.5283C144.795 48.763 144.725 48.9274 144.607 49.0447C144.49 49.1621 144.349 49.209 144.208 49.209C144.067 49.209 143.95 49.1856 143.833 49.1386C143.715 49.0917 143.598 49.0682 143.457 49.0682C143.316 49.0682 143.199 49.0917 143.058 49.1621C142.917 49.2325 142.8 49.3264 142.682 49.4438C142.565 49.5612 142.471 49.7255 142.424 49.9133C142.354 50.1011 142.33 50.3358 142.33 50.594V53.1527C142.33 53.3405 142.26 53.5048 142.142 53.6222C142.025 53.7396 141.861 53.8335 141.673 53.8335Z" fill="#E9EAEC"/>
<path d="M151.017 50.9461C151.017 51.5329 150.876 52.0494 150.618 52.4954C150.36 52.9414 150.008 53.2935 149.562 53.5517C149.116 53.8099 148.623 53.9273 148.083 53.9273C147.543 53.9273 147.05 53.8099 146.604 53.5517C146.158 53.2935 145.806 52.9414 145.548 52.4954C145.289 52.0494 145.148 51.5329 145.148 50.9461C145.148 50.3592 145.289 49.8428 145.548 49.3968C145.806 48.9508 146.158 48.5986 146.604 48.3404C147.05 48.0822 147.543 47.9648 148.083 47.9648C148.623 47.9648 149.116 48.0822 149.562 48.3404C150.008 48.5986 150.36 48.9508 150.618 49.3968C150.876 49.8428 151.017 50.3592 151.017 50.9461ZM149.726 50.9461C149.726 50.5705 149.655 50.2653 149.515 49.9836C149.374 49.7019 149.163 49.5141 148.928 49.3498C148.67 49.209 148.411 49.1151 148.106 49.1151C147.801 49.1151 147.519 49.1855 147.285 49.3498C147.026 49.4907 146.839 49.7019 146.698 49.9836C146.557 50.2418 146.486 50.5705 146.486 50.9461C146.486 51.2982 146.557 51.6268 146.698 51.885C146.839 52.1432 147.05 52.3545 147.285 52.5188C147.543 52.6597 147.801 52.7536 148.106 52.7536C148.411 52.7536 148.693 52.6832 148.928 52.5188C149.186 52.378 149.374 52.1667 149.515 51.885C149.655 51.6268 149.726 51.2982 149.726 50.9461Z" fill="#E9EAEC"/>
<path d="M155.122 47.9414C155.709 47.9414 156.131 48.0823 156.39 48.3639C156.671 48.6456 156.836 48.9977 156.93 49.4438L156.742 49.3499L156.836 49.1855C156.93 49.0212 157.047 48.8334 157.235 48.6456C157.423 48.4578 157.634 48.2935 157.892 48.1527C158.15 48.0118 158.432 47.9414 158.761 47.9414C159.277 47.9414 159.676 48.0588 159.934 48.27C160.192 48.5048 160.38 48.7865 160.498 49.1621C160.592 49.5377 160.638 49.9367 160.638 50.4062V53.1761C160.638 53.3639 160.568 53.5283 160.451 53.6456C160.333 53.763 160.169 53.8334 159.981 53.8334C159.793 53.8334 159.629 53.763 159.512 53.6456C159.394 53.5283 159.324 53.3639 159.324 53.1761V50.4062C159.324 50.1715 159.3 49.9602 159.23 49.7724C159.183 49.5846 159.066 49.4203 158.925 49.3029C158.784 49.1855 158.549 49.1386 158.268 49.1386C157.986 49.1386 157.751 49.1855 157.563 49.3029C157.376 49.4203 157.235 49.5611 157.117 49.7724C157.023 49.9602 156.977 50.1715 156.977 50.4062V53.1761C156.977 53.3639 156.906 53.5283 156.789 53.6456C156.671 53.763 156.507 53.8334 156.319 53.8334C156.131 53.8334 155.967 53.763 155.85 53.6456C155.732 53.5283 155.662 53.3639 155.662 53.1761V50.4062C155.662 50.1715 155.638 49.9602 155.568 49.7724C155.521 49.5846 155.404 49.4203 155.263 49.3029C155.122 49.1855 154.887 49.1386 154.606 49.1386C154.324 49.1386 154.089 49.1855 153.901 49.3029C153.714 49.4203 153.573 49.5611 153.455 49.7724C153.361 49.9602 153.315 50.1715 153.315 50.4062V53.1761C153.315 53.3639 153.244 53.5283 153.127 53.6456C153.009 53.763 152.845 53.8334 152.657 53.8334C152.469 53.8334 152.305 53.763 152.188 53.6456C152.07 53.5283 152 53.3639 152 53.1761V48.7161C152 48.5283 152.07 48.3639 152.188 48.2466C152.305 48.1292 152.469 48.0588 152.657 48.0588C152.845 48.0588 153.009 48.1292 153.127 48.2466C153.244 48.3639 153.315 48.5283 153.315 48.7161V49.1855L153.15 49.1621C153.221 49.0447 153.315 48.9038 153.408 48.763C153.526 48.6222 153.667 48.4813 153.831 48.3639C153.995 48.2466 154.183 48.1527 154.371 48.0588C154.676 47.9884 154.887 47.9414 155.122 47.9414Z" fill="#E9EAEC"/>
<path d="M162.614 47.3536C162.38 47.3536 162.192 47.3066 162.098 47.2362C162.004 47.1658 161.957 47.0249 161.957 46.8137V46.6024C161.957 46.3911 162.004 46.2503 162.121 46.1799C162.239 46.1094 162.403 46.0625 162.638 46.0625C162.896 46.0625 163.06 46.1094 163.178 46.1799C163.272 46.2503 163.319 46.3911 163.319 46.6024V46.8137C163.319 47.0249 163.272 47.1658 163.154 47.2362C163.037 47.3066 162.849 47.3536 162.614 47.3536ZM163.272 53.1752C163.272 53.363 163.201 53.5273 163.084 53.6447C162.966 53.762 162.802 53.8325 162.614 53.8325C162.427 53.8325 162.262 53.762 162.145 53.6447C162.027 53.5273 161.957 53.363 161.957 53.1752V48.7151C161.957 48.5273 162.027 48.363 162.145 48.2456C162.262 48.1282 162.427 48.0578 162.614 48.0578C162.802 48.0578 162.966 48.1282 163.084 48.2456C163.201 48.363 163.272 48.5273 163.272 48.7151V53.1752Z" fill="#E9EAEC"/>
<path d="M167.681 47.9414C168.221 47.9414 168.62 48.0588 168.901 48.27C169.183 48.5048 169.371 48.7865 169.465 49.1621C169.559 49.5377 169.629 49.9367 169.629 50.4062V53.1761C169.629 53.3639 169.559 53.5283 169.441 53.6456C169.324 53.763 169.16 53.8334 168.972 53.8334C168.784 53.8334 168.62 53.763 168.502 53.6456C168.385 53.5283 168.314 53.3639 168.314 53.1761V50.4062C168.314 50.1715 168.291 49.9602 168.221 49.7724C168.15 49.5846 168.056 49.4203 167.892 49.3029C167.728 49.1855 167.516 49.1386 167.211 49.1386C166.929 49.1386 166.671 49.1855 166.483 49.3029C166.296 49.4203 166.131 49.5611 166.037 49.7724C165.944 49.9602 165.873 50.1715 165.873 50.4062V53.1761C165.873 53.3639 165.803 53.5283 165.685 53.6456C165.568 53.763 165.404 53.8334 165.216 53.8334C165.028 53.8334 164.864 53.763 164.746 53.6456C164.629 53.5283 164.559 53.3639 164.559 53.1761V48.7161C164.559 48.5283 164.629 48.3639 164.746 48.2466C164.864 48.1292 165.028 48.0588 165.216 48.0588C165.404 48.0588 165.568 48.1292 165.685 48.2466C165.803 48.3639 165.873 48.5283 165.873 48.7161V49.1855L165.709 49.1621C165.779 49.0447 165.873 48.9038 165.991 48.763C166.108 48.6222 166.249 48.4813 166.413 48.3639C166.577 48.2466 166.765 48.1527 166.976 48.0588C167.211 47.9884 167.446 47.9414 167.681 47.9414Z" fill="#E9EAEC"/>
<path d="M173.692 53.9273C173.082 53.9273 172.542 53.81 172.096 53.5517C171.65 53.2935 171.298 52.9414 171.063 52.5189C170.828 52.0729 170.711 51.5799 170.711 51.04C170.711 50.3827 170.852 49.8428 171.11 49.3733C171.368 48.9273 171.72 48.5752 172.143 48.317C172.565 48.0823 173.011 47.9414 173.504 47.9414C173.88 47.9414 174.209 48.0118 174.537 48.1761C174.866 48.317 175.148 48.5283 175.406 48.7865C175.664 49.0447 175.852 49.3499 176.016 49.702C176.157 50.0541 176.227 50.4062 176.227 50.8053C176.227 50.9696 176.157 51.1104 176.016 51.2278C175.875 51.3452 175.734 51.3921 175.57 51.3921H171.439L171.11 50.3123H175.077L174.842 50.5236V50.2419C174.819 50.0306 174.748 49.8428 174.631 49.6785C174.49 49.5142 174.326 49.3733 174.138 49.2794C173.95 49.1855 173.739 49.1386 173.504 49.1386C173.293 49.1386 173.082 49.1621 172.894 49.2325C172.706 49.2794 172.542 49.3968 172.401 49.5142C172.26 49.655 172.166 49.8428 172.072 50.0541C172.002 50.2888 171.955 50.5705 171.955 50.9226C171.955 51.3217 172.026 51.6503 172.19 51.9085C172.354 52.1902 172.565 52.378 172.824 52.5189C173.082 52.6597 173.34 52.7301 173.645 52.7301C173.903 52.7301 174.115 52.7067 174.279 52.6597C174.443 52.6128 174.561 52.5658 174.655 52.4954C174.749 52.425 174.842 52.378 174.913 52.3311C175.054 52.2607 175.171 52.2372 175.288 52.2372C175.453 52.2372 175.57 52.2841 175.687 52.4015C175.781 52.5189 175.852 52.6362 175.852 52.7771C175.852 52.9649 175.758 53.1527 175.547 53.317C175.359 53.4813 175.101 53.6222 174.748 53.7395C174.42 53.8804 174.068 53.9273 173.692 53.9273Z" fill="#E9EAEC"/>
<path d="M180.38 47.9414C180.92 47.9414 181.319 48.0588 181.601 48.27C181.882 48.5048 182.07 48.7865 182.164 49.1621C182.258 49.5377 182.328 49.9367 182.328 50.4062V53.1761C182.328 53.3639 182.258 53.5283 182.14 53.6456C182.023 53.763 181.859 53.8334 181.671 53.8334C181.483 53.8334 181.319 53.763 181.201 53.6456C181.084 53.5283 181.014 53.3639 181.014 53.1761V50.4062C181.014 50.1715 180.99 49.9602 180.92 49.7724C180.849 49.5846 180.755 49.4203 180.591 49.3029C180.427 49.1855 180.216 49.1386 179.91 49.1386C179.629 49.1386 179.37 49.1855 179.183 49.3029C178.995 49.4203 178.831 49.5611 178.737 49.7724C178.643 49.9602 178.572 50.1715 178.572 50.4062V53.1761C178.572 53.3639 178.502 53.5283 178.385 53.6456C178.267 53.763 178.103 53.8334 177.915 53.8334C177.727 53.8334 177.563 53.763 177.446 53.6456C177.328 53.5283 177.258 53.3639 177.258 53.1761V48.7161C177.258 48.5283 177.328 48.3639 177.446 48.2466C177.563 48.1292 177.727 48.0588 177.915 48.0588C178.103 48.0588 178.267 48.1292 178.385 48.2466C178.502 48.3639 178.572 48.5283 178.572 48.7161V49.1855L178.432 49.1386C178.502 49.0212 178.596 48.8804 178.713 48.7395C178.831 48.5987 178.971 48.4578 179.136 48.3405C179.3 48.2231 179.488 48.1292 179.699 48.0353C179.91 47.9884 180.145 47.9414 180.38 47.9414Z" fill="#E9EAEC"/>
<path d="M183.81 48.1505H186.368C186.533 48.1505 186.673 48.1975 186.791 48.3148C186.908 48.4322 186.955 48.5731 186.955 48.7374C186.955 48.9017 186.908 49.0425 186.791 49.1599C186.673 49.2773 186.533 49.3242 186.368 49.3242H183.81C183.645 49.3242 183.504 49.2773 183.387 49.1599C183.27 49.0425 183.223 48.9017 183.223 48.7374C183.223 48.5731 183.27 48.4322 183.387 48.3148C183.504 48.1975 183.622 48.1505 183.81 48.1505ZM184.96 46.8125C185.148 46.8125 185.288 46.8829 185.429 47.0003C185.547 47.1177 185.617 47.282 185.617 47.4698V52.282C185.617 52.3759 185.64 52.4698 185.687 52.5402C185.734 52.6106 185.781 52.6576 185.852 52.681C185.922 52.7045 185.993 52.728 186.063 52.728C186.157 52.728 186.227 52.7045 186.298 52.681C186.368 52.6576 186.462 52.6341 186.556 52.6341C186.65 52.6341 186.744 52.681 186.838 52.7749C186.932 52.8688 186.955 53.0097 186.955 53.174C186.955 53.3853 186.838 53.5496 186.626 53.667C186.415 53.8078 186.18 53.8548 185.922 53.8548C185.781 53.8548 185.594 53.8313 185.429 53.8078C185.241 53.7843 185.077 53.7139 184.913 53.62C184.748 53.5261 184.608 53.3853 184.514 53.174C184.42 52.9627 184.349 52.7045 184.349 52.3524V47.4932C184.349 47.3055 184.42 47.1411 184.537 47.0238C184.608 46.8594 184.772 46.8125 184.96 46.8125Z" fill="#E9EAEC"/>
<path d="M190.759 53.9273C190.148 53.9273 189.608 53.81 189.162 53.5517C188.716 53.2935 188.364 52.9414 188.129 52.5189C187.895 52.0729 187.777 51.5799 187.777 51.04C187.777 50.3827 187.918 49.8428 188.176 49.3733C188.435 48.9273 188.787 48.5752 189.209 48.317C189.632 48.0823 190.078 47.9414 190.571 47.9414C190.946 47.9414 191.275 48.0118 191.604 48.1761C191.932 48.317 192.214 48.5283 192.472 48.7865C192.73 49.0447 192.918 49.3499 193.083 49.702C193.223 50.0541 193.294 50.4062 193.294 50.8053C193.294 50.9696 193.223 51.1104 193.083 51.2278C192.942 51.3452 192.801 51.3921 192.637 51.3921H188.505L188.176 50.3123H192.144L191.909 50.5236V50.2419C191.885 50.0306 191.815 49.8428 191.698 49.6785C191.557 49.5142 191.392 49.3733 191.205 49.2794C191.017 49.1855 190.806 49.1386 190.571 49.1386C190.36 49.1386 190.148 49.1621 189.96 49.2325C189.773 49.2794 189.608 49.3968 189.467 49.5142C189.327 49.655 189.233 49.8428 189.139 50.0541C189.068 50.2888 189.021 50.5705 189.021 50.9226C189.021 51.3217 189.092 51.6503 189.256 51.9085C189.421 52.1902 189.632 52.378 189.89 52.5189C190.148 52.6597 190.406 52.7301 190.712 52.7301C190.97 52.7301 191.181 52.7067 191.345 52.6597C191.51 52.6128 191.627 52.5658 191.721 52.4954C191.815 52.425 191.909 52.378 191.979 52.3311C192.12 52.2607 192.237 52.2372 192.355 52.2372C192.519 52.2372 192.637 52.2841 192.754 52.4015C192.848 52.5189 192.918 52.6362 192.918 52.7771C192.918 52.9649 192.824 53.1527 192.613 53.317C192.425 53.4813 192.167 53.6222 191.815 53.7395C191.463 53.8804 191.134 53.9273 190.759 53.9273Z" fill="#E9EAEC"/>
</g>
<defs>
<clipPath id="clip0_1706_4156">
<rect width="195" height="55.446" fill="white" transform="translate(0.5 0.546875)"/>
</clipPath>
</defs>
</svg>
