<svg width="107" height="109" viewBox="0 0 107 109" fill="none" xmlns="http://www.w3.org/2000/svg">
<path d="M50.3077 9.24251C41.6008 9.95292 33.3634 13.0314 26.5131 18.1765C24.2724 19.8341 20.4738 23.5584 18.5318 25.991C13.5382 32.2125 10.4438 39.3596 9.09935 47.7554C8.56584 51.0276 8.56584 57.8303 9.09935 61.1025C10.3158 68.7664 13.1327 75.4399 17.6995 81.6183C19.2787 83.7496 22.9493 87.5815 25.126 89.3468C36.2017 98.3668 50.8839 101.596 64.6485 98.0224C72.7365 95.9127 79.8002 91.7363 85.6261 85.6225C95.8055 74.9663 100.138 60.1984 97.342 45.5811C96.1469 39.2305 92.8605 31.9111 88.8698 26.6799C87.4827 24.85 84.303 21.5563 82.1903 19.748C75.9375 14.4091 67.9776 10.814 59.8469 9.67306C57.3927 9.32862 52.207 9.09181 50.3077 9.24251ZM60.4871 11.4599C68.3617 12.8376 75.0626 15.9807 81.1446 21.1258C85.9035 25.1514 89.3607 29.6292 92.1349 35.4416C98.473 48.595 97.8755 63.8365 90.5344 76.2795C88.6138 79.5086 87.376 81.2093 85.1139 83.7065C78.349 91.1335 69.1086 95.9988 59.164 97.3981C56.5604 97.764 50.2437 97.764 47.6401 97.3981C44.8659 97.0106 41.0033 96.0418 38.5064 95.0946C22.9706 89.2391 12.3004 75.3107 10.4865 58.4977C10.1877 55.613 10.3371 50.0158 10.8279 47.3249C13.3034 33.2027 21.8182 21.6855 34.4091 15.3133C37.1407 13.9571 41.5795 12.3855 44.4391 11.8043C49.4968 10.771 55.7922 10.6418 60.4871 11.4599Z" fill="#E9EAEC"/>
<path d="M53.8477 17.426C53.1221 19.5142 52.5886 21.2795 52.6313 21.3441C52.9301 21.6455 53.3782 21.0857 53.6343 20.117L53.9117 19.0191H55.2562H56.5793L56.7927 19.8156C56.8994 20.2677 57.0274 20.8274 57.0701 21.0642C57.1128 21.301 57.3048 21.5163 57.5183 21.5593C57.7317 21.6024 57.8384 21.5163 57.7957 21.3441C57.7317 21.1934 57.3048 19.3851 56.814 17.3399C55.619 12.4101 55.5763 12.4101 53.8477 17.426ZM56.0244 16.2635C56.5153 18.6962 56.5579 18.5885 55.3202 18.5885C54.6373 18.5885 54.2532 18.5024 54.2532 18.3302C54.2532 17.9212 55.4056 14.4983 55.5336 14.4983C55.5976 14.4983 55.8324 15.2948 56.0244 16.2635Z" fill="#E9EAEC"/>
<path d="M48.1097 14.2012C47.3201 14.7394 47 15.6436 47 17.2582C47 21.0255 49.2194 23.0706 51.1827 21.0901C51.951 20.3151 52.1217 19.6692 51.5882 19.6692C51.4175 19.6692 51.2681 19.7984 51.2681 19.9706C51.2681 20.1213 51.076 20.5088 50.8199 20.8317C50.3931 21.3699 49.7529 21.5421 49.0487 21.2623C48.131 20.9178 47.2774 18.0977 47.5549 16.3109C47.8536 14.3089 49.3261 13.5769 50.4145 14.9116C50.7346 15.2776 51.0547 15.5144 51.1187 15.4283C51.3748 15.1915 51.2894 15.0193 50.7132 14.4165C50.0517 13.7707 48.878 13.663 48.1097 14.2012Z" fill="#E9EAEC"/>
<path d="M59.5859 14.2596C59.5859 14.3888 59.9701 14.561 60.4396 14.6256C61.5066 14.7978 61.5066 14.7978 60.6316 18.8235C60.2048 20.7825 60.0554 21.945 60.1835 22.0742C60.4822 22.3755 60.5463 22.2249 61.3145 18.5006L62.0187 15.0992L63.0431 15.2284C64.7503 15.4652 64.1955 15.0131 62.3175 14.6256C61.3359 14.4319 60.3329 14.2166 60.0768 14.152C59.778 14.0659 59.5859 14.1089 59.5859 14.2596Z" fill="#E9EAEC"/>
<path d="M44.3703 17.8677C45.5226 22.5177 45.5013 22.4531 45.8428 22.4531C46.2269 22.4531 46.2482 22.4746 45.0958 18.083C44.5196 15.8872 44.1995 15.0045 43.9648 14.9615C43.666 14.8969 43.7301 15.3705 44.3703 17.8677Z" fill="#E9EAEC"/>
<path d="M65.6585 17.0094C64.5062 18.1503 63.994 19.4851 63.9727 21.2288C63.9727 22.6281 64.0153 22.7357 64.6769 23.3385C66.128 24.6517 68.1554 23.7906 69.1584 21.4225C70.0547 19.3128 70.0333 17.7413 69.0517 16.7726C68.6035 16.3205 68.3048 16.2129 67.4725 16.2129C66.5762 16.2129 66.3414 16.3205 65.6585 17.0094ZM68.7316 17.1386C69.9053 18.2149 68.6675 22.4989 66.939 23.2954C65.6159 23.8982 64.5062 23.1017 64.5062 21.5517C64.5062 19.6142 65.6799 17.2892 66.8963 16.7726C67.6645 16.4281 68.0273 16.5142 68.7316 17.1386Z" fill="#E9EAEC"/>
<path d="M38.0419 16.9328C37.4017 17.2127 36.8895 17.5141 36.9322 17.6433C36.9535 17.7509 37.5724 19.3655 38.3193 21.2384C39.5997 24.5106 39.6637 24.6182 40.1759 24.5106C41.0295 24.2953 42.502 23.3481 42.8862 22.7668C43.6757 21.5398 42.9929 18.6981 41.5844 17.3203C40.6241 16.3947 39.5997 16.2655 38.0419 16.9328ZM40.496 17.2127C41.6271 17.7509 42.9075 20.528 42.6514 21.9273C42.502 22.7238 41.5417 23.6279 40.6027 23.8432C40.0906 23.9724 40.0265 23.8647 38.8528 20.8939C38.1699 19.2148 37.6151 17.7509 37.6151 17.6863C37.6151 17.5571 39.0876 17.019 39.7064 16.8898C39.7491 16.8683 40.1119 17.019 40.496 17.2127Z" fill="#E9EAEC"/>
<path d="M33.938 18.9306C33.8527 18.9952 34.6209 20.3084 35.6239 21.8584C36.6056 23.3868 37.3738 24.7 37.3312 24.7431C37.2885 24.7861 35.8587 23.925 34.1728 22.7841C31.5479 21.0619 31.0571 20.8035 30.801 21.0403C30.4595 21.3848 30.4382 21.3417 33.0844 25.432C33.938 26.7667 34.7276 27.8 34.8557 27.7354C35.1118 27.5632 34.8984 27.1757 33.0844 24.4417C32.2735 23.2361 31.5692 22.0952 31.4839 21.9014C31.4199 21.7292 32.7856 22.5042 34.5142 23.6452C36.7763 25.1306 37.758 25.6688 38.0567 25.5826C38.2915 25.4965 38.4622 25.3674 38.4195 25.2813C38.2061 24.7861 34.3222 18.8015 34.1941 18.8015C34.1088 18.8015 34.0021 18.866 33.938 18.9306Z" fill="#E9EAEC"/>
<path d="M27.9191 23.2821C27.8337 23.4543 32.6567 29.2883 32.8274 29.2022C32.8914 29.1807 33.0408 29.1376 33.1688 29.0945C33.4249 29.0084 28.538 23.1099 28.2179 23.1099C28.1112 23.1099 27.9831 23.196 27.9191 23.2821Z" fill="#E9EAEC"/>
<path d="M51.4787 24.7498C44.6284 25.5464 40.0189 27.3547 35.1533 31.1651C27.5134 37.1928 23.0746 47.7629 24.1416 57.3427C25.4861 69.3335 33.2753 79.0855 44.3723 82.7237C50.1983 84.6181 56.8138 84.6181 62.6397 82.7237C71.2399 79.9036 78.325 72.9502 81.334 64.4037C82.9131 59.8614 83.4253 53.5107 82.5504 49.076C80.4803 38.4629 72.8831 29.572 63.0025 26.2568C59.6948 25.1589 54.2103 24.4269 51.4787 24.7498ZM58.7344 26.8811C71.432 29.572 80.5017 40.0345 81.2699 52.8864C81.8248 61.7343 77.6847 70.9912 70.8131 76.3731C64.1976 81.5612 56.3016 83.5202 48.2563 81.9702C38.2903 80.0758 30.0956 72.6488 26.9799 62.7246C26.0409 59.6892 25.7635 57.8378 25.7848 54.2211C25.8275 48.667 27.1933 43.9094 30.0956 39.3671C35.4307 30.9713 44.5857 26.1276 54.4664 26.4505C55.9389 26.4936 57.8595 26.6873 58.7344 26.8811Z" fill="#E9EAEC"/>
<path d="M36.076 38.3737C35.4144 38.589 34.5395 38.9765 34.134 39.2348C33.0456 39.9237 31.4664 41.7105 30.9543 42.8515C30.3141 44.3153 30.186 47.2431 30.6768 48.7716C31.5091 51.3979 33.7285 54.1104 37.8686 57.5979C40.5361 59.8368 41.4538 61.0854 41.4538 62.3985C41.4538 63.4749 40.9416 64.2284 39.8746 64.7451C37.4418 65.9075 34.4114 63.927 34.4114 61.1499V60.1381H31.7652H29.0977L29.2257 60.9347C30.2287 67.9742 34.7529 71.6985 40.6642 70.3853C42.3927 69.9978 44.228 68.9429 45.4017 67.6943C45.9566 67.0916 46.0419 67.0485 46.1913 67.393C46.2554 67.6082 46.3407 68.3832 46.3407 69.1152L46.3621 70.4714L47.3864 70.4929C51.0356 70.536 58.5048 70.8589 58.7182 70.9881C58.8675 71.0957 58.9529 72.086 58.9529 74.045V76.9297H62.2393H65.5257L65.6751 67.2423L65.8459 57.5548H67.1476C68.9616 57.5548 71.2023 57.0382 72.7601 56.2632C74.4674 55.4021 76.2386 53.4861 76.8788 51.807C77.5617 50.0417 77.7111 46.8125 77.199 44.9396C76.5374 42.464 74.7875 40.2466 72.7175 39.2779C71.9279 38.8904 70.9889 38.8473 59.4437 38.7182L47.0023 38.5675V39.8807C47.0023 40.5911 46.9382 41.1938 46.8742 41.1938C46.7889 41.1938 46.3621 40.7633 45.9139 40.2682C45.4017 39.6654 44.6121 39.1057 43.7585 38.7182C42.5635 38.1584 42.1367 38.0939 39.8532 38.0293C37.8045 37.9862 37.0576 38.0508 36.076 38.3737ZM40.1733 42.9591C41.0696 43.5834 41.7952 45.0042 42.1153 46.8125C42.3714 48.2334 42.3714 48.2549 43.1397 48.3841C43.5665 48.4486 44.3987 48.5132 44.9749 48.5132C47.109 48.5348 47.0023 48.3625 47.0023 51.85C47.0023 53.5292 46.9382 55.6389 46.8742 56.543L46.7248 58.1791L46.0206 56.9951C44.2494 54.0028 43.4171 53.1417 39.5971 50.257C37.3777 48.5563 36.7802 47.9966 36.3321 47.1139C35.3077 45.0903 35.6918 43.7341 37.5058 42.8945C38.6368 42.3563 39.3197 42.3779 40.1733 42.9591ZM59.401 47.3292V51.85L56.2853 51.9146L53.191 51.9792V47.3292V42.6792L56.2853 42.7438L59.401 42.8084V47.3292ZM69.6231 43.5619C70.0926 43.7987 70.7328 44.4015 71.0529 44.8966C71.5864 45.6931 71.6504 45.9945 71.6504 47.523C71.6504 50.8382 70.1993 52.4743 67.3824 52.3451L66.1019 52.2806L66.0379 47.7167L65.9952 43.1529L66.4647 43.0667C67.297 42.873 68.7268 43.1098 69.6231 43.5619ZM59.273 61.4298V65.6277L56.3067 65.6923C54.0659 65.7353 53.2977 65.6707 53.1483 65.477C52.9562 65.1326 52.9136 57.4687 53.127 57.2534C53.2123 57.1889 54.6208 57.1458 56.264 57.1673L59.273 57.2319V61.4298Z" fill="#E9EAEC"/>
<path d="M25.1094 26.0974C23.6369 27.0016 23.2528 28.7023 24.2985 29.5419C25.0241 30.1231 25.4722 30.1016 27.3288 29.4558C29.1214 28.8315 29.8043 28.896 30.2738 29.8002C30.85 30.9627 30.0604 32.2759 28.6733 32.405C27.6703 32.4911 27.5209 33.0078 28.5026 33.0078C29.3348 33.0078 30.2098 32.405 30.6793 31.5009C31.1061 30.6613 31.0847 30.0155 30.5939 29.1974C29.9964 28.2287 29.2495 28.1426 27.4782 28.8099C26.6886 29.1113 25.8137 29.3481 25.5362 29.3481C24.9174 29.3481 24.1704 28.6377 24.1704 28.078C24.1704 27.3891 25.1734 26.3773 25.9417 26.2912C26.3258 26.2481 26.6246 26.119 26.6246 26.0113C26.6246 25.6238 25.7923 25.6669 25.1094 26.0974Z" fill="#E9EAEC"/>
<path d="M79.4558 28.512C77.9192 29.8036 76.6602 30.9446 76.6602 31.0522C76.6602 31.1384 77.1296 31.6981 77.6845 32.3224C78.7088 33.4203 79.0076 33.5495 80.288 33.4418C81.4404 33.3342 83.3824 31.8703 84.0439 30.6002C84.4067 29.8898 84.4281 28.8564 84.108 28.2106C83.7452 27.5002 82.6355 26.1224 82.4221 26.1224C82.3367 26.1224 80.9923 27.1988 79.4558 28.512ZM83.2757 27.6724C84.108 28.8134 84.0866 29.5238 83.2117 30.6648C82.294 31.8918 80.9923 32.796 79.9252 32.9467C79.157 33.0543 78.9649 32.9682 78.1753 32.2578C77.6845 31.8057 77.3217 31.3536 77.343 31.246C77.4284 30.9877 82.2513 26.7898 82.4647 26.7898C82.5715 26.7683 82.9129 27.1773 83.2757 27.6724Z" fill="#E9EAEC"/>
<path d="M83.595 33.6704C81.8024 34.7468 80.4153 35.694 80.458 35.8447C80.5007 36.0815 81.8878 38.4926 82.1439 38.794C82.1652 38.8371 82.2719 38.8155 82.3359 38.751C82.4213 38.6648 82.1225 38.019 81.6957 37.2871C81.2689 36.5551 80.9488 35.9308 80.9702 35.9093C81.3756 35.6294 83.6804 34.2947 83.7658 34.2947C83.8511 34.2947 84.1499 34.7253 84.47 35.2635C84.7688 35.8017 85.1102 36.2322 85.2169 36.2322C85.5157 36.2322 85.4303 35.9739 84.8755 35.0482C84.5767 34.5746 84.3419 34.1225 84.3419 34.0364C84.3419 33.7996 86.6681 32.5295 86.9028 32.6802C87.0095 32.7447 87.3723 33.2829 87.6924 33.8642C88.2259 34.8114 88.61 35.2204 88.61 34.7899C88.61 34.5961 87.1375 31.9698 86.9455 31.8406C86.8601 31.7975 85.3663 32.6156 83.595 33.6704Z" fill="#E9EAEC"/>
<path d="M16.4688 43.1078C15.6365 43.9474 15.6151 45.1745 16.4047 46.1217C16.8742 46.6814 17.109 46.7891 17.9199 46.7891C18.6882 46.7891 18.9869 46.6599 19.5204 46.1432C20.118 45.5405 20.1607 45.3682 20.0539 44.4641C19.9046 43.1724 19.179 42.4835 17.9626 42.4835C17.301 42.4835 16.9596 42.6342 16.4688 43.1078Z" fill="#E9EAEC"/>
<path d="M87.3895 43.1053C85.661 44.2032 86.5359 47.0664 88.606 47.0664C89.865 47.0664 90.74 46.1838 90.74 44.9352C90.74 43.1269 88.9261 42.1366 87.3895 43.1053Z" fill="#E9EAEC"/>
<path d="M87.5025 54.0987C86.8837 54.5939 86.5636 55.6918 86.777 56.5744C86.9904 57.4355 87.6733 57.9737 88.5269 57.9737C89.3805 57.9737 89.9567 57.4786 91.1091 55.7779C91.8987 54.5939 92.6242 54.314 93.4352 54.8307C94.5022 55.5626 94.5662 56.7251 93.5846 57.8015C92.8803 58.555 93.0297 59.007 93.7766 58.4043C94.5022 57.823 94.865 56.596 94.5876 55.6272C94.3101 54.6369 93.8193 54.1418 92.9657 53.9696C92.0054 53.7974 91.4078 54.2064 90.3408 55.7994C89.8713 56.4883 89.3378 57.1126 89.1458 57.1987C87.5025 57.823 86.3715 55.864 87.6733 54.6369C88.3988 53.9481 88.2495 53.496 87.5025 54.0987Z" fill="#E9EAEC"/>
<path d="M16.4186 57.118C14.9248 57.3117 13.6444 57.5485 13.5803 57.5916C13.4523 57.7423 13.8364 60.9714 14.0072 61.1436C14.3059 61.445 14.3486 60.9714 14.1565 59.5721C14.0285 58.7756 13.9645 58.0652 14.0072 58.0437C14.0285 58.0006 14.7754 57.9145 15.6717 57.8499C17.2296 57.6992 17.2722 57.7208 17.4003 58.2159C17.4856 58.4957 17.5497 58.9909 17.5497 59.3138C17.5497 59.6582 17.6564 59.9166 17.7844 59.9166C17.9338 59.9166 17.9551 59.5291 17.8698 58.7541L17.7204 57.6131L18.5527 57.4839C20.58 57.1395 20.9641 57.3117 20.9641 58.5819C20.9641 59.3138 21.1775 60.1318 21.3696 60.1318C21.455 60.1318 21.455 59.5721 21.3696 58.8832C21.2842 58.2159 21.1989 57.4409 21.1989 57.161C21.1775 56.7305 21.0708 56.6874 20.1745 56.709C19.5983 56.7305 17.9124 56.9027 16.4186 57.118Z" fill="#E9EAEC"/>
<path d="M86.7586 60.009C85.4142 60.6333 84.9234 62.3985 85.7983 63.561C86.844 65.0034 90.4079 65.8214 91.987 65.0034C93.3315 64.293 93.6729 62.3985 92.6486 61.3006C91.5176 60.0951 88.1885 59.3631 86.7586 60.009ZM90.3225 60.6978C93.1181 61.5374 93.7583 64.0131 91.3682 64.6589C89.4262 65.1971 86.3959 64.0562 85.8197 62.5492C85.1581 60.827 87.5056 59.8583 90.3225 60.6978Z" fill="#E9EAEC"/>
<path d="M18.0903 62.78C16.1057 63.3612 14.4198 63.8779 14.3771 63.9209C14.3131 63.9855 14.3771 64.0931 14.4838 64.2008C14.5905 64.33 15.8923 64.0286 17.7489 63.4473C19.4348 62.9091 20.9073 62.5216 21.014 62.5432C21.1207 62.5862 19.8616 63.5334 18.197 64.6529C16.2977 65.9661 15.2307 66.8056 15.2734 67.0209C15.3374 67.4084 15.1667 67.3869 19.3494 67.4299C21.3127 67.4515 22.6785 67.5376 22.5718 67.6452C22.4438 67.7528 20.9713 68.2265 19.2641 68.7216C16.0417 69.6688 15.8923 69.7334 16.1484 69.9702C16.3191 70.1424 23.5321 68.0973 23.5321 67.8605C23.5321 67.0855 23.3187 67.0209 20.139 66.9994C15.4441 66.9778 15.4868 67.0424 19.0293 64.6744C20.6725 63.555 22.0383 62.5862 22.017 62.5216C21.9316 61.6821 21.7822 61.7036 18.0903 62.78Z" fill="#E9EAEC"/>
<path d="M84.2991 66.0569C82.7839 66.918 82.9546 69.0708 84.6405 70.3624C85.6649 71.1589 87.3721 71.7617 88.5245 71.7617C89.8476 71.7617 90.7439 70.9006 90.7439 69.652C90.7439 68.6833 89.9543 67.4347 89.6555 67.9083C89.5701 68.0805 89.6555 68.4034 89.9116 68.7048C90.3171 69.243 90.4451 70.1687 90.1463 70.5992C89.5275 71.5464 87.9483 71.4819 86.0063 70.427C84.4484 69.5874 83.7015 68.7479 83.7015 67.7791C83.7015 66.9395 84.0857 66.5736 85.1313 66.4013C85.5582 66.3368 85.8783 66.1645 85.8783 66.0569C85.8356 65.7125 84.9179 65.7125 84.2991 66.0569Z" fill="#E9EAEC"/>
<path d="M23.6259 69.6936C23.3911 69.8443 22.0894 70.5763 20.7449 71.2867C17.9066 72.8151 17.3731 73.1596 17.6079 73.3964C17.7146 73.504 18.3761 73.2672 19.1231 72.8797C19.8486 72.5138 20.5102 72.1908 20.5955 72.1908C20.6596 72.1908 20.9156 72.5568 21.1504 72.9874C22.004 74.6881 23.2844 75.1832 24.5862 74.3006C25.7599 73.504 25.8666 72.5999 25.0343 70.8346C24.6502 70.0381 24.2874 69.3923 24.2021 69.3923C24.1167 69.3923 23.8606 69.5214 23.6259 69.6936ZM24.7783 71.3082C25.1197 72.1263 25.1837 72.5138 25.013 72.9228C24.7569 73.6332 23.5405 74.236 22.7936 74.0422C22.2601 73.9131 21.1717 72.5783 21.1717 72.0617C21.1717 71.8034 23.6472 70.2749 24.074 70.2534C24.2021 70.2534 24.5222 70.727 24.7783 71.3082Z" fill="#E9EAEC"/>
<path d="M81.2608 71.1389C81.0687 71.4403 80.8553 71.2681 84.4832 73.6146C86.6813 75.0354 87.6843 75.5736 87.791 75.3798C87.8977 75.2076 87.0014 74.4972 85.0807 73.2271C81.4955 70.8806 81.4315 70.8375 81.2608 71.1389Z" fill="#E9EAEC"/>
<path d="M24.1054 76.9495L21.2031 79.3391L22.4195 80.8245C23.5079 82.1592 23.956 82.5682 23.956 82.1807C23.956 82.0946 23.5292 81.4919 22.9957 80.846C22.4622 80.2002 22.0354 79.6189 22.0567 79.5328C22.0567 79.4683 23.2945 78.3919 24.8097 77.1648C27.2211 75.2058 27.8187 74.56 27.1784 74.56C27.0717 74.56 25.706 75.6363 24.1054 76.9495Z" fill="#E9EAEC"/>
<path d="M78.0446 75.6346C77.9806 75.7422 77.9592 75.936 78.0446 76.0436C78.2366 76.3665 83.6358 80.5859 83.8492 80.5859C83.9986 80.5859 84.7028 79.7464 86.0046 77.9596C86.1539 77.7658 86.1753 77.5505 86.0899 77.486C85.9832 77.4214 85.471 77.938 84.9589 78.6485C84.4467 79.3589 83.9772 79.9186 83.9132 79.9401C83.8492 79.9401 82.8889 79.2082 81.7792 78.304C80.6695 77.3999 79.389 76.3881 78.9622 76.0436C78.4927 75.6561 78.1299 75.5054 78.0446 75.6346Z" fill="#E9EAEC"/>
<path d="M75.9243 78.2369C75.6896 78.3876 75.0921 78.8827 74.5799 79.3778L73.6836 80.2389L76.3938 82.9945L79.1041 85.75L79.9363 84.932C81.4942 83.425 81.7289 82.3486 80.79 81.2292C80.2564 80.5834 80.1497 80.5403 79.2321 80.648L78.2718 80.7771L78.3358 79.9806C78.3998 79.3563 78.2931 79.0764 77.909 78.7105C77.2901 78.1292 76.4792 77.9355 75.9243 78.2369ZM77.4182 79.1841C77.7169 79.4639 77.9517 79.916 77.9517 80.1743C77.9517 80.7341 76.9914 82.0903 76.6072 82.0903C76.4578 82.0903 75.903 81.6382 75.3908 81.1L74.4305 80.1313L75.2201 79.3778C76.1804 78.5167 76.7139 78.4521 77.4182 79.1841ZM80.1924 81.5521C80.854 82.1979 80.8753 83.0375 80.2564 83.9632C79.4668 85.1042 79.1254 85.0826 77.9517 83.7695C77.3755 83.1452 76.906 82.5639 76.8847 82.4778C76.8847 82.1549 78.6559 81.0139 79.1681 81.0139C79.4455 81.0139 79.915 81.2507 80.1924 81.5521Z" fill="#E9EAEC"/>
<path d="M28.0296 81.2687C26.7278 82.8402 25.6821 84.1964 25.7034 84.261C25.8528 84.6055 28.4777 86.6506 28.6057 86.4999C28.6911 86.4353 28.243 85.9186 27.6241 85.3805C27.0266 84.8638 26.5144 84.3471 26.5144 84.2395C26.5144 84.1534 26.9625 83.5291 27.496 82.8617L28.4777 81.6562L29.3953 82.4312C29.9075 82.8402 30.377 83.0985 30.441 82.9909C30.505 82.8833 30.1849 82.4958 29.7154 82.1083C29.246 81.7208 28.8618 81.3548 28.8618 81.2687C28.8618 81.1826 29.2886 80.6444 29.8008 80.0416L30.7398 78.9652L31.8068 79.8909C32.9165 80.8166 33.1299 80.9458 33.1299 80.6013C33.1299 80.386 30.8251 78.427 30.5477 78.427C30.4624 78.427 29.31 79.7187 28.0296 81.2687Z" fill="#E9EAEC"/>
<path d="M72.0697 81.6609C71.9204 81.9192 72.1551 82.3067 74.2678 85.2344C75.6763 87.1719 75.847 87.9039 75.0574 88.6358C74.4385 89.217 73.713 89.3462 73.0301 88.9802C72.8167 88.8726 71.8563 87.6886 70.896 86.3539C69.9144 85.0192 69.1034 83.8782 69.0394 83.8351C68.9967 83.7706 68.8687 83.8351 68.762 83.9428C68.4846 84.2226 71.9204 88.9802 72.774 89.4754C73.3502 89.8198 73.5636 89.8413 74.1824 89.6261C75.3135 89.2601 76.0177 88.4205 76.0177 87.4733C76.0177 86.7844 75.719 86.2247 74.2892 84.2011C72.2405 81.3164 72.2618 81.3379 72.0697 81.6609Z" fill="#E9EAEC"/>
<path d="M33.0831 85.0453C31.568 86.5737 30.3516 87.8869 30.3516 87.973C30.3516 88.3605 30.9278 88.0591 31.7387 87.2626L32.5923 86.423L33.7447 87.0689C34.6837 87.607 34.8544 87.8008 34.769 88.1883C34.3849 89.7813 34.3636 90.3195 34.641 90.2334C34.9611 90.1258 36.583 83.6244 36.4976 82.8494C36.4549 82.6126 36.2842 82.3974 36.1135 82.3543C35.9428 82.3328 34.577 83.5383 33.0831 85.0453ZM36.0281 83.3231C35.9641 83.5383 35.8361 84.098 35.708 84.5717C35.0038 87.4779 35.0891 87.3057 34.4489 86.9612C32.8697 86.1216 32.8697 86.1647 34.4062 84.5071C35.8361 82.9571 36.2202 82.6772 36.0281 83.3231Z" fill="#E9EAEC"/>
<path d="M38.402 87.8388C37.0576 91.7568 37.0576 91.5846 38.5727 92.0152C40.7068 92.618 41.7738 92.1874 42.6701 90.3145C43.481 88.6353 43.6091 86.7409 42.9262 85.8798C42.4567 85.277 40.6001 84.2437 39.9599 84.2437C39.7251 84.2437 39.277 85.277 38.402 87.8388ZM41.3043 85.1909C42.414 85.6645 42.8195 86.2673 42.7981 87.4513C42.7768 88.6569 41.8165 91.0034 41.1549 91.477C40.6428 91.843 39.4264 91.8645 38.5087 91.5416L37.8685 91.3263L38.9569 88.0972C39.6184 86.2242 40.1733 84.8895 40.344 84.8895C40.4934 84.8895 40.9202 85.0187 41.3043 85.1909Z" fill="#E9EAEC"/>
<path d="M64.8862 86.1192C64.2033 86.4206 63.6484 86.7865 63.6484 86.9372C63.6484 87.174 66.5507 93.4601 66.7641 93.6969C66.8282 93.7615 66.9349 93.6969 67.0416 93.5893C67.1696 93.4816 66.9775 92.8358 66.6148 91.9962C66.252 91.2212 66.0599 90.5754 66.1453 90.5323C66.8068 90.3171 68.0446 89.4344 68.4074 88.9393C68.9622 88.1858 68.7488 87.0018 67.9165 86.1407C67.1483 85.3872 66.4867 85.3657 64.8862 86.1192ZM67.3403 86.399C67.9805 86.9157 68.2793 88.0782 67.9379 88.724C67.6818 89.2191 66.4227 90.0587 65.9532 90.0587C65.5691 90.0587 64.2033 87.0449 64.4594 86.7865C64.6301 86.6143 66.1879 86.0115 66.5507 85.99C66.6788 85.9685 67.0416 86.1622 67.3403 86.399Z" fill="#E9EAEC"/>
<path d="M46.0581 87.0439C45.1192 87.8835 44.543 89.3689 44.543 91.0265C44.543 93.3084 45.3539 94.3633 47.1252 94.3633C48.7044 94.3633 49.9848 92.1675 49.9848 89.4335C49.9848 86.764 47.8507 85.4724 46.0581 87.0439ZM48.8111 87.3668C49.2805 87.8189 49.3446 88.0772 49.3446 89.3689C49.3446 91.9952 48.2989 93.9327 46.8691 93.9327C45.2685 93.9327 44.6283 91.8876 45.3966 89.2612C46.0368 87.0654 47.6587 86.1828 48.8111 87.3668Z" fill="#E9EAEC"/>
<path d="M52.6362 87.6646C51.8466 88.1597 51.5692 88.9993 51.9533 89.7958C52.1027 90.1187 52.8496 90.7861 53.5965 91.2812C55.1757 92.3361 55.3251 92.5083 55.3251 93.434C55.3251 94.8333 53.1697 95.436 52.2094 94.2951C51.4198 93.3694 50.8863 93.6062 51.6545 94.5534C52.8283 96.0388 55.9653 95.1562 55.9653 93.3479C55.9653 92.2715 55.7092 91.927 54.1727 90.9368C52.2521 89.7097 51.9533 89.1285 52.8709 88.2243C53.5752 87.4924 54.5355 87.5139 55.2184 88.2458C55.9226 89.0208 56.3921 88.8271 55.7092 88.0305C55.0263 87.2125 53.5965 87.0403 52.6362 87.6646Z" fill="#E9EAEC"/>
</svg>
