<svg width="212" height="62" viewBox="0 0 212 62" fill="none" xmlns="http://www.w3.org/2000/svg">
<rect width="212" height="62" fill="#999393"/>
<g id="Sitio Web - Desktop">
<path d="M-915 -8105C-915 -8106.1 -914.105 -8107 -913 -8107H5179C5180.1 -8107 5181 -8106.1 5181 -8105V4947C5181 4948.1 5180.1 4949 5179 4949H-913C-914.105 4949 -915 4948.1 -915 4947V-8105Z" fill="#FDFDFD"/>
<path d="M-913 -8106H5179V-8108H-913V-8106ZM5180 -8105V4947H5182V-8105H5180ZM5179 4948H-913V4950H5179V4948ZM-914 4947V-8105H-916V4947H-914ZM-913 4948C-913.552 4948 -914 4947.55 -914 4947H-916C-916 4948.66 -914.657 4950 -913 4950V4948ZM5180 4947C5180 4947.55 5179.55 4948 5179 4948V4950C5180.66 4950 5182 4948.66 5182 4947H5180ZM5179 -8106C5179.55 -8106 5180 -8105.55 5180 -8105H5182C5182 -8106.66 5180.66 -8108 5179 -8108V-8106ZM-913 -8108C-914.657 -8108 -916 -8106.66 -916 -8105H-914C-914 -8105.55 -913.552 -8106 -913 -8106V-8108Z" fill="white" fill-opacity="0.1"/>
<g id="Inicio" clip-path="url(#clip0_0_1)">
<rect width="1440" height="10600" transform="translate(-261 -6805)" fill="#2C2D31"/>
<g id="Design Properties" filter="url(#filter0_b_0_1)">
<rect x="-261" y="-6805" width="1440" height="10895" fill="#2C2D31" fill-opacity="0.85"/>
</g>
<g id="Sitio web">
<g id="Contenido">
<g id="Rol">
<g id="Logos_clientes" filter="url(#filter1_d_0_1)">
<path d="M-111 -195.723C-111 -208.829 -100.376 -219.453 -87.2697 -219.453H1005.27C1018.38 -219.453 1029 -208.829 1029 -195.723V169.817C1029 182.922 1018.38 193.547 1005.27 193.547H-87.2697C-100.376 193.547 -111 182.922 -111 169.817V-195.723Z" fill="white" fill-opacity="0.05" shape-rendering="crispEdges"/>
<g id="CLIENTES">
<g id="descarga__1_-removebg-preview 1" clip-path="url(#clip1_0_1)">
<g id="Group">
<path id="Vector" d="M183.397 17.9098C183.548 32.0376 183.648 34.2656 184.301 34.2656C184.954 34.2656 185.054 32.1389 185.054 18.0617C185.054 2.97176 185.004 1.85773 184.15 1.70582C183.347 1.55391 183.297 2.46538 183.397 17.9098Z" fill="#E9EAEC"/>
<path id="Vector_2" d="M192.061 17.527C192.212 31.6548 192.312 33.8828 192.965 33.8828C193.618 33.8828 193.718 31.756 193.718 17.6789C193.718 2.58894 193.668 1.47492 192.814 1.32301C192.011 1.1711 191.961 2.08257 192.061 17.527Z" fill="#E9EAEC"/>
<path id="Vector_3" d="M200.347 17.9098C200.497 32.0376 200.598 34.2656 201.25 34.2656C201.903 34.2656 202.003 32.1389 202.003 18.0617C202.003 2.97176 201.953 1.85773 201.1 1.70582C200.296 1.55391 200.246 2.46538 200.347 17.9098Z" fill="#E9EAEC"/>
<path id="Vector_4" d="M208.249 17.1559C208.4 31.2837 208.5 33.5117 209.153 33.5117C209.805 33.5117 209.905 31.385 209.905 17.3078C209.905 2.21785 209.855 1.10383 209.002 0.951916C208.199 0.800003 208.149 1.71148 208.249 17.1559Z" fill="#E9EAEC"/>
<path id="Vector_5" d="M157.012 17.5852C157.012 24.8264 157.213 29.3331 157.514 29.5356C157.865 29.7382 158.016 25.7378 158.016 17.9397C158.016 10.2935 157.815 5.98928 157.514 5.98928C157.213 5.98928 157.012 10.1922 157.012 17.5852Z" fill="#E9EAEC"/>
<path id="Vector_6" d="M0.593346 8.21717C0.442755 8.67291 0.342361 12.3694 0.442755 16.5217C0.643543 23.2058 0.743937 24.1679 1.79807 25.839C4.35812 29.9912 10.5324 31.004 14.3473 27.9151C17.058 25.6871 17.5097 23.8135 17.3591 15.1545C17.2086 8.16654 17.1584 7.76144 16.2046 7.76144C15.2509 7.76144 15.2007 8.16654 14.9497 15.7115C14.6987 23.6109 14.6987 23.6616 13.2932 25.13C11.4359 27.1049 8.97625 27.5606 6.66718 26.4466C5.66324 25.9909 4.60911 25.13 4.25773 24.5224C3.90635 23.8641 3.55497 20.3701 3.40438 15.6102C3.15339 7.96399 3.1032 7.76144 1.99886 7.60953C1.3463 7.50825 0.743937 7.76144 0.593346 8.21717Z" fill="#E9EAEC"/>
<path id="Vector_7" d="M23.3362 7.86781C22.7339 8.42482 22.9347 29.1861 23.4868 29.5406C23.788 29.7431 24.3402 29.5912 24.7418 29.2874C25.2939 28.8317 25.4947 26.9074 25.5951 20.831L25.7457 13.0328L31.7191 20.9322C38.4455 29.7938 38.5961 29.9457 39.7507 29.4899C40.5036 29.1861 40.5538 28.0215 40.4534 18.451C40.3028 8.17163 40.2526 7.76653 39.2989 7.76653C38.3451 7.76653 38.2949 8.17163 38.044 16.0711L37.793 24.3756L31.3678 15.9191C25.4445 8.121 24.2398 6.95634 23.3362 7.86781Z" fill="#E9EAEC"/>
<path id="Vector_8" d="M44.7697 8.2672C44.5689 8.72293 45.7736 10.7991 47.7815 13.5335C49.5886 15.9641 51.0945 18.2428 51.0945 18.4959C51.0945 18.7491 49.6388 20.9772 47.8317 23.509C46.0246 25.9903 44.6191 28.3702 44.6693 28.7753C45.0207 30.5983 46.4764 29.6362 49.5384 25.4839C51.2451 23.1039 52.8514 21.1797 53.0522 21.1797C53.3032 21.1797 54.9095 23.1039 56.6162 25.4839C58.624 28.2183 60.0798 29.7881 60.5817 29.6868C62.2382 29.383 61.6359 27.6107 58.4233 23.2558C56.6162 20.7746 55.1103 18.6479 55.1103 18.4453C55.1103 18.2428 56.566 16.1666 58.3731 13.736C61.7363 9.22931 62.3888 7.50764 60.6821 7.50764C60.0296 7.50764 58.624 8.97612 56.566 11.8118C54.4577 14.7994 53.3032 15.9641 52.9016 15.6602C52.6004 15.4071 51.0945 13.4828 49.5886 11.3561C46.8779 7.60891 45.372 6.6468 44.7697 8.2672Z" fill="#E9EAEC"/>
<path id="Vector_9" d="M74.6875 18.6449V29.7852H79.3558C85.0783 29.7852 87.4877 29.1269 89.5458 27.0507C93.2102 23.3542 93.2604 14.0876 89.596 10.1379C87.5379 7.90983 86.1324 7.50473 80.2092 7.50473H74.6875V18.6449ZM86.6344 9.2264C89.847 10.8974 91.2525 13.885 91.2525 18.8475C91.2525 22.4934 89.847 25.8354 87.5881 27.4558C86.4336 28.3167 85.2289 28.5192 80.9621 28.6711L75.6914 28.8737V18.6956V8.51748H80.4602C83.6226 8.51748 85.7308 8.77066 86.6344 9.2264Z" fill="#E9EAEC"/>
<path id="Vector_10" d="M96.3634 9.88339C96.5642 10.9468 98.0199 11.1493 98.0199 10.0353C98.0199 9.6302 97.6183 9.2251 97.1164 9.12383C96.4136 8.97192 96.2128 9.17446 96.3634 9.88339Z" fill="#E9EAEC"/>
<path id="Vector_11" d="M121.859 9.74185C121.859 10.147 122.06 10.6027 122.311 10.7546C122.863 11.1091 123.968 9.84313 123.516 9.38739C122.914 8.77974 121.859 9.03293 121.859 9.74185Z" fill="#E9EAEC"/>
<path id="Vector_12" d="M130.006 11.1566C129.906 13.5872 129.906 13.5872 128.149 13.5872C125.94 13.5872 125.84 14.4986 128.049 14.7012L129.655 14.8531L129.906 21.9423L130.157 29.0315L131.914 29.1328C132.918 29.1328 133.169 29.0822 132.516 28.9303C130.809 28.5758 130.358 26.7022 130.508 20.4738L130.659 14.8531L132.817 14.7012C135.428 14.4986 135.126 13.5872 132.416 13.5872H130.458L130.257 11.1566L130.107 8.77661L130.006 11.1566Z" fill="#E9EAEC"/>
<path id="Vector_13" d="M96.7656 21.7343C96.7656 27.0006 96.9162 29.735 97.2676 29.5325C97.5688 29.3299 97.7696 26.0891 97.7696 21.3799C97.7696 16.5187 97.5688 13.5817 97.2676 13.5817C96.9664 13.5817 96.7656 16.62 96.7656 21.7343Z" fill="#E9EAEC"/>
<path id="Vector_14" d="M105.45 14.6039C103.442 15.8192 101.785 19.0093 101.785 21.5412C101.785 24.3262 103.693 27.7696 105.801 28.8836C109.014 30.5546 113.23 29.7951 115.037 27.1619C115.84 26.0479 115.84 26.0985 115.84 28.3266C115.84 32.9852 112.025 36.0235 107.558 34.9601C106.453 34.7069 105.098 34.3018 104.546 34.0992C103.592 33.7448 103.592 33.7448 104.395 34.6563C105.701 36.0235 111.021 36.226 113.28 34.9601C116.392 33.2384 116.844 31.6686 116.844 22.3514C116.844 17.1864 116.643 14.0975 116.342 14.0975C116.091 14.0975 115.84 14.8571 115.84 15.7179C115.84 17.3383 115.84 17.3383 115.037 16.2243C113.23 13.5911 108.411 12.7303 105.45 14.6039ZM113.079 15.3128C116.995 17.8953 116.844 25.6934 112.828 28.1747C112.226 28.5291 110.871 28.8836 109.817 28.8836C102.588 28.9849 100.179 19.06 106.403 15.0596C108.311 13.8949 111.072 13.9962 113.079 15.3128Z" fill="#E9EAEC"/>
<path id="Vector_15" d="M122.367 21.7343C122.367 27.0006 122.518 29.735 122.869 29.5325C123.17 29.3299 123.371 26.0891 123.371 21.3799C123.371 16.5187 123.17 13.5817 122.869 13.5817C122.568 13.5817 122.367 16.62 122.367 21.7343Z" fill="#E9EAEC"/>
<path id="Vector_16" d="M140.593 14.6077C135.925 17.4434 136.176 26.2543 140.945 28.8874C144.007 30.5078 147.872 29.7483 149.679 27.1658C150.482 26.0518 150.482 26.0518 150.482 27.6215C150.482 28.533 150.733 29.3938 150.984 29.5457C151.336 29.7483 151.486 27.1151 151.486 22.0008C151.486 17.0889 151.285 14.1013 150.984 14.1013C150.733 14.1013 150.482 14.7596 150.482 15.5698V17.0383L148.775 15.3166C147.32 13.8482 146.717 13.595 144.659 13.595C143.103 13.595 141.597 13.9494 140.593 14.6077ZM146.667 14.8103C149.177 15.8736 150.633 18.2536 150.633 21.3931C150.683 25.8998 148.173 29.0394 144.459 29.0394C141.949 29.0394 140.041 27.6215 138.836 24.8871C137.08 20.8867 138.535 16.4307 142.149 14.8103C144.157 13.9494 144.609 13.9494 146.667 14.8103Z" fill="#E9EAEC"/>
<path id="Vector_17" d="M128.402 54.8012V59.0547L130.661 58.9534C133.221 58.8521 133.924 58.2445 133.924 55.8139C133.924 53.7884 132.87 52.8769 130.912 53.282C129.507 53.5352 129.406 53.4339 129.406 52.0667C129.406 51.2059 129.205 50.5476 128.904 50.5476C128.603 50.5476 128.402 52.3199 128.402 54.8012ZM132.669 56.1177C132.669 58.0419 131.464 58.7509 130.159 57.6368C128.603 56.3709 129.707 53.9403 131.665 54.1935C132.468 54.2948 132.669 54.7505 132.669 56.1177Z" fill="#E9EAEC"/>
<path id="Vector_18" d="M145.961 55.1092C145.961 57.4891 146.162 59.1602 146.463 59.1602C146.764 59.1602 146.965 58.4512 146.965 57.641C146.965 56.2738 147.115 56.1219 148.471 56.1219C149.475 56.1219 150.228 55.7168 150.78 54.856C151.533 53.6913 151.533 53.4888 150.78 52.3241C150.127 51.3114 149.525 51.0582 147.969 51.0582H145.961V55.1092ZM149.726 53.5901C149.726 54.6028 149.425 54.9066 148.37 55.0079C147.115 55.1598 146.965 55.0079 146.965 53.5901C146.965 52.1722 147.115 52.0203 148.37 52.1722C149.425 52.2735 149.726 52.5773 149.726 53.5901Z" fill="#E9EAEC"/>
<path id="Vector_19" d="M175.574 51.5678C175.574 51.821 175.825 52.0742 176.076 52.0742C176.377 52.0742 176.578 51.821 176.578 51.5678C176.578 51.264 176.377 51.0615 176.076 51.0615C175.825 51.0615 175.574 51.264 175.574 51.5678Z" fill="#E9EAEC"/>
<path id="Vector_20" d="M199.48 52.6384C198.928 53.2967 198.777 53.8537 199.078 54.0563C199.379 54.2082 199.681 55.2716 199.781 56.335C199.932 58.3098 201.237 59.7783 202.04 58.9681C202.241 58.7655 202.04 58.3605 201.538 58.1073C200.434 57.449 200.333 54.1069 201.438 54.1069C201.839 54.1069 202.19 53.8537 202.19 53.6005C202.19 53.2967 201.889 53.0942 201.488 53.0942C201.086 53.0942 200.685 52.7397 200.584 52.3346C200.484 51.6763 200.233 51.727 199.48 52.6384Z" fill="#E9EAEC"/>
<path id="Vector_21" d="M135.728 53.4391C135.226 53.9455 135.377 57.1356 135.979 58.2496C136.381 59.0598 136.832 59.2118 137.987 58.9586C139.041 58.756 139.443 58.8573 139.443 59.3637C139.443 60.2751 138.338 60.6802 136.983 60.3258C136.381 60.1739 135.929 60.2751 135.929 60.579C135.929 61.3892 137.736 61.6423 139.041 60.9841C140.095 60.4777 140.195 60.0219 140.346 56.6292C140.446 54.148 140.346 52.9834 139.995 53.3378C139.744 53.6416 139.443 54.7557 139.342 55.8697C139.242 57.5407 138.991 57.9458 138.087 58.0471C137.133 58.199 136.933 57.9458 136.882 56.7812C136.832 56.0216 136.832 55.0089 136.882 54.5025C136.983 53.591 136.28 52.9327 135.728 53.4391Z" fill="#E9EAEC"/>
<path id="Vector_22" d="M152.984 56.2282C152.984 58.1018 153.185 59.1145 153.486 58.912C153.788 58.7601 153.988 57.7473 153.988 56.6839C153.988 54.6584 154.741 53.5444 155.795 53.9495C156.197 54.1014 156.498 53.9495 156.498 53.6457C156.498 53.3419 155.695 53.1393 154.741 53.19L152.984 53.2406V56.2282Z" fill="#E9EAEC"/>
<path id="Vector_23" d="M158.307 53.8939C156.55 55.6662 157.805 59.1602 160.214 59.1602C162.072 59.1602 163.176 57.9955 163.126 56.0713C163.075 53.3875 160.114 52.0203 158.307 53.8939ZM161.77 56.1219C161.77 57.3878 161.519 57.9449 160.867 58.0461C159.662 58.2993 158.508 57.2359 158.508 55.8687C158.508 54.4002 158.959 53.9951 160.515 54.1977C161.57 54.3496 161.77 54.6028 161.77 56.1219Z" fill="#E9EAEC"/>
<path id="Vector_24" d="M164.845 53.5939C164.494 54.2522 164.945 58.6577 165.347 58.8096C165.598 58.8602 165.899 57.8981 166.05 56.6322C166.251 54.7586 166.502 54.3028 167.405 54.2016C168.409 54.0497 168.509 54.3028 168.66 56.4803C168.76 57.7968 169.062 58.8602 169.313 58.7589C169.815 58.6577 169.915 58.2019 170.015 55.4675C170.066 54.3535 170.317 54.1003 171.32 54.1003C172.475 54.1003 172.575 54.3028 172.575 56.3283C172.575 57.5943 172.826 58.7589 173.077 58.9108C173.379 59.1134 173.579 58.1513 173.579 56.379C173.579 53.2395 172.927 52.5305 170.818 53.4926C170.015 53.8471 169.513 53.8977 169.313 53.5433C169.011 53.0875 165.096 53.0875 164.845 53.5939Z" fill="#E9EAEC"/>
<path id="Vector_25" d="M175.574 56.1219C175.574 57.7929 175.775 59.1602 176.076 59.1602C176.377 59.1602 176.578 57.7929 176.578 56.1219C176.578 54.4509 176.377 53.0837 176.076 53.0837C175.775 53.0837 175.574 54.4509 175.574 56.1219Z" fill="#E9EAEC"/>
<path id="Vector_26" d="M178.598 56.3304C178.598 59.7231 179.451 59.7231 179.702 56.381C179.802 54.8619 180.104 54.3049 180.806 54.2036C182.011 53.9504 182.613 54.9125 182.613 57.2925C182.613 58.4571 182.814 59.1154 183.115 58.9129C183.768 58.5078 183.768 55.3176 183.115 54.1023C182.714 53.3428 182.111 53.1402 180.606 53.2415L178.598 53.3428V56.3304Z" fill="#E9EAEC"/>
<path id="Vector_27" d="M185.959 53.994C183.7 56.5259 186.21 60.0705 189.322 58.8552C190.677 58.3488 190.225 57.6399 188.719 57.9437C187.766 58.1463 187.113 57.9943 186.661 57.4373C186.059 56.7284 186.26 56.6271 188.318 56.6271C190.225 56.6271 190.627 56.4752 190.627 55.7157C190.627 54.5004 189.071 53.0825 187.766 53.0825C187.214 53.0825 186.41 53.4876 185.959 53.994ZM189.523 54.9561C189.623 55.4118 189.121 55.6144 187.916 55.6144C186.21 55.6144 185.708 55.2093 186.461 54.3991C187.013 53.8421 189.272 54.2978 189.523 54.9561Z" fill="#E9EAEC"/>
<path id="Vector_28" d="M192.141 56.1219C192.141 59.7172 193.044 60.2235 193.245 56.7296C193.396 54.5522 193.496 54.3496 194.65 54.3496C195.805 54.3496 195.905 54.5522 196.056 56.7296C196.156 58.0968 196.458 59.1602 196.709 59.1602C197.01 59.1602 197.16 57.9449 197.06 56.2232C196.909 53.6407 196.809 53.3369 195.755 53.185C195.102 53.0837 194.249 53.2862 193.847 53.59C193.345 54.0458 193.145 54.0458 193.145 53.6407C193.145 53.3369 192.944 53.0837 192.643 53.0837C192.341 53.0837 192.141 54.4509 192.141 56.1219Z" fill="#E9EAEC"/>
<path id="Vector_29" d="M204.491 53.8892C204.039 54.2943 203.688 55.3071 203.688 56.1173C203.688 58.4972 205.595 59.7632 207.904 58.8517C209.259 58.3453 208.808 57.6364 207.302 57.9402C206.348 58.1428 205.695 57.9909 205.244 57.4338C204.641 56.7249 204.792 56.6237 206.599 56.6237C209.059 56.6237 209.561 56.016 208.506 54.345C207.553 52.8765 205.645 52.6739 204.491 53.8892ZM207.603 54.9526C207.703 55.4084 207.251 55.6109 206.248 55.6109C204.742 55.6109 204.29 55.1552 205.043 54.3956C205.595 53.8892 207.352 54.2437 207.603 54.9526Z" fill="#E9EAEC"/>
</g>
</g>
</g>
</g>
</g>
</g>
</g>
</g>
</g>
<defs>
<filter id="filter0_b_0_1" x="-436" y="-6980" width="1790" height="11245" filterUnits="userSpaceOnUse" color-interpolation-filters="sRGB">
<feFlood flood-opacity="0" result="BackgroundImageFix"/>
<feGaussianBlur in="BackgroundImageFix" stdDeviation="87.5"/>
<feComposite in2="SourceAlpha" operator="in" result="effect1_backgroundBlur_0_1"/>
<feBlend mode="normal" in="SourceGraphic" in2="effect1_backgroundBlur_0_1" result="shape"/>
</filter>
<filter id="filter1_d_0_1" x="-122.865" y="-219.453" width="1163.73" height="436.73" filterUnits="userSpaceOnUse" color-interpolation-filters="sRGB">
<feFlood flood-opacity="0" result="BackgroundImageFix"/>
<feColorMatrix in="SourceAlpha" type="matrix" values="0 0 0 0 0 0 0 0 0 0 0 0 0 0 0 0 0 0 127 0" result="hardAlpha"/>
<feOffset dy="11.8652"/>
<feGaussianBlur stdDeviation="5.93259"/>
<feComposite in2="hardAlpha" operator="out"/>
<feColorMatrix type="matrix" values="0 0 0 0 0 0 0 0 0 0 0 0 0 0 0 0 0 0 0.25 0"/>
<feBlend mode="normal" in2="BackgroundImageFix" result="effect1_dropShadow_0_1"/>
<feBlend mode="normal" in="SourceGraphic" in2="effect1_dropShadow_0_1" result="shape"/>
</filter>
<clipPath id="clip0_0_1">
<rect width="1440" height="10600" fill="white" transform="translate(-261 -6805)"/>
</clipPath>
<clipPath id="clip1_0_1">
<rect width="211.329" height="60.7648" fill="white" transform="translate(0.390625 0.9375)"/>
</clipPath>
</defs>
</svg>
