<svg width="215" height="44" viewBox="0 0 215 44" fill="none" xmlns="http://www.w3.org/2000/svg">
<path d="M95.9773 38.4385L86.3086 9.00391H90.7976L98.9124 35.3035L97.8765 35.826L105.646 9.17808H109.617L117.214 35.1293H116.351L124.465 9.17808H128.609L118.94 38.6127H114.624L106.855 12.4873L107.545 13.184L100.121 38.6127H95.9773V38.4385Z" fill="white"/>
<path d="M145.36 39.4842C144.151 39.4842 142.77 39.31 141.389 39.1359C140.008 38.7875 138.799 38.4392 137.763 37.7425C136.727 37.0458 135.691 36.175 135.001 34.9558C134.31 33.7366 133.965 32.3433 133.965 30.6016C133.965 28.1632 134.483 26.2473 135.346 24.6798C136.209 23.2865 137.591 22.0673 139.144 21.5448C140.698 20.8481 142.598 20.4998 144.669 20.4998C146.223 20.4998 147.605 20.6739 148.813 20.8481C150.022 21.0223 151.058 21.3706 151.921 21.7189C152.784 22.0673 153.647 22.5898 154.338 22.9381L155.201 26.7699C154.338 26.0732 152.957 25.5507 151.23 25.0282C149.504 24.5057 147.605 24.3315 145.705 24.3315C143.288 24.3315 141.389 24.854 140.008 25.7248C138.627 26.5957 137.936 27.989 137.936 29.9049C137.936 31.2983 138.281 32.5174 139.144 33.3883C140.008 34.2591 140.871 34.7816 142.252 35.13C143.461 35.4783 144.669 35.6525 146.051 35.6525C148.64 35.6525 150.54 35.4783 151.748 35.13C153.13 34.7816 153.647 33.9108 153.647 32.5174V19.1064C153.647 16.8422 152.957 15.1005 151.576 14.0555C150.885 13.0105 148.986 12.488 146.396 12.488C144.842 12.488 143.116 12.6621 141.389 13.1846C139.662 13.7072 138.109 14.4038 136.9 15.2747V11.0946C138.109 10.2238 139.662 9.70126 141.734 9.35293C143.806 9.00459 145.705 8.65625 147.605 8.65625C148.813 8.65625 150.022 8.83042 151.23 9.00459C152.266 9.17876 153.302 9.70127 154.165 10.0496C155.029 10.5721 155.719 11.0946 156.41 11.9655C156.928 12.6621 157.446 13.533 157.791 14.578C158.136 15.623 158.309 16.668 158.309 17.8872V32.1691C158.309 34.2591 157.619 35.8267 156.41 36.8717C155.201 37.9167 153.647 38.6134 151.576 38.9617C149.849 39.31 147.605 39.4842 145.36 39.4842Z" fill="white"/>
<path d="M176.947 38.9673C174.875 38.9673 173.148 38.2706 171.767 37.0514C170.386 35.8322 169.695 33.9164 169.695 31.3038V13.0161H164.516V9.18434H169.523V0.824219H173.666V9.18434H181.263V13.0161H173.666V30.0847C173.666 31.6522 173.839 33.0455 174.357 33.7422C174.875 34.6131 175.911 34.9614 177.465 34.9614C178.155 34.9614 178.846 34.9614 179.537 34.7872C180.227 34.6131 180.745 34.4389 181.09 34.2647V38.2706C180.573 38.4448 179.882 38.6189 179.019 38.7931C178.501 38.9673 177.637 38.9673 176.947 38.9673Z" fill="white"/>
<path d="M188.867 38.4392V11.443C189.385 11.2688 190.248 10.9204 191.63 10.3979C193.011 9.87543 194.565 9.5271 196.464 9.17876C198.363 8.83042 200.262 8.65625 202.334 8.65625C202.68 8.65625 203.025 8.65625 203.198 8.83042C203.543 8.83042 203.888 9.00459 204.061 9.00459V12.8363C203.025 12.6621 201.989 12.6621 201.126 12.6621C200.09 12.6621 199.226 12.6621 198.363 12.8363C197.5 13.0105 196.637 13.0105 195.601 13.1846C194.737 13.3588 193.874 13.533 192.838 13.7072V38.6134H188.867V38.4392Z" fill="white"/>
<path d="M7.06323 16.1457C10.496 16.1457 13.2788 13.3384 13.2788 9.87556C13.2788 6.41269 10.496 3.60547 7.06323 3.60547C3.63046 3.60547 0.847656 6.41269 0.847656 9.87556C0.847656 13.3384 3.63046 16.1457 7.06323 16.1457Z" fill="white"/>
<path d="M22.7701 21.8898C26.0505 17.8839 29.1583 16.6647 31.5755 15.7939C32.7841 15.2714 33.82 14.5747 34.6833 13.3555C36.5825 10.3947 35.7192 6.56293 32.7841 4.64707C29.8489 2.73121 26.0505 3.60205 24.1513 6.56293C23.4607 7.78212 23.1154 9.0013 23.1154 10.3947C23.1154 10.3947 23.806 15.9681 21.2162 21.019C20.0076 23.4573 18.4537 25.3732 18.4537 25.3732C14.828 29.9016 9.64834 31.4691 9.64834 31.4691C8.43976 31.9916 7.40383 32.6883 6.54056 33.9075C4.64136 36.8684 5.50463 40.7001 8.43976 42.616C11.3749 44.5318 15.1733 43.661 17.0725 40.7001C17.7631 39.4809 18.1084 38.2617 18.1084 36.8684C18.1084 36.8684 17.4178 31.1208 20.0076 26.2441C20.0076 26.2441 21.5615 23.4573 22.7701 21.8898Z" fill="white"/>
<path d="M45.2193 21.8898C48.4998 17.8839 51.6075 16.6647 54.0247 15.7939C55.2333 15.2714 56.2692 14.5747 57.1325 13.3555C59.0317 10.3947 58.1684 6.56293 55.2333 4.64707C52.2982 2.73121 48.4998 3.60205 46.6006 6.56293C45.9099 7.78212 45.5646 9.0013 45.5646 10.3947C45.5646 10.3947 46.2552 15.9681 43.6654 21.019C42.4568 23.4573 40.903 25.3732 40.903 25.3732C37.2772 29.9016 32.0976 31.4691 32.0976 31.4691C30.889 31.9916 29.8531 32.6883 28.9898 33.9075C27.0906 36.8684 27.9538 40.7001 30.889 42.616C33.8241 44.5318 37.6225 43.661 39.5217 40.7001C40.2123 39.4809 40.5576 38.2617 40.5576 36.8684C40.5576 36.8684 39.867 31.1208 42.4568 26.2441C42.2842 26.2441 43.8381 23.4573 45.2193 21.8898Z" fill="white"/>
<path d="M70.0742 3.26953H68.3477V43.1543H70.0742V3.26953Z" fill="white"/>
<path d="M210.781 12.6699C210.091 12.6699 209.573 12.4957 209.055 12.1474C208.537 11.799 208.191 11.4507 207.846 10.9282C207.501 10.4057 207.328 9.88319 207.328 9.18651C207.328 8.48983 207.501 7.96732 207.846 7.44482C208.191 6.92231 208.537 6.57397 209.055 6.22563C209.573 5.87729 210.091 5.70312 210.781 5.70312C211.299 5.70312 211.644 5.87729 212.162 6.05146C212.508 6.22563 212.853 6.3998 213.198 6.74814C213.544 7.09648 213.716 7.44482 213.889 7.79316C214.062 8.14149 214.234 8.664 214.234 9.18651C214.234 9.88319 214.062 10.4057 213.716 10.9282C213.371 11.4507 213.026 11.799 212.508 12.1474C211.99 12.4957 211.472 12.6699 210.781 12.6699ZM210.781 11.799C211.299 11.799 211.644 11.6249 212.162 11.4507C212.508 11.2765 212.853 10.9282 213.026 10.5799C213.198 10.2315 213.371 9.70902 213.371 9.18651C213.371 8.664 213.198 8.31566 213.026 7.79316C212.853 7.44482 212.508 7.09648 212.162 6.92231C211.817 6.74814 211.299 6.57397 210.781 6.57397C210.263 6.57397 209.918 6.74814 209.4 6.92231C209.055 7.09648 208.709 7.44482 208.537 7.79316C208.364 8.14149 208.191 8.664 208.191 9.18651C208.191 9.70902 208.364 10.0574 208.537 10.5799C208.709 10.9282 209.055 11.2765 209.4 11.4507C209.918 11.799 210.263 11.799 210.781 11.799ZM209.573 11.1024V7.61899H210.954C211.299 7.61899 211.644 7.79315 211.817 7.96732C211.99 8.14149 212.162 8.48983 212.162 8.83817C212.162 9.01234 212.162 9.36068 211.99 9.53485C211.817 9.70902 211.817 9.88319 211.472 9.88319L212.335 11.2765H211.472L210.781 10.0574H210.263V11.2765L209.573 11.1024ZM210.263 9.01234H210.954C211.127 9.01234 211.299 9.01234 211.299 8.83817C211.472 8.664 211.472 8.664 211.472 8.48983C211.472 8.31566 211.472 8.31566 211.299 8.14149C211.127 7.96732 211.127 7.96732 210.954 7.96732H210.263V9.01234Z" fill="white"/>
</svg>
