<svg width="189" height="72" viewBox="0 0 189 72" fill="none" xmlns="http://www.w3.org/2000/svg">
<path fill-rule="evenodd" clip-rule="evenodd" d="M136.273 0.816406L100.15 71.0564H113.054L149.21 0.816406H136.273ZM26.1584 17.479C17.6067 21.4869 9.05488 25.4949 0.503539 29.5028L0.503537 29.5081C0.501768 34.8753 0.5 40.2406 0.5 45.6078C7.06047 48.3986 13.6209 51.1889 20.1814 53.9793L20.1905 53.9831L20.3926 54.0691C26.8902 56.8327 33.3879 59.5963 39.8856 62.3604C40.3496 60.0757 40.814 57.791 41.2785 55.5062C41.7439 53.2166 42.2094 50.9269 42.6744 48.6373C38.2623 46.7009 33.8502 44.764 29.4381 42.8271C25.0324 40.893 20.6267 38.9589 16.221 37.0253L48.1265 23.2385C49.3776 17.2998 50.6305 11.3611 51.8833 5.42236C43.3451 9.42414 34.8065 13.4259 26.2679 17.4277L26.1584 17.479ZM151.075 26.2678C153.117 22.2544 155.161 18.2409 157.205 14.2275H157.207C167.637 19.1594 178.068 24.0912 188.5 29.023L188.314 44.813C178.769 48.643 169.223 52.4731 159.678 56.3031L159.054 56.5533C149.301 60.4667 139.547 64.3801 129.794 68.2935C131.254 65.3774 132.712 62.4609 134.171 59.5443L134.268 59.3519L134.328 59.2313C135.736 56.417 137.144 53.6027 138.552 50.7888C144.327 48.4588 150.103 46.1284 155.878 43.7979C161.674 41.4593 167.47 39.1208 173.266 36.7826C169.575 35.0334 165.884 33.2847 162.193 31.5359C158.487 29.78 154.781 28.0241 151.075 26.2678ZM57.3582 28.0266C57.5034 27.3219 57.6421 26.6495 57.7749 26.0059C58.8659 20.7182 59.5545 17.3806 60.094 14.1513H77.6854C77.5562 15.5316 77.1422 18.232 76.8873 19.4831C79.3028 16.7225 83.7303 13.0559 91.4988 13.0559C101.844 13.0559 106.846 19.384 103.774 33.8857L97.2924 64.5649H79.5417L85.9564 34.0308C87.043 29.1751 86.0573 26.5065 82.1147 26.5065C77.7969 26.5065 74.824 29.6334 73.2721 37.0178L67.4873 64.5649H49.6411L57.3582 28.0301V28.0266Z" fill="url(#paint0_linear_2_22833)"/>
<defs>
<linearGradient id="paint0_linear_2_22833" x1="18.7825" y1="14.8547" x2="110.917" y2="94.7748" gradientUnits="userSpaceOnUse">
<stop stop-color="#E06C75"/>
<stop offset="0.362321" stop-color="#6B90DF"/>
<stop offset="1" stop-color="#BC7796"/>
<stop offset="1" stop-color="#E06C75"/>
</linearGradient>
</defs>
</svg>
