<svg width="63" height="24" viewBox="0 0 63 24" fill="none" xmlns="http://www.w3.org/2000/svg">
<path fill-rule="evenodd" clip-rule="evenodd" d="M45.067 0.945312L33.2097 24.0017H37.4454L49.3137 0.945312H45.067ZM17.3666 2.45706L0.501162 10.3615L0.501161 10.3633C0.50058 12.125 0.5 13.8862 0.5 15.648L6.97256 18.4011L13.4284 21.1471L13.8859 18.8955L14.3438 16.6424L9.99778 14.7347L5.66042 12.8308L16.1335 8.30524C16.5441 6.35585 16.9554 4.40646 17.3666 2.45706ZM49.9261 9.30008C50.5964 7.98267 51.2673 6.66526 51.9382 5.34786H51.9388C55.3624 6.96673 58.7867 8.58561 62.2109 10.2045L62.1499 15.3876L42.9406 23.0951C43.4198 22.1375 43.8989 21.1798 44.378 20.2221C44.857 19.2644 45.3361 18.3067 45.8153 17.3492L51.5127 15.0504L57.2102 12.7516L53.5652 11.0244L49.9261 9.30008ZM19.1636 9.87733L19.3004 9.21411C19.6585 7.47836 19.8846 6.38278 20.0617 5.32274H25.8361C25.7937 5.77582 25.6577 6.66222 25.5741 7.0729C26.367 6.16674 27.8203 4.96319 30.3703 4.96319C33.7661 4.96319 35.4082 7.04037 34.3998 11.8006L32.2721 21.8711H26.4454L28.551 11.8482C28.9077 10.2543 28.5841 9.37836 27.29 9.37836C25.8727 9.37836 24.8968 10.4048 24.3874 12.8287L22.4885 21.8711H16.6305L19.1636 9.87849V9.87733Z" fill="url(#paint0_linear_601_3802)"/>
<defs>
<linearGradient id="paint0_linear_601_3802" x1="6.5012" y1="5.55341" x2="36.7445" y2="31.7871" gradientUnits="userSpaceOnUse">
<stop stop-color="#E06C75"/>
<stop offset="0.362321" stop-color="#6B90DF"/>
<stop offset="1" stop-color="#BC7796"/>
<stop offset="1" stop-color="#E06C75"/>
</linearGradient>
</defs>
</svg>
