<svg width="683" height="693" viewBox="0 0 683 693" fill="none" xmlns="http://www.w3.org/2000/svg">
<circle cx="215.485" cy="215.485" r="215.485" transform="matrix(1 0 0 -1 135.652 567.082)" fill="#FDFDFD" fill-opacity="0.05"/>
<circle cx="265.316" cy="265.316" r="265.316" transform="matrix(1 0 0 -1 86.5378 617.629)" fill="#FDFDFD" fill-opacity="0.05"/>
<circle cx="157.91" cy="157.91" r="157.91" transform="matrix(1 0 0 -1 191.779 508.061)" fill="#FDFDFD" fill-opacity="0.05"/>
<path d="M242.653 356.163V359.457H231.742V356.163H242.653ZM233.122 338.958V359.457H228.898V338.958H233.122ZM241.231 347.307V350.517H231.742V347.307H241.231ZM242.639 338.958V342.267H231.742V338.958H242.639ZM258.672 354.093C258.672 353.727 258.616 353.398 258.503 353.108C258.4 352.807 258.203 352.535 257.912 352.291C257.621 352.038 257.212 351.789 256.687 351.545C256.161 351.301 255.481 351.047 254.645 350.785C253.716 350.484 252.834 350.146 251.999 349.771C251.173 349.395 250.441 348.959 249.802 348.462C249.173 347.955 248.676 347.368 248.31 346.702C247.953 346.035 247.775 345.261 247.775 344.379C247.775 343.525 247.963 342.75 248.338 342.056C248.714 341.352 249.239 340.751 249.915 340.254C250.591 339.747 251.388 339.357 252.308 339.085C253.238 338.813 254.256 338.677 255.363 338.677C256.875 338.677 258.193 338.949 259.32 339.493C260.446 340.038 261.319 340.784 261.938 341.732C262.567 342.68 262.881 343.764 262.881 344.984H258.686C258.686 344.383 258.559 343.858 258.306 343.407C258.062 342.947 257.686 342.586 257.18 342.323C256.682 342.06 256.053 341.929 255.293 341.929C254.561 341.929 253.951 342.042 253.463 342.267C252.975 342.483 252.609 342.778 252.365 343.154C252.121 343.52 251.999 343.933 251.999 344.393C251.999 344.74 252.083 345.054 252.252 345.336C252.43 345.618 252.693 345.88 253.04 346.124C253.388 346.368 253.815 346.598 254.322 346.814C254.828 347.03 255.415 347.241 256.081 347.448C257.198 347.786 258.179 348.166 259.024 348.588C259.878 349.011 260.591 349.485 261.164 350.01C261.736 350.536 262.168 351.132 262.459 351.798C262.75 352.465 262.896 353.22 262.896 354.065C262.896 354.957 262.722 355.754 262.375 356.458C262.027 357.162 261.525 357.758 260.868 358.246C260.211 358.734 259.427 359.105 258.517 359.358C257.607 359.612 256.588 359.739 255.462 359.739C254.448 359.739 253.449 359.607 252.463 359.344C251.478 359.072 250.581 358.664 249.774 358.12C248.976 357.575 248.338 356.881 247.859 356.036C247.381 355.191 247.141 354.192 247.141 353.037H251.379C251.379 353.675 251.478 354.215 251.675 354.656C251.872 355.097 252.149 355.454 252.505 355.726C252.871 355.998 253.303 356.195 253.801 356.317C254.307 356.439 254.861 356.5 255.462 356.5C256.194 356.5 256.795 356.397 257.264 356.191C257.743 355.984 258.095 355.698 258.32 355.332C258.555 354.966 258.672 354.553 258.672 354.093ZM276.634 352.15H271.41V348.856H276.634C277.441 348.856 278.098 348.724 278.605 348.462C279.111 348.189 279.482 347.814 279.717 347.335C279.952 346.857 280.069 346.317 280.069 345.716C280.069 345.106 279.952 344.538 279.717 344.013C279.482 343.487 279.111 343.065 278.605 342.746C278.098 342.426 277.441 342.267 276.634 342.267H272.875V359.457H268.651V338.958H276.634C278.239 338.958 279.614 339.249 280.759 339.831C281.913 340.404 282.795 341.197 283.406 342.211C284.016 343.224 284.321 344.383 284.321 345.688C284.321 347.011 284.016 348.156 283.406 349.123C282.795 350.09 281.913 350.836 280.759 351.362C279.614 351.887 278.239 352.15 276.634 352.15ZM303.873 356.163V359.457H292.962V356.163H303.873ZM294.342 338.958V359.457H290.118V338.958H294.342ZM302.451 347.307V350.517H292.962V347.307H302.451ZM303.859 338.958V342.267H292.962V338.958H303.859ZM321.103 352.657H325.312C325.228 354.037 324.848 355.262 324.172 356.332C323.506 357.402 322.572 358.237 321.37 358.838C320.178 359.438 318.742 359.739 317.062 359.739C315.748 359.739 314.57 359.513 313.528 359.063C312.487 358.603 311.595 357.946 310.853 357.092C310.121 356.238 309.563 355.205 309.178 353.994C308.793 352.784 308.601 351.427 308.601 349.926V348.504C308.601 347.002 308.798 345.646 309.192 344.435C309.596 343.215 310.168 342.178 310.91 341.324C311.661 340.469 312.557 339.812 313.599 339.353C314.641 338.893 315.805 338.663 317.09 338.663C318.799 338.663 320.239 338.972 321.413 339.592C322.595 340.211 323.51 341.065 324.158 342.154C324.815 343.243 325.209 344.482 325.341 345.871H321.117C321.07 345.045 320.906 344.346 320.624 343.773C320.343 343.191 319.916 342.755 319.343 342.464C318.78 342.164 318.029 342.013 317.09 342.013C316.386 342.013 315.772 342.145 315.246 342.408C314.72 342.67 314.279 343.069 313.923 343.604C313.566 344.139 313.299 344.815 313.12 345.632C312.951 346.439 312.867 347.387 312.867 348.476V349.926C312.867 350.986 312.947 351.92 313.106 352.727C313.266 353.525 313.51 354.201 313.838 354.755C314.176 355.299 314.608 355.712 315.133 355.994C315.668 356.266 316.311 356.402 317.062 356.402C317.945 356.402 318.672 356.261 319.244 355.98C319.817 355.698 320.253 355.28 320.554 354.727C320.864 354.173 321.047 353.483 321.103 352.657ZM335.46 338.958V359.457H331.251V338.958H335.46ZM350.888 342.464L345.313 359.457H340.822L348.438 338.958H351.296L350.888 342.464ZM355.52 359.457L349.931 342.464L349.48 338.958H352.366L360.025 359.457H355.52ZM355.266 351.826V355.135H344.44V351.826H355.266ZM377.987 356.163V359.457H367.667V356.163H377.987ZM369.033 338.958V359.457H364.809V338.958H369.033ZM387.783 338.958V359.457H383.573V338.958H387.783ZM405.294 354.093C405.294 353.727 405.238 353.398 405.125 353.108C405.022 352.807 404.825 352.535 404.534 352.291C404.243 352.038 403.834 351.789 403.309 351.545C402.783 351.301 402.103 351.047 401.267 350.785C400.338 350.484 399.456 350.146 398.621 349.771C397.795 349.395 397.063 348.959 396.424 348.462C395.795 347.955 395.298 347.368 394.932 346.702C394.575 346.035 394.397 345.261 394.397 344.379C394.397 343.525 394.585 342.75 394.96 342.056C395.336 341.352 395.861 340.751 396.537 340.254C397.213 339.747 398.011 339.357 398.93 339.085C399.86 338.813 400.878 338.677 401.985 338.677C403.497 338.677 404.815 338.949 405.942 339.493C407.068 340.038 407.941 340.784 408.56 341.732C409.189 342.68 409.503 343.764 409.503 344.984H405.308C405.308 344.383 405.181 343.858 404.928 343.407C404.684 342.947 404.308 342.586 403.802 342.323C403.304 342.06 402.675 341.929 401.915 341.929C401.183 341.929 400.573 342.042 400.085 342.267C399.597 342.483 399.231 342.778 398.987 343.154C398.743 343.52 398.621 343.933 398.621 344.393C398.621 344.74 398.705 345.054 398.874 345.336C399.052 345.618 399.315 345.88 399.662 346.124C400.01 346.368 400.437 346.598 400.944 346.814C401.45 347.03 402.037 347.241 402.703 347.448C403.82 347.786 404.801 348.166 405.646 348.588C406.5 349.011 407.213 349.485 407.786 350.01C408.358 350.536 408.79 351.132 409.081 351.798C409.372 352.465 409.518 353.22 409.518 354.065C409.518 354.957 409.344 355.754 408.997 356.458C408.649 357.162 408.147 357.758 407.49 358.246C406.833 358.734 406.049 359.105 405.139 359.358C404.229 359.612 403.21 359.739 402.084 359.739C401.07 359.739 400.071 359.607 399.085 359.344C398.1 359.072 397.203 358.664 396.396 358.12C395.598 357.575 394.96 356.881 394.481 356.036C394.003 355.191 393.763 354.192 393.763 353.037H398.001C398.001 353.675 398.1 354.215 398.297 354.656C398.494 355.097 398.771 355.454 399.127 355.726C399.493 355.998 399.925 356.195 400.423 356.317C400.93 356.439 401.483 356.5 402.084 356.5C402.816 356.5 403.417 356.397 403.886 356.191C404.365 355.984 404.717 355.698 404.942 355.332C405.177 354.966 405.294 354.553 405.294 354.093ZM424.438 338.958V359.457H420.229V338.958H424.438ZM430.746 338.958V342.267H414.02V338.958H430.746ZM442.85 342.464L437.275 359.457H432.784L440.401 338.958H443.259L442.85 342.464ZM447.482 359.457L441.893 342.464L441.443 338.958H444.329L451.988 359.457H447.482ZM447.229 351.826V355.135H436.402V351.826H447.229ZM467.443 354.093C467.443 353.727 467.387 353.398 467.274 353.108C467.171 352.807 466.974 352.535 466.683 352.291C466.392 352.038 465.984 351.789 465.458 351.545C464.933 351.301 464.252 351.047 463.417 350.785C462.488 350.484 461.605 350.146 460.77 349.771C459.944 349.395 459.212 348.959 458.574 348.462C457.945 347.955 457.447 347.368 457.081 346.702C456.725 346.035 456.546 345.261 456.546 344.379C456.546 343.525 456.734 342.75 457.109 342.056C457.485 341.352 458.011 340.751 458.686 340.254C459.362 339.747 460.16 339.357 461.08 339.085C462.009 338.813 463.027 338.677 464.135 338.677C465.646 338.677 466.965 338.949 468.091 339.493C469.217 340.038 470.09 340.784 470.71 341.732C471.338 342.68 471.653 343.764 471.653 344.984H467.457C467.457 344.383 467.331 343.858 467.077 343.407C466.833 342.947 466.458 342.586 465.951 342.323C465.453 342.06 464.825 341.929 464.064 341.929C463.332 341.929 462.722 342.042 462.234 342.267C461.746 342.483 461.38 342.778 461.136 343.154C460.892 343.52 460.77 343.933 460.77 344.393C460.77 344.74 460.854 345.054 461.023 345.336C461.202 345.618 461.464 345.88 461.812 346.124C462.159 346.368 462.586 346.598 463.093 346.814C463.6 347.03 464.186 347.241 464.853 347.448C465.97 347.786 466.951 348.166 467.795 348.588C468.649 349.011 469.363 349.485 469.935 350.01C470.508 350.536 470.94 351.132 471.23 351.798C471.521 352.465 471.667 353.22 471.667 354.065C471.667 354.957 471.493 355.754 471.146 356.458C470.799 357.162 470.297 357.758 469.64 358.246C468.983 358.734 468.199 359.105 467.288 359.358C466.378 359.612 465.36 359.739 464.233 359.739C463.22 359.739 462.22 359.607 461.235 359.344C460.249 359.072 459.353 358.664 458.545 358.12C457.748 357.575 457.109 356.881 456.631 356.036C456.152 355.191 455.913 354.192 455.913 353.037H460.15C460.15 353.675 460.249 354.215 460.446 354.656C460.643 355.097 460.92 355.454 461.277 355.726C461.643 355.998 462.075 356.195 462.572 356.317C463.079 356.439 463.633 356.5 464.233 356.5C464.965 356.5 465.566 356.397 466.035 356.191C466.514 355.984 466.866 355.698 467.091 355.332C467.326 354.966 467.443 354.553 467.443 354.093Z" fill="url(#paint0_linear_1134_18413)"/>
<g filter="url(#filter0_f_1134_18413)">
<circle cx="515.521" cy="143.408" r="18.5477" transform="rotate(-34.7184 515.521 143.408)" fill="url(#paint1_linear_1134_18413)"/>
</g>
<path d="M498.185 204.324C498.185 206.739 497.735 208.758 496.835 210.381C495.936 211.994 494.631 213.212 492.92 214.033C491.209 214.844 489.146 215.25 486.731 215.25H480.777V193.809H487.376C489.596 193.809 491.512 194.21 493.125 195.012C494.738 195.804 495.985 196.982 496.865 198.546C497.745 200.101 498.185 202.027 498.185 204.324ZM494.518 204.427C494.518 202.667 494.24 201.22 493.682 200.086C493.135 198.952 492.323 198.111 491.248 197.564C490.182 197.006 488.867 196.728 487.303 196.728H484.297V212.302H486.79C489.381 212.302 491.316 211.642 492.597 210.322C493.878 209.003 494.518 207.037 494.518 204.427ZM514.89 215.25L512.793 209.296H504.595L502.497 215.25H498.787L506.765 193.721H510.666L518.629 215.25H514.89ZM511.883 206.275L509.845 200.409C509.767 200.154 509.654 199.798 509.508 199.338C509.361 198.869 509.214 198.395 509.068 197.916C508.921 197.427 508.799 197.016 508.701 196.684C508.603 197.084 508.481 197.534 508.334 198.033C508.197 198.522 508.061 198.981 507.924 199.411C507.797 199.842 507.699 200.174 507.63 200.409L505.577 206.275H511.883ZM527.694 215.25H524.159V196.801H517.883V193.809H533.956V196.801H527.694V215.25ZM549.326 215.25L547.229 209.296H539.031L536.934 215.25H533.224L541.202 193.721H545.103L553.066 215.25H549.326ZM546.32 206.275L544.282 200.409C544.203 200.154 544.091 199.798 543.944 199.338C543.798 198.869 543.651 198.395 543.504 197.916C543.358 197.427 543.235 197.016 543.138 196.684C543.04 197.084 542.918 197.534 542.771 198.033C542.634 198.522 542.497 198.981 542.36 199.411C542.233 199.842 542.136 200.174 542.067 200.409L540.014 206.275H546.32Z" fill="#FDFDFD"/>
<g filter="url(#filter1_f_1134_18413)">
<circle cx="156.275" cy="452.768" r="18.5477" transform="rotate(-34.7184 156.275 452.768)" fill="url(#paint2_linear_1134_18413)"/>
</g>
<path d="M133.789 503.167V517.04C133.789 518.536 133.471 519.875 132.836 521.058C132.21 522.241 131.262 523.18 129.991 523.874C128.72 524.559 127.121 524.901 125.195 524.901C122.448 524.901 120.356 524.182 118.918 522.745C117.491 521.298 116.777 519.377 116.777 516.981V503.167H120.297V516.673C120.297 518.463 120.717 519.783 121.558 520.633C122.399 521.484 123.655 521.909 125.327 521.909C126.481 521.909 127.419 521.709 128.143 521.308C128.876 520.897 129.414 520.301 129.756 519.519C130.108 518.727 130.284 517.773 130.284 516.659V503.167H133.789ZM153.897 524.607H149.893L144.496 515.823L139.07 524.607H135.301L142.428 513.491L135.785 503.167H139.671L144.657 511.291L149.614 503.167H153.383L146.711 513.594L153.897 524.607ZM159.72 501.817H162.345V531.647H159.72V501.817ZM187.761 503.167V517.04C187.761 518.536 187.444 519.875 186.808 521.058C186.182 522.241 185.234 523.18 183.963 523.874C182.692 524.559 181.093 524.901 179.167 524.901C176.42 524.901 174.328 524.182 172.891 522.745C171.463 521.298 170.749 519.377 170.749 516.981V503.167H174.269V516.673C174.269 518.463 174.69 519.783 175.53 520.633C176.371 521.484 177.628 521.909 179.299 521.909C180.453 521.909 181.392 521.709 182.115 521.308C182.848 520.897 183.386 520.301 183.728 519.519C184.08 518.727 184.256 517.773 184.256 516.659V503.167H187.761ZM192.045 524.607V503.167H195.564V524.607H192.045Z" fill="#FDFDFD"/>
<path d="M132.013 365.077C127.533 363.315 118.002 358.864 110.511 350.54C109.717 349.652 109.143 348.589 108.835 347.438C107.451 342.339 103.572 326.586 103.072 308.283C103.033 307.218 103.403 306.179 104.106 305.379C104.809 304.579 105.791 304.078 106.851 303.979C111.516 303.536 120.552 302.914 134.556 302.914C148.559 302.914 157.594 303.536 162.26 303.979C163.32 304.078 164.302 304.579 165.004 305.38C165.707 306.18 166.077 307.219 166.038 308.283C165.538 326.586 161.66 342.339 160.274 347.438C159.967 348.589 159.393 349.652 158.598 350.54C151.109 358.864 141.578 363.315 137.098 365.077C135.464 365.722 133.647 365.722 132.013 365.077Z" fill="#FDFDFD" fill-opacity="0.05"/>
<path d="M132.013 365.077C127.533 363.315 118.002 358.864 110.511 350.54C109.717 349.652 109.143 348.589 108.835 347.438C107.451 342.339 103.572 326.586 103.072 308.283C103.033 307.218 103.403 306.179 104.106 305.379C104.809 304.579 105.791 304.078 106.851 303.979C111.516 303.536 120.552 302.914 134.556 302.914C148.559 302.914 157.594 303.536 162.26 303.979C163.32 304.078 164.302 304.579 165.004 305.38C165.707 306.18 166.077 307.219 166.038 308.283C165.538 326.586 161.66 342.339 160.274 347.438C159.967 348.589 159.393 349.652 158.598 350.54C151.109 358.864 141.578 363.315 137.098 365.077C135.464 365.722 133.647 365.722 132.013 365.077Z" stroke="#E9EAEC" stroke-width="4.65538" stroke-linejoin="round"/>
<path d="M121.039 346.464C125.324 350.748 130.372 353.504 132.915 354.734C133.957 355.237 135.152 355.237 136.195 354.734C138.737 353.504 143.786 350.748 148.07 346.464C148.07 346.464 149.803 340.69 150.736 333.191C150.952 331.448 149.568 329.945 147.811 329.945H120.27C118.944 329.945 117.78 329.077 117.462 327.788C116.48 323.776 115.761 319.704 115.307 315.599C115.264 315.216 115.299 314.828 115.411 314.459C115.522 314.091 115.708 313.748 115.955 313.453C116.203 313.158 116.508 312.917 116.852 312.743C117.196 312.569 117.572 312.467 117.956 312.443C121.195 312.223 126.98 311.924 134.555 311.924C146.569 311.924 154.077 312.675 154.077 312.675" stroke="#E9EAEC" stroke-width="4.65538" stroke-linecap="round" stroke-linejoin="round"/>
<path d="M567.513 228.428C567.513 221.793 579.952 216.414 595.295 216.414C610.638 216.414 623.077 221.793 623.077 228.428C623.077 228.428 623.828 235.937 623.828 247.951C623.828 259.964 623.077 267.473 623.077 267.473C623.077 274.108 610.638 279.487 595.295 279.487C579.952 279.487 567.513 274.108 567.513 267.473C567.513 267.473 566.762 259.964 566.762 247.951C566.762 235.937 567.513 228.428 567.513 228.428Z" fill="#FDFDFD" fill-opacity="0.05"/>
<path d="M595.295 240.442C610.638 240.442 623.077 235.063 623.077 228.428C623.077 221.793 610.638 216.414 595.295 216.414C579.952 216.414 567.513 221.793 567.513 228.428C567.513 235.063 579.952 240.442 595.295 240.442Z" fill="#FDFDFD" fill-opacity="0.05"/>
<path d="M595.295 240.442C610.638 240.442 623.077 235.063 623.077 228.428C623.077 221.793 610.638 216.414 595.295 216.414C579.952 216.414 567.513 221.793 567.513 228.428C567.513 235.063 579.952 240.442 595.295 240.442Z" fill="#FDFDFD" fill-opacity="0.05"/>
<path d="M623.077 228.428C623.077 235.062 610.638 240.442 595.295 240.442C579.952 240.442 567.513 235.062 567.513 228.428" stroke="#E9EAEC" stroke-width="4.50521" stroke-linecap="round" stroke-linejoin="round"/>
<path d="M623.828 248.256C623.828 254.721 611.053 259.962 595.295 259.962C579.537 259.962 566.762 254.721 566.762 248.256" stroke="#E9EAEC" stroke-width="4.50521" stroke-linecap="round" stroke-linejoin="round"/>
<path d="M576.523 247.951C576.722 247.951 576.913 247.872 577.054 247.731C577.195 247.59 577.274 247.399 577.274 247.2C577.274 247.001 577.195 246.81 577.054 246.669C576.913 246.528 576.722 246.449 576.523 246.449" stroke="#E9EAEC" stroke-width="4.50521" stroke-linecap="round" stroke-linejoin="round"/>
<path d="M576.523 247.951C576.324 247.951 576.133 247.872 575.992 247.731C575.852 247.59 575.772 247.399 575.772 247.2C575.772 247.001 575.852 246.81 575.992 246.669C576.133 246.528 576.324 246.449 576.523 246.449" stroke="#E9EAEC" stroke-width="4.50521" stroke-linecap="round" stroke-linejoin="round"/>
<path d="M567.513 228.428C567.513 221.793 579.952 216.414 595.295 216.414C610.638 216.414 623.077 221.793 623.077 228.428C623.077 228.428 623.828 235.937 623.828 247.951C623.828 259.964 623.077 267.473 623.077 267.473C623.077 274.108 610.638 279.487 595.295 279.487C579.952 279.487 567.513 274.108 567.513 267.473C567.513 267.473 566.762 259.964 566.762 247.951C566.762 235.937 567.513 228.428 567.513 228.428Z" stroke="#E9EAEC" stroke-width="4.50521" stroke-linecap="round" stroke-linejoin="round"/>
<path d="M576.523 267.472C576.722 267.472 576.913 267.393 577.054 267.253C577.195 267.112 577.274 266.921 577.274 266.722C577.274 266.522 577.195 266.331 577.054 266.191C576.913 266.05 576.722 265.971 576.523 265.971" stroke="#E9EAEC" stroke-width="4.50521" stroke-linecap="round" stroke-linejoin="round"/>
<path d="M576.523 267.472C576.324 267.472 576.133 267.393 575.992 267.253C575.852 267.112 575.772 266.921 575.772 266.722C575.772 266.522 575.852 266.331 575.992 266.191C576.133 266.05 576.324 265.971 576.523 265.971" stroke="#E9EAEC" stroke-width="4.50521" stroke-linecap="round" stroke-linejoin="round"/>
<path d="M586.284 250.578C586.484 250.578 586.675 250.499 586.815 250.358C586.956 250.217 587.035 250.026 587.035 249.827C587.035 249.628 586.956 249.437 586.815 249.296C586.675 249.155 586.484 249.076 586.284 249.076" stroke="#E9EAEC" stroke-width="4.50521" stroke-linecap="round" stroke-linejoin="round"/>
<path d="M586.285 250.578C586.085 250.578 585.894 250.499 585.754 250.358C585.613 250.217 585.534 250.026 585.534 249.827C585.534 249.628 585.613 249.437 585.754 249.296C585.894 249.155 586.085 249.076 586.285 249.076" stroke="#E9EAEC" stroke-width="4.50521" stroke-linecap="round" stroke-linejoin="round"/>
<path d="M586.284 270.101C586.484 270.101 586.675 270.022 586.815 269.881C586.956 269.741 587.035 269.55 587.035 269.35C587.035 269.151 586.956 268.96 586.815 268.82C586.675 268.679 586.484 268.6 586.284 268.6" stroke="#E9EAEC" stroke-width="4.50521" stroke-linecap="round" stroke-linejoin="round"/>
<path d="M586.285 270.101C586.085 270.101 585.894 270.022 585.754 269.881C585.613 269.741 585.534 269.55 585.534 269.35C585.534 269.151 585.613 268.96 585.754 268.82C585.894 268.679 586.085 268.6 586.285 268.6" stroke="#E9EAEC" stroke-width="4.50521" stroke-linecap="round" stroke-linejoin="round"/>
<path d="M555.292 460.162C554.987 456.327 552.03 453.416 548.192 453.136C543.778 452.813 536.968 452.488 527.417 452.488C517.866 452.488 511.054 452.813 506.64 453.136C502.802 453.416 499.845 456.327 499.542 460.164C499.333 462.858 499.18 465.556 499.082 468.257C498.946 472.009 498.879 475.764 498.884 479.52C498.884 488.338 499.21 494.689 499.542 498.877C499.845 502.714 502.802 505.623 506.64 505.905C510.464 506.184 516.083 506.465 523.724 506.536C523.965 506.12 524.257 505.731 524.6 505.378C523.843 504.82 523.227 504.091 522.804 503.252C522.38 502.412 522.16 501.484 522.161 500.544C522.161 498.562 523.121 496.805 524.6 495.71C523.639 494.713 523.052 493.415 522.938 492.035C522.824 490.655 523.19 489.278 523.974 488.137C524.758 486.996 525.912 486.16 527.241 485.771C528.57 485.383 529.992 485.465 531.267 486.004C532.437 484.539 533.845 483.283 535.433 482.287L535.104 480.976C534.778 479.67 534.899 478.293 535.449 477.064C535.999 475.835 536.946 474.827 538.137 474.201C539.329 473.574 540.696 473.367 542.02 473.611C543.344 473.855 544.548 474.536 545.438 475.546C546.166 474.72 547.108 474.111 548.159 473.784C549.211 473.457 550.332 473.426 551.4 473.693C553.052 474.106 554.768 475.166 555.938 476.536C555.89 471.075 555.725 465.607 555.292 460.162Z" fill="#FDFDFD" fill-opacity="0.05"/>
<path d="M555.753 468.257H499.083C499.206 464.974 499.373 462.29 499.543 460.162C499.846 456.327 502.803 453.416 506.641 453.136C511.057 452.813 517.867 452.488 527.418 452.488C536.969 452.488 543.779 452.813 548.193 453.136C552.031 453.416 554.988 456.327 555.293 460.164C555.461 462.29 555.628 464.974 555.753 468.257Z" fill="#FDFDFD" fill-opacity="0.05"/>
<path d="M545.438 515.562C538.567 515.562 533.639 510.958 533.466 504.089C533.437 502.908 533.423 501.726 533.424 500.545C533.424 499.258 533.439 498.079 533.466 497.001C533.639 490.132 538.567 485.527 545.438 485.527C552.308 485.527 557.237 490.132 557.41 497.001C557.437 498.079 557.452 499.258 557.452 500.545C557.452 501.832 557.437 503.011 557.41 504.089C557.237 510.958 552.308 515.562 545.438 515.562Z" fill="#FDFDFD" fill-opacity="0.05"/>
<path d="M499.635 468.256H555.199" stroke="#E9EAEC" stroke-width="4.65538" stroke-linecap="round" stroke-linejoin="round"/>
<path d="M510.898 479.52H528.919" stroke="#E9EAEC" stroke-width="4.65538" stroke-linecap="round" stroke-linejoin="round"/>
<path d="M507.894 460.748H510.898" stroke="#E9EAEC" stroke-width="4.65538" stroke-linecap="round" stroke-linejoin="round"/>
<path d="M518.406 460.748H521.41" stroke="#E9EAEC" stroke-width="4.65538" stroke-linecap="round" stroke-linejoin="round"/>
<path d="M522.912 506.525C515.681 506.444 510.323 506.172 506.637 505.904C502.799 505.621 499.845 502.712 499.542 498.875C499.21 494.69 498.884 488.338 498.884 479.52C498.884 470.703 499.21 464.352 499.542 460.162C499.845 456.327 502.802 453.416 506.64 453.136C511.055 452.813 517.866 452.488 527.417 452.488C536.968 452.488 543.778 452.813 548.193 453.136C552.032 453.416 554.989 456.327 555.292 460.164C555.624 464.349 555.95 470.701 555.95 479.52C555.95 480.288 555.947 481.039 555.942 481.772" stroke="#E9EAEC" stroke-width="4.65538" stroke-linecap="round" stroke-linejoin="round"/>
<path d="M510.898 491.533H519.908" stroke="#E9EAEC" stroke-width="4.65538" stroke-linecap="round" stroke-linejoin="round"/>
<path d="M545.438 515.562C538.567 515.562 533.639 510.958 533.466 504.089C533.437 502.908 533.423 501.726 533.424 500.545C533.424 499.258 533.439 498.079 533.466 497.001C533.639 490.132 538.567 485.527 545.438 485.527C552.308 485.527 557.237 490.132 557.41 497.001C557.437 498.079 557.452 499.258 557.452 500.545C557.452 501.832 557.437 503.011 557.41 504.089C557.237 510.958 552.308 515.562 545.438 515.562Z" stroke="#E9EAEC" stroke-width="4.65538" stroke-linejoin="round"/>
<path d="M557.451 494.537L561.957 491.533" stroke="#E9EAEC" stroke-width="4.65538" stroke-linecap="round" stroke-linejoin="round"/>
<path d="M557.451 506.551L561.957 509.554" stroke="#E9EAEC" stroke-width="4.65538" stroke-linecap="round" stroke-linejoin="round"/>
<path d="M562.707 500.543H557.451" stroke="#E9EAEC" stroke-width="4.65538" stroke-linecap="round" stroke-linejoin="round"/>
<path d="M533.424 494.537L528.918 491.533" stroke="#E9EAEC" stroke-width="4.65538" stroke-linecap="round" stroke-linejoin="round"/>
<path d="M533.424 506.551L528.918 509.554" stroke="#E9EAEC" stroke-width="4.65538" stroke-linecap="round" stroke-linejoin="round"/>
<path d="M528.168 500.543H533.424" stroke="#E9EAEC" stroke-width="4.65538" stroke-linecap="round" stroke-linejoin="round"/>
<path d="M542.434 485.526L540.932 479.52" stroke="#E9EAEC" stroke-width="4.65538" stroke-linecap="round" stroke-linejoin="round"/>
<path d="M548.441 485.526L549.943 479.52" stroke="#E9EAEC" stroke-width="4.65538" stroke-linecap="round" stroke-linejoin="round"/>
<path d="M557.452 494.537C557.452 494.537 553.697 497.541 545.438 497.541C537.178 497.541 533.424 494.537 533.424 494.537" stroke="#E9EAEC" stroke-width="4.65538" stroke-linecap="round" stroke-linejoin="round"/>
<path d="M307.925 535.481C302.599 530.259 298.91 528.788 297.761 528.429C295.472 528.359 293.181 528.324 290.89 528.326C282.424 528.326 276.61 528.759 272.985 529.174C270.01 529.514 267.781 531.746 267.454 534.722C267.022 538.628 266.562 545.184 266.562 555.357C266.562 565.531 267.023 572.087 267.454 575.993C267.781 578.969 270.01 581.201 272.985 581.541C275.909 581.875 280.26 582.222 286.28 582.344C286.077 578.834 286.162 576.326 286.3 574.683C286.529 571.953 287.833 569.737 289.384 568.187L306.063 551.508C308.148 549.423 311.507 547.622 315.124 547.735C315.101 546.863 315.075 546.029 315.045 545.23C314.571 543.906 312.952 540.409 307.925 535.481Z" fill="#FDFDFD" fill-opacity="0.05"/>
<path d="M297.763 528.428C298.915 528.79 302.602 530.264 307.922 535.479C312.95 540.407 314.567 543.905 315.042 545.229L315.063 545.838C312.243 546.258 307.169 545.935 303.318 545.58C301.851 545.448 300.475 544.807 299.431 543.768C298.387 542.728 297.74 541.355 297.603 539.888C297.24 536.101 296.919 531.149 297.359 528.416L297.763 528.43V528.428Z" fill="#FDFDFD" fill-opacity="0.05"/>
<path d="M321.523 566.97C323.488 565.006 324.24 562.135 322.596 559.894C321.87 558.913 321.071 557.989 320.204 557.129C319.204 556.129 318.271 555.348 317.437 554.737C315.198 553.093 312.327 553.845 310.362 555.809L293.684 572.487C292.95 573.222 292.447 574.153 292.361 575.19C292.243 576.597 292.156 578.988 292.384 582.526C292.424 583.156 292.692 583.749 293.138 584.195C293.584 584.641 294.177 584.909 294.807 584.95C298.344 585.177 300.736 585.09 302.143 584.971C303.178 584.885 304.111 584.383 304.846 583.647L321.523 566.97Z" fill="#FDFDFD" fill-opacity="0.05"/>
<path d="M317.923 570.572C317.919 570.554 317.27 567.711 313.447 563.888C309.611 560.052 306.762 559.413 306.762 559.413L310.364 555.809C312.329 553.845 315.2 553.093 317.44 554.738C318.421 555.464 319.345 556.263 320.204 557.13C321.205 558.13 321.987 559.063 322.597 559.895C324.241 562.136 323.489 565.007 321.525 566.971L317.923 570.572Z" fill="#FDFDFD" fill-opacity="0.05"/>
<path d="M315.045 545.23C314.571 543.906 312.952 540.409 307.925 535.481C302.599 530.259 298.91 528.788 297.761 528.429C295.472 528.359 293.181 528.324 290.89 528.326C282.424 528.326 276.61 528.759 272.985 529.174C270.01 529.514 267.781 531.746 267.454 534.722C267.022 538.628 266.562 545.184 266.562 555.357C266.562 565.531 267.023 572.087 267.454 575.993C267.781 578.969 270.01 581.201 272.985 581.541C275.55 581.835 279.211 582.136 284.132 582.289" stroke="#E9EAEC" stroke-width="4.05469" stroke-linecap="round" stroke-linejoin="round"/>
<path d="M315.063 545.838C312.243 546.258 307.169 545.935 303.318 545.58C301.851 545.448 300.475 544.807 299.431 543.768C298.387 542.728 297.74 541.355 297.603 539.888C297.24 536.101 296.919 531.149 297.359 528.416" stroke="#E9EAEC" stroke-width="4.05469" stroke-linecap="round" stroke-linejoin="round"/>
<path d="M317.923 570.573C317.923 570.573 317.284 567.724 313.447 563.888C309.611 560.051 306.762 559.412 306.762 559.412" stroke="#E9EAEC" stroke-width="4.05469" stroke-linecap="round" stroke-linejoin="round"/>
<path d="M276.023 541.842L281.429 547.248L288.187 537.787" stroke="#E9EAEC" stroke-width="4.05469" stroke-linecap="round" stroke-linejoin="round"/>
<path d="M276.023 556.709L281.429 562.115L288.187 552.654" stroke="#E9EAEC" stroke-width="4.05469" stroke-linecap="round" stroke-linejoin="round"/>
<path d="M321.523 566.97C323.488 565.006 324.24 562.135 322.596 559.894C321.87 558.913 321.071 557.989 320.204 557.129C319.204 556.129 318.271 555.348 317.437 554.737C315.198 553.093 312.327 553.845 310.362 555.809L293.684 572.487C292.95 573.222 292.447 574.153 292.361 575.19C292.243 576.597 292.156 578.988 292.384 582.526C292.424 583.156 292.692 583.749 293.138 584.195C293.584 584.641 294.177 584.909 294.807 584.95C298.344 585.177 300.736 585.09 302.143 584.971C303.178 584.885 304.111 584.383 304.846 583.647L321.523 566.97Z" stroke="#E9EAEC" stroke-width="4.05469" stroke-linecap="round" stroke-linejoin="round"/>
<circle cx="26.2622" cy="26.2622" r="26.2622" transform="matrix(1 0 0 -1 590.484 427.223)" fill="#FDFDFD" fill-opacity="0.05"/>
<circle cx="21.5485" cy="21.5485" r="21.5485" transform="matrix(1 0 0 -1 595.198 422.508)" fill="#FDFDFD" fill-opacity="0.05"/>
<circle cx="14.8146" cy="14.8146" r="14.8146" transform="matrix(1 0 0 -1 601.933 415.773)" fill="#FDFDFD" fill-opacity="0.05"/>
<path d="M616.8 403.3C616.474 403.312 616.163 403.259 615.866 403.141C615.568 403.023 615.307 402.852 615.082 402.627C614.858 402.403 614.687 402.15 614.569 401.87C614.451 401.589 614.392 401.292 614.392 400.977C614.392 400.865 614.398 400.756 614.409 400.649C614.42 400.542 614.443 400.438 614.476 400.338C614.521 400.203 614.519 400.068 614.468 399.934C614.418 399.799 614.331 399.703 614.207 399.647C614.072 399.591 613.941 399.591 613.812 399.647C613.683 399.703 613.596 399.799 613.55 399.934C613.494 400.102 613.452 400.27 613.425 400.439C613.397 400.607 613.383 400.781 613.382 400.96C613.382 401.409 613.469 401.839 613.643 402.249C613.818 402.659 614.062 403.02 614.375 403.334C614.678 403.648 615.035 403.89 615.445 404.058C615.855 404.226 616.278 404.316 616.715 404.327L616.429 404.614C616.328 404.715 616.278 404.832 616.278 404.967C616.278 405.102 616.328 405.22 616.429 405.321C616.53 405.422 616.648 405.472 616.783 405.472C616.917 405.472 617.035 405.422 617.136 405.321L618.214 404.243C618.348 404.109 618.416 403.951 618.416 403.772C618.416 403.592 618.348 403.435 618.214 403.3L617.136 402.223C617.035 402.122 616.917 402.072 616.783 402.072C616.648 402.072 616.53 402.122 616.429 402.223C616.328 402.324 616.278 402.442 616.278 402.577C616.278 402.711 616.328 402.829 616.429 402.93L616.8 403.3ZM616.682 398.604C617.007 398.604 617.321 398.663 617.624 398.781C617.927 398.899 618.191 399.07 618.416 399.294C618.64 399.518 618.811 399.771 618.929 400.051C619.048 400.332 619.106 400.629 619.106 400.944C619.106 401.056 619.1 401.165 619.089 401.272C619.078 401.378 619.055 401.482 619.022 401.583C618.977 401.718 618.98 401.855 619.03 401.995C619.081 402.136 619.168 402.234 619.291 402.29C619.426 402.347 619.558 402.347 619.687 402.29C619.816 402.234 619.903 402.139 619.948 402.004C620.004 401.836 620.046 401.665 620.074 401.49C620.103 401.316 620.116 401.14 620.116 400.96C620.116 400.512 620.035 400.082 619.872 399.673C619.709 399.264 619.465 398.896 619.14 398.57C618.825 398.256 618.463 398.017 618.054 397.855C617.645 397.692 617.221 397.611 616.783 397.61L617.086 397.307C617.176 397.206 617.22 397.088 617.22 396.954C617.22 396.819 617.17 396.701 617.069 396.6C616.968 396.499 616.85 396.449 616.715 396.449C616.581 396.449 616.463 396.499 616.362 396.6L615.284 397.678C615.15 397.812 615.082 397.969 615.082 398.149C615.082 398.329 615.15 398.486 615.284 398.62L616.362 399.698C616.463 399.799 616.581 399.849 616.715 399.849C616.85 399.849 616.968 399.799 617.069 399.698C617.17 399.597 617.22 399.479 617.22 399.344C617.22 399.21 617.17 399.092 617.069 398.991L616.682 398.604ZM616.749 407.694C615.818 407.694 614.942 407.517 614.123 407.164C613.304 406.81 612.591 406.33 611.985 405.725C611.379 405.119 610.899 404.406 610.546 403.587C610.192 402.767 610.016 401.892 610.015 400.96C610.015 400.029 610.192 399.154 610.546 398.334C610.9 397.515 611.379 396.802 611.985 396.196C612.591 395.59 613.304 395.11 614.123 394.757C614.942 394.404 615.818 394.227 616.749 394.227C617.681 394.227 618.556 394.403 619.375 394.757C620.195 395.111 620.907 395.591 621.513 396.196C622.119 396.802 622.599 397.515 622.953 398.334C623.307 399.154 623.483 400.029 623.483 400.96C623.483 401.892 623.306 402.767 622.952 403.587C622.599 404.406 622.119 405.119 621.513 405.725C620.907 406.331 620.195 406.811 619.375 407.164C618.556 407.518 617.681 407.695 616.749 407.694Z" fill="#E9EAEC"/>
<path d="M310.47 122.618C310.782 126.455 313.718 129.391 317.555 129.703C322.402 130.096 330.138 130.512 341.197 130.512C352.255 130.512 359.991 130.096 364.838 129.703C368.675 129.391 371.611 126.455 371.924 122.618C372.317 117.77 372.733 110.035 372.733 98.9759C372.733 87.9171 372.317 80.1817 371.924 75.3341C371.611 71.4971 368.675 68.5613 364.838 68.2489C359.991 67.8554 352.255 67.4395 341.197 67.4395C330.138 67.4395 322.402 67.8554 317.555 68.2489C313.718 68.5613 310.782 71.4971 310.47 75.3341C310.076 80.1817 309.66 87.9171 309.66 98.9759C309.66 110.035 310.076 117.77 310.47 122.618Z" fill="#FDFDFD" fill-opacity="0.05"/>
<path d="M372.411 83.2077H309.989C310.131 80.0285 310.304 77.4155 310.472 75.3341C310.785 71.4971 313.721 68.5613 317.559 68.2489C322.407 67.8554 330.142 67.4395 341.199 67.4395C352.258 67.4395 359.994 67.8554 364.841 68.2489C368.68 68.5613 371.614 71.4971 371.928 75.3341C372.096 77.4155 372.269 80.0285 372.411 83.2077Z" fill="#FDFDFD" fill-opacity="0.05"/>
<path d="M323.176 97.4746C323.176 97.4746 335.19 103.482 335.19 106.485C335.19 109.488 323.176 115.495 323.176 115.495" stroke="#E9EAEC" stroke-width="4.50521" stroke-linecap="round" stroke-linejoin="round"/>
<path d="M344.2 113.994H359.218" stroke="#E9EAEC" stroke-width="4.50521" stroke-linecap="round" stroke-linejoin="round"/>
<path d="M310.47 122.618C310.782 126.455 313.718 129.391 317.555 129.703C322.402 130.096 330.138 130.512 341.197 130.512C352.255 130.512 359.991 130.096 364.838 129.703C368.675 129.391 371.611 126.455 371.924 122.618C372.317 117.77 372.733 110.035 372.733 98.9759C372.733 87.9171 372.317 80.1817 371.924 75.3341C371.611 71.4971 368.675 68.5613 364.838 68.2489C359.991 67.8554 352.255 67.4395 341.197 67.4395C330.138 67.4395 322.402 67.8554 317.555 68.2489C313.718 68.5613 310.782 71.4971 310.47 75.3341C310.076 80.1817 309.66 87.9171 309.66 98.9759C309.66 110.035 310.076 117.77 310.47 122.618Z" stroke="#E9EAEC" stroke-width="4.50521" stroke-linejoin="round"/>
<path d="M310.411 83.207H371.982" stroke="#E9EAEC" stroke-width="4.50521" stroke-linecap="round" stroke-linejoin="round"/>
<path d="M320.172 75.6992H323.176" stroke="#E9EAEC" stroke-width="4.50521" stroke-linecap="round" stroke-linejoin="round"/>
<path d="M332.186 75.6992H335.19" stroke="#E9EAEC" stroke-width="4.50521" stroke-linecap="round" stroke-linejoin="round"/>
<circle cx="26.2622" cy="26.2622" r="26.2622" transform="matrix(1 0 0 -1 287.131 669.9)" fill="#FDFDFD" fill-opacity="0.05"/>
<circle cx="21.5485" cy="21.5485" r="21.5485" transform="matrix(1 0 0 -1 291.845 665.186)" fill="#FDFDFD" fill-opacity="0.05"/>
<circle cx="14.8146" cy="14.8146" r="14.8146" transform="matrix(1 0 0 -1 298.58 658.455)" fill="#FDFDFD" fill-opacity="0.05"/>
<path d="M313.444 645.976C313.118 645.987 312.807 645.934 312.51 645.817C312.212 645.699 311.951 645.528 311.726 645.303C311.502 645.078 311.331 644.826 311.213 644.545C311.095 644.265 311.036 643.967 311.036 643.653C311.036 643.541 311.042 643.431 311.053 643.324C311.064 643.218 311.087 643.114 311.12 643.013C311.165 642.879 311.163 642.744 311.112 642.609C311.062 642.475 310.975 642.379 310.851 642.323C310.716 642.267 310.585 642.267 310.456 642.323C310.327 642.379 310.24 642.475 310.194 642.609C310.138 642.778 310.096 642.946 310.069 643.114C310.041 643.283 310.027 643.457 310.026 643.636C310.026 644.085 310.113 644.515 310.287 644.924C310.462 645.334 310.706 645.696 311.019 646.01C311.322 646.324 311.679 646.565 312.089 646.734C312.499 646.902 312.922 646.992 313.359 647.003L313.073 647.289C312.972 647.39 312.922 647.508 312.922 647.643C312.922 647.778 312.972 647.895 313.073 647.996C313.174 648.097 313.292 648.148 313.427 648.148C313.561 648.148 313.679 648.097 313.78 647.996L314.858 646.919C314.992 646.784 315.06 646.627 315.06 646.448C315.06 646.268 314.992 646.111 314.858 645.976L313.78 644.899C313.679 644.798 313.561 644.747 313.427 644.747C313.292 644.747 313.174 644.798 313.073 644.899C312.972 645 312.922 645.118 312.922 645.252C312.922 645.387 312.972 645.505 313.073 645.606L313.444 645.976ZM313.326 641.279C313.651 641.279 313.965 641.338 314.268 641.456C314.572 641.575 314.835 641.746 315.06 641.97C315.284 642.194 315.455 642.447 315.574 642.727C315.692 643.008 315.75 643.305 315.75 643.619C315.75 643.732 315.744 643.841 315.733 643.947C315.722 644.054 315.699 644.158 315.666 644.259C315.621 644.394 315.624 644.531 315.675 644.671C315.725 644.811 315.812 644.91 315.935 644.966C316.07 645.022 316.202 645.022 316.331 644.966C316.46 644.91 316.547 644.815 316.592 644.68C316.648 644.512 316.69 644.34 316.718 644.166C316.747 643.992 316.76 643.815 316.76 643.636C316.76 643.187 316.679 642.758 316.516 642.349C316.353 641.939 316.109 641.572 315.784 641.246C315.469 640.931 315.108 640.693 314.698 640.531C314.289 640.368 313.865 640.287 313.427 640.286L313.73 639.983C313.82 639.882 313.864 639.764 313.864 639.63C313.864 639.495 313.814 639.377 313.713 639.276C313.612 639.175 313.494 639.125 313.359 639.125C313.225 639.125 313.107 639.175 313.006 639.276L311.928 640.353C311.794 640.488 311.726 640.645 311.726 640.825C311.726 641.004 311.794 641.162 311.928 641.296L313.006 642.374C313.107 642.475 313.225 642.525 313.359 642.525C313.494 642.525 313.612 642.475 313.713 642.374C313.814 642.273 313.864 642.155 313.864 642.02C313.864 641.885 313.814 641.768 313.713 641.667L313.326 641.279ZM313.393 650.37C312.462 650.37 311.586 650.193 310.767 649.84C309.948 649.486 309.235 649.006 308.629 648.4C308.023 647.794 307.543 647.082 307.19 646.262C306.837 645.443 306.66 644.568 306.659 643.636C306.659 642.705 306.836 641.829 307.19 641.01C307.544 640.191 308.023 639.478 308.629 638.872C309.235 638.266 309.948 637.786 310.767 637.433C311.586 637.08 312.462 636.903 313.393 636.902C314.325 636.902 315.2 637.079 316.019 637.433C316.839 637.787 317.551 638.266 318.157 638.872C318.763 639.478 319.243 640.191 319.597 641.01C319.951 641.829 320.127 642.705 320.127 643.636C320.127 644.568 319.95 645.443 319.596 646.262C319.243 647.082 318.763 647.794 318.157 648.4C317.551 649.007 316.839 649.486 316.019 649.84C315.2 650.194 314.325 650.371 313.393 650.37Z" fill="#E9EAEC"/>
<g filter="url(#filter2_f_1134_18413)">
<circle cx="471.666" cy="530.25" r="18.5477" transform="rotate(-34.7184 471.666 530.25)" fill="url(#paint3_linear_1134_18413)"/>
</g>
<path d="M472.369 591.344C472.369 593.016 472.154 594.541 471.723 595.92C471.293 597.298 470.648 598.476 469.787 599.454C468.927 600.432 467.842 601.17 466.532 601.668L471.635 607.197H466.942L462.909 602.372C462.812 602.372 462.714 602.372 462.616 602.372C462.528 602.382 462.44 602.387 462.352 602.387C460.641 602.387 459.155 602.123 457.894 601.595C456.642 601.067 455.601 600.314 454.77 599.337C453.949 598.359 453.333 597.191 452.922 595.832C452.512 594.473 452.306 592.967 452.306 591.315C452.306 589.105 452.668 587.179 453.392 585.537C454.125 583.884 455.235 582.603 456.721 581.694C458.216 580.775 460.103 580.316 462.381 580.316C464.611 580.316 466.463 580.77 467.94 581.68C469.416 582.589 470.521 583.87 471.254 585.522C471.997 587.164 472.369 589.105 472.369 591.344ZM456.002 591.344C456.002 592.996 456.227 594.429 456.677 595.641C457.126 596.844 457.816 597.772 458.744 598.427C459.683 599.073 460.886 599.395 462.352 599.395C463.828 599.395 465.031 599.073 465.96 598.427C466.889 597.772 467.573 596.844 468.013 595.641C468.453 594.429 468.673 592.996 468.673 591.344C468.673 588.831 468.169 586.866 467.162 585.449C466.165 584.021 464.572 583.307 462.381 583.307C460.915 583.307 459.707 583.63 458.759 584.275C457.821 584.921 457.126 585.844 456.677 587.047C456.227 588.24 456.002 589.672 456.002 591.344ZM489.059 602.094L486.962 596.14H478.764L476.667 602.094H472.956L480.934 580.565H484.835L492.799 602.094H489.059ZM486.053 593.119L484.014 587.252C483.936 586.998 483.823 586.641 483.677 586.182C483.53 585.713 483.383 585.238 483.237 584.759C483.09 584.27 482.968 583.86 482.87 583.527C482.772 583.928 482.65 584.378 482.504 584.877C482.367 585.365 482.23 585.825 482.093 586.255C481.966 586.685 481.868 587.018 481.8 587.252L479.746 593.119H486.053Z" fill="#FDFDFD"/>
<g filter="url(#filter3_f_1134_18413)">
<circle cx="190.66" cy="143.404" r="18.5477" transform="rotate(-34.7184 190.66 143.404)" fill="url(#paint4_linear_1134_18413)"/>
</g>
<path d="M183.326 204.32C183.326 206.735 182.877 208.754 181.977 210.377C181.078 211.99 179.773 213.208 178.062 214.029C176.351 214.84 174.288 215.246 171.873 215.246H165.919V193.805H172.518C174.737 193.805 176.654 194.206 178.267 195.008C179.88 195.8 181.127 196.978 182.007 198.542C182.887 200.097 183.326 202.023 183.326 204.32ZM179.66 204.423C179.66 202.663 179.381 201.216 178.824 200.082C178.277 198.948 177.465 198.107 176.39 197.56C175.324 197.002 174.009 196.724 172.445 196.724H169.438V212.298H171.931C174.522 212.298 176.458 211.638 177.739 210.319C179.02 208.999 179.66 207.033 179.66 204.423ZM198.888 215.246H186.745V193.805H198.888V196.768H190.264V202.59H198.345V205.538H190.264V212.269H198.888V215.246ZM218.218 193.805L210.724 215.246H206.999L199.505 193.805H203.112L207.629 207.239C207.766 207.63 207.913 208.104 208.069 208.661C208.236 209.219 208.387 209.781 208.524 210.348C208.671 210.915 208.783 211.418 208.861 211.858C208.939 211.418 209.047 210.915 209.184 210.348C209.331 209.781 209.482 209.219 209.639 208.661C209.795 208.104 209.942 207.625 210.079 207.224L214.61 193.805H218.218Z" fill="#FDFDFD"/>
<circle cx="26.2622" cy="26.2622" r="26.2622" transform="matrix(1 0 0 -1 28.8347 303.477)" fill="#FDFDFD" fill-opacity="0.05"/>
<circle cx="21.5485" cy="21.5485" r="21.5485" transform="matrix(1 0 0 -1 33.5488 298.762)" fill="#FDFDFD" fill-opacity="0.05"/>
<circle cx="14.8146" cy="14.8146" r="14.8146" transform="matrix(1 0 0 -1 40.2832 292.031)" fill="#FDFDFD" fill-opacity="0.05"/>
<path d="M55.1494 279.554C54.8239 279.566 54.5126 279.512 54.2154 279.395C53.9182 279.277 53.6572 279.106 53.4323 278.881C53.2078 278.657 53.0365 278.404 52.9185 278.123C52.8004 277.843 52.7416 277.545 52.742 277.231C52.742 277.119 52.7476 277.009 52.7589 276.903C52.7701 276.796 52.7925 276.692 52.8262 276.591C52.8711 276.457 52.8684 276.322 52.8181 276.187C52.7678 276.053 52.6807 275.957 52.5568 275.901C52.4222 275.845 52.2904 275.845 52.1616 275.901C52.0327 275.957 51.9456 276.053 51.9003 276.187C51.8442 276.356 51.8022 276.524 51.7744 276.692C51.7465 276.861 51.7324 277.035 51.7319 277.214C51.7319 277.663 51.819 278.093 51.9932 278.503C52.1674 278.912 52.4114 279.274 52.7252 279.588C53.0282 279.902 53.3847 280.144 53.7945 280.312C54.2044 280.48 54.628 280.57 55.0652 280.581L54.779 280.868C54.678 280.969 54.6275 281.086 54.6275 281.221C54.6275 281.356 54.678 281.474 54.779 281.575C54.88 281.676 54.9979 281.726 55.1326 281.726C55.2672 281.726 55.3851 281.676 55.4861 281.575L56.5635 280.497C56.6982 280.362 56.7655 280.205 56.7655 280.026C56.7655 279.846 56.6982 279.689 56.5635 279.554L55.4861 278.477C55.3851 278.376 55.2672 278.325 55.1326 278.325C54.9979 278.325 54.88 278.376 54.779 278.477C54.678 278.578 54.6275 278.696 54.6275 278.831C54.6275 278.965 54.678 279.083 54.779 279.184L55.1494 279.554ZM55.0316 274.858C55.357 274.858 55.6713 274.917 55.9743 275.035C56.2773 275.153 56.5411 275.324 56.7655 275.548C56.99 275.772 57.1613 276.025 57.2793 276.305C57.3974 276.586 57.4562 276.883 57.4558 277.198C57.4558 277.31 57.4501 277.419 57.4389 277.525C57.4277 277.632 57.4053 277.736 57.3716 277.837C57.3267 277.972 57.3296 278.109 57.3803 278.249C57.4311 278.389 57.5179 278.488 57.6409 278.544C57.7756 278.6 57.9076 278.6 58.0369 278.544C58.1662 278.488 58.253 278.393 58.2975 278.258C58.3536 278.09 58.3958 277.919 58.4241 277.744C58.4524 277.57 58.4663 277.393 58.4658 277.214C58.4658 276.765 58.3844 276.336 58.2214 275.927C58.0584 275.517 57.8144 275.15 57.4894 274.824C57.1752 274.51 56.8133 274.271 56.4039 274.109C55.9945 273.946 55.5707 273.865 55.1326 273.864L55.4356 273.561C55.5254 273.46 55.5703 273.342 55.5703 273.208C55.5703 273.073 55.5198 272.955 55.4188 272.854C55.3177 272.753 55.1999 272.703 55.0652 272.703C54.9305 272.703 54.8127 272.753 54.7117 272.854L53.6343 273.932C53.4996 274.066 53.4323 274.223 53.4323 274.403C53.4323 274.583 53.4996 274.74 53.6343 274.874L54.7117 275.952C54.8127 276.053 54.9305 276.103 55.0652 276.103C55.1999 276.103 55.3177 276.053 55.4188 275.952C55.5198 275.851 55.5703 275.733 55.5703 275.598C55.5703 275.464 55.5198 275.346 55.4188 275.245L55.0316 274.858ZM55.0989 283.948C54.1674 283.948 53.292 283.771 52.4727 283.418C51.6534 283.064 50.9407 282.584 50.3347 281.979C49.7286 281.373 49.2489 280.66 48.8956 279.841C48.5423 279.021 48.3654 278.146 48.365 277.214C48.365 276.283 48.5419 275.407 48.8956 274.588C49.2494 273.769 49.7291 273.056 50.3347 272.45C50.9407 271.844 51.6534 271.364 52.4727 271.011C53.292 270.658 54.1674 270.481 55.0989 270.48C56.0304 270.48 56.9058 270.657 57.7251 271.011C58.5444 271.365 59.2571 271.845 59.8631 272.45C60.4692 273.056 60.9491 273.769 61.3028 274.588C61.6566 275.407 61.8332 276.283 61.8328 277.214C61.8328 278.146 61.6559 279.021 61.3022 279.841C60.9484 280.66 60.4687 281.373 59.8631 281.979C59.2571 282.585 58.5444 283.065 57.7251 283.418C56.9058 283.772 56.0304 283.949 55.0989 283.948Z" fill="#E9EAEC"/>
<circle cx="26.2622" cy="26.2622" r="26.2622" transform="matrix(1 0 0 -1 385.043 67.4043)" fill="#FDFDFD" fill-opacity="0.05"/>
<circle cx="21.5485" cy="21.5485" r="21.5485" transform="matrix(1 0 0 -1 389.758 62.6895)" fill="#FDFDFD" fill-opacity="0.05"/>
<circle cx="14.8146" cy="14.8146" r="14.8146" transform="matrix(1 0 0 -1 396.492 55.959)" fill="#FDFDFD" fill-opacity="0.05"/>
<path d="M411.359 43.4821C411.033 43.4934 410.722 43.4402 410.425 43.3225C410.127 43.2049 409.866 43.0337 409.641 42.8087C409.417 42.5843 409.246 42.3318 409.128 42.0512C409.01 41.7706 408.951 41.4732 408.951 41.1589C408.951 41.0467 408.957 40.9372 408.968 40.8303C408.979 40.7235 409.002 40.6198 409.035 40.5192C409.08 40.3845 409.078 40.2499 409.027 40.1152C408.977 39.9805 408.89 39.8851 408.766 39.829C408.631 39.7729 408.5 39.7729 408.371 39.829C408.242 39.8851 408.155 39.9805 408.11 40.1152C408.053 40.2835 408.011 40.4519 407.984 40.6202C407.956 40.7886 407.942 40.9625 407.941 41.1421C407.941 41.591 408.028 42.0204 408.202 42.4303C408.377 42.8402 408.621 43.202 408.934 43.5158C409.237 43.8301 409.594 44.0714 410.004 44.2397C410.414 44.408 410.837 44.4978 411.274 44.5091L410.988 44.7952C410.887 44.8963 410.837 45.0141 410.837 45.1488C410.837 45.2835 410.887 45.4013 410.988 45.5023C411.089 45.6033 411.207 45.6538 411.342 45.6538C411.476 45.6538 411.594 45.6033 411.695 45.5023L412.773 44.4249C412.907 44.2902 412.975 44.1331 412.975 43.9535C412.975 43.7739 412.907 43.6168 412.773 43.4821L411.695 42.4047C411.594 42.3037 411.476 42.2532 411.342 42.2532C411.207 42.2532 411.089 42.3037 410.988 42.4047C410.887 42.5057 410.837 42.6236 410.837 42.7582C410.837 42.8929 410.887 43.0108 410.988 43.1118L411.359 43.4821ZM411.241 38.7852C411.566 38.7852 411.881 38.8443 412.184 38.9623C412.487 39.0804 412.75 39.2514 412.975 39.4755C413.199 39.6999 413.37 39.9524 413.489 40.233C413.607 40.5136 413.665 40.811 413.665 41.1253C413.665 41.2375 413.659 41.3468 413.648 41.4532C413.637 41.5596 413.614 41.6635 413.581 41.765C413.536 41.8997 413.539 42.037 413.59 42.1771C413.64 42.3172 413.727 42.4155 413.85 42.472C413.985 42.5282 414.117 42.5282 414.246 42.472C414.375 42.4159 414.462 42.3205 414.507 42.1859C414.563 42.0175 414.605 41.8462 414.633 41.6721C414.662 41.4979 414.676 41.3212 414.675 41.1421C414.675 40.6932 414.594 40.264 414.431 39.8546C414.268 39.4452 414.024 39.0775 413.699 38.7516C413.384 38.4373 413.023 38.1989 412.613 38.0364C412.204 37.8739 411.78 37.7924 411.342 37.792L411.645 37.489C411.735 37.388 411.779 37.2701 411.779 37.1354C411.779 37.0008 411.729 36.8829 411.628 36.7819C411.527 36.6809 411.409 36.6304 411.274 36.6304C411.14 36.6304 411.022 36.6809 410.921 36.7819L409.843 37.8593C409.709 37.994 409.641 38.1511 409.641 38.3307C409.641 38.5103 409.709 38.6674 409.843 38.8021L410.921 39.8795C411.022 39.9805 411.14 40.031 411.274 40.031C411.409 40.031 411.527 39.9805 411.628 39.8795C411.729 39.7785 411.779 39.6606 411.779 39.526C411.779 39.3913 411.729 39.2734 411.628 39.1724L411.241 38.7852ZM411.308 47.876C410.377 47.876 409.501 47.6991 408.682 47.3454C407.863 46.9916 407.15 46.5119 406.544 45.9063C405.938 45.3003 405.458 44.5876 405.105 43.7683C404.752 42.949 404.575 42.0736 404.574 41.1421C404.574 40.2106 404.751 39.3352 405.105 38.5159C405.459 37.6966 405.938 36.9839 406.544 36.3779C407.15 35.7718 407.863 35.2921 408.682 34.9388C409.501 34.5855 410.377 34.4087 411.308 34.4082C412.24 34.4082 413.115 34.5851 413.934 34.9388C414.754 35.2926 415.466 35.7723 416.072 36.3779C416.678 36.9839 417.158 37.6966 417.512 38.5159C417.866 39.3352 418.042 40.2106 418.042 41.1421C418.042 42.0736 417.865 42.949 417.511 43.7683C417.158 44.5876 416.678 45.3003 416.072 45.9063C415.466 46.5124 414.754 46.9923 413.934 47.346C413.115 47.6998 412.24 47.8765 411.308 47.876Z" fill="#E9EAEC"/>
<defs>
<filter id="filter0_f_1134_18413" x="490.237" y="118.125" width="50.5667" height="50.5655" filterUnits="userSpaceOnUse" color-interpolation-filters="sRGB">
<feFlood flood-opacity="0" result="BackgroundImageFix"/>
<feBlend mode="normal" in="SourceGraphic" in2="BackgroundImageFix" result="shape"/>
<feGaussianBlur stdDeviation="3.36695" result="effect1_foregroundBlur_1134_18413"/>
</filter>
<filter id="filter1_f_1134_18413" x="130.992" y="427.485" width="50.5667" height="50.5655" filterUnits="userSpaceOnUse" color-interpolation-filters="sRGB">
<feFlood flood-opacity="0" result="BackgroundImageFix"/>
<feBlend mode="normal" in="SourceGraphic" in2="BackgroundImageFix" result="shape"/>
<feGaussianBlur stdDeviation="3.36695" result="effect1_foregroundBlur_1134_18413"/>
</filter>
<filter id="filter2_f_1134_18413" x="446.382" y="504.967" width="50.5667" height="50.5655" filterUnits="userSpaceOnUse" color-interpolation-filters="sRGB">
<feFlood flood-opacity="0" result="BackgroundImageFix"/>
<feBlend mode="normal" in="SourceGraphic" in2="BackgroundImageFix" result="shape"/>
<feGaussianBlur stdDeviation="3.36695" result="effect1_foregroundBlur_1134_18413"/>
</filter>
<filter id="filter3_f_1134_18413" x="165.376" y="118.122" width="50.5667" height="50.5655" filterUnits="userSpaceOnUse" color-interpolation-filters="sRGB">
<feFlood flood-opacity="0" result="BackgroundImageFix"/>
<feBlend mode="normal" in="SourceGraphic" in2="BackgroundImageFix" result="shape"/>
<feGaussianBlur stdDeviation="3.36695" result="effect1_foregroundBlur_1134_18413"/>
</filter>
<linearGradient id="paint0_linear_1134_18413" x1="235.924" y1="335.145" x2="477.016" y2="372.567" gradientUnits="userSpaceOnUse">
<stop stop-color="#E06C75"/>
<stop offset="1" stop-color="#6B90DF"/>
</linearGradient>
<linearGradient id="paint1_linear_1134_18413" x1="496.973" y1="131.393" x2="534.258" y2="131.996" gradientUnits="userSpaceOnUse">
<stop stop-color="#E06C75"/>
<stop offset="1" stop-color="#6B90DF"/>
</linearGradient>
<linearGradient id="paint2_linear_1134_18413" x1="137.728" y1="440.753" x2="175.013" y2="441.355" gradientUnits="userSpaceOnUse">
<stop stop-color="#E06C75"/>
<stop offset="1" stop-color="#6B90DF"/>
</linearGradient>
<linearGradient id="paint3_linear_1134_18413" x1="453.118" y1="518.235" x2="490.403" y2="518.838" gradientUnits="userSpaceOnUse">
<stop stop-color="#E06C75"/>
<stop offset="1" stop-color="#6B90DF"/>
</linearGradient>
<linearGradient id="paint4_linear_1134_18413" x1="172.112" y1="131.389" x2="209.397" y2="131.992" gradientUnits="userSpaceOnUse">
<stop stop-color="#E06C75"/>
<stop offset="1" stop-color="#6B90DF"/>
</linearGradient>
</defs>
</svg>
