<svg width="594" height="532" viewBox="0 0 594 532" fill="none" xmlns="http://www.w3.org/2000/svg">
<circle cx="215.485" cy="215.485" r="215.485" transform="matrix(1 0 0 -1 86.457 480.621)" fill="#FDFDFD" fill-opacity="0.05"/>
<circle cx="265.316" cy="265.316" r="265.316" transform="matrix(1 0 0 -1 37.3398 531.168)" fill="#FDFDFD" fill-opacity="0.05"/>
<circle cx="157.91" cy="157.91" r="157.91" transform="matrix(1 0 0 -1 142.582 421.602)" fill="#FDFDFD" fill-opacity="0.05"/>
<path d="M193.456 269.702V272.996H182.545V269.702H193.456ZM183.925 252.497V272.996H179.701V252.497H183.925ZM192.034 260.846V264.056H182.545V260.846H192.034ZM193.442 252.497V255.806H182.545V252.497H193.442ZM209.475 267.632C209.475 267.266 209.419 266.938 209.306 266.647C209.203 266.346 209.006 266.074 208.715 265.83C208.424 265.577 208.016 265.328 207.49 265.084C206.964 264.84 206.284 264.586 205.449 264.324C204.519 264.023 203.637 263.685 202.802 263.31C201.976 262.934 201.244 262.498 200.606 262.001C199.977 261.494 199.479 260.907 199.113 260.241C198.756 259.574 198.578 258.8 198.578 257.918C198.578 257.064 198.766 256.289 199.141 255.595C199.517 254.891 200.042 254.29 200.718 253.793C201.394 253.286 202.192 252.896 203.112 252.624C204.041 252.352 205.059 252.216 206.167 252.216C207.678 252.216 208.996 252.488 210.123 253.032C211.249 253.577 212.122 254.323 212.741 255.271C213.37 256.219 213.685 257.303 213.685 258.523H209.489C209.489 257.922 209.363 257.397 209.109 256.946C208.865 256.486 208.49 256.125 207.983 255.862C207.485 255.599 206.856 255.468 206.096 255.468C205.364 255.468 204.754 255.581 204.266 255.806C203.778 256.022 203.412 256.317 203.168 256.693C202.924 257.059 202.802 257.472 202.802 257.932C202.802 258.279 202.886 258.594 203.055 258.875C203.234 259.157 203.496 259.419 203.844 259.663C204.191 259.908 204.618 260.137 205.125 260.353C205.632 260.569 206.218 260.78 206.885 260.987C208.002 261.325 208.982 261.705 209.827 262.127C210.681 262.55 211.395 263.024 211.967 263.549C212.54 264.075 212.971 264.671 213.262 265.337C213.553 266.004 213.699 266.759 213.699 267.604C213.699 268.496 213.525 269.293 213.178 269.997C212.831 270.701 212.328 271.297 211.671 271.785C211.014 272.273 210.231 272.644 209.32 272.898C208.41 273.151 207.391 273.278 206.265 273.278C205.251 273.278 204.252 273.146 203.266 272.883C202.281 272.611 201.385 272.203 200.577 271.659C199.78 271.114 199.141 270.42 198.663 269.575C198.184 268.73 197.945 267.731 197.945 266.576H202.182C202.182 267.214 202.281 267.754 202.478 268.195C202.675 268.636 202.952 268.993 203.309 269.265C203.675 269.537 204.106 269.735 204.604 269.857C205.111 269.979 205.664 270.04 206.265 270.04C206.997 270.04 207.598 269.936 208.067 269.73C208.546 269.523 208.898 269.237 209.123 268.871C209.358 268.505 209.475 268.092 209.475 267.632ZM227.437 265.689H222.214V262.395H227.437C228.244 262.395 228.901 262.263 229.408 262.001C229.915 261.728 230.285 261.353 230.52 260.874C230.755 260.396 230.872 259.856 230.872 259.255C230.872 258.645 230.755 258.077 230.52 257.552C230.285 257.026 229.915 256.604 229.408 256.285C228.901 255.965 228.244 255.806 227.437 255.806H223.678V272.996H219.454V252.497H227.437C229.042 252.497 230.417 252.788 231.562 253.37C232.716 253.943 233.599 254.736 234.209 255.75C234.819 256.763 235.124 257.922 235.124 259.227C235.124 260.55 234.819 261.696 234.209 262.662C233.599 263.629 232.716 264.375 231.562 264.901C230.417 265.426 229.042 265.689 227.437 265.689ZM254.676 269.702V272.996H243.765V269.702H254.676ZM245.145 252.497V272.996H240.921V252.497H245.145ZM253.254 260.846V264.056H243.765V260.846H253.254ZM254.662 252.497V255.806H243.765V252.497H254.662ZM271.906 266.196H276.116C276.031 267.576 275.651 268.801 274.975 269.871C274.309 270.941 273.375 271.776 272.174 272.377C270.982 272.977 269.546 273.278 267.865 273.278C266.551 273.278 265.374 273.052 264.332 272.602C263.29 272.142 262.398 271.485 261.657 270.631C260.925 269.777 260.366 268.744 259.981 267.534C259.597 266.323 259.404 264.966 259.404 263.465V262.043C259.404 260.541 259.601 259.185 259.995 257.974C260.399 256.754 260.972 255.717 261.713 254.863C262.464 254.009 263.36 253.352 264.402 252.892C265.444 252.432 266.608 252.202 267.894 252.202C269.602 252.202 271.043 252.511 272.216 253.131C273.398 253.75 274.314 254.605 274.961 255.693C275.618 256.782 276.012 258.021 276.144 259.41H271.92C271.873 258.584 271.709 257.885 271.427 257.312C271.146 256.73 270.719 256.294 270.146 256.003C269.583 255.703 268.832 255.552 267.894 255.552C267.19 255.552 266.575 255.684 266.049 255.947C265.524 256.209 265.083 256.608 264.726 257.143C264.369 257.678 264.102 258.354 263.923 259.171C263.754 259.978 263.67 260.926 263.67 262.015V263.465C263.67 264.525 263.75 265.459 263.909 266.266C264.069 267.064 264.313 267.74 264.641 268.294C264.979 268.838 265.411 269.251 265.937 269.533C266.472 269.805 267.115 269.941 267.865 269.941C268.748 269.941 269.475 269.8 270.048 269.519C270.62 269.237 271.057 268.819 271.357 268.266C271.667 267.712 271.85 267.022 271.906 266.196ZM286.264 252.497V272.996H282.054V252.497H286.264ZM301.691 256.003L296.116 272.996H291.625L299.241 252.497H302.099L301.691 256.003ZM306.323 272.996L300.734 256.003L300.283 252.497H303.169L310.828 272.996H306.323ZM306.07 265.365V268.674H295.243V265.365H306.07ZM328.79 269.702V272.996H318.47V269.702H328.79ZM319.836 252.497V272.996H315.612V252.497H319.836ZM338.586 252.497V272.996H334.376V252.497H338.586ZM356.097 267.632C356.097 267.266 356.041 266.938 355.928 266.647C355.825 266.346 355.628 266.074 355.337 265.83C355.046 265.577 354.638 265.328 354.112 265.084C353.586 264.84 352.906 264.586 352.071 264.324C351.141 264.023 350.259 263.685 349.424 263.31C348.598 262.934 347.866 262.498 347.228 262.001C346.599 261.494 346.101 260.907 345.735 260.241C345.379 259.574 345.2 258.8 345.2 257.918C345.2 257.064 345.388 256.289 345.763 255.595C346.139 254.891 346.664 254.29 347.34 253.793C348.016 253.286 348.814 252.896 349.734 252.624C350.663 252.352 351.681 252.216 352.789 252.216C354.3 252.216 355.618 252.488 356.745 253.032C357.871 253.577 358.744 254.323 359.363 255.271C359.992 256.219 360.307 257.303 360.307 258.523H356.111C356.111 257.922 355.985 257.397 355.731 256.946C355.487 256.486 355.112 256.125 354.605 255.862C354.107 255.599 353.479 255.468 352.718 255.468C351.986 255.468 351.376 255.581 350.888 255.806C350.4 256.022 350.034 256.317 349.79 256.693C349.546 257.059 349.424 257.472 349.424 257.932C349.424 258.279 349.508 258.594 349.677 258.875C349.856 259.157 350.118 259.419 350.466 259.663C350.813 259.908 351.24 260.137 351.747 260.353C352.254 260.569 352.84 260.78 353.507 260.987C354.624 261.325 355.604 261.705 356.449 262.127C357.303 262.55 358.017 263.024 358.589 263.549C359.162 264.075 359.593 264.671 359.884 265.337C360.175 266.004 360.321 266.759 360.321 267.604C360.321 268.496 360.147 269.293 359.8 269.997C359.453 270.701 358.95 271.297 358.293 271.785C357.636 272.273 356.853 272.644 355.942 272.898C355.032 273.151 354.013 273.278 352.887 273.278C351.874 273.278 350.874 273.146 349.888 272.883C348.903 272.611 348.007 272.203 347.199 271.659C346.402 271.114 345.763 270.42 345.285 269.575C344.806 268.73 344.567 267.731 344.567 266.576H348.804C348.804 267.214 348.903 267.754 349.1 268.195C349.297 268.636 349.574 268.993 349.931 269.265C350.297 269.537 350.728 269.735 351.226 269.857C351.733 269.979 352.286 270.04 352.887 270.04C353.619 270.04 354.22 269.936 354.689 269.73C355.168 269.523 355.52 269.237 355.745 268.871C355.98 268.505 356.097 268.092 356.097 267.632ZM375.241 252.497V272.996H371.032V252.497H375.241ZM381.549 252.497V255.806H364.823V252.497H381.549ZM393.654 256.003L388.078 272.996H383.587L391.204 252.497H394.062L393.654 256.003ZM398.286 272.996L392.696 256.003L392.246 252.497H395.132L402.791 272.996H398.286ZM398.032 265.365V268.674H387.206V265.365H398.032ZM418.247 267.632C418.247 267.266 418.19 266.938 418.078 266.647C417.974 266.346 417.777 266.074 417.486 265.83C417.195 265.577 416.787 265.328 416.261 265.084C415.736 264.84 415.055 264.586 414.22 264.324C413.291 264.023 412.409 263.685 411.573 263.31C410.747 262.934 410.015 262.498 409.377 262.001C408.748 261.494 408.251 260.907 407.885 260.241C407.528 259.574 407.35 258.8 407.35 257.918C407.35 257.064 407.537 256.289 407.913 255.595C408.288 254.891 408.814 254.29 409.49 253.793C410.165 253.286 410.963 252.896 411.883 252.624C412.812 252.352 413.83 252.216 414.938 252.216C416.449 252.216 417.768 252.488 418.894 253.032C420.02 253.577 420.893 254.323 421.513 255.271C422.142 256.219 422.456 257.303 422.456 258.523H418.261C418.261 257.922 418.134 257.397 417.88 256.946C417.636 256.486 417.261 256.125 416.754 255.862C416.257 255.599 415.628 255.468 414.868 255.468C414.136 255.468 413.525 255.581 413.037 255.806C412.549 256.022 412.183 256.317 411.939 256.693C411.695 257.059 411.573 257.472 411.573 257.932C411.573 258.279 411.658 258.594 411.827 258.875C412.005 259.157 412.268 259.419 412.615 259.663C412.962 259.908 413.389 260.137 413.896 260.353C414.403 260.569 414.99 260.78 415.656 260.987C416.773 261.325 417.754 261.705 418.598 262.127C419.453 262.55 420.166 263.024 420.738 263.549C421.311 264.075 421.743 264.671 422.034 265.337C422.325 266.004 422.47 266.759 422.47 267.604C422.47 268.496 422.297 269.293 421.949 269.997C421.602 270.701 421.1 271.297 420.443 271.785C419.786 272.273 419.002 272.644 418.092 272.898C417.181 273.151 416.163 273.278 415.037 273.278C414.023 273.278 413.023 273.146 412.038 272.883C411.052 272.611 410.156 272.203 409.349 271.659C408.551 271.114 407.913 270.42 407.434 269.575C406.955 268.73 406.716 267.731 406.716 266.576H410.954C410.954 267.214 411.052 267.754 411.249 268.195C411.446 268.636 411.723 268.993 412.08 269.265C412.446 269.537 412.878 269.735 413.375 269.857C413.882 269.979 414.436 270.04 415.037 270.04C415.769 270.04 416.369 269.936 416.839 269.73C417.317 269.523 417.669 269.237 417.895 268.871C418.129 268.505 418.247 268.092 418.247 267.632Z" fill="url(#paint0_linear_1137_19332)"/>
<g filter="url(#filter0_f_1137_19332)">
<circle cx="466.325" cy="56.9474" r="18.5477" transform="rotate(-34.7184 466.325 56.9474)" fill="url(#paint1_linear_1137_19332)"/>
</g>
<path d="M448.987 117.867C448.987 120.282 448.538 122.301 447.638 123.924C446.739 125.537 445.434 126.754 443.723 127.576C442.012 128.387 439.949 128.793 437.534 128.793H431.58V107.352H438.179C440.398 107.352 442.315 107.753 443.928 108.555C445.541 109.347 446.788 110.525 447.668 112.089C448.547 113.644 448.987 115.57 448.987 117.867ZM445.321 117.97C445.321 116.21 445.042 114.763 444.485 113.629C443.938 112.495 443.126 111.654 442.051 111.107C440.985 110.549 439.67 110.271 438.106 110.271H435.099V125.845H437.592C440.183 125.845 442.119 125.185 443.4 123.865C444.681 122.546 445.321 120.58 445.321 117.97ZM465.692 128.793L463.595 122.839H455.397L453.3 128.793H449.59L457.568 107.264H461.469L469.432 128.793H465.692ZM462.686 119.818L460.648 113.952C460.569 113.697 460.457 113.341 460.31 112.881C460.164 112.412 460.017 111.938 459.87 111.458C459.724 110.97 459.601 110.559 459.504 110.227C459.406 110.627 459.284 111.077 459.137 111.576C459 112.065 458.863 112.524 458.726 112.954C458.599 113.385 458.502 113.717 458.433 113.952L456.38 119.818H462.686ZM478.497 128.793H474.962V110.344H468.685V107.352H484.759V110.344H478.497V128.793ZM500.129 128.793L498.032 122.839H489.834L487.737 128.793H484.027L492.005 107.264H495.906L503.869 128.793H500.129ZM497.123 119.818L495.084 113.952C495.006 113.697 494.894 113.341 494.747 112.881C494.6 112.412 494.454 111.938 494.307 111.458C494.16 110.97 494.038 110.559 493.94 110.227C493.843 110.627 493.72 111.077 493.574 111.576C493.437 112.065 493.3 112.524 493.163 112.954C493.036 113.385 492.938 113.717 492.87 113.952L490.817 119.818H497.123Z" fill="#FDFDFD"/>
<g filter="url(#filter1_f_1137_19332)">
<circle cx="107.079" cy="366.307" r="18.5477" transform="rotate(-34.7184 107.079 366.307)" fill="url(#paint2_linear_1137_19332)"/>
</g>
<path d="M84.5946 416.708V430.581C84.5946 432.077 84.2768 433.416 83.6413 434.599C83.0156 435.782 82.0673 436.721 80.7963 437.415C79.5253 438.1 77.9267 438.442 76.0007 438.442C73.2534 438.442 71.1611 437.723 69.7239 436.286C68.2964 434.839 67.5827 432.918 67.5827 430.522V416.708H71.1024V430.214C71.1024 432.004 71.5228 433.324 72.3637 434.174C73.2045 435.025 74.4608 435.45 76.1327 435.45C77.2863 435.45 78.2249 435.25 78.9484 434.849C79.6817 434.438 80.2194 433.842 80.5616 433.06C80.9136 432.268 81.0896 431.314 81.0896 430.2V416.708H84.5946ZM104.702 438.148H100.698L95.3015 429.364L89.8753 438.148H86.1063L93.2337 427.032L86.5903 416.708H90.4766L95.4628 424.832L100.42 416.708H104.189L97.516 427.135L104.702 438.148ZM110.525 415.358H113.15V445.188H110.525V415.358ZM138.567 416.708V430.581C138.567 432.077 138.249 433.416 137.614 434.599C136.988 435.782 136.039 436.721 134.768 437.415C133.497 438.1 131.899 438.442 129.973 438.442C127.226 438.442 125.133 437.723 123.696 436.286C122.269 434.839 121.555 432.918 121.555 430.522V416.708H125.075V430.214C125.075 432.004 125.495 433.324 126.336 434.174C127.177 435.025 128.433 435.45 130.105 435.45C131.259 435.45 132.197 435.25 132.921 434.849C133.654 434.438 134.192 433.842 134.534 433.06C134.886 432.268 135.062 431.314 135.062 430.2V416.708H138.567ZM142.85 438.148V416.708H146.37V438.148H142.85Z" fill="#FDFDFD"/>
<path d="M82.8192 278.616C78.3395 276.854 68.808 272.403 61.3174 264.079C60.5229 263.191 59.9487 262.128 59.6414 260.977C58.2568 255.878 54.3778 240.125 53.8778 221.822C53.839 220.757 54.209 219.719 54.9119 218.918C55.6147 218.118 56.5971 217.617 57.6576 217.518C62.322 217.075 71.358 216.453 85.3617 216.453C99.3653 216.453 108.4 217.075 113.066 217.518C114.126 217.617 115.108 218.118 115.811 218.919C116.513 219.719 116.883 220.758 116.844 221.822C116.344 240.125 112.466 255.878 111.08 260.977C110.773 262.128 110.199 263.191 109.404 264.079C101.915 272.403 92.3838 276.854 87.9041 278.616C86.2705 279.261 84.4528 279.261 82.8192 278.616Z" fill="#FDFDFD" fill-opacity="0.05"/>
<path d="M82.8192 278.616C78.3395 276.854 68.808 272.403 61.3174 264.079C60.5229 263.191 59.9487 262.128 59.6414 260.977C58.2568 255.878 54.3778 240.125 53.8778 221.822C53.839 220.757 54.209 219.719 54.9119 218.918C55.6147 218.118 56.5971 217.617 57.6576 217.518C62.322 217.075 71.358 216.453 85.3617 216.453C99.3653 216.453 108.4 217.075 113.066 217.518C114.126 217.617 115.108 218.118 115.811 218.919C116.513 219.719 116.883 220.758 116.844 221.822C116.344 240.125 112.466 255.878 111.08 260.977C110.773 262.128 110.199 263.191 109.404 264.079C101.915 272.403 92.3838 276.854 87.9041 278.616C86.2705 279.261 84.4528 279.261 82.8192 278.616Z" stroke="#E9EAEC" stroke-width="4.65538" stroke-linejoin="round"/>
<path d="M71.8435 260.005C76.128 264.289 81.1768 267.045 83.7193 268.275C84.7615 268.778 85.9568 268.778 86.9991 268.275C89.5415 267.045 94.5903 264.289 98.8748 260.005C98.8748 260.005 100.608 254.231 101.54 246.732C101.757 244.989 100.372 243.486 98.615 243.486H71.0746C69.7486 243.486 68.5848 242.618 68.2664 241.329C67.2849 237.317 66.5651 233.245 66.1114 229.14C66.0685 228.757 66.1039 228.369 66.2154 228C66.3268 227.632 66.512 227.289 66.7597 226.994C67.0074 226.699 67.3125 226.458 67.6564 226.284C68.0004 226.11 68.376 226.008 68.7605 225.984C71.9997 225.764 77.7844 225.465 85.3592 225.465C97.373 225.465 104.882 226.216 104.882 226.216" stroke="#E9EAEC" stroke-width="4.65538" stroke-linecap="round" stroke-linejoin="round"/>
<path d="M518.317 141.967C518.317 135.332 530.756 129.953 546.099 129.953C561.443 129.953 573.882 135.332 573.882 141.967C573.882 141.967 574.632 149.476 574.632 161.49C574.632 173.503 573.882 181.012 573.882 181.012C573.882 187.647 561.443 193.026 546.099 193.026C530.756 193.026 518.317 187.647 518.317 181.012C518.317 181.012 517.566 173.503 517.566 161.49C517.566 149.476 518.317 141.967 518.317 141.967Z" fill="#FDFDFD" fill-opacity="0.05"/>
<path d="M546.099 153.981C561.442 153.981 573.881 148.602 573.881 141.967C573.881 135.332 561.442 129.953 546.099 129.953C530.755 129.953 518.316 135.332 518.316 141.967C518.316 148.602 530.755 153.981 546.099 153.981Z" fill="#FDFDFD" fill-opacity="0.05"/>
<path d="M546.099 153.981C561.442 153.981 573.881 148.602 573.881 141.967C573.881 135.332 561.442 129.953 546.099 129.953C530.755 129.953 518.316 135.332 518.316 141.967C518.316 148.602 530.755 153.981 546.099 153.981Z" fill="#FDFDFD" fill-opacity="0.05"/>
<path d="M573.881 141.969C573.881 148.603 561.442 153.983 546.099 153.983C530.755 153.983 518.316 148.603 518.316 141.969" stroke="#E9EAEC" stroke-width="4.50521" stroke-linecap="round" stroke-linejoin="round"/>
<path d="M574.632 161.793C574.632 168.258 561.857 173.499 546.099 173.499C530.342 173.499 517.566 168.258 517.566 161.793" stroke="#E9EAEC" stroke-width="4.50521" stroke-linecap="round" stroke-linejoin="round"/>
<path d="M527.328 161.49C527.527 161.49 527.718 161.411 527.859 161.27C528 161.129 528.079 160.938 528.079 160.739C528.079 160.54 528 160.349 527.859 160.208C527.718 160.067 527.527 159.988 527.328 159.988" stroke="#E9EAEC" stroke-width="4.50521" stroke-linecap="round" stroke-linejoin="round"/>
<path d="M527.329 161.49C527.13 161.49 526.939 161.411 526.798 161.27C526.657 161.129 526.578 160.938 526.578 160.739C526.578 160.54 526.657 160.349 526.798 160.208C526.939 160.067 527.13 159.988 527.329 159.988" stroke="#E9EAEC" stroke-width="4.50521" stroke-linecap="round" stroke-linejoin="round"/>
<path d="M518.317 141.967C518.317 135.332 530.756 129.953 546.099 129.953C561.443 129.953 573.882 135.332 573.882 141.967C573.882 141.967 574.632 149.476 574.632 161.49C574.632 173.503 573.882 181.012 573.882 181.012C573.882 187.647 561.443 193.026 546.099 193.026C530.756 193.026 518.317 187.647 518.317 181.012C518.317 181.012 517.566 173.503 517.566 161.49C517.566 149.476 518.317 141.967 518.317 141.967Z" stroke="#E9EAEC" stroke-width="4.50521" stroke-linecap="round" stroke-linejoin="round"/>
<path d="M527.328 181.013C527.527 181.013 527.718 180.934 527.859 180.794C528 180.653 528.079 180.462 528.079 180.263C528.079 180.063 528 179.872 527.859 179.732C527.718 179.591 527.527 179.512 527.328 179.512" stroke="#E9EAEC" stroke-width="4.50521" stroke-linecap="round" stroke-linejoin="round"/>
<path d="M527.329 181.013C527.13 181.013 526.939 180.934 526.798 180.794C526.657 180.653 526.578 180.462 526.578 180.263C526.578 180.063 526.657 179.872 526.798 179.732C526.939 179.591 527.13 179.512 527.329 179.512" stroke="#E9EAEC" stroke-width="4.50521" stroke-linecap="round" stroke-linejoin="round"/>
<path d="M537.09 164.119C537.289 164.119 537.48 164.04 537.621 163.899C537.762 163.758 537.841 163.567 537.841 163.368C537.841 163.169 537.762 162.978 537.621 162.837C537.48 162.696 537.289 162.617 537.09 162.617" stroke="#E9EAEC" stroke-width="4.50521" stroke-linecap="round" stroke-linejoin="round"/>
<path d="M537.091 164.119C536.892 164.119 536.701 164.04 536.56 163.899C536.419 163.758 536.34 163.567 536.34 163.368C536.34 163.169 536.419 162.978 536.56 162.837C536.701 162.696 536.892 162.617 537.091 162.617" stroke="#E9EAEC" stroke-width="4.50521" stroke-linecap="round" stroke-linejoin="round"/>
<path d="M537.09 183.638C537.289 183.638 537.48 183.559 537.621 183.419C537.762 183.278 537.841 183.087 537.841 182.888C537.841 182.688 537.762 182.497 537.621 182.357C537.48 182.216 537.289 182.137 537.09 182.137" stroke="#E9EAEC" stroke-width="4.50521" stroke-linecap="round" stroke-linejoin="round"/>
<path d="M537.091 183.638C536.892 183.638 536.701 183.559 536.56 183.419C536.419 183.278 536.34 183.087 536.34 182.888C536.34 182.688 536.419 182.497 536.56 182.357C536.701 182.216 536.892 182.137 537.091 182.137" stroke="#E9EAEC" stroke-width="4.50521" stroke-linecap="round" stroke-linejoin="round"/>
<path d="M506.096 373.701C505.791 369.866 502.834 366.955 498.996 366.675C494.582 366.352 487.772 366.027 478.221 366.027C468.67 366.027 461.858 366.352 457.444 366.675C453.606 366.955 450.649 369.866 450.345 373.703C450.136 376.397 449.983 379.095 449.886 381.796C449.749 385.548 449.683 389.303 449.688 393.059C449.688 401.877 450.014 408.228 450.345 412.416C450.649 416.253 453.606 419.162 457.444 419.444C461.268 419.723 466.887 420.004 474.528 420.075C474.768 419.659 475.061 419.27 475.403 418.917C474.646 418.359 474.031 417.631 473.608 416.791C473.184 415.951 472.964 415.023 472.965 414.083C472.965 412.101 473.924 410.344 475.403 409.249C474.443 408.252 473.856 406.954 473.742 405.574C473.628 404.194 473.994 402.817 474.778 401.676C475.562 400.535 476.716 399.699 478.045 399.311C479.374 398.922 480.796 399.004 482.071 399.543C483.241 398.078 484.649 396.822 486.237 395.826L485.908 394.515C485.581 393.209 485.703 391.832 486.253 390.603C486.803 389.374 487.749 388.366 488.941 387.74C490.133 387.113 491.5 386.906 492.824 387.15C494.148 387.394 495.351 388.075 496.242 389.085C496.97 388.259 497.911 387.65 498.963 387.323C500.014 386.996 501.135 386.965 502.203 387.232C503.855 387.645 505.572 388.705 506.742 390.075C506.694 384.614 506.528 379.147 506.096 373.701Z" fill="#FDFDFD" fill-opacity="0.05"/>
<path d="M506.556 381.796H449.887C450.01 378.513 450.177 375.829 450.346 373.701C450.65 369.866 453.607 366.955 457.445 366.675C461.86 366.352 468.67 366.027 478.221 366.027C487.773 366.027 494.583 366.352 498.996 366.675C502.835 366.955 505.792 369.866 506.097 373.703C506.265 375.829 506.432 378.513 506.556 381.796Z" fill="#FDFDFD" fill-opacity="0.05"/>
<path d="M496.24 429.101C489.37 429.101 484.441 424.497 484.269 417.628C484.24 416.447 484.226 415.265 484.227 414.084C484.227 412.797 484.242 411.618 484.269 410.54C484.441 403.671 489.37 399.066 496.24 399.066C503.111 399.066 508.04 403.671 508.212 410.54C508.239 411.618 508.254 412.797 508.254 414.084C508.254 415.371 508.239 416.55 508.212 417.628C508.04 424.497 503.111 429.101 496.24 429.101Z" fill="#FDFDFD" fill-opacity="0.05"/>
<path d="M450.438 381.797H506.002" stroke="#E9EAEC" stroke-width="4.65538" stroke-linecap="round" stroke-linejoin="round"/>
<path d="M461.703 393.059H479.724" stroke="#E9EAEC" stroke-width="4.65538" stroke-linecap="round" stroke-linejoin="round"/>
<path d="M458.699 374.285H461.703" stroke="#E9EAEC" stroke-width="4.65538" stroke-linecap="round" stroke-linejoin="round"/>
<path d="M469.211 374.285H472.214" stroke="#E9EAEC" stroke-width="4.65538" stroke-linecap="round" stroke-linejoin="round"/>
<path d="M473.715 420.064C466.484 419.983 461.126 419.711 457.441 419.443C453.603 419.16 450.649 416.251 450.345 412.414C450.013 408.229 449.688 401.877 449.688 393.059C449.688 384.242 450.013 377.891 450.345 373.701C450.649 369.866 453.606 366.955 457.444 366.675C461.859 366.352 468.669 366.027 478.22 366.027C487.772 366.027 494.582 366.352 498.997 366.675C502.835 366.955 505.792 369.866 506.096 373.703C506.428 377.888 506.753 384.24 506.753 393.059C506.753 393.827 506.75 394.578 506.746 395.311" stroke="#E9EAEC" stroke-width="4.65538" stroke-linecap="round" stroke-linejoin="round"/>
<path d="M461.703 405.074H470.714" stroke="#E9EAEC" stroke-width="4.65538" stroke-linecap="round" stroke-linejoin="round"/>
<path d="M496.24 429.101C489.37 429.101 484.441 424.497 484.269 417.628C484.24 416.447 484.226 415.265 484.227 414.084C484.227 412.797 484.242 411.618 484.269 410.54C484.441 403.671 489.37 399.066 496.24 399.066C503.111 399.066 508.04 403.671 508.212 410.54C508.239 411.618 508.254 412.797 508.254 414.084C508.254 415.371 508.239 416.55 508.212 417.628C508.04 424.497 503.111 429.101 496.24 429.101Z" stroke="#E9EAEC" stroke-width="4.65538" stroke-linejoin="round"/>
<path d="M508.254 408.078L512.759 405.074" stroke="#E9EAEC" stroke-width="4.65538" stroke-linecap="round" stroke-linejoin="round"/>
<path d="M508.254 420.09L512.759 423.093" stroke="#E9EAEC" stroke-width="4.65538" stroke-linecap="round" stroke-linejoin="round"/>
<path d="M513.51 414.082H508.254" stroke="#E9EAEC" stroke-width="4.65538" stroke-linecap="round" stroke-linejoin="round"/>
<path d="M484.228 408.078L479.723 405.074" stroke="#E9EAEC" stroke-width="4.65538" stroke-linecap="round" stroke-linejoin="round"/>
<path d="M484.228 420.09L479.723 423.093" stroke="#E9EAEC" stroke-width="4.65538" stroke-linecap="round" stroke-linejoin="round"/>
<path d="M478.973 414.082H484.229" stroke="#E9EAEC" stroke-width="4.65538" stroke-linecap="round" stroke-linejoin="round"/>
<path d="M493.236 399.066L491.734 393.059" stroke="#E9EAEC" stroke-width="4.65538" stroke-linecap="round" stroke-linejoin="round"/>
<path d="M499.246 399.066L500.748 393.059" stroke="#E9EAEC" stroke-width="4.65538" stroke-linecap="round" stroke-linejoin="round"/>
<path d="M508.254 408.074C508.254 408.074 504.5 411.078 496.24 411.078C487.981 411.078 484.227 408.074 484.227 408.074" stroke="#E9EAEC" stroke-width="4.65538" stroke-linecap="round" stroke-linejoin="round"/>
<path d="M258.73 449.019C253.404 443.796 249.715 442.326 248.567 441.966C246.277 441.896 243.986 441.862 241.695 441.863C233.229 441.863 227.415 442.296 223.79 442.711C220.815 443.051 218.586 445.283 218.259 448.259C217.827 452.165 217.367 458.721 217.367 468.895C217.367 479.068 217.828 485.624 218.259 489.53C218.586 492.506 220.815 494.738 223.79 495.078C226.715 495.412 231.065 495.76 237.085 495.881C236.882 492.371 236.968 489.863 237.105 488.221C237.334 485.49 238.638 483.274 240.19 481.724L256.868 465.045C258.953 462.96 262.312 461.16 265.929 461.272C265.906 460.4 265.88 459.566 265.85 458.767C265.376 457.443 263.757 453.946 258.73 449.019Z" fill="#FDFDFD" fill-opacity="0.05"/>
<path d="M248.567 441.965C249.718 442.328 253.405 443.801 258.725 449.016C263.753 453.944 265.371 457.442 265.845 458.767L265.867 459.375C263.046 459.795 257.972 459.472 254.122 459.117C252.654 458.986 251.279 458.345 250.234 457.305C249.19 456.265 248.543 454.892 248.406 453.425C248.044 449.638 247.722 444.686 248.163 441.953L248.567 441.967V441.965Z" fill="#FDFDFD" fill-opacity="0.05"/>
<path d="M272.328 480.509C274.294 478.545 275.045 475.674 273.402 473.434C272.675 472.452 271.876 471.528 271.009 470.668C270.009 469.668 269.077 468.887 268.243 468.276C266.003 466.632 263.132 467.384 261.167 469.348L244.489 486.026C243.755 486.761 243.252 487.693 243.166 488.729C243.048 490.136 242.962 492.527 243.189 496.065C243.229 496.695 243.497 497.288 243.943 497.734C244.389 498.18 244.983 498.448 245.612 498.489C249.149 498.716 251.541 498.629 252.948 498.51C253.984 498.424 254.916 497.923 255.651 497.186L272.328 480.509Z" fill="#FDFDFD" fill-opacity="0.05"/>
<path d="M268.728 484.111C268.724 484.093 268.075 481.25 264.251 477.427C260.415 473.591 257.566 472.952 257.566 472.952L261.168 469.348C263.133 467.385 266.004 466.632 268.245 468.277C269.226 469.003 270.15 469.802 271.009 470.669C272.009 471.669 272.792 472.602 273.401 473.434C275.046 475.675 274.293 478.546 272.33 480.51L268.728 484.111Z" fill="#FDFDFD" fill-opacity="0.05"/>
<path d="M265.85 458.767C265.376 457.443 263.757 453.946 258.73 449.019C253.404 443.796 249.715 442.326 248.567 441.966C246.277 441.896 243.986 441.862 241.695 441.863C233.229 441.863 227.415 442.296 223.79 442.711C220.815 443.051 218.586 445.283 218.259 448.259C217.827 452.165 217.367 458.721 217.367 468.895C217.367 479.068 217.828 485.624 218.259 489.53C218.586 492.506 220.815 494.738 223.79 495.078C226.355 495.372 230.016 495.673 234.938 495.826" stroke="#E9EAEC" stroke-width="4.05469" stroke-linecap="round" stroke-linejoin="round"/>
<path d="M265.867 459.375C263.046 459.795 257.972 459.472 254.122 459.117C252.654 458.986 251.279 458.345 250.234 457.305C249.19 456.265 248.543 454.892 248.406 453.425C248.044 449.638 247.722 444.686 248.163 441.953" stroke="#E9EAEC" stroke-width="4.05469" stroke-linecap="round" stroke-linejoin="round"/>
<path d="M268.728 484.11C268.728 484.11 268.088 481.261 264.251 477.426C260.415 473.589 257.566 472.949 257.566 472.949" stroke="#E9EAEC" stroke-width="4.05469" stroke-linecap="round" stroke-linejoin="round"/>
<path d="M226.828 455.379L232.234 460.785L238.992 451.324" stroke="#E9EAEC" stroke-width="4.05469" stroke-linecap="round" stroke-linejoin="round"/>
<path d="M226.828 470.246L232.234 475.652L238.992 466.191" stroke="#E9EAEC" stroke-width="4.05469" stroke-linecap="round" stroke-linejoin="round"/>
<path d="M272.328 480.509C274.294 478.545 275.045 475.674 273.402 473.434C272.675 472.452 271.876 471.528 271.009 470.668C270.009 469.668 269.077 468.887 268.243 468.276C266.003 466.632 263.132 467.384 261.167 469.348L244.489 486.026C243.755 486.761 243.252 487.693 243.166 488.729C243.048 490.136 242.962 492.527 243.189 496.065C243.229 496.695 243.497 497.288 243.943 497.734C244.389 498.18 244.983 498.448 245.612 498.489C249.149 498.716 251.541 498.629 252.948 498.51C253.984 498.424 254.916 497.923 255.651 497.186L272.328 480.509Z" stroke="#E9EAEC" stroke-width="4.05469" stroke-linecap="round" stroke-linejoin="round"/>
<circle cx="26.2622" cy="26.2622" r="26.2622" transform="matrix(1 0 0 -1 541.289 340.758)" fill="#FDFDFD" fill-opacity="0.05"/>
<circle cx="21.5485" cy="21.5485" r="21.5485" transform="matrix(1 0 0 -1 546.004 336.043)" fill="#FDFDFD" fill-opacity="0.05"/>
<circle cx="14.8146" cy="14.8146" r="14.8146" transform="matrix(1 0 0 -1 552.738 329.309)" fill="#FDFDFD" fill-opacity="0.05"/>
<path d="M567.605 316.836C567.279 316.847 566.968 316.794 566.671 316.676C566.374 316.558 566.112 316.387 565.888 316.162C565.663 315.938 565.492 315.685 565.374 315.405C565.256 315.124 565.197 314.827 565.197 314.512C565.197 314.4 565.203 314.291 565.214 314.184C565.225 314.077 565.248 313.973 565.282 313.873C565.326 313.738 565.324 313.603 565.273 313.469C565.223 313.334 565.136 313.239 565.012 313.183C564.877 313.126 564.746 313.126 564.617 313.183C564.488 313.239 564.401 313.334 564.356 313.469C564.299 313.637 564.258 313.805 564.23 313.974C564.202 314.142 564.188 314.316 564.187 314.496C564.187 314.945 564.274 315.374 564.449 315.784C564.623 316.194 564.867 316.556 565.181 316.869C565.484 317.184 565.84 317.425 566.25 317.593C566.66 317.762 567.083 317.851 567.521 317.863L567.234 318.149C567.133 318.25 567.083 318.368 567.083 318.502C567.083 318.637 567.133 318.755 567.234 318.856C567.335 318.957 567.453 319.007 567.588 319.007C567.723 319.007 567.84 318.957 567.941 318.856L569.019 317.778C569.154 317.644 569.221 317.487 569.221 317.307C569.221 317.127 569.154 316.97 569.019 316.836L567.941 315.758C567.84 315.657 567.723 315.607 567.588 315.607C567.453 315.607 567.335 315.657 567.234 315.758C567.133 315.859 567.083 315.977 567.083 316.112C567.083 316.246 567.133 316.364 567.234 316.465L567.605 316.836ZM567.487 312.139C567.812 312.139 568.127 312.198 568.43 312.316C568.733 312.434 568.996 312.605 569.221 312.829C569.445 313.053 569.617 313.306 569.735 313.587C569.853 313.867 569.912 314.165 569.911 314.479C569.911 314.591 569.905 314.7 569.894 314.807C569.883 314.913 569.861 315.017 569.827 315.119C569.782 315.253 569.785 315.391 569.836 315.531C569.886 315.671 569.973 315.769 570.096 315.826C570.231 315.882 570.363 315.882 570.492 315.826C570.622 315.769 570.708 315.674 570.753 315.539C570.809 315.371 570.851 315.2 570.879 315.026C570.908 314.851 570.922 314.675 570.921 314.496C570.921 314.047 570.84 313.618 570.677 313.208C570.514 312.799 570.27 312.431 569.945 312.105C569.63 311.791 569.269 311.552 568.859 311.39C568.45 311.227 568.026 311.146 567.588 311.146L567.891 310.842C567.981 310.741 568.026 310.624 568.026 310.489C568.026 310.354 567.975 310.236 567.874 310.135C567.773 310.034 567.655 309.984 567.521 309.984C567.386 309.984 567.268 310.034 567.167 310.135L566.09 311.213C565.955 311.348 565.888 311.505 565.888 311.684C565.888 311.864 565.955 312.021 566.09 312.156L567.167 313.233C567.268 313.334 567.386 313.385 567.521 313.385C567.655 313.385 567.773 313.334 567.874 313.233C567.975 313.132 568.026 313.014 568.026 312.879C568.026 312.745 567.975 312.627 567.874 312.526L567.487 312.139ZM567.554 321.23C566.623 321.23 565.747 321.053 564.928 320.699C564.109 320.345 563.396 319.865 562.79 319.26C562.184 318.654 561.704 317.941 561.351 317.122C560.998 316.303 560.821 315.427 560.82 314.496C560.82 313.564 560.997 312.689 561.351 311.869C561.705 311.05 562.184 310.337 562.79 309.731C563.396 309.125 564.109 308.646 564.928 308.292C565.747 307.939 566.623 307.762 567.554 307.762C568.486 307.762 569.361 307.939 570.18 308.292C571 308.646 571.712 309.126 572.318 309.731C572.924 310.337 573.404 311.05 573.758 311.869C574.112 312.689 574.289 313.564 574.288 314.496C574.288 315.427 574.111 316.303 573.757 317.122C573.404 317.941 572.924 318.654 572.318 319.26C571.712 319.866 571 320.346 570.18 320.7C569.361 321.053 568.486 321.23 567.554 321.23Z" fill="#E9EAEC"/>
<defs>
<filter id="filter0_f_1137_19332" x="441.043" y="31.6645" width="50.5655" height="50.5655" filterUnits="userSpaceOnUse" color-interpolation-filters="sRGB">
<feFlood flood-opacity="0" result="BackgroundImageFix"/>
<feBlend mode="normal" in="SourceGraphic" in2="BackgroundImageFix" result="shape"/>
<feGaussianBlur stdDeviation="3.36695" result="effect1_foregroundBlur_1137_19332"/>
</filter>
<filter id="filter1_f_1137_19332" x="81.7973" y="341.024" width="50.5655" height="50.5655" filterUnits="userSpaceOnUse" color-interpolation-filters="sRGB">
<feFlood flood-opacity="0" result="BackgroundImageFix"/>
<feBlend mode="normal" in="SourceGraphic" in2="BackgroundImageFix" result="shape"/>
<feGaussianBlur stdDeviation="3.36695" result="effect1_foregroundBlur_1137_19332"/>
</filter>
<linearGradient id="paint0_linear_1137_19332" x1="186.727" y1="248.684" x2="427.819" y2="286.106" gradientUnits="userSpaceOnUse">
<stop stop-color="#E06C75"/>
<stop offset="1" stop-color="#6B90DF"/>
</linearGradient>
<linearGradient id="paint1_linear_1137_19332" x1="490.334" y1="61.8934" x2="457.566" y2="38.3997" gradientUnits="userSpaceOnUse">
<stop stop-color="#6B90DF"/>
<stop offset="0.619792" stop-color="#E06C75"/>
<stop offset="0.9999" stop-color="#E06C75"/>
</linearGradient>
<linearGradient id="paint2_linear_1137_19332" x1="131.088" y1="371.253" x2="98.3201" y2="347.759" gradientUnits="userSpaceOnUse">
<stop stop-color="#6B90DF"/>
<stop offset="0.619792" stop-color="#E06C75"/>
<stop offset="0.9999" stop-color="#E06C75"/>
</linearGradient>
</defs>
</svg>
