<svg width="1081" height="1080" viewBox="0 0 1081 1080" fill="none" xmlns="http://www.w3.org/2000/svg">
<circle cx="540.48" cy="540" r="540" fill="#2C2D31"/>
<path fill-rule="evenodd" clip-rule="evenodd" d="M723.209 386L564.981 693.673H621.504L779.879 386H723.209ZM240.935 458.956C203.455 476.522 165.974 494.088 128.496 511.653L128.496 511.677C128.488 535.186 128.48 558.689 128.48 582.198C157.228 594.427 185.975 606.654 214.723 618.882C243.483 631.114 272.242 643.346 301.002 655.58C303.035 645.571 305.069 635.563 307.104 625.554C309.142 615.526 311.181 605.497 313.218 595.469C293.891 586.986 274.563 578.501 255.236 570.017C235.938 561.545 216.641 553.074 197.343 544.604L337.1 484.214C342.58 458.2 348.068 432.187 353.556 406.173C316.916 423.346 280.275 440.519 243.633 457.691L241.378 458.749L240.935 458.956ZM814.682 445.171L814.897 444.749H814.905C860.497 466.308 906.096 487.866 951.696 509.424L951.98 509.558L951.166 578.723C908.508 595.84 865.848 612.956 823.188 630.073C780.401 647.241 737.614 664.408 694.829 681.576C701.226 668.793 707.621 656.009 714.016 643.225C720.407 630.449 726.798 617.673 733.191 604.899C758.215 594.804 783.24 584.706 808.265 574.609L809.219 574.224C834.562 563.998 859.905 553.772 885.248 543.548C869.086 535.888 852.924 528.23 836.762 520.573C820.523 512.879 804.285 505.185 788.047 497.489C796.92 480.05 805.801 462.61 814.682 445.171ZM377.536 505.192C378.172 502.105 378.779 499.159 379.361 496.339L379.361 496.339C384.14 473.178 387.156 458.559 389.519 444.414H466.575C466.009 450.46 464.195 462.289 463.079 467.769C473.66 455.677 493.054 439.616 527.082 439.616C572.396 439.616 594.309 467.335 580.853 530.857L552.46 665.242H474.706L502.805 531.493C507.564 510.223 503.247 498.534 485.977 498.534C467.063 498.534 454.041 512.231 447.243 544.577L421.904 665.242H343.732L377.536 505.208V505.192Z" fill="url(#paint0_linear_278_8014)"/>
<defs>
<linearGradient id="paint0_linear_278_8014" x1="208.563" y1="447.492" x2="612.142" y2="797.567" gradientUnits="userSpaceOnUse">
<stop stop-color="#E06C75"/>
<stop offset="0.362321" stop-color="#6B90DF"/>
<stop offset="1" stop-color="#BC7796"/>
<stop offset="1" stop-color="#E06C75"/>
</linearGradient>
</defs>
</svg>
