<svg width="154" height="38" viewBox="0 0 154 38" fill="none" xmlns="http://www.w3.org/2000/svg">
<path fill-rule="evenodd" clip-rule="evenodd" d="M119.082 30.223L134.366 0.5H139.841L124.542 30.223H119.082ZM0.28125 14.3642C7.36241 10.9261 14.4436 7.48812 21.5233 4.0501C21.2947 5.24067 21.0664 6.4316 20.8381 7.62253L20.835 7.63907L20.8318 7.65561C20.6035 8.84654 20.3753 10.0375 20.1466 11.228C17.8984 12.1995 15.6497 13.1714 13.4011 14.1432C11.1492 15.1165 8.89739 16.0897 6.64592 17.0626C9.08478 18.2251 11.5236 19.3871 13.9629 20.5493L17.8021 22.3785C17.6122 23.279 17.4219 24.1796 17.2316 25.0801C17.0413 25.9809 16.8509 26.8817 16.661 27.7825C11.2006 25.1231 5.74163 22.4623 0.28125 19.8V14.3642ZM140.406 6.5513C139.999 7.34946 139.591 8.14725 139.184 8.94505C138.776 9.74275 138.368 10.5405 137.961 11.3385C139.228 11.9392 140.496 12.5397 141.763 13.1402C143.626 14.0226 145.488 14.9049 147.35 15.7877C144.923 16.7673 142.496 17.7466 140.068 18.7258L140.006 18.7512L139.939 18.7781L139.797 18.8355C137.418 19.7951 135.04 20.7547 132.661 21.7147C132.05 22.9359 131.439 24.1574 130.828 25.379C130.204 26.6269 129.58 27.8748 128.955 29.1223C137.21 25.81 145.464 22.4976 153.719 19.1867V12.812C149.282 10.726 144.844 8.64011 140.408 6.55275L140.406 6.5513ZM24.958 12.1219L24.7891 12.9405H24.7877L21.5216 28.4015H29.0737L31.5222 16.7455C32.1794 13.6209 33.4376 12.2977 35.265 12.2977C36.9334 12.2977 37.3495 13.4273 36.8901 15.4815L34.1758 28.4015H41.6874L44.4306 15.4194C45.7307 9.28293 43.613 6.60474 39.236 6.60474C35.9497 6.60474 34.0747 8.15618 33.0534 9.32482C33.1617 8.79467 33.3365 7.65204 33.3914 7.06844H25.9477C25.7172 8.44342 25.4241 9.86365 24.9581 12.1217L24.958 12.1218L24.958 12.1219ZM55.6968 19.3018C55.6159 19.6687 55.561 19.9937 55.5466 20.3722C55.4744 22.24 56.0695 23.7943 57.998 23.7943C59.6592 23.7943 60.497 22.838 61.0344 21.5914H68.6298C67.376 25.3125 64.0492 28.8647 57.4534 28.8647C50.8576 28.8647 48.0263 24.8402 48.0263 19.8868C48.0263 14.4365 51.1234 6.60422 60.2832 6.60422C67.0322 6.60422 69.7551 10.2864 69.7551 15.2079C69.7551 16.7839 69.4966 18.1476 69.1715 19.3018H55.6983H55.6968ZM62.5064 15.14C62.6017 14.7168 62.6162 14.386 62.6162 14.1115C62.6162 12.6988 62.0528 11.4954 60.2341 11.4954C58.3042 11.4954 57.15 12.8302 56.5563 15.14H62.5064ZM83.1003 9.44275C84.1549 8.17877 85.9808 6.60566 89.2642 6.60566L89.2628 6.60422C93.2078 6.60422 95.8875 9.41675 95.8875 14.8323C95.8875 21.6838 91.876 28.8647 84.2516 28.8647C81.9245 28.8647 80.2358 27.9763 79.4745 26.8654L77.1604 37.5002H69.6271C71.4717 29.5768 73.2211 21.4874 74.8578 13.2303C75.2666 11.169 75.6653 9.11628 76.0524 7.06936H83.421C83.421 7.54706 83.2448 8.58914 83.1115 9.37685V9.37692L83.1003 9.44275ZM81.0592 18.1895C80.4366 21.2013 80.6432 23.5401 83.2795 23.5401C86.5557 23.5401 88.1505 18.1649 88.1505 15.3278C88.1505 12.8981 87.1653 12.0299 85.6138 12.0299C83.3199 12.0299 81.8768 14.3109 81.0592 18.1895ZM105.175 21.6954C105.298 23.1732 106.292 23.9301 108.024 23.9301C108.953 23.9301 109.604 23.7194 109.994 23.329C109.994 23.3283 109.995 23.3275 109.996 23.3267C110.29 23.0309 110.433 22.6324 110.433 22.1446C110.433 21.1378 109.517 20.6134 107.168 19.9403C101.65 18.4062 100.09 16.5846 100.09 13.7966C100.09 12.0757 100.685 10.4839 101.886 9.23767C102.153 8.96063 102.45 8.70072 102.777 8.46019C102.553 8.62464 102.344 8.79819 102.148 8.98005C103.712 7.52568 106.172 6.60422 109.549 6.60422C115.9 6.60422 118.955 9.60252 118.822 13.29L118.822 13.291H111.889C111.878 12.118 111.207 11.2701 109.408 11.2701C108.736 11.2701 108.057 11.4002 107.661 11.7974C107.445 12.0139 107.313 12.3099 107.313 12.7074C107.313 13.6088 108.34 13.9887 111.092 14.7905C116.21 16.2942 117.875 18.3874 117.875 21.3328C117.875 23.3225 117.185 24.8791 116.035 26.0476C115.675 26.4138 115.269 26.742 114.826 27.0333C115.18 26.8005 115.51 26.5442 115.813 26.2637C113.878 28.0596 110.802 28.8647 107.543 28.8647C101.389 28.8647 97.9841 26.2399 98.0982 21.6939H98.0992H105.174L105.175 21.6954ZM98.0992 21.6939C98.0992 21.6936 98.0992 21.6932 98.0992 21.6929L98.0992 21.6939ZM81.2398 33.3233L82.5879 34.1646V34.1652C83.8016 34.9126 84.1753 35.9661 83.5482 36.8602C83.5482 36.8602 83.1211 37.4873 81.9467 37.4873C80.3322 37.4873 79.6517 36.9933 79.6517 36.9933V35.112H79.7855C79.8389 36.1797 80.1193 37.3407 81.9473 37.3407C83.5881 37.3407 83.2421 35.806 82.2271 35.1384L80.8796 34.3247C79.6119 33.4435 79.3449 32.7772 79.7855 31.896C79.7855 31.896 80.1322 31.0824 81.4932 31.0824C83.0285 31.0824 83.6685 31.5088 83.6685 31.5088V33.2036H83.5354C83.482 32.2697 83.1346 31.2284 81.4932 31.2284C80.0389 31.2284 80.0788 32.5894 81.2398 33.3233ZM87.846 31.0818C85.8174 31.0818 84.8166 32.5232 84.8166 34.2843C84.8166 36.0454 85.8174 37.4868 87.846 37.4868C89.8747 37.4868 90.8748 36.0325 90.8748 34.2843C90.8748 32.5361 89.8875 31.0818 87.846 31.0818ZM87.846 37.3408C86.7912 37.3408 85.8837 36.6995 85.8837 34.285C85.8837 31.8704 86.7912 31.2291 87.846 31.2291C88.9009 31.2291 89.7936 31.8704 89.7936 34.285C89.7936 36.6995 88.8996 37.3408 87.846 37.3408ZM92.9568 27.9146V36.3256V36.3263C92.9568 37.0608 93.0231 37.1007 93.5042 37.2209V37.3676H91.5019V37.2209C92.0094 37.0736 92.0358 37.0074 92.0358 36.3263V28.7198C92.0358 28.5899 92.028 28.4812 92.0036 28.3912C91.9412 28.159 91.7733 28.0509 91.3688 28.0123V27.8901C91.6344 27.9339 91.9225 27.9564 92.2339 27.9564C92.4879 27.9564 92.7291 27.9416 92.9568 27.9146ZM99.3217 36.313V31.3327H99.3198V31.0818L97.6784 31.3218V31.4684C97.7234 31.4684 97.7658 31.4684 97.8057 31.4691C97.9614 31.4729 98.0765 31.48 98.1614 31.5019C98.1672 31.5031 98.1736 31.5051 98.1794 31.507C98.181 31.5076 98.1826 31.5081 98.1842 31.5086L98.1843 31.5086L98.189 31.5102C98.1968 31.5128 98.2038 31.5154 98.2109 31.5179C98.2141 31.5192 98.2173 31.5205 98.2199 31.5218L98.2242 31.5238L98.228 31.5253C98.2307 31.5265 98.2334 31.5276 98.236 31.5289C98.2418 31.5321 98.2476 31.5347 98.2534 31.5379L98.2538 31.538L98.2547 31.5385C98.4021 31.6266 98.4021 31.8289 98.4019 32.3062V32.3489V35.8717C98.2013 36.4461 97.7208 36.9799 96.9207 36.9799C96.1205 36.9799 95.4124 36.5792 95.4124 35.4453V31.0818L93.7709 31.3218V31.4684C94.5183 31.4684 94.5183 31.5218 94.5183 32.4158V35.4858C94.5183 37.1806 95.6124 37.4874 96.5335 37.4874C97.4545 37.4874 98.2148 36.8738 98.4019 36.1933V37.3009C98.4019 37.3009 98.4019 37.5408 98.7087 37.4746L100.003 37.261V37.1272C99.4426 37.061 99.3224 36.9536 99.3224 36.3136L99.3217 36.313ZM102.765 36.9807C103.152 36.9807 103.472 36.6874 103.579 36.3664V36.3658L103.685 36.4192C103.539 36.98 103.032 37.4869 102.324 37.4869C101.404 37.4869 100.816 37.0604 100.816 35.4454V31.3482H100.149L100.122 31.2016H100.816V29.892H101.738V31.2016H103.311L103.285 31.3482H101.738V35.4055C101.738 36.6198 102.152 36.9807 102.765 36.9807ZM104.802 30.8786C105.18 30.8786 105.508 30.5673 105.508 30.1891C105.508 29.8109 105.18 29.4828 104.802 29.4828C104.423 29.4828 104.112 29.7948 104.112 30.1891C104.112 30.5833 104.407 30.8786 104.802 30.8786ZM105.501 31.0818V36.3258V36.3265C105.501 37.061 105.568 37.1009 106.048 37.2211V37.3678H104.059V37.2211C104.567 37.0738 104.593 37.0076 104.593 36.3265V32.2435C104.593 31.79 104.486 31.6022 103.926 31.5224V31.3887L105.501 31.0818ZM109.798 31.0818C107.77 31.0818 106.769 32.5232 106.769 34.2843C106.769 36.0454 107.77 37.4868 109.798 37.4868C111.827 37.4868 112.827 36.0325 112.827 34.2843C112.827 32.5361 111.84 31.0818 109.798 31.0818ZM109.798 37.3408C108.744 37.3408 107.836 36.6995 107.836 34.285C107.836 31.8704 108.744 31.2291 109.798 31.2291C110.853 31.2291 111.746 31.8704 111.746 34.285C111.746 36.6995 110.852 37.3408 109.798 37.3408ZM118.632 33.2571V36.3258V36.3265C118.632 37.061 118.698 37.1137 119.179 37.234V37.3678H117.19V37.234C117.698 37.0874 117.724 37.0076 117.724 36.3265V33.3112C117.724 32.2705 117.19 31.59 116.203 31.59C115.443 31.59 114.895 32.3104 114.735 32.7638V36.3265C114.735 37.061 114.801 37.1009 115.282 37.2211V37.3678H113.28V37.2211C113.788 37.0738 113.814 37.0076 113.814 36.3265V32.2563C113.814 31.79 113.708 31.6022 113.148 31.5224V31.3887L114.735 31.0818V32.4557C115.003 31.709 115.869 31.0818 116.71 31.0818C117.804 31.0818 118.632 31.6556 118.632 33.2571ZM122.715 34.1646L121.368 33.3233C120.207 32.5894 120.167 31.2284 121.621 31.2284C123.263 31.2284 123.61 32.2697 123.663 33.2036H123.796V31.5088C123.796 31.5088 123.156 31.0824 121.621 31.0824C120.26 31.0824 119.913 31.896 119.913 31.896C119.473 32.7772 119.74 33.4435 121.008 34.3247L122.355 35.1384C123.369 35.806 123.716 37.3407 122.075 37.3407C120.247 37.3407 119.967 36.1797 119.913 35.112H119.78V36.9933C119.78 36.9933 120.46 37.4873 122.075 37.4873C123.248 37.4873 123.676 36.8602 123.676 36.8602C124.303 35.9661 123.93 34.9126 122.715 34.1652V34.1646Z" fill="url(#paint0_linear_1361_3635)"/>
<defs>
<linearGradient id="paint0_linear_1361_3635" x1="154.322" y1="29.172" x2="93.0295" y2="-52.6229" gradientUnits="userSpaceOnUse">
<stop stop-color="#E06C75"/>
<stop offset="0.432782" stop-color="#6B90DF"/>
<stop offset="1" stop-color="#E06C75"/>
</linearGradient>
</defs>
</svg>
