<svg width="150" height="154" viewBox="0 0 150 154" fill="none" xmlns="http://www.w3.org/2000/svg">
<rect width="47.6472" height="47.6472" rx="3.9706" transform="matrix(1 0 0 -1 0 153.801)" fill="white" fill-opacity="0.05"/>
<rect x="0.19853" y="-0.19853" width="47.2502" height="47.2502" rx="3.77207" transform="matrix(1 0 0 -1 0 153.404)" stroke="#FDFDFD" stroke-opacity="0.05" stroke-width="0.39706"/>
<rect width="15.3003" height="15.3003" rx="1.9853" transform="matrix(1 0 0 -1 7.94531 145.859)" fill="white" fill-opacity="0.05"/>
<rect width="15.3003" height="15.3003" rx="1.9853" transform="matrix(1 0 0 -1 7.94531 128.996)" fill="white" fill-opacity="0.05"/>
<rect width="15.3003" height="15.3003" rx="1.9853" transform="matrix(1 0 0 -1 24.8086 145.859)" fill="white" fill-opacity="0.05"/>
<rect width="15.3003" height="15.3003" rx="1.9853" transform="matrix(1 0 0 -1 24.8086 128.996)" fill="white" fill-opacity="0.05"/>
<rect width="109.192" height="68.6914" rx="3.9706" transform="matrix(1 0 0 -1 40.1094 69.625)" fill="white" fill-opacity="0.05"/>
<rect width="58.7649" height="37.3237" rx="3.9706" transform="matrix(1 0 0 -1 81.3984 64.4609)" fill="#FDFDFD" fill-opacity="0.05"/>
<rect width="14.2942" height="14.2942" rx="3.9706" transform="matrix(1 0 0 -1 80.9961 23.168)" fill="#FDFDFD" fill-opacity="0.05"/>
<rect width="14.2942" height="14.2942" rx="3.9706" transform="matrix(1 0 0 -1 103.238 23.168)" fill="#FDFDFD" fill-opacity="0.05"/>
<rect width="14.2942" height="14.2942" rx="3.9706" transform="matrix(1 0 0 -1 125.469 23.168)" fill="#FDFDFD" fill-opacity="0.05"/>
<rect width="22.2354" height="56.3826" rx="3.9706" transform="matrix(1 0 0 -1 49.2344 65.25)" fill="#FDFDFD" fill-opacity="0.05"/>
<circle cx="15.4854" cy="15.4854" r="15.4854" transform="matrix(1 0 0 -1 90.1328 135.539)" fill="#FDFDFD" fill-opacity="0.05"/>
<circle cx="12.7059" cy="12.7059" r="12.7059" transform="matrix(1 0 0 -1 92.9141 132.758)" fill="#FDFDFD" fill-opacity="0.05"/>
<circle cx="8.73533" cy="8.73533" r="8.73533" transform="matrix(1 0 0 -1 96.8867 128.785)" fill="#FDFDFD" fill-opacity="0.05"/>
<path d="M47.6461 131.766C46.6535 131.766 45.8594 130.972 45.8594 129.979C45.8594 128.986 46.6535 128.192 47.6461 128.192C48.6388 128.192 49.4329 128.986 49.4329 129.979C49.4329 130.972 48.6388 131.766 47.6461 131.766Z" fill="#6B90DF"/>
<path d="M49.4329 129.979H63.9256C66.6667 129.979 68.8889 127.757 68.8889 125.016V125.016C68.8889 122.274 71.111 120.052 73.8521 120.052H90.1316M45.8594 129.979C45.8594 130.972 46.6535 131.766 47.6461 131.766C48.6388 131.766 49.4329 130.972 49.4329 129.979C49.4329 128.986 48.6388 128.192 47.6461 128.192C46.6535 128.192 45.8594 128.986 45.8594 129.979Z" stroke="white" stroke-opacity="0.05" stroke-width="1.19118" stroke-linecap="square"/>
<path d="M105.622 106.355C104.63 106.355 103.836 105.561 103.836 104.569C103.836 103.576 104.63 102.782 105.622 102.782C106.615 102.782 107.409 103.576 107.409 104.569C107.409 105.561 106.615 106.355 105.622 106.355Z" fill="#6B90DF"/>
<path d="M105.622 102.782V92.5576C105.622 89.5424 103.178 87.098 100.163 87.098V87.098C97.1475 87.098 94.7031 84.6537 94.7031 81.6385V69.6274M103.836 104.569C103.836 105.561 104.63 106.355 105.622 106.355C106.615 106.355 107.409 105.561 107.409 104.569C107.409 103.576 106.615 102.782 105.622 102.782C104.63 102.782 103.836 103.576 103.836 104.569Z" stroke="white" stroke-opacity="0.05" stroke-width="1.19118"/>
<g clip-path="url(#clip0_1134_18701)">
<path d="M105.649 121.432C105.457 121.439 105.273 121.408 105.098 121.338C104.923 121.269 104.769 121.168 104.636 121.035C104.504 120.903 104.403 120.754 104.333 120.589C104.264 120.423 104.229 120.248 104.229 120.063C104.229 119.996 104.233 119.932 104.239 119.869C104.246 119.806 104.259 119.745 104.279 119.685C104.305 119.606 104.304 119.527 104.274 119.447C104.245 119.368 104.193 119.311 104.12 119.278C104.041 119.245 103.963 119.245 103.887 119.278C103.811 119.311 103.76 119.368 103.733 119.447C103.7 119.546 103.675 119.646 103.659 119.745C103.642 119.844 103.634 119.947 103.634 120.053C103.634 120.317 103.685 120.571 103.788 120.812C103.891 121.054 104.034 121.267 104.219 121.452C104.398 121.638 104.608 121.78 104.85 121.879C105.092 121.978 105.341 122.031 105.599 122.038L105.43 122.207C105.371 122.266 105.341 122.336 105.341 122.415C105.341 122.495 105.371 122.564 105.43 122.624C105.49 122.683 105.559 122.713 105.639 122.713C105.718 122.713 105.788 122.683 105.847 122.624L106.483 121.988C106.562 121.909 106.602 121.816 106.602 121.71C106.602 121.604 106.562 121.512 106.483 121.432L105.847 120.797C105.788 120.738 105.718 120.708 105.639 120.708C105.559 120.708 105.49 120.738 105.43 120.797C105.371 120.857 105.341 120.926 105.341 121.006C105.341 121.085 105.371 121.154 105.43 121.214L105.649 121.432ZM105.579 118.663C105.771 118.663 105.957 118.698 106.135 118.767C106.314 118.837 106.469 118.938 106.602 119.07C106.734 119.202 106.835 119.351 106.905 119.517C106.974 119.682 107.009 119.857 107.009 120.043C107.009 120.109 107.005 120.173 106.999 120.236C106.992 120.299 106.979 120.36 106.959 120.42C106.933 120.499 106.934 120.58 106.964 120.663C106.994 120.746 107.045 120.803 107.118 120.837C107.197 120.87 107.275 120.87 107.351 120.837C107.428 120.804 107.479 120.747 107.505 120.668C107.538 120.569 107.563 120.468 107.58 120.365C107.596 120.262 107.605 120.158 107.604 120.053C107.604 119.788 107.556 119.535 107.46 119.293C107.364 119.052 107.22 118.835 107.029 118.643C106.843 118.458 106.63 118.317 106.389 118.221C106.147 118.126 105.897 118.078 105.639 118.077L105.818 117.899C105.871 117.839 105.897 117.77 105.897 117.69C105.897 117.611 105.867 117.541 105.808 117.482C105.748 117.422 105.679 117.392 105.599 117.392C105.52 117.392 105.45 117.422 105.391 117.482L104.755 118.117C104.676 118.196 104.636 118.289 104.636 118.395C104.636 118.501 104.676 118.593 104.755 118.673L105.391 119.308C105.45 119.368 105.52 119.397 105.599 119.397C105.679 119.397 105.748 119.368 105.808 119.308C105.867 119.249 105.897 119.179 105.897 119.1C105.897 119.02 105.867 118.951 105.808 118.891L105.579 118.663ZM105.619 124.023C105.07 124.023 104.554 123.919 104.071 123.71C103.587 123.502 103.167 123.219 102.81 122.862C102.452 122.504 102.17 122.084 101.961 121.601C101.753 121.118 101.649 120.602 101.648 120.053C101.648 119.503 101.753 118.987 101.961 118.504C102.17 118.021 102.453 117.601 102.81 117.243C103.167 116.886 103.587 116.603 104.071 116.395C104.554 116.187 105.07 116.082 105.619 116.082C106.168 116.082 106.684 116.186 107.168 116.395C107.651 116.604 108.071 116.886 108.428 117.243C108.786 117.601 109.069 118.021 109.277 118.504C109.486 118.987 109.59 119.503 109.59 120.053C109.59 120.602 109.485 121.118 109.277 121.601C109.068 122.084 108.785 122.504 108.428 122.862C108.071 123.219 107.651 123.502 107.168 123.711C106.684 123.919 106.168 124.024 105.619 124.023Z" fill="#E9EAEC"/>
</g>
<defs>
<clipPath id="clip0_1134_18701">
<rect width="9.52945" height="9.52945" fill="white" transform="translate(100.855 115.289)"/>
</clipPath>
</defs>
</svg>
