<svg width="52" height="51" viewBox="0 0 52 51" fill="none" xmlns="http://www.w3.org/2000/svg">
<rect x="0.25" width="50.8986" height="50.8986" rx="25.4493" fill="white" fill-opacity="0.05"/>
<path d="M29.9766 14.7266H19.9766C17.2151 14.7266 14.9766 16.9651 14.9766 19.7266V29.7266C14.9766 32.488 17.2151 34.7266 19.9766 34.7266H29.9766C32.738 34.7266 34.9766 32.488 34.9766 29.7266V19.7266C34.9766 16.9651 32.738 14.7266 29.9766 14.7266Z" stroke="#E9EAEC" stroke-width="2" stroke-linecap="round" stroke-linejoin="round"/>
<path d="M28.9763 24.0969C29.0997 24.9291 28.9575 25.7791 28.57 26.5259C28.1825 27.2727 27.5694 27.8783 26.8179 28.2565C26.0664 28.6348 25.2147 28.7665 24.3841 28.6328C23.5534 28.4991 22.786 28.1069 22.1911 27.512C21.5962 26.9171 21.204 26.1497 21.0703 25.3191C20.9367 24.4884 21.0683 23.6368 21.4466 22.8852C21.8249 22.1337 22.4305 21.5206 23.1773 21.1331C23.9241 20.7456 24.774 20.6035 25.6063 20.7269C26.4552 20.8527 27.2411 21.2483 27.848 21.8552C28.4548 22.462 28.8504 23.2479 28.9763 24.0969Z" stroke="#E9EAEC" stroke-width="2" stroke-linecap="round" stroke-linejoin="round"/>
<path d="M30.4766 19.2266H30.4866" stroke="#E9EAEC" stroke-width="2" stroke-linecap="round" stroke-linejoin="round"/>
</svg>
