<svg width="52" height="51" viewBox="0 0 52 51" fill="none" xmlns="http://www.w3.org/2000/svg">
<rect x="0.148438" width="50.8986" height="50.8986" rx="25.4493" fill="white" fill-opacity="0.05"/>
<path d="M28.875 20.7266C30.4663 20.7266 31.9924 21.3587 33.1176 22.4839C34.2429 23.6091 34.875 25.1353 34.875 26.7266V33.7266H30.875V26.7266C30.875 26.1961 30.6643 25.6874 30.2892 25.3123C29.9141 24.9373 29.4054 24.7266 28.875 24.7266C28.3446 24.7266 27.8359 24.9373 27.4608 25.3123C27.0857 25.6874 26.875 26.1961 26.875 26.7266V33.7266H22.875V26.7266C22.875 25.1353 23.5071 23.6091 24.6324 22.4839C25.7576 21.3587 27.2837 20.7266 28.875 20.7266Z" stroke="#E9EAEC" stroke-width="2" stroke-linecap="round" stroke-linejoin="round"/>
<path d="M18.875 21.7266H14.875V33.7266H18.875V21.7266Z" stroke="#E9EAEC" stroke-width="2" stroke-linecap="round" stroke-linejoin="round"/>
<path d="M16.875 18.7266C17.9796 18.7266 18.875 17.8311 18.875 16.7266C18.875 15.622 17.9796 14.7266 16.875 14.7266C15.7704 14.7266 14.875 15.622 14.875 16.7266C14.875 17.8311 15.7704 18.7266 16.875 18.7266Z" stroke="#E9EAEC" stroke-width="2" stroke-linecap="round" stroke-linejoin="round"/>
</svg>
