<svg width="598" height="453" viewBox="0 0 598 453" fill="none" xmlns="http://www.w3.org/2000/svg">
<rect x="598" y="51" width="2" height="579.674" transform="rotate(90 598 51)" fill="url(#paint0_linear_1381_4688)"/>
<rect x="598" width="2" height="579.674" transform="rotate(90 598 0)" fill="url(#paint1_linear_1381_4688)"/>
<rect x="598" y="101" width="2" height="579.674" transform="rotate(90 598 101)" fill="url(#paint2_linear_1381_4688)"/>
<rect x="598" y="151" width="2" height="579.674" transform="rotate(90 598 151)" fill="url(#paint3_linear_1381_4688)"/>
<rect x="598" y="201" width="2" height="579.674" transform="rotate(90 598 201)" fill="url(#paint4_linear_1381_4688)"/>
<rect x="598" y="251" width="2" height="579.674" transform="rotate(90 598 251)" fill="url(#paint5_linear_1381_4688)"/>
<rect x="598" y="301" width="2" height="579.674" transform="rotate(90 598 301)" fill="url(#paint6_linear_1381_4688)"/>
<rect x="598" y="351" width="2" height="579.674" transform="rotate(90 598 351)" fill="url(#paint7_linear_1381_4688)"/>
<rect x="598" y="401" width="2" height="579.674" transform="rotate(90 598 401)" fill="url(#paint8_linear_1381_4688)"/>
<rect x="598" y="451" width="2" height="579.674" transform="rotate(90 598 451)" fill="url(#paint9_linear_1381_4688)"/>
<g filter="url(#filter0_b_1381_4688)">
<rect y="22" width="172.65" height="179.002" rx="3" fill="#FDFDFD" fill-opacity="0.05"/>
</g>
<rect x="20.2227" y="43.7695" width="63.7718" height="12.0947" rx="3" fill="#FDFDFD" fill-opacity="0.05"/>
<rect x="20.2227" y="71.1836" width="20.797" height="12.0947" rx="3" fill="#FDFDFD" fill-opacity="0.05"/>
<rect x="20.2227" y="95.375" width="20.797" height="12.0947" rx="3" fill="#FDFDFD" fill-opacity="0.05"/>
<rect x="20.2227" y="119.562" width="20.797" height="12.0947" rx="3" fill="#FDFDFD" fill-opacity="0.05"/>
<rect x="20.2227" y="143.754" width="20.797" height="12.0947" rx="3" fill="#FDFDFD" fill-opacity="0.05"/>
<rect x="20.2227" y="167.941" width="20.797" height="12.0947" rx="3" fill="#FDFDFD" fill-opacity="0.05"/>
<rect x="55.875" y="71.1836" width="46.7934" height="12.0947" rx="3" fill="#FDFDFD" fill-opacity="0.05"/>
<rect x="55.9922" y="95.375" width="52.8839" height="12.0947" rx="3" fill="#FDFDFD" fill-opacity="0.05"/>
<rect x="55.9922" y="119.562" width="34.219" height="12.0947" rx="3" fill="#FDFDFD" fill-opacity="0.05"/>
<rect x="55.9922" y="143.754" width="52.8839" height="12.0947" rx="3" fill="#FDFDFD" fill-opacity="0.05"/>
<rect x="55.875" y="167.941" width="46.7934" height="12.0947" rx="3" fill="#FDFDFD" fill-opacity="0.05"/>
<rect x="117.52" y="71.1836" width="34.9093" height="12.0947" rx="3" fill="#FDFDFD" fill-opacity="0.05"/>
<rect x="123.652" y="95.375" width="28.7751" height="12.0947" rx="3" fill="#FDFDFD" fill-opacity="0.05"/>
<rect x="104.992" y="119.562" width="47.44" height="12.0947" rx="3" fill="#FDFDFD" fill-opacity="0.05"/>
<rect x="123.652" y="143.754" width="28.7751" height="12.0947" rx="3" fill="#FDFDFD" fill-opacity="0.05"/>
<rect x="117.52" y="167.941" width="34.9093" height="12.0947" rx="3" fill="#FDFDFD" fill-opacity="0.05"/>
<g filter="url(#filter1_b_1381_4688)">
<rect y="246" width="172.65" height="151.587" rx="3" fill="#FDFDFD" fill-opacity="0.05"/>
</g>
<rect x="20.2227" y="267.77" width="86.3252" height="12.0947" rx="3" fill="#FDFDFD" fill-opacity="0.05"/>
<rect x="20.2227" y="295.184" width="20.797" height="12.0947" rx="3" fill="#FDFDFD" fill-opacity="0.05"/>
<rect x="20.2227" y="319.375" width="20.797" height="12.0947" rx="3" fill="#FDFDFD" fill-opacity="0.05"/>
<rect x="20.2227" y="343.562" width="20.797" height="12.0947" rx="3" fill="#FDFDFD" fill-opacity="0.05"/>
<rect x="20.2227" y="367.754" width="20.797" height="12.0947" rx="3" fill="#FDFDFD" fill-opacity="0.05"/>
<rect x="55.875" y="295.184" width="46.7934" height="12.0947" rx="3" fill="#FDFDFD" fill-opacity="0.05"/>
<rect x="55.9922" y="319.375" width="52.8839" height="12.0947" rx="3" fill="#FDFDFD" fill-opacity="0.05"/>
<rect x="55.9922" y="343.562" width="34.219" height="12.0947" rx="3" fill="#FDFDFD" fill-opacity="0.05"/>
<rect x="55.9922" y="367.754" width="52.8839" height="12.0947" rx="3" fill="#FDFDFD" fill-opacity="0.05"/>
<rect x="117.52" y="295.184" width="34.9093" height="12.0947" rx="3" fill="#FDFDFD" fill-opacity="0.05"/>
<rect x="123.652" y="319.375" width="28.7751" height="12.0947" rx="3" fill="#FDFDFD" fill-opacity="0.05"/>
<rect x="104.992" y="343.562" width="47.44" height="12.0947" rx="3" fill="#FDFDFD" fill-opacity="0.05"/>
<rect x="123.652" y="367.754" width="28.7751" height="12.0947" rx="3" fill="#FDFDFD" fill-opacity="0.05"/>
<g filter="url(#filter2_b_1381_4688)">
<rect x="226.664" y="141" width="172.65" height="226.575" rx="3" fill="#FDFDFD" fill-opacity="0.05"/>
</g>
<rect x="246.887" y="162.77" width="43.5515" height="12.0947" rx="3" fill="#FDFDFD" fill-opacity="0.05"/>
<rect x="246.883" y="238.562" width="20.797" height="12.0947" rx="3" fill="#FDFDFD" fill-opacity="0.05"/>
<rect x="282.535" y="238.562" width="46.7934" height="12.0947" rx="3" fill="#FDFDFD" fill-opacity="0.05"/>
<rect x="344.184" y="238.562" width="34.9093" height="12.0947" rx="3" fill="#FDFDFD" fill-opacity="0.05"/>
<rect x="246.883" y="262.754" width="20.797" height="12.0947" rx="3" fill="#FDFDFD" fill-opacity="0.05"/>
<rect x="282.66" y="262.754" width="52.8839" height="12.0947" rx="3" fill="#FDFDFD" fill-opacity="0.05"/>
<rect x="350.316" y="262.754" width="28.7751" height="12.0947" rx="3" fill="#FDFDFD" fill-opacity="0.05"/>
<rect x="246.883" y="311.133" width="20.797" height="12.0947" rx="3" fill="#FDFDFD" fill-opacity="0.05"/>
<rect x="282.66" y="311.133" width="52.8839" height="12.0947" rx="3" fill="#FDFDFD" fill-opacity="0.05"/>
<rect x="350.316" y="311.133" width="28.7751" height="12.0947" rx="3" fill="#FDFDFD" fill-opacity="0.05"/>
<rect x="246.883" y="286.941" width="20.797" height="12.0947" rx="3" fill="#FDFDFD" fill-opacity="0.05"/>
<rect x="282.66" y="286.941" width="34.219" height="12.0947" rx="3" fill="#FDFDFD" fill-opacity="0.05"/>
<rect x="331.652" y="286.941" width="47.44" height="12.0947" rx="3" fill="#FDFDFD" fill-opacity="0.05"/>
<rect x="246.883" y="214.375" width="20.797" height="12.0947" rx="3" fill="#FDFDFD" fill-opacity="0.05"/>
<rect x="282.66" y="214.375" width="52.8839" height="12.0947" rx="3" fill="#FDFDFD" fill-opacity="0.05"/>
<rect x="350.316" y="214.375" width="28.7751" height="12.0947" rx="3" fill="#FDFDFD" fill-opacity="0.05"/>
<rect x="246.883" y="190.184" width="20.797" height="12.0947" rx="3" fill="#FDFDFD" fill-opacity="0.05"/>
<rect x="282.535" y="190.184" width="46.7934" height="12.0947" rx="3" fill="#FDFDFD" fill-opacity="0.05"/>
<rect x="344.184" y="190.184" width="34.9093" height="12.0947" rx="3" fill="#FDFDFD" fill-opacity="0.05"/>
<rect x="246.883" y="335.32" width="20.797" height="12.0947" rx="3" fill="#FDFDFD" fill-opacity="0.05"/>
<rect x="282.535" y="335.32" width="46.7934" height="12.0947" rx="3" fill="#FDFDFD" fill-opacity="0.05"/>
<rect x="344.184" y="335.32" width="34.9093" height="12.0947" rx="3" fill="#FDFDFD" fill-opacity="0.05"/>
<path d="M156.976 109C153.895 109 151.43 111.604 151.43 114.86C151.43 118.115 153.895 120.72 156.976 120.72C160.057 120.72 162.522 118.115 162.522 114.86C162.522 111.604 160.057 109 156.976 109Z" fill="#E06C75"/>
<path d="M162.522 114.86H314.181C322.31 114.86 328.901 121.45 328.901 129.58V142.856M151.43 114.86C151.43 111.604 153.895 109 156.976 109C160.057 109 162.522 111.604 162.522 114.86C162.522 118.115 160.057 120.72 156.976 120.72C153.895 120.72 151.43 118.115 151.43 114.86Z" stroke="#E9EAEC" stroke-width="2.208"/>
<path d="M181.667 347.202C178.265 347.202 175.543 350.024 175.543 353.551C175.543 357.079 178.265 359.901 181.667 359.901C185.07 359.901 187.792 357.079 187.792 353.551C187.792 350.024 185.07 347.202 181.667 347.202Z" fill="#6B90DF"/>
<path d="M187.792 353.551C187.792 350.024 185.07 347.202 181.667 347.202C178.265 347.202 175.543 350.024 175.543 353.551C175.543 357.079 178.265 359.901 181.667 359.901C185.07 359.901 187.792 357.079 187.792 353.551ZM187.792 353.551V353.551C196.833 353.551 204.163 346.222 204.163 337.18V254.496C204.163 242.072 214.235 232 226.659 232V232" stroke="#E9EAEC" stroke-width="4.23306"/>
<defs>
<filter id="filter0_b_1381_4688" x="-74" y="-52" width="320.652" height="327.004" filterUnits="userSpaceOnUse" color-interpolation-filters="sRGB">
<feFlood flood-opacity="0" result="BackgroundImageFix"/>
<feGaussianBlur in="BackgroundImageFix" stdDeviation="37"/>
<feComposite in2="SourceAlpha" operator="in" result="effect1_backgroundBlur_1381_4688"/>
<feBlend mode="normal" in="SourceGraphic" in2="effect1_backgroundBlur_1381_4688" result="shape"/>
</filter>
<filter id="filter1_b_1381_4688" x="-74" y="172" width="320.652" height="299.586" filterUnits="userSpaceOnUse" color-interpolation-filters="sRGB">
<feFlood flood-opacity="0" result="BackgroundImageFix"/>
<feGaussianBlur in="BackgroundImageFix" stdDeviation="37"/>
<feComposite in2="SourceAlpha" operator="in" result="effect1_backgroundBlur_1381_4688"/>
<feBlend mode="normal" in="SourceGraphic" in2="effect1_backgroundBlur_1381_4688" result="shape"/>
</filter>
<filter id="filter2_b_1381_4688" x="152.664" y="67" width="320.652" height="374.574" filterUnits="userSpaceOnUse" color-interpolation-filters="sRGB">
<feFlood flood-opacity="0" result="BackgroundImageFix"/>
<feGaussianBlur in="BackgroundImageFix" stdDeviation="37"/>
<feComposite in2="SourceAlpha" operator="in" result="effect1_backgroundBlur_1381_4688"/>
<feBlend mode="normal" in="SourceGraphic" in2="effect1_backgroundBlur_1381_4688" result="shape"/>
</filter>
<linearGradient id="paint0_linear_1381_4688" x1="599" y1="51" x2="599" y2="630.674" gradientUnits="userSpaceOnUse">
<stop stop-color="white" stop-opacity="0"/>
<stop offset="0.479167" stop-color="white" stop-opacity="0.02"/>
<stop offset="0.994792" stop-color="white" stop-opacity="0"/>
</linearGradient>
<linearGradient id="paint1_linear_1381_4688" x1="599" y1="0" x2="599" y2="579.674" gradientUnits="userSpaceOnUse">
<stop stop-color="white" stop-opacity="0"/>
<stop offset="0.479167" stop-color="white" stop-opacity="0.02"/>
<stop offset="0.994792" stop-color="white" stop-opacity="0"/>
</linearGradient>
<linearGradient id="paint2_linear_1381_4688" x1="599" y1="101" x2="599" y2="680.674" gradientUnits="userSpaceOnUse">
<stop stop-color="white" stop-opacity="0"/>
<stop offset="0.479167" stop-color="white" stop-opacity="0.02"/>
<stop offset="0.994792" stop-color="white" stop-opacity="0"/>
</linearGradient>
<linearGradient id="paint3_linear_1381_4688" x1="599" y1="151" x2="599" y2="730.674" gradientUnits="userSpaceOnUse">
<stop stop-color="white" stop-opacity="0"/>
<stop offset="0.479167" stop-color="white" stop-opacity="0.02"/>
<stop offset="0.994792" stop-color="white" stop-opacity="0"/>
</linearGradient>
<linearGradient id="paint4_linear_1381_4688" x1="599" y1="201" x2="599" y2="780.674" gradientUnits="userSpaceOnUse">
<stop stop-color="white" stop-opacity="0"/>
<stop offset="0.479167" stop-color="white" stop-opacity="0.02"/>
<stop offset="0.994792" stop-color="white" stop-opacity="0"/>
</linearGradient>
<linearGradient id="paint5_linear_1381_4688" x1="599" y1="251" x2="599" y2="830.674" gradientUnits="userSpaceOnUse">
<stop stop-color="white" stop-opacity="0"/>
<stop offset="0.479167" stop-color="white" stop-opacity="0.02"/>
<stop offset="0.994792" stop-color="white" stop-opacity="0"/>
</linearGradient>
<linearGradient id="paint6_linear_1381_4688" x1="599" y1="301" x2="599" y2="880.674" gradientUnits="userSpaceOnUse">
<stop stop-color="white" stop-opacity="0"/>
<stop offset="0.479167" stop-color="white" stop-opacity="0.02"/>
<stop offset="0.994792" stop-color="white" stop-opacity="0"/>
</linearGradient>
<linearGradient id="paint7_linear_1381_4688" x1="599" y1="351" x2="599" y2="930.674" gradientUnits="userSpaceOnUse">
<stop stop-color="white" stop-opacity="0"/>
<stop offset="0.479167" stop-color="white" stop-opacity="0.02"/>
<stop offset="0.994792" stop-color="white" stop-opacity="0"/>
</linearGradient>
<linearGradient id="paint8_linear_1381_4688" x1="599" y1="401" x2="599" y2="980.674" gradientUnits="userSpaceOnUse">
<stop stop-color="white" stop-opacity="0"/>
<stop offset="0.479167" stop-color="white" stop-opacity="0.02"/>
<stop offset="0.994792" stop-color="white" stop-opacity="0"/>
</linearGradient>
<linearGradient id="paint9_linear_1381_4688" x1="599" y1="451" x2="599" y2="1030.67" gradientUnits="userSpaceOnUse">
<stop stop-color="white" stop-opacity="0"/>
<stop offset="0.479167" stop-color="white" stop-opacity="0.02"/>
<stop offset="0.994792" stop-color="white" stop-opacity="0"/>
</linearGradient>
</defs>
</svg>
