<svg width="66" height="67" viewBox="0 0 66 67" fill="none" xmlns="http://www.w3.org/2000/svg">
<g id="chat-two-bubbles-oval-1 1">
<g id="chat-two-bubbles-oval--messages-message-bubble-chat-oval-conversation">
<path id="Subtract" d="M26.3587 59.1217C26.9638 59.2386 27.3749 58.5415 27.0353 58.03C24.6418 54.4286 23.3682 50.1992 23.375 45.875C23.375 33.7241 33.2241 23.875 45.375 23.875C49.8685 23.875 54.0471 25.2225 57.53 27.5353C58.0415 27.8749 58.7386 27.4624 58.6217 26.8587C56.1646 14.1895 45.012 4.625 31.625 4.625C16.4368 4.625 4.125 16.9368 4.125 32.125C4.125 37.3445 5.57975 42.2244 8.10425 46.3824C6.87913 49.3208 5.632 52.794 4.8345 55.9868C4.38763 57.7784 5.95925 59.2881 7.7385 58.7945C10.8226 57.9379 14.2161 56.6908 17.1407 55.5055C19.968 57.2623 23.0911 58.4878 26.3587 59.1217Z" fill="#FDFDFD" fill-opacity="0.05"/>
<path id="Union" d="M28.875 45.875C28.875 36.7629 36.2629 29.375 45.375 29.375C54.4871 29.375 61.875 36.7629 61.875 45.875C61.875 49.0416 60.984 51.9993 59.4371 54.51C60.0298 55.764 60.6196 57.2064 61.0871 58.7533C61.6192 60.5215 60.0353 62.0409 58.2808 61.4675C56.8798 61.0014 55.5055 60.4589 54.164 59.8423C51.5333 61.5018 48.4854 62.3801 45.375 62.375C36.2629 62.375 28.875 54.9871 28.875 45.875Z" fill="#FDFDFD" fill-opacity="0.05"/>
<path id="Union_2" d="M58.575 26.625C56.0271 14.0726 44.9295 4.625 31.625 4.625C16.4368 4.625 4.125 16.9368 4.125 32.125C4.125 37.3445 5.57975 42.2244 8.10425 46.3824C6.87913 49.3207 5.632 52.794 4.8345 55.9868C4.38763 57.7784 5.95925 59.2881 7.7385 58.7945C10.8226 57.9379 14.2161 56.6908 17.1407 55.5055C19.8996 57.2197 22.9419 58.4284 26.125 59.075" stroke="#E9EAEC" stroke-width="3" stroke-linecap="round" stroke-linejoin="round"/>
<path id="Union_3" d="M28.875 45.875C28.875 36.7629 36.2629 29.375 45.375 29.375C54.4871 29.375 61.875 36.7629 61.875 45.875C61.875 49.0416 60.984 51.9993 59.4371 54.51C60.0298 55.764 60.6196 57.2064 61.0871 58.7533C61.6192 60.5215 60.0353 62.0409 58.2808 61.4675C56.8798 61.0014 55.5055 60.4589 54.164 59.8423C51.5333 61.5018 48.4854 62.3801 45.375 62.375C36.2629 62.375 28.875 54.9871 28.875 45.875Z" stroke="#E9EAEC" stroke-width="3" stroke-linejoin="round"/>
</g>
</g>
</svg>
