<svg width="66" height="67" viewBox="0 0 66 67" fill="none" xmlns="http://www.w3.org/2000/svg">
<g id="code-monitor-2 1">
<g id="code-monitor-2--code-tags-angle-image-ui-ux-design">
<path id="Union" d="M38.4977 48.6289H27.4977L26.564 53.2929C26.4394 53.9163 26.1027 54.4773 25.6111 54.8804C25.1195 55.2835 24.5034 55.5038 23.8677 55.5039H22.6288C21.675 55.5038 20.7508 55.8343 20.0132 56.4389C19.2757 57.0436 18.7705 57.8852 18.5835 58.8204L18.5299 59.0899C18.4502 59.4888 18.4599 59.9005 18.5585 60.2952C18.6571 60.6899 18.842 61.0578 19.0999 61.3724C19.3578 61.687 19.6823 61.9405 20.05 62.1145C20.4177 62.2886 20.8195 62.3789 21.2263 62.3789H44.7663C45.1732 62.3791 45.5751 62.2889 45.943 62.115C46.3109 61.941 46.6355 61.6876 46.8936 61.3729C47.1517 61.0583 47.3367 60.6903 47.4354 60.2955C47.534 59.9007 47.5438 59.4889 47.464 59.0899L47.409 58.8204C47.2222 57.8856 46.7174 57.0444 45.9804 56.4398C45.2434 55.8352 44.3198 55.5045 43.3665 55.5039H42.1263C41.4905 55.5038 40.8745 55.2835 40.3829 54.8804C39.8913 54.4773 39.5545 53.9163 39.4299 53.2929L38.4977 48.6289Z" fill="#FDFDFD" fill-opacity="0.05"/>
<path id="Rectangle 1096" d="M4.7355 41.8105C5.05862 45.2865 7.8155 47.8399 11.2998 48.0571C15.7341 48.3321 22.8333 48.625 33 48.625C43.1668 48.625 50.2659 48.3335 54.7003 48.0571C58.1845 47.8399 60.9414 45.2865 61.2645 41.8105C61.5807 38.406 61.875 33.4134 61.875 26.625C61.875 19.8366 61.5807 14.844 61.2645 11.4395C60.9414 7.9635 58.1845 5.41013 54.7003 5.19288C50.2659 4.91788 43.1668 4.625 33 4.625C22.8333 4.625 15.7341 4.91788 11.2998 5.19288C7.8155 5.41013 5.05862 7.9635 4.7355 11.4395C4.41925 14.844 4.125 19.8366 4.125 26.625C4.125 33.4134 4.41925 38.406 4.7355 41.8105Z" fill="#FDFDFD" fill-opacity="0.05"/>
<path id="Intersect" d="M24.0625 4.70703V48.542C19.8053 48.471 15.5501 48.3091 11.2998 48.0567C7.8155 47.8394 5.05862 45.286 4.7355 41.8114C4.41925 38.4055 4.125 33.4129 4.125 26.6245C4.125 19.8362 4.41925 14.8435 4.7355 11.439C5.05862 7.96303 7.8155 5.40966 11.2998 5.19241C14.2973 5.00678 18.5089 4.81291 24.0625 4.70703Z" fill="#FDFDFD" fill-opacity="0.05"/>
<path id="Union_2" d="M38.4977 48.6289L39.4299 53.2929C39.5545 53.9163 39.8913 54.4773 40.3829 54.8804C40.8745 55.2835 41.4905 55.5038 42.1263 55.5039H43.3652C44.3189 55.5038 45.2432 55.8343 45.9807 56.4389C46.7182 57.0436 47.2235 57.8852 47.4104 58.8204L47.4654 59.0899C47.5452 59.4889 47.5354 59.9007 47.4367 60.2955C47.3381 60.6903 47.1531 61.0583 46.895 61.3729C46.6369 61.6876 46.3122 61.941 45.9444 62.115C45.5765 62.2889 45.1746 62.3791 44.7677 62.3789H21.2277C20.8207 62.3791 20.4188 62.2889 20.0509 62.115C19.6831 61.941 19.3584 61.6876 19.1003 61.3729C18.8422 61.0583 18.6572 60.6903 18.5586 60.2955C18.4599 59.9007 18.4501 59.4889 18.5299 59.0899L18.5849 58.8204C18.7718 57.8854 19.2768 57.044 20.0141 56.4394C20.7513 55.8347 21.6753 55.5042 22.6288 55.5039H23.8663C24.5023 55.5042 25.1187 55.284 25.6105 54.8808C26.1024 54.4777 26.4394 53.9165 26.564 53.2929L27.4977 48.6289" stroke="#E9EAEC" stroke-width="4.1875" stroke-linejoin="round"/>
<path id="Rectangle 1095" d="M4.7355 41.8105C5.05863 45.2865 7.8155 47.8399 11.2998 48.0571C15.7341 48.3321 22.8332 48.625 33 48.625C43.1668 48.625 50.2659 48.3335 54.7003 48.0571C58.1845 47.8399 60.9414 45.2865 61.2645 41.8105C61.5807 38.406 61.875 33.4134 61.875 26.625C61.875 19.8366 61.5807 14.844 61.2645 11.4395C60.9414 7.9635 58.1845 5.41013 54.7003 5.19288C50.2659 4.91788 43.1668 4.625 33 4.625C22.8332 4.625 15.7341 4.91788 11.2998 5.19288C7.8155 5.41013 5.05863 7.9635 4.7355 11.4395C4.41925 14.844 4.125 19.8366 4.125 26.625C4.125 33.4134 4.41925 38.406 4.7355 41.8105Z" stroke="#E9EAEC" stroke-width="4.1875" stroke-linejoin="round"/>
<path id="Vector 1666" d="M24.0625 5.3125V47.9375" stroke="#E9EAEC" stroke-width="4.1875" stroke-linecap="round" stroke-linejoin="round"/>
<path id="Vector 1668" d="M12.375 15.625H16.5" stroke="#E9EAEC" stroke-width="4.1875" stroke-linecap="round" stroke-linejoin="round"/>
<path id="Vector 1671" d="M31.625 15.625H53.625" stroke="#E9EAEC" stroke-width="4.1875" stroke-linecap="round" stroke-linejoin="round"/>
<path id="Vector 1669" d="M12.375 25.25H16.5" stroke="#E9EAEC" stroke-width="4.1875" stroke-linecap="round" stroke-linejoin="round"/>
<path id="Vector 1672" d="M31.625 25.25H53.625" stroke="#E9EAEC" stroke-width="4.1875" stroke-linecap="round" stroke-linejoin="round"/>
<path id="Vector 1674" d="M31.625 34.875H48.125" stroke="#E9EAEC" stroke-width="4.1875" stroke-linecap="round" stroke-linejoin="round"/>
</g>
</g>
</svg>
