<svg width="66" height="67" viewBox="0 0 66 67" fill="none" xmlns="http://www.w3.org/2000/svg">
<g id="cog-5 1">
<g id="cog--work-loading-cog-gear-settings-machine">
<path id="Union" d="M26.3437 6.49775C26.5019 6.16775 26.7301 5.87762 27.0546 5.70712C27.8246 5.30287 29.6231 4.625 33.0029 4.625C36.3826 4.625 38.1797 5.30287 38.9497 5.70712C39.2742 5.87762 39.5025 6.16775 39.662 6.49775C40.1226 7.46025 41.1497 9.6795 41.9211 11.8877C43.8268 12.6754 45.6199 13.712 47.2534 14.9705C49.5524 14.5346 51.993 14.3146 53.0586 14.2321C53.423 14.2046 53.7887 14.2569 54.0981 14.4521C54.8337 14.9183 56.3201 16.1351 58.0086 19.0625C59.6998 21.9899 60.0106 23.8846 60.0463 24.755C60.0601 25.1207 59.924 25.4631 59.7164 25.7656C59.1127 26.647 57.7034 28.649 56.1771 30.4214C56.4461 32.465 56.4461 34.535 56.1771 36.5786C57.7034 38.3524 59.1127 40.353 59.7164 41.2344C59.9226 41.5369 60.0601 41.8806 60.0463 42.245C60.0106 43.1154 59.6985 45.0101 58.0086 47.9375C56.3187 50.8649 54.8323 52.0818 54.0981 52.5479C53.7887 52.7431 53.4243 52.7954 53.0572 52.7679C51.9916 52.6854 49.5524 52.4654 47.2547 52.0295C45.6213 53.2886 43.8283 54.3256 41.9225 55.1136C41.1497 57.3205 40.1226 59.5384 39.662 60.5036C39.5025 60.8336 39.2742 61.1224 38.9497 61.2929C38.1797 61.6971 36.3826 62.375 33.0029 62.375C29.6231 62.375 27.826 61.6971 27.0546 61.2929C26.7301 61.1224 26.5019 60.8336 26.3437 60.5023C25.8831 59.5397 24.8546 57.3205 24.0832 55.1122C22.1775 54.3246 20.3845 53.288 18.751 52.0295C16.452 52.4654 14.0127 52.6854 12.9485 52.7679C12.5827 52.7954 12.217 52.7431 11.9076 52.5479C11.172 52.0818 9.6856 50.8649 7.99573 47.9375C6.30585 45.0101 5.9951 43.1154 5.96073 42.245C5.94423 41.8792 6.08173 41.5369 6.28935 41.2344C6.89298 40.353 8.30235 38.351 9.8286 36.5786C9.55964 34.535 9.55964 32.465 9.8286 30.4214C8.30235 28.6476 6.89298 26.647 6.28798 25.7656C6.08173 25.4631 5.94423 25.1194 5.95798 24.755C5.9951 23.8846 6.30585 21.9899 7.99573 19.0625C9.68698 16.1351 11.172 14.9183 11.9062 14.4521C12.217 14.2569 12.5814 14.2046 12.9471 14.2321C14.0127 14.3146 16.4534 14.5346 18.751 14.9705C20.3844 13.7115 22.1774 12.6744 24.0832 11.8864C24.8546 9.6795 25.8831 7.46162 26.3437 6.49775Z" fill="#FDFDFD" fill-opacity="0.05"/>
<path id="Ellipse 541" d="M19.25 33.5C19.25 37.1467 20.6987 40.6441 23.2773 43.2227C25.8559 45.8013 29.3533 47.25 33 47.25C36.6467 47.25 40.1441 45.8013 42.7227 43.2227C45.3013 40.6441 46.75 37.1467 46.75 33.5C46.75 29.8533 45.3013 26.3559 42.7227 23.7773C40.1441 21.1987 36.6467 19.75 33 19.75C29.3533 19.75 25.8559 21.1987 23.2773 23.7773C20.6987 26.3559 19.25 29.8533 19.25 33.5Z" fill="#FDFDFD" fill-opacity="0.05"/>
<path id="Union_2" d="M26.3437 6.49775C26.5019 6.16775 26.7301 5.87762 27.0546 5.70712C27.8246 5.30287 29.6231 4.625 33.0029 4.625C36.3826 4.625 38.1797 5.30287 38.9497 5.70712C39.2742 5.87762 39.5025 6.16775 39.662 6.49775C40.1226 7.46025 41.1497 9.6795 41.9211 11.8877C43.8268 12.6754 45.6199 13.712 47.2534 14.9705C49.5524 14.5346 51.993 14.3146 53.0586 14.2321C53.423 14.2046 53.7887 14.2569 54.0981 14.4521C54.8337 14.9183 56.3201 16.1351 58.0086 19.0625C59.6998 21.9899 60.0106 23.8846 60.0463 24.755C60.0601 25.1207 59.924 25.4631 59.7164 25.7656C59.1127 26.647 57.7033 28.649 56.1771 30.4214C56.4461 32.465 56.4461 34.535 56.1771 36.5786C57.7033 38.3524 59.1127 40.353 59.7164 41.2344C59.9226 41.5369 60.0601 41.8806 60.0463 42.245C60.0106 43.1154 59.6985 45.0101 58.0086 47.9375C56.3187 50.8649 54.8323 52.0818 54.0981 52.5479C53.7887 52.7431 53.4243 52.7954 53.0572 52.7679C51.9916 52.6854 49.5524 52.4654 47.2547 52.0295C45.6213 53.2886 43.8283 54.3256 41.9225 55.1136C41.1497 57.3205 40.1226 59.5384 39.662 60.5036C39.5025 60.8336 39.2742 61.1224 38.9497 61.2929C38.1797 61.6971 36.3826 62.375 33.0029 62.375C29.6231 62.375 27.826 61.6971 27.0546 61.2929C26.7301 61.1224 26.5019 60.8336 26.3437 60.5023C25.8831 59.5398 24.8546 57.3205 24.0832 55.1122C22.1775 54.3246 20.3845 53.288 18.751 52.0295C16.452 52.4654 14.0127 52.6854 12.9485 52.7679C12.5827 52.7954 12.217 52.7431 11.9076 52.5479C11.172 52.0818 9.6856 50.8649 7.99573 47.9375C6.30585 45.0101 5.9951 43.1154 5.96073 42.245C5.94423 41.8793 6.08173 41.5369 6.28935 41.2344C6.89298 40.353 8.30235 38.351 9.8286 36.5786C9.55964 34.535 9.55964 32.465 9.8286 30.4214C8.30235 28.6476 6.89298 26.647 6.28798 25.7656C6.08173 25.4631 5.94423 25.1194 5.95798 24.755C5.9951 23.8846 6.30585 21.9899 7.99573 19.0625C9.68698 16.1351 11.172 14.9183 11.9062 14.4521C12.217 14.2569 12.5814 14.2046 12.9471 14.2321C14.0127 14.3146 16.4534 14.5346 18.751 14.9705C20.3844 13.7115 22.1774 12.6744 24.0832 11.8864C24.8546 9.6795 25.8831 7.46162 26.3437 6.49775Z" stroke="#E9EAEC" stroke-width="3" stroke-linecap="round" stroke-linejoin="round"/>
<path id="Ellipse 540" d="M19.25 33.5C19.25 37.1467 20.6987 40.6441 23.2773 43.2227C25.8559 45.8013 29.3533 47.25 33 47.25C36.6467 47.25 40.1441 45.8013 42.7227 43.2227C45.3013 40.6441 46.75 37.1467 46.75 33.5C46.75 29.8533 45.3013 26.3559 42.7227 23.7773C40.1441 21.1987 36.6467 19.75 33 19.75C29.3533 19.75 25.8559 21.1987 23.2773 23.7773C20.6987 26.3559 19.25 29.8533 19.25 33.5Z" stroke="#E9EAEC" stroke-width="3" stroke-linecap="round" stroke-linejoin="round"/>
</g>
</g>
</svg>
