<svg width="55" height="55" viewBox="0 0 55 55" fill="none" xmlns="http://www.w3.org/2000/svg">
<path d="M29.9341 51.4246C28.4885 51.5754 27.1959 50.5989 27.2071 49.1454C27.215 48.2116 27.35 47.0585 27.7696 45.776C28.1409 44.6431 29.2456 43.9839 30.4179 43.7679C32.7131 43.3487 34.8896 42.4348 36.796 41.0896C38.7025 39.7445 40.2931 38.0003 41.4575 35.9784C44.9472 29.9349 44.0742 22.5706 39.8161 17.5295C38.9941 18.1645 38.1565 18.7789 37.304 19.3722C35.7582 20.441 33.9132 19.442 33.9402 17.5621C33.9819 14.6214 34.3227 11.4252 34.694 8.7455C34.8039 7.95037 35.2055 7.2245 35.8207 6.7089C36.4359 6.19329 37.2208 5.92477 38.0229 5.9555C40.7476 6.0545 43.9842 6.27725 46.9047 6.75425C48.7396 7.0535 49.3966 9.00425 48.0905 10.3272C47.2786 11.1452 46.4439 11.9401 45.5874 12.7111C51.8086 20.1024 53.0776 30.8866 47.9679 39.7381C44.0304 46.5556 37.2095 50.6697 29.9341 51.4269V51.4246Z" fill="#FDFDFD" fill-opacity="0.2"/>
<path d="M25.073 4.42937C26.5186 4.27862 27.8112 5.25624 27.7988 6.70974C27.7861 7.85515 27.5964 8.9917 27.2363 10.0791C26.8651 11.2109 25.7615 11.8712 24.5892 12.0872C22.294 12.5063 20.1176 13.42 18.2112 14.765C16.3048 16.1099 14.7141 17.8539 13.5496 19.8756C10.0598 25.9191 10.9328 33.2845 15.1898 38.3256C16.1573 37.5809 16.9921 36.9756 17.7031 36.4829C19.2488 35.413 21.0938 36.412 21.0668 38.2919C21.0252 41.2326 20.6843 44.4287 20.312 47.1085C20.2026 47.9036 19.8015 48.6297 19.1868 49.1457C18.572 49.6617 17.7874 49.9308 16.9853 49.9007C14.2595 49.8017 11.024 49.579 8.10234 49.102C6.26859 48.8016 5.61046 46.8509 6.91659 45.5279C7.72844 44.7103 8.56314 43.9157 9.41971 43.1451C3.19846 35.7527 1.92946 24.9685 7.04034 16.1181C10.9767 9.30062 17.7987 5.18649 25.073 4.42937Z" fill="#FDFDFD" fill-opacity="0.2"/>
<path d="M25.073 4.42937C26.5186 4.27862 27.8112 5.25624 27.7988 6.70974C27.7861 7.85515 27.5964 8.9917 27.2363 10.0791C26.8651 11.2109 25.7615 11.8712 24.5892 12.0872C22.294 12.5063 20.1176 13.42 18.2112 14.765C16.3048 16.1099 14.7141 17.8539 13.5496 19.8756C10.0598 25.9191 10.9328 33.2845 15.1898 38.3256C16.1573 37.5809 16.9921 36.9756 17.7031 36.4829C19.2488 35.413 21.0938 36.412 21.0668 38.2919C21.0252 41.2326 20.6843 44.4287 20.312 47.1085C20.2026 47.9036 19.8015 48.6297 19.1868 49.1457C18.572 49.6617 17.7874 49.9308 16.9853 49.9007C14.2595 49.8017 11.024 49.579 8.10234 49.102C6.26859 48.8016 5.61046 46.8509 6.91659 45.5279C7.72844 44.7103 8.56314 43.9157 9.41971 43.1451C3.19846 35.7527 1.92946 24.9685 7.04034 16.1181C10.9767 9.30062 17.7987 5.18649 25.073 4.42937Z" stroke="#E9EAEC" stroke-width="3.375" stroke-linecap="round" stroke-linejoin="round"/>
<path d="M29.933 51.4257C28.4874 51.5765 27.1947 50.5999 27.2071 49.1464C27.215 48.2127 27.35 47.0596 27.7696 45.7771C28.1409 44.6442 29.2445 43.985 30.4167 43.769C32.7121 43.3501 34.8888 42.4364 36.7954 41.0914C38.702 39.7465 40.2929 38.0024 41.4575 35.9806C44.9461 29.9359 44.0731 22.5706 39.815 17.5306C38.9932 18.1658 38.1556 18.7803 37.3029 19.3733C35.7571 20.4421 33.9121 19.4431 33.9391 17.5632C33.9807 14.6225 34.3216 11.4263 34.6929 8.74658C34.8025 7.95145 35.2038 7.22546 35.8188 6.70965C36.4338 6.19385 37.2185 5.92504 38.0206 5.95545C40.7465 6.05445 43.982 6.2772 46.9036 6.7542C48.7374 7.05345 49.3955 9.0042 48.0894 10.3272C47.2775 11.1451 46.4428 11.9401 45.5862 12.7111C51.8075 20.1023 53.0765 30.8866 47.9656 39.7381C44.0292 46.5556 37.2072 50.6686 29.933 51.4257Z" stroke="#E9EAEC" stroke-width="3.375" stroke-linecap="round" stroke-linejoin="round"/>
</svg>
