<svg width="66" height="67" viewBox="0 0 66 67" fill="none" xmlns="http://www.w3.org/2000/svg">
<g id="user-switch-account-2 1">
<g id="user-switch-account">
<path id="Rectangle 1631" d="M4.46236 17.5227C4.26183 17.5543 4.07253 17.6361 3.91206 17.7604C3.75158 17.8847 3.62514 18.0476 3.54448 18.2339C3.46381 18.4202 3.43155 18.6239 3.45067 18.826C3.46979 19.0281 3.53969 19.2221 3.65386 19.3899C5.56924 22.2884 8.53924 25.4812 10.0476 27.0391C10.5701 27.5781 11.4226 27.5753 11.9424 27.0336C13.3889 25.5211 16.2007 22.4548 18.266 19.4298C18.3863 19.2598 18.4614 19.062 18.4841 18.8549C18.5068 18.6479 18.4764 18.4385 18.3958 18.2464C18.3152 18.0544 18.187 17.886 18.0233 17.7573C17.8596 17.6285 17.6659 17.5435 17.4602 17.5103C13.5057 16.8256 8.40174 16.8283 4.46236 17.5227Z" fill="#FDFDFD" fill-opacity="0.05"/>
<path id="Rectangle 1632" d="M61.5369 49.4779C61.7374 49.4463 61.9267 49.3646 62.0872 49.2402C62.2477 49.1159 62.3741 48.953 62.4548 48.7667C62.5354 48.5804 62.5677 48.3767 62.5486 48.1746C62.5295 47.9725 62.4596 47.7785 62.3454 47.6107C60.43 44.7122 57.46 41.5194 55.9516 39.9615C55.829 39.8337 55.6817 39.7321 55.5187 39.6628C55.3556 39.5935 55.1802 39.5581 55.0031 39.5586C54.8259 39.5591 54.6507 39.5956 54.4881 39.6658C54.3255 39.736 54.1788 39.8385 54.0569 39.967C52.6104 41.4795 49.7985 44.5458 47.7333 47.5708C47.6129 47.7408 47.5378 47.9386 47.5151 48.1457C47.4924 48.3527 47.5228 48.5621 47.6034 48.7542C47.684 48.9462 47.8122 49.1146 47.9759 49.2434C48.1396 49.3721 48.3334 49.4571 48.539 49.4903C52.4935 50.175 57.5961 50.1723 61.5369 49.4779Z" fill="#FDFDFD" fill-opacity="0.05"/>
<path id="Union" d="M20.7997 50.166C22.3373 49.227 23.5253 47.8105 24.1822 46.1328C24.8391 44.4552 24.9287 42.6086 24.4374 40.8752C23.946 39.1418 22.9008 37.6169 21.4613 36.5334C20.0218 35.45 18.2672 34.8675 16.4655 34.8751C14.6639 34.8826 12.9142 35.4797 11.4838 36.5752C10.0534 37.6707 9.02098 39.2043 8.54419 40.9417C8.06739 42.6792 8.17247 44.5249 8.84336 46.1971C9.51425 47.8692 10.7141 49.2757 12.2595 50.2018C8.19504 51.7033 5.09579 55.2618 4.17317 59.6439C3.85967 61.1289 5.12192 62.3746 6.63992 62.3746H26.5197C28.039 62.3746 29.2999 61.1303 28.9864 59.6439C28.0555 55.226 24.9137 51.6455 20.7997 50.166Z" fill="#FDFDFD" fill-opacity="0.05"/>
<path id="Union_2" d="M45.1998 19.9153C43.6623 18.9761 42.4745 17.5594 41.8179 15.8816C41.1613 14.2038 41.072 12.3572 41.5636 10.6239C42.0552 8.89061 43.1007 7.36587 44.5404 6.28264C45.98 5.19941 47.7348 4.61725 49.5364 4.62508C51.3381 4.63291 53.0876 5.23031 54.5179 6.32602C55.9481 7.42172 56.9803 8.95549 57.4568 10.693C57.9333 12.4305 57.8279 14.2763 57.1567 15.9483C56.4856 17.6203 55.2855 19.0266 53.7399 19.9524C57.8044 21.4526 60.9037 25.0111 61.8263 29.3932C62.1398 30.8782 60.8776 32.1239 59.3596 32.1239H39.4798C37.9604 32.1239 36.6996 30.8796 37.0131 29.3932C37.9439 24.9753 41.0858 21.3948 45.1998 19.9153Z" fill="#FDFDFD" fill-opacity="0.05"/>
<path id="Union_3" d="M45.1998 19.9153C43.6623 18.9761 42.4745 17.5594 41.8179 15.8816C41.1613 14.2038 41.072 12.3572 41.5636 10.6239C42.0552 8.89061 43.1007 7.36587 44.5404 6.28264C45.98 5.19941 47.7348 4.61725 49.5364 4.62508C51.3381 4.63291 53.0876 5.23031 54.5179 6.32602C55.9481 7.42172 56.9803 8.95549 57.4568 10.693C57.9333 12.4305 57.8279 14.2763 57.1567 15.9483C56.4856 17.6203 55.2855 19.0266 53.7399 19.9524C57.8044 21.4526 60.9037 25.0111 61.8263 29.3932C62.1398 30.8782 60.8776 32.1239 59.3596 32.1239H39.4798C37.9604 32.1239 36.6996 30.8796 37.0131 29.3932C37.9439 24.9753 41.0858 21.3948 45.1998 19.9153Z" stroke="#E9EAEC" stroke-width="3" stroke-linecap="round" stroke-linejoin="round"/>
<path id="Union_4" d="M20.7997 50.166C22.3373 49.227 23.5253 47.8105 24.1822 46.1328C24.8391 44.4552 24.9287 42.6086 24.4374 40.8752C23.946 39.1418 22.9008 37.6169 21.4613 36.5334C20.0218 35.45 18.2672 34.8675 16.4655 34.8751C14.6639 34.8826 12.9142 35.4797 11.4838 36.5752C10.0534 37.6707 9.02098 39.2043 8.54419 40.9417C8.06739 42.6792 8.17247 44.5249 8.84336 46.1971C9.51425 47.8692 10.7141 49.2757 12.2595 50.2018C8.19504 51.7033 5.09579 55.2618 4.17317 59.6439C3.85967 61.1289 5.12192 62.3746 6.63992 62.3746H26.5197C28.039 62.3746 29.2999 61.1303 28.9864 59.6439C28.0555 55.226 24.9137 51.6455 20.7997 50.166Z" stroke="#E9EAEC" stroke-width="3" stroke-linecap="round" stroke-linejoin="round"/>
<path id="Vector" d="M4.46361 17.5227C4.26295 17.5541 4.07349 17.6357 3.91285 17.76C3.7522 17.8842 3.62559 18.0471 3.54478 18.2334C3.46396 18.4198 3.43157 18.6235 3.45062 18.8257C3.46967 19.0279 3.53954 19.222 3.65373 19.3899C5.57048 22.2884 8.53911 25.4812 10.0489 27.0391C10.5714 27.5781 11.4239 27.5753 11.9436 27.0336C13.3901 25.5211 16.202 22.4548 18.2659 19.4298C18.3858 19.2598 18.4606 19.0621 18.4832 18.8553C18.5058 18.6485 18.4754 18.4393 18.395 18.2474C18.3146 18.0555 18.1867 17.8872 18.0235 17.7583C17.8602 17.6294 17.6668 17.544 17.4615 17.5103C13.507 16.8256 8.40298 16.8283 4.46361 17.5227Z" stroke="#E9EAEC" stroke-width="3" stroke-linecap="round" stroke-linejoin="round"/>
<path id="Vector_2" d="M34.3736 4.62775L33.0715 4.625C26.2914 4.625 21.2932 4.86013 17.8736 5.11588C14.3605 5.37713 11.6985 8.08175 11.4565 11.5962C11.3352 13.396 11.2403 15.1975 11.1719 17" stroke="#E9EAEC" stroke-width="3" stroke-linecap="round" stroke-linejoin="round"/>
<path id="Vector_3" d="M61.5356 49.4779C61.7363 49.4465 61.9258 49.3649 62.0864 49.2406C62.247 49.1164 62.3737 48.9535 62.4545 48.7672C62.5353 48.5809 62.5677 48.3771 62.5486 48.1749C62.5296 47.9727 62.4597 47.7786 62.3455 47.6107C60.4288 44.7122 57.4601 41.5194 55.9504 39.9615C55.8278 39.8337 55.6805 39.7321 55.5174 39.6628C55.3544 39.5935 55.179 39.5581 55.0018 39.5586C54.8247 39.5591 54.6495 39.5956 54.4869 39.6658C54.3242 39.736 54.1775 39.8385 54.0556 39.967C52.6105 41.4795 49.7973 44.5458 47.7334 47.5708C47.6131 47.7407 47.538 47.9384 47.5152 48.1454C47.4924 48.3523 47.5227 48.5617 47.6031 48.7537C47.6836 48.9457 47.8116 49.1141 47.9751 49.2429C48.1386 49.3718 48.3323 49.4569 48.5378 49.4903C52.4923 50.175 57.5963 50.1723 61.5356 49.4779Z" stroke="#E9EAEC" stroke-width="3" stroke-linecap="round" stroke-linejoin="round"/>
<path id="Vector_4" d="M37.125 62.3434C41.8179 62.2705 45.4506 62.0835 48.1209 61.8855C51.6354 61.6243 54.2974 58.921 54.5394 55.4051C54.6425 53.9105 54.7429 52.1134 54.8268 50" stroke="#E9EAEC" stroke-width="3" stroke-linecap="round" stroke-linejoin="round"/>
</g>
</g>
</svg>
